<?xml version="1.0" standalone="no"?>
<!DOCTYPE svg PUBLIC "-//W3C//DTD SVG 20010904//EN" "http://www.w3.org/TR/2001/REC-SVG-20010904/DTD/svg10.dtd">
<!-- Created using Krita: https://krita.org -->
<svg xmlns="http://www.w3.org/2000/svg" 
    xmlns:xlink="http://www.w3.org/1999/xlink"
    xmlns:krita="http://krita.org/namespaces/svg/krita"
    xmlns:sodipodi="http://sodipodi.sourceforge.net/DTD/sodipodi-0.dtd"
    width="36pt"
    height="36pt"
    viewBox="0 0 36 36">
<defs/>
<path id="shape0" transform="matrix(0.03515625 0 0 0.03515625 10.393984646722 3.24851063866497)" fill="#0e2b33" stroke-opacity="0" stroke="#000000" stroke-width="0" stroke-linecap="square" stroke-linejoin="bevel" d="M384.119 800.308C389.392 800.401 395.079 800.381 401.179 800.248C405.299 800.161 408.469 800.568 410.689 801.468C415.949 803.598 420.779 810.198 420.289 816.268C419.669 823.858 412.349 829.318 404.999 829.328C277.499 829.355 146.952 829.355 13.3589 829.328C8.63888 829.328 4.09888 825.978 1.87888 822.058C-2.73112 813.888 1.52888 803.918 10.4389 801.028C11.9855 800.528 13.9555 800.285 16.3489 800.298C22.1289 800.338 27.6889 800.265 33.0289 800.078C33.1769 800.076 33.3188 800.017 33.4263 799.913C33.5337 799.809 33.5989 799.668 33.6089 799.518C33.7489 797.391 34.0889 795.351 34.6289 793.398C38.5755 779.138 46.7822 768.285 59.2489 760.838C67.2389 756.068 77.9989 753.418 87.8689 753.798C91.7089 753.938 95.6189 754.578 99.3589 753.338C121.612 745.945 138.126 732.518 148.899 713.058C160.649 691.848 162.149 664.098 156.689 640.298C150.949 615.338 135.539 594.358 113.659 581.418C104.759 576.151 97.1322 571.378 90.7789 567.098C79.8722 559.751 69.4389 550.391 59.4789 539.018C41.7922 518.825 28.7222 496.301 20.2689 471.448C13.2089 450.695 9.41555 429.945 8.88888 409.198C8.39555 389.938 9.51888 370.588 12.2589 351.148C15.7689 326.188 18.7489 301.968 22.2689 277.258C23.1955 270.798 23.9055 264.308 24.3989 257.788C25.2922 245.915 26.1489 234.441 26.9689 223.368C28.2189 206.548 28.2189 189.968 28.2289 172.948C28.229 172.665 28.1641 172.386 28.0392 172.133C27.9143 171.88 27.7328 171.659 27.5089 171.488C4.71888 154.278 -3.35112 123.728 10.2489 97.8679C21.8189 75.8479 44.3589 62.0579 69.5789 63.3579C72.9922 63.5379 76.3389 64.1179 79.6189 65.0979C79.7826 65.1468 79.9567 65.1513 80.1235 65.1109C80.2903 65.0705 80.4439 64.9867 80.5689 64.8679C95.3422 50.8279 113.322 44.9613 134.509 47.2679C134.656 47.2852 134.804 47.2536 134.932 47.1778C135.061 47.102 135.161 46.9862 135.219 46.8479C136.972 42.6213 139.372 38.5079 142.419 34.5079C153.299 20.2379 166.749 9.32792 184.089 3.97792C204.569 -2.34875 224.312 -1.12875 243.319 7.63792C258.599 14.6779 272.559 26.6579 280.469 41.6579C280.596 41.9046 280.792 41.9846 281.059 41.8979C289.839 38.9646 299.389 37.9446 309.709 38.8379C326.729 40.3079 342.309 50.4379 353.989 63.2879C354.516 63.8679 355.166 64.1746 355.939 64.2079C361.419 64.4546 366.656 65.5513 371.649 67.4979C392.199 75.5079 406.519 91.1379 411.669 112.968C413.189 119.421 413.456 125.841 412.469 132.228C409.882 148.975 401.956 162.205 388.689 171.918C387.729 172.628 387.729 173.468 387.719 174.528C387.586 191.895 387.899 207.108 388.659 220.168C389.549 235.238 390.999 253.908 393.189 270.758C396.622 297.205 400.169 324.231 403.829 351.838C404.689 358.351 405.536 366.615 406.369 376.628C407.042 384.655 407.406 391.321 407.459 396.628C407.679 420.268 404.476 443.035 397.849 464.928C386.419 502.718 363.929 536.538 333.029 561.268C324.009 568.498 312.959 575.088 302.869 581.488C297.502 584.888 292.979 588.131 289.299 591.218C265.139 611.508 255.039 640.758 256.429 672.398C258.039 709.018 277.959 738.488 312.639 751.718C317.389 753.528 321.449 754.508 326.659 754.038C338.269 753.008 349.089 755.608 359.129 762.058C371.639 770.088 381.589 784.038 383.299 799.558C383.352 800.045 383.626 800.295 384.119 800.308ZM34.9389 123.938C34.6255 130.038 36.5689 135.461 40.7689 140.208C42.9155 142.635 45.5089 143.855 48.5489 143.868C57.4489 143.895 67.6722 143.898 79.2189 143.878C80.8589 143.878 81.9889 142.308 82.5389 140.958C82.6855 140.585 82.6522 140.231 82.4389 139.898C80.5522 136.978 80.8189 134.321 83.2389 131.928C87.7189 127.508 91.8289 130.808 94.8789 134.678C97.7389 138.308 103.749 143.708 108.819 143.768C117.746 143.855 126.882 143.871 136.229 143.818C142.909 143.768 150.429 136.098 154.769 131.618C156.269 130.068 158.029 129.188 160.259 129.608C164.159 130.328 166.106 132.778 166.099 136.958C166.099 138.248 165.299 139.248 164.549 140.218C164.261 140.59 164.13 141.06 164.184 141.527C164.239 141.994 164.474 142.422 164.839 142.718C166.006 143.678 167.326 144.148 168.799 144.128C196.979 143.828 224.629 143.751 251.749 143.898C253.509 143.905 255.106 143.581 256.539 142.928C256.721 142.847 256.872 142.708 256.969 142.533C257.065 142.358 257.101 142.155 257.073 141.955C257.044 141.756 256.951 141.571 256.809 141.428C253.879 138.498 254.059 132.908 257.859 130.608C262.999 127.498 266.539 130.248 269.939 133.818C274.619 138.718 280.959 143.828 287.779 143.838C296.859 143.865 305.789 143.868 314.569 143.848C321.399 143.828 328.259 136.098 332.759 131.638C335.086 129.338 337.459 128.821 339.879 130.088C343.819 132.161 344.612 135.195 342.259 139.188C342.08 139.495 341.983 139.844 341.98 140.198C341.976 140.552 342.066 140.901 342.239 141.208C343.319 143.118 344.959 144.088 347.179 144.068C354.066 144.001 361.086 143.928 368.239 143.848C370.352 143.821 372.149 143.235 373.629 142.088C379.589 137.488 382.416 131.278 382.109 123.458C381.969 109.928 371.589 99.2079 359.169 95.4779C358.953 95.4151 358.724 95.4137 358.51 95.4738C358.296 95.534 358.105 95.6534 357.959 95.8179C355.212 98.9446 351.706 100.435 347.439 100.288C341.069 100.068 338.009 96.4579 335.789 91.1479C332.202 82.5946 326.232 76.3279 317.879 72.3479C307.626 67.4546 296.802 67.5779 285.409 72.7179C282.069 74.2179 279.519 77.4279 276.309 79.4679C269.159 84.0279 261.339 79.8879 260.179 71.8979C258.606 61.0979 253.279 51.6813 244.199 43.6479C217.109 19.6679 175.399 28.6579 160.839 61.6279C158.766 66.3279 157.699 70.8946 157.639 75.3279C157.559 80.8679 155.339 86.2279 149.929 88.1679C144.262 90.2146 139.372 89.0513 135.259 84.6779C133.749 83.0679 132.859 81.0279 131.499 79.3379C131.286 79.0646 131.012 78.8779 130.679 78.7779C128.472 78.1113 126.346 77.8213 124.299 77.9079C113.326 78.3813 104.429 83.1579 97.6089 92.2379C94.2189 96.7479 94.0089 102.468 90.0089 106.458C86.8589 109.588 81.6689 110.618 77.7089 108.488C73.0155 105.968 70.9422 101.938 71.4889 96.3979C71.5755 95.5313 71.1922 95.0446 70.3389 94.9379C59.7789 93.5446 50.8422 96.5046 43.5289 103.818C38.0555 109.291 35.1922 115.998 34.9389 123.938ZM70.3189 172.868L60.5489 172.868C60.0022 172.868 59.7255 173.141 59.7189 173.688C59.4855 194.395 58.5655 214.878 56.9589 235.138C56.6655 238.818 56.5355 242.431 56.5689 245.978C56.5689 246.378 56.7689 246.578 57.1689 246.578L287.389 246.598L306.739 246.558L315.789 246.558C316.622 246.558 317.009 246.145 316.949 245.318C315.196 221.491 313.862 197.675 312.949 173.868C312.939 173.596 312.822 173.339 312.625 173.151C312.427 172.963 312.163 172.858 311.889 172.858L302.559 172.868L102.799 172.818L85.9489 172.788ZM345.659 172.918L336.369 172.938C335.276 172.938 334.742 173.485 334.769 174.578C335.302 197.585 336.822 220.561 339.329 243.508C339.429 244.421 339.629 245.291 339.929 246.118C339.981 246.258 340.075 246.379 340.199 246.463C340.322 246.547 340.469 246.591 340.619 246.588L349.349 246.478L358.959 246.388C359.056 246.388 359.152 246.362 359.234 246.311C359.317 246.259 359.384 246.186 359.427 246.099C359.47 246.012 359.488 245.915 359.479 245.818C358.169 231.648 357.729 217.678 356.929 203.398C356.396 193.905 356.209 183.971 356.369 173.598C356.371 173.466 356.337 173.335 356.273 173.221C356.208 173.106 356.114 173.011 356.001 172.945C355.888 172.88 355.759 172.846 355.629 172.848ZM285.139 272.498L66.0789 272.778L56.5789 272.838C56.2688 272.842 55.9676 272.941 55.7169 273.122C55.4662 273.302 55.2782 273.556 55.1789 273.848C53.5922 278.475 52.3889 283.555 51.5689 289.088C50.7689 294.528 50.0622 299.925 49.4489 305.278C45.8889 336.418 40.7589 367.688 40.1089 398.048C39.6822 418.115 42.5555 438.068 48.7289 457.908C57.0789 484.768 71.6889 508.708 92.4189 527.918C99.6455 535.011 106.386 540.555 112.639 544.548C120.992 549.888 128.172 554.048 134.179 557.028C152.646 566.188 172.619 571.811 194.099 573.898C204.712 574.931 216.622 574.575 229.829 572.828C240.356 571.415 249.986 569.291 258.719 566.458C291.679 555.758 320.169 534.368 341.689 507.238C357.689 487.038 368.109 461.898 373.119 436.298C376.719 417.938 377.099 398.938 375.549 380.068C373.189 351.368 369.499 324.108 365.409 293.848C364.422 286.581 363.209 279.731 361.769 273.298C361.729 273.128 361.634 272.976 361.499 272.867C361.365 272.758 361.199 272.699 361.029 272.698ZM175.049 601.798L173.779 601.438C173.706 601.418 173.627 601.42 173.555 601.444C173.482 601.467 173.419 601.512 173.372 601.571C173.326 601.631 173.299 601.702 173.295 601.776C173.29 601.851 173.309 601.925 173.349 601.988C181.216 615.461 186.096 629.798 187.989 644.998C191.409 672.498 189.379 702.208 176.579 727.128C176.519 727.245 176.501 727.378 176.529 727.506C176.556 727.635 176.626 727.75 176.728 727.832C176.831 727.914 176.958 727.959 177.089 727.958L184.889 727.958L212.439 727.998L239.709 727.978C239.797 727.978 239.883 727.947 239.952 727.892C240.021 727.837 240.069 727.76 240.088 727.674C240.108 727.588 240.097 727.497 240.059 727.418C237.179 721.278 233.859 715.348 231.849 708.858C226.049 690.188 225.419 668.538 227.059 648.518C228.539 630.531 233.812 615.041 242.879 602.048C243.406 601.301 243.229 601.051 242.349 601.298C237.362 602.725 232.109 603.628 226.589 604.008C209.329 605.188 192.149 604.451 175.049 601.798ZM222.789 744.938L176.989 744.988L164.659 745.098C164.465 745.098 164.274 745.14 164.1 745.221C163.925 745.302 163.771 745.421 163.649 745.568C156.089 754.508 148.589 762.038 139.249 767.968C138.469 768.461 138.542 768.711 139.469 768.718L156.889 768.828L252.749 768.818C260.109 768.858 267.559 768.855 275.099 768.808C276.206 768.801 277.269 768.665 278.289 768.398C278.709 768.285 278.732 768.118 278.359 767.898C268.546 762.031 260.359 754.481 253.799 745.248C253.572 744.935 253.266 744.781 252.879 744.788ZM86.8189 800.748L255.819 800.808L353.109 800.688C353.226 800.687 353.341 800.651 353.437 800.584C353.534 800.517 353.608 800.422 353.649 800.312C353.69 800.202 353.697 800.082 353.669 799.968C352.002 793.395 347.412 788.538 339.899 785.398L239.059 785.248C221.492 784.995 203.922 784.911 186.349 784.998C151.302 785.178 116.719 785.111 82.5989 784.798C73.5889 784.718 65.6689 791.198 63.5189 799.828C63.4885 799.952 63.4965 800.082 63.5417 800.201C63.5869 800.32 63.6672 800.423 63.7721 800.496C63.8769 800.568 64.0014 800.608 64.1289 800.608Z" sodipodi:nodetypes="cccccccccccccccccccccccccccccccccccccccccccccccccccccccccccccccccccccccccccccccccccccccccccccccccccccccccccccccccccccccccccccccccccccccccccccccccccccccccccccccccccccccccccccccccccccccccccccccccccccccccccccccccccccccccccccccccccccccccccc"/><path id="shape1" transform="matrix(0.03515625 0 0 0.03515625 11.6223046875 4.3066710451255)" fill="#fdfffe" stroke-opacity="0" stroke="#000000" stroke-width="0" stroke-linecap="square" stroke-linejoin="bevel" d="M347.17 93.3591L341.7 94.8091C341.347 94.9025 341.043 95.0758 340.79 95.3291C334.81 101.209 327.56 101.079 319.06 100.739C316.15 100.619 313.98 99.6891 312.72 96.9491C310.21 91.4791 305.03 84.9891 298.07 88.5091C296.217 89.4491 294.677 90.6225 293.45 92.0291C288.01 98.2791 282.29 103.559 274.1 105.299C270.267 106.112 266.1 106.416 261.6 106.209C253.04 105.819 244.67 101.199 239.15 94.8491C232.37 87.0391 226.88 84.2491 219.24 92.9691C214.89 97.9391 209.89 101.049 202.97 101.219C196.37 101.379 189.917 101.426 183.61 101.359C182.93 101.352 182.43 100.989 182.11 100.269C182.01 100.04 181.975 99.7876 182.008 99.5391C182.042 99.2906 182.143 99.0554 182.3 98.8591C183.04 97.9325 183.813 97.0725 184.62 96.2791C187.09 93.8491 185.64 89.9291 183.51 87.8291C180.65 85.0091 175.91 85.9891 173.39 88.9391C172.23 90.2925 171.17 91.6391 170.21 92.9791C163.5 102.299 152.67 101.929 142.47 100.679C134.9 99.7591 131.64 94.3891 126.62 89.6591C123.633 86.8525 120.593 86.8391 117.5 89.6191C112.63 93.9791 108.24 99.7591 102.47 102.719C88.07 110.129 72.61 106.679 62.57 94.0391C58.62 89.0591 52.95 85.2191 47.21 90.7591C44.54 93.3491 43.94 96.9991 40.53 99.0891C36.59 101.509 29.55 101.139 24.26 101.029C18.64 100.899 13.25 100.999 9.85 97.1991C7.82 94.9191 4 93.8291 2.11 96.9691C1.02333 98.7691 0.446667 98.6225 0.38 96.5291C0.366667 95.9891 0.24 95.0925 0 93.8391C0.253333 85.8991 3.11667 79.1925 8.59 73.7191C15.9033 66.4058 24.84 63.4458 35.4 64.8391C36.2533 64.9458 36.6367 65.4325 36.55 66.2991C36.0033 71.8391 38.0767 75.8691 42.77 78.3891C46.73 80.5191 51.92 79.4891 55.07 76.3591C59.07 72.3691 59.28 66.6491 62.67 62.1391C69.49 53.0591 78.3867 48.2825 89.36 47.8091C91.4067 47.7225 93.5333 48.0125 95.74 48.6791C96.0733 48.7791 96.3467 48.9658 96.56 49.2391C97.92 50.9291 98.81 52.9691 100.32 54.5791C104.433 58.9525 109.323 60.1158 114.99 58.0691C120.4 56.1291 122.62 50.7691 122.7 45.2291C122.76 40.7958 123.827 36.2291 125.9 31.5291C140.46 -1.44087 182.17 -10.4309 209.26 13.5491C218.34 21.5825 223.667 30.9991 225.24 41.7991C226.4 49.7891 234.22 53.9291 241.37 49.3691C244.58 47.3291 247.13 44.1191 250.47 42.6191C261.863 37.4791 272.687 37.3558 282.94 42.2491C291.293 46.2291 297.263 52.4958 300.85 61.0491C303.07 66.3591 306.13 69.9691 312.5 70.1891C316.767 70.3358 320.273 68.8458 323.02 65.7191C323.166 65.5546 323.357 65.4352 323.571 65.3751C323.785 65.3149 324.014 65.3163 324.23 65.3791C336.65 69.1091 347.03 79.8291 347.17 93.3591Z" sodipodi:nodetypes="cccccccccccccccccccccccccccccccccccccccccccccccccccccccc"/><path id="shape2" transform="matrix(0.03515625 0 0 0.03515625 11.6211575655465 7.33540715628013)" fill="#aec7cd" stroke-opacity="0" stroke="#000000" stroke-width="0" stroke-linecap="square" stroke-linejoin="bevel" d="M347.203 7.20842C347.509 15.0284 344.683 21.2384 338.723 25.8384C337.243 26.9851 335.446 27.5718 333.333 27.5984C326.179 27.6784 319.159 27.7518 312.273 27.8184C310.053 27.8384 308.413 26.8684 307.333 24.9584C307.159 24.651 307.07 24.3028 307.074 23.9484C307.077 23.594 307.173 23.2458 307.353 22.9384C309.706 18.9451 308.913 15.9118 304.973 13.8384C302.553 12.5718 300.179 13.0884 297.853 15.3884C293.353 19.8484 286.493 27.5784 279.663 27.5984C270.883 27.6184 261.953 27.6151 252.873 27.5884C246.053 27.5784 239.713 22.4684 235.033 17.5684C231.633 13.9984 228.093 11.2484 222.953 14.3584C219.153 16.6584 218.973 22.2484 221.903 25.1784C222.045 25.3214 222.137 25.5067 222.166 25.706C222.195 25.9053 222.159 26.108 222.062 26.2834C221.966 26.4588 221.815 26.5975 221.633 26.6784C220.199 27.3318 218.603 27.6551 216.843 27.6484C189.723 27.5018 162.073 27.5784 133.893 27.8784C132.419 27.8984 131.099 27.4284 129.933 26.4684C129.567 26.1723 129.332 25.7446 129.278 25.2775C129.224 24.8105 129.355 24.3403 129.643 23.9684C130.393 22.9984 131.193 21.9984 131.193 20.7084C131.199 16.5284 129.253 14.0784 125.353 13.3584C123.123 12.9384 121.363 13.8184 119.863 15.3684C115.523 19.8484 108.003 27.5184 101.323 27.5684C91.976 27.6218 82.8393 27.6051 73.9126 27.5184C68.8426 27.4584 62.8326 22.0584 59.9726 18.4284C56.9226 14.5584 52.8126 11.2584 48.3326 15.6784C45.9126 18.0718 45.646 20.7284 47.5326 23.6484C47.746 23.9818 47.7793 24.3351 47.6326 24.7084C47.0826 26.0584 45.9526 27.6284 44.3126 27.6284C32.766 27.6484 22.5426 27.6451 13.6426 27.6184C10.6026 27.6051 8.0093 26.3851 5.86263 23.9584C1.66263 19.2118 -0.280704 13.7884 0.0326292 7.68842C0.272629 8.94175 0.399296 9.83842 0.412629 10.3784C0.479296 12.4718 1.05596 12.6184 2.14263 10.8184C4.03263 7.67842 7.85263 8.76842 9.88263 11.0484C13.2826 14.8484 18.6726 14.7484 24.2926 14.8784C29.5826 14.9884 36.6226 15.3584 40.5626 12.9384C43.9726 10.8484 44.5726 7.19842 47.2426 4.60842C52.9826 -0.931581 58.6526 2.90842 62.6026 7.88842C72.6426 20.5284 88.1026 23.9784 102.503 16.5684C108.273 13.6084 112.663 7.82842 117.533 3.46842C120.626 0.688419 123.666 0.701752 126.653 3.50842C131.673 8.23842 134.933 13.6084 142.503 14.5284C152.703 15.7784 163.533 16.1484 170.243 6.82842C171.203 5.48842 172.263 4.14175 173.423 2.78842C175.943 -0.161581 180.683 -1.14158 183.543 1.67842C185.673 3.77842 187.123 7.69842 184.653 10.1284C183.846 10.9218 183.073 11.7818 182.333 12.7084C182.175 12.9047 182.074 13.1399 182.041 13.3884C182.007 13.6369 182.043 13.8894 182.143 14.1184C182.463 14.8384 182.963 15.2018 183.643 15.2084C189.949 15.2751 196.403 15.2284 203.003 15.0684C209.923 14.8984 214.923 11.7884 219.273 6.81842C226.913 -1.90158 232.403 0.888419 239.183 8.69842C244.703 15.0484 253.073 19.6684 261.633 20.0584C266.133 20.2651 270.299 19.9618 274.133 19.1484C282.323 17.4084 288.043 12.1284 293.483 5.87842C294.709 4.47175 296.249 3.29842 298.103 2.35842C305.063 -1.16158 310.243 5.32842 312.753 10.7984C314.013 13.5384 316.183 14.4684 319.093 14.5884C327.593 14.9284 334.843 15.0584 340.823 9.17842C341.076 8.92509 341.379 8.75175 341.733 8.65842Z" sodipodi:nodetypes="cccccccccccccccccccccccccccccccccccccccccccccccccccccccccccccccccc"/><path id="shape3" transform="matrix(0.03515625 0 0 0.03515625 12.7941352600339 9.3230859375)" fill="#aec7cd" stroke-opacity="0" stroke="#000000" stroke-width="0" stroke-linecap="square" stroke-linejoin="bevel" d="M17.6779 0C16.5513 11.84 15.9213 19.36 15.7879 22.56C15.3079 33.9733 14.6346 46.28 13.7679 59.48C13.6013 62.04 13.1046 63.7467 12.2779 64.6C8.55793 68.45 -0.30207 67.53 0.00793038 61.06C1.34793 33.3133 2.02793 12.9867 2.04793 0.08Z" sodipodi:nodetypes="ccccccc"/><path id="shape4" transform="matrix(0.03515625 0 0 0.03515625 13.9413128810975 9.32414062500001)" fill="#aec7cd" stroke-opacity="0" stroke="#000000" stroke-width="0" stroke-linecap="square" stroke-linejoin="bevel" d="M201.657 0.05C201.63 7.10333 201.687 11.5967 201.827 13.53C203.28 33.53 204.617 53.6 205.837 73.74L186.487 73.78L193.557 73.61C193.714 73.6076 193.867 73.5609 193.998 73.4752C194.129 73.3896 194.234 73.2685 194.299 73.126C194.364 72.9835 194.388 72.8254 194.367 72.67C193.367 64.75 192.894 56.7733 192.947 48.74C196.9 43.82 196.69 38.93 192.317 34.07C191.537 32.47 191.137 31.2867 191.117 30.52C190.984 25.7933 191.01 21.2667 191.197 16.94C191.213 16.5684 191.128 16.1993 190.951 15.872C190.773 15.5446 190.51 15.2711 190.189 15.0807C189.868 14.8902 189.501 14.7897 189.127 14.79L153.317 14.9C152.777 12.9667 151.747 11.28 150.227 9.84C148.927 8.60667 147.257 7.7 145.217 7.12C138.364 5.17333 133.557 7.71667 130.797 14.75C116.39 14.8967 101.944 14.9467 87.4571 14.9C61.1271 14.81 34.7871 15.13 8.5371 15.06C6.00377 15.0533 4.15377 14.7633 2.9871 14.19C0.773767 13.11 -0.209566 11.2233 0.0371003 8.53C0.150434 7.29667 0.770434 4.45333 1.8971 0Z" sodipodi:nodetypes="ccccccccccccccccccccccccc"/><path id="shape5" transform="matrix(0.03515625 0 0 0.03515625 22.5460546875 9.32519283839548)" fill="#70949a" stroke-opacity="0" stroke="#000000" stroke-width="0" stroke-linecap="square" stroke-linejoin="bevel" d="M3.69 73.6301L0 0.0700704L9.97 7.03745e-05C10.1004 -0.00175254 10.2289 0.031869 10.3421 0.0974247C10.4553 0.16298 10.5492 0.258107 10.6139 0.372872C10.6786 0.487637 10.7118 0.617903 10.71 0.75007C10.55 11.1234 10.7367 21.0567 11.27 30.5501C12.07 44.8301 12.51 58.8001 13.82 72.9701C13.8293 73.0668 13.8114 73.1643 13.7681 73.2514C13.7249 73.3384 13.6581 73.4116 13.5754 73.4627C13.4926 73.5137 13.3972 73.5405 13.3 73.5401Z" sodipodi:nodetypes="cccccccccccc"/><path id="shape6" transform="matrix(0.03515625 0 0 0.03515625 12.3825550063776 9.3230859375)" fill="#fdfffe" stroke-opacity="0" stroke="#000000" stroke-width="0" stroke-linecap="square" stroke-linejoin="bevel" d="M13.7551 0.08C13.7351 12.9867 13.0551 33.3133 11.7151 61.06C11.4051 67.53 20.2651 68.45 23.9851 64.6C24.8118 63.7467 25.3084 62.04 25.4751 59.48C26.3418 46.28 27.0151 33.9733 27.4951 22.56C27.6284 19.36 28.2584 11.84 29.3851 0L46.2351 0.03C45.1084 4.48333 44.4884 7.32667 44.3751 8.56C44.1284 11.2533 45.1118 13.14 47.3251 14.22C48.4918 14.7933 50.3418 15.0833 52.8751 15.09C79.1251 15.16 105.465 14.84 131.795 14.93C146.282 14.9767 160.728 14.9267 175.135 14.78C174.568 20.8133 176.498 24.9267 180.925 27.12C183.338 28.3133 185.805 28.72 188.325 28.34C194.755 27.36 198.095 21.26 197.655 14.93L233.465 14.82C233.839 14.8197 234.206 14.9202 234.527 15.1107C234.848 15.3011 235.111 15.5746 235.289 15.902C235.466 16.2293 235.551 16.5984 235.535 16.97C235.348 21.2967 235.322 25.8233 235.455 30.55C235.475 31.3167 235.875 32.5 236.655 34.1C232.788 31.5133 229.168 30.99 225.795 32.53C211.935 38.83 224.195 59.55 237.285 48.77C237.232 56.8033 237.705 64.78 238.705 72.7C238.726 72.8554 238.702 73.0135 238.637 73.156C238.572 73.2985 238.467 73.4196 238.336 73.5052C238.205 73.5909 238.052 73.6376 237.895 73.64L230.825 73.81L0.605102 73.79C0.205102 73.79 0.00510204 73.59 0.00510204 73.19C-0.0282313 69.6433 0.101769 66.03 0.395102 62.35C2.00177 42.09 2.92177 21.6067 3.1551 0.9C3.16177 0.353333 3.43844 0.08 3.9851 0.08ZM127.005 36.5C127.005 34.413 126.456 32.3624 125.412 30.555C124.369 28.7476 122.867 27.2464 121.06 26.203C119.253 25.1595 117.202 24.61 115.115 24.61C111.963 24.61 108.937 25.8635 106.708 28.0925C104.479 30.3215 103.225 33.3478 103.225 36.5C103.225 39.6522 104.479 42.6785 106.708 44.9075C108.937 47.1365 111.963 48.39 115.115 48.39C117.202 48.39 119.253 47.8405 121.06 46.797C122.867 45.7536 124.369 44.2524 125.412 42.445C126.456 40.6376 127.005 38.587 127.005 36.5ZM75.9704 37.4184C76.0574 34.3019 74.8637 31.2741 72.6541 29.007C70.4445 26.7398 67.3954 25.4143 64.1835 25.3246C62.057 25.2652 59.9523 25.7501 58.0818 26.7303C56.2114 27.7105 54.6403 29.152 53.5271 30.9092C52.414 32.6664 51.7974 34.6782 51.7398 36.7416C51.6528 39.8581 52.8465 42.8859 55.0561 45.153C57.2657 47.4202 60.3148 48.7457 63.5267 48.8354C65.6532 48.8948 67.7579 48.4099 69.6284 47.4297C71.4988 46.4495 73.0699 45.008 74.1831 43.2508C75.2962 41.4936 75.9128 39.4818 75.9704 37.4184ZM183.874 50.7982C183.856 49.4819 183.468 48.1937 182.749 47.0635C182.03 45.9334 181.006 45.0007 179.779 44.3595C178.552 43.7184 177.166 43.3911 175.76 43.4107C173.637 43.4404 171.61 44.2595 170.128 45.6863C168.646 47.1131 167.828 49.0336 167.856 51.0218C167.874 52.3381 168.262 53.6263 168.981 54.7565C169.7 55.8866 170.725 56.8193 171.951 57.4605C173.178 58.1016 174.564 58.4289 175.97 58.4093C178.093 58.3796 180.121 57.5605 181.603 56.1337C183.084 54.7069 183.902 52.7864 183.874 50.7982Z" sodipodi:nodetypes="ccccccccccccccccccccccccccccccccccccccccccccccccccccccccccccccccccc"/><path id="shape7" transform="matrix(0.03515625 0 0 0.03515625 21.0305953125001 9.32554685349047)" fill="#70949a" stroke-opacity="0" stroke="#000000" stroke-width="0" stroke-linecap="square" stroke-linejoin="bevel" d="M0.0064 0.0100006L9.3364 6.11826e-07C9.61064 -0.000292647 9.87453 0.104847 10.0721 0.293135C10.2697 0.481423 10.3861 0.738544 10.3964 1.01C11.3097 24.8167 12.6431 48.6333 14.3964 72.46C14.4564 73.2867 14.0697 73.7 13.2364 73.7L4.1864 73.7C2.9664 53.56 1.62973 33.49 0.1764 13.49C0.0364 11.5567 -0.0202667 7.06333 0.0064 0.0100006Z" sodipodi:nodetypes="ccccccccc"/><path id="shape8" transform="matrix(0.03515625 0 0 0.03515625 22.1631696428572 9.32765624999999)" fill="#aec7cd" stroke-opacity="0" stroke="#000000" stroke-width="0" stroke-linecap="square" stroke-linejoin="bevel" d="M10.891 0L14.581 73.56L5.85095 73.67C5.70139 73.6731 5.55452 73.6294 5.43088 73.5452C5.30724 73.461 5.21287 73.3403 5.16095 73.2C4.86095 72.3733 4.66095 71.5033 4.56095 70.59C2.05429 47.6433 0.534286 24.6667 0.000952381 1.66C-0.0257143 0.566667 0.507619 0.02 1.60095 0.02Z" sodipodi:nodetypes="ccccccccc"/><path id="shape9" transform="matrix(0.03515625 0 0 0.03515625 18.5362571970961 9.55219950584632)" fill="#0e2b33" stroke-opacity="0" stroke="#000000" stroke-width="0" stroke-linecap="square" stroke-linejoin="bevel" d="M22.6165 8.41299C23.0565 14.743 19.7165 20.843 13.2865 21.823C10.7665 22.203 8.2998 21.7963 5.88646 20.603C1.4598 18.4097 -0.470205 14.2963 0.0964619 8.26299C2.85646 1.22966 7.66313 -1.31367 14.5165 0.632992C16.5565 1.21299 18.2265 2.11966 19.5265 3.35299C21.0465 4.79299 22.0765 6.47966 22.6165 8.41299Z" sodipodi:nodetypes="ccccccc"/><circle id="shape10" transform="matrix(0.03515625 0 0 0.03515625 16.0115625 10.18828125)" r="11.89" cx="11.89" cy="11.89" fill="#0e2b33" stroke-opacity="0" stroke="#000000" stroke-width="0" stroke-linecap="square" stroke-linejoin="bevel"/><ellipse id="shape11" transform="matrix(0.0351425431068875 0.000981620111375468 -0.000981620111375468 0.0351425431068875 14.2130771675543 10.2015061448131)" rx="12.12" ry="11.76" cx="12.12" cy="11.76" fill="#0e2b33" stroke-opacity="0" stroke="#000000" stroke-width="0" stroke-linecap="square" stroke-linejoin="bevel"/><path id="shape12" transform="matrix(0.03515625 0 0 0.03515625 20.1057469902912 10.4364122450525)" fill="#0e2b33" stroke-opacity="0" stroke="#000000" stroke-width="0" stroke-linecap="square" stroke-linejoin="bevel" d="M16.9732 2.43205C21.3465 7.29205 21.5565 12.1821 17.6032 17.1021C4.5132 27.8821 -7.7468 7.16205 6.1132 0.862052C9.48653 -0.677948 13.1065 -0.154615 16.9732 2.43205Z" sodipodi:nodetypes="cccc"/><ellipse id="shape13" transform="matrix(0.0351528231097021 -0.000490857902548076 0.000490857902548076 0.0351528231097021 18.2800569526222 10.8531762234766)" rx="8.01" ry="7.5" cx="8.01" cy="7.5" fill="#0e2b33" stroke-opacity="0" stroke="#000000" stroke-width="0" stroke-linecap="square" stroke-linejoin="bevel"/><path id="shape14" transform="matrix(0.03515625 0 0 0.03515625 18.47390625 12.828515625)" fill="#eaa202" stroke-opacity="0" stroke="#000000" stroke-width="0" stroke-linecap="square" stroke-linejoin="bevel" d="M0 300.33C1.52 298.69 3.53 298.057 6.03 298.43C6.10297 298.443 6.17377 298.447 6.24 298.44C6.65333 298.413 6.88667 298.26 6.94 297.98C7 297.66 7.19333 297.493 7.52 297.48L10.29 297.39C10.4233 297.383 10.5567 297.367 10.69 297.34C11.0167 297.267 11.1733 297.127 11.16 296.92C11.1467 296.7 11.2467 296.563 11.46 296.51C12.1467 296.337 12.7433 295.997 13.25 295.49C13.49 295.257 13.58 294.973 13.52 294.64C13.1333 292.653 12.8767 290.647 12.75 288.62C12.69 287.79 12.27 287.35 11.7 286.83C11.4533 286.603 11.3933 286.337 11.52 286.03C11.8533 285.197 11.6767 284.573 10.99 284.16C10.7367 284 10.46 283.923 10.16 283.93L6.56 284.02C15.1 281.92 21.0833 280.04 24.51 278.38C27.5033 276.927 30.4033 275.357 33.21 273.67C33.319 273.603 33.3974 273.495 33.4282 273.371C33.4589 273.246 33.4397 273.115 33.3746 273.004C33.3096 272.894 33.2037 272.813 33.08 272.78C32.5067 272.62 31.9433 272.67 31.39 272.93C63.5767 260.003 88.4967 238.95 106.15 209.77C109.223 204.703 112.093 199 114.76 192.66C118.06 184.807 120.343 178.587 121.61 174C123.097 168.613 124.457 162.397 125.69 155.35C126.657 149.857 126.873 144.25 126.34 138.53C127.853 138.57 128.907 138.097 129.5 137.11C131.56 133.67 131.433 130.473 129.12 127.52C128.24 126.39 127.07 126.39 125.77 126.38C120.017 126.347 114.427 126.37 109 126.45C108.613 125.77 108.27 125.09 107.97 124.41C107.69 123.77 107.527 123.037 107.48 122.21C106.953 112.977 106.213 103.723 105.26 94.45C110.127 94.5633 114.617 94.5833 118.73 94.51C121.27 94.47 123.93 94.86 126 93.31C128.053 91.77 128.717 89.61 127.99 86.83C127.23 83.89 124.98 82.2967 121.24 82.05L120.9 72.32C124.973 70.3667 126.23 67.5767 124.67 63.95C123.697 61.6833 121.82 60.52 119.04 60.46C117.273 58.24 116.223 56.5633 115.89 55.43C113.43 47.1033 110.547 38.9133 107.24 30.86C106.947 30.1467 107 29.0333 107.4 27.52C109.087 27.4933 110.883 27.5267 112.79 27.62C115.45 27.7533 117.403 26.9667 118.65 25.26C121.02 22.01 120.02 17.98 116.55 16.23C115.597 15.75 114.193 15.5133 112.34 15.52C107.533 15.54 102.823 15.4767 98.21 15.33C97.6033 13.9433 96.9433 12.6033 96.23 11.31C94.38 7.96 93.99 4.82 92.56 1.46C92.4467 1.18667 92.5067 0.963333 92.74 0.79L93.19 0.46C93.4567 0.273333 93.4267 0.176667 93.1 0.17L55.31 0L131.2 0.2C131.371 0.200762 131.536 0.26037 131.671 0.369176C131.805 0.477981 131.9 0.629779 131.94 0.8C133.38 7.23333 134.593 14.0833 135.58 21.35C139.67 51.61 143.36 78.87 145.72 107.57C147.27 126.44 146.89 145.44 143.29 163.8C138.28 189.4 127.86 214.54 111.86 234.74C90.34 261.87 61.85 283.26 28.89 293.96C20.1567 296.793 10.5267 298.917 0 300.33Z" sodipodi:nodetypes="ccccccccccccccccccccccccccccccccccccccccccccccccccccccccccccccccc"/><path id="shape15" transform="matrix(0.03515625 0 0 0.03515625 12.2758764491296 12.828515625)" fill="#ffc520" stroke-opacity="0" stroke="#000000" stroke-width="0" stroke-linecap="square" stroke-linejoin="bevel" d="M231.61 0L269.4 0.17C269.726 0.176667 269.756 0.273333 269.49 0.46L269.04 0.79C268.806 0.963333 268.746 1.18667 268.86 1.46C270.29 4.82 270.68 7.96 272.53 11.31C273.243 12.6033 273.903 13.9433 274.51 15.33C268.76 17.07 269.07 27.78 275.82 27.53C278.38 27.43 281.006 27.4267 283.7 27.52C283.3 29.0333 283.246 30.1467 283.54 30.86C286.846 38.9133 289.73 47.1033 292.19 55.43C292.523 56.5633 293.573 58.24 295.34 60.46C290.98 60.76 286.806 61.0267 282.82 61.26C277.7 61.56 274.45 67.2 278.08 71.26C278.86 72.1333 280.413 72.6 282.74 72.66C287.386 72.7733 292.206 72.66 297.2 72.32L297.54 82.05C293.013 81.9567 288.443 81.9633 283.83 82.07C281.84 82.11 280.61 82.75 279.5 84.26C276.44 88.44 277.126 91.8367 281.56 94.45C282.513 103.723 283.253 112.977 283.78 122.21C283.826 123.037 283.99 123.77 284.27 124.41C284.57 125.09 284.913 125.77 285.3 126.45C282.193 127.497 280.633 129.463 280.62 132.35C280.613 134.79 281.763 136.753 284.07 138.24C281.93 156.593 277.493 173.123 270.76 187.83C261.606 207.817 247.22 225.063 227.6 239.57C218.546 246.263 208.406 252.023 197.18 256.85C191.52 259.28 187.21 264.45 191.61 270.42C195.03 275.03 202.58 274.56 207.69 272.93C208.243 272.67 208.806 272.62 209.38 272.78C209.503 272.813 209.609 272.894 209.674 273.004C209.739 273.115 209.758 273.246 209.728 273.371C209.697 273.495 209.619 273.603 209.51 273.67C206.703 275.357 203.803 276.927 200.81 278.38C197.383 280.04 191.4 281.92 182.86 284.02C165.386 287.427 148.786 288.113 133.06 286.08C116.433 283.94 99.2895 279.17 81.6295 271.77C75.1162 269.043 68.6828 266.14 62.3295 263.06C54.3762 259.2 46.8962 254.463 39.8895 248.85C40.5695 248.377 41.3595 247.947 42.2595 247.56C44.5695 246.55 46.3695 244.3 44.1695 241.99C29.1962 226.303 18.1928 209.247 11.1595 190.82C1.95285 166.687 -1.55715 141.62 0.629514 115.62C2.01618 99.0867 3.45618 82.5733 4.94951 66.08C5.49618 59.9533 6.20618 53.32 7.07951 46.18C8.95285 30.8733 10.7762 15.5733 12.5495 0.28ZM230.747 11.7302C228.758 9.7412 226.058 8.62261 223.245 8.62261C220.432 8.62261 217.731 9.7412 215.742 11.7302L213.89 13.5829C211.901 15.5719 210.782 18.2724 210.782 21.0853C210.782 23.8982 211.901 26.5987 213.89 28.5877L215.092 29.7898C217.081 31.7788 219.781 32.8974 222.594 32.8974C225.407 32.8974 228.108 31.7788 230.097 29.7898L231.949 27.9371C233.938 25.9481 235.057 23.2476 235.057 20.4347C235.057 17.6218 233.938 14.9213 231.949 12.9323ZM47.1595 186.78C39.7128 170.84 35.7195 154.833 35.1795 138.76C34.9528 131.94 35.0895 124.72 35.5895 117.1C37.1495 93.44 39.2662 67.4833 41.9395 39.23C42.3395 35.0167 42.6262 30.7267 42.7995 26.36C43.4195 10.9 25.2095 12.45 24.4195 25.69C23.0462 48.79 21.1195 72.2233 18.6395 95.99C17.6595 105.337 16.9995 114.63 16.6595 123.87C16.3328 132.65 16.6595 140.653 17.6395 147.88C19.5062 161.707 22.9728 175.147 28.0395 188.2C29.1795 191.153 30.6662 194.07 32.4995 196.95C35.2995 201.37 41.5395 202.72 45.3395 198.89C48.7328 195.483 49.3395 191.447 47.1595 186.78ZM87.1943 37.8021C86.8236 36.4743 85.902 35.3574 84.6342 34.6994C83.3663 34.0413 81.8534 33.8945 80.4311 34.2916C79.0088 34.6887 77.7908 35.598 77.0472 36.8177C76.3037 38.0374 76.094 39.4701 76.4647 40.7979C76.8355 42.1257 77.757 43.2426 79.0249 43.9006C80.2927 44.5587 81.8056 44.7055 83.2279 44.3084C84.6502 43.9113 85.8682 43.002 86.6118 41.7823C87.3554 40.5626 87.565 39.1299 87.1943 37.8021ZM242.9 63.3691C242.905 60.5116 242.14 57.7024 240.682 55.2252C239.224 52.7479 237.124 50.6888 234.594 49.2556C232.064 47.8225 229.192 47.0651 226.268 47.06C223.344 47.0549 220.469 47.8022 217.934 49.2266C215.399 50.6509 213.292 52.7027 211.826 55.1748C210.359 57.6469 209.585 60.4534 209.58 63.3109C209.575 66.1684 210.34 68.9776 211.797 71.4548C213.255 73.9321 215.355 75.9912 217.885 77.4244C220.415 78.8575 223.287 79.6149 226.211 79.62C229.135 79.6251 232.01 78.8778 234.545 77.4534C237.08 76.0291 239.187 73.9773 240.653 71.5052C242.12 69.0331 242.895 66.2266 242.9 63.3691ZM85.9041 71.8823C88.1531 72.912 90.7367 72.9736 93.0816 72.0534C95.4266 71.1333 97.3455 69.3049 98.4127 66.9739C99.1193 65.4306 99.4215 63.7348 99.2889 62.0574C99.1563 60.38 98.5935 58.7796 97.6572 57.4176C96.721 56.0556 95.4439 54.9794 93.9549 54.2977C91.7059 53.268 89.1223 53.2064 86.7774 54.1266C84.4325 55.0467 82.5135 56.8751 81.4463 59.2061C80.7398 60.7494 80.4375 62.4452 80.5701 64.1226C80.7028 65.8 81.2656 67.4004 82.2018 68.7624C83.1381 70.1244 84.4151 71.2006 85.9041 71.8823ZM60.6086 105.171C63.2448 106.638 66.3725 106.974 69.2978 106.105C72.223 105.236 74.7122 103.231 76.213 100.535C77.7138 97.8381 78.1063 94.6659 77.3035 91.7217C76.5007 88.7775 74.5666 86.2966 71.9304 84.8293C69.2942 83.362 66.1665 83.0257 63.2413 83.8948C60.316 84.7639 57.8268 86.7691 56.326 89.4655C54.8252 92.1619 54.4327 95.3341 55.2355 98.2783C56.0384 101.222 57.9724 103.703 60.6086 105.171ZM187.08 98.11C187.08 96.1959 186.318 94.3582 184.965 93.0047C183.611 91.6512 181.774 90.89 179.86 90.89C177.945 90.89 176.108 91.6512 174.754 93.0047C173.401 94.3582 172.64 96.1959 172.64 98.11C172.64 100.024 173.401 101.862 174.754 103.215C176.108 104.569 177.945 105.33 179.86 105.33C181.127 105.33 182.372 104.996 183.47 104.363C184.567 103.729 185.479 102.817 186.112 101.72C186.746 100.623 187.08 99.3773 187.08 98.11ZM234.564 99.0027C233.705 97.863 232.551 96.9774 231.217 96.4351C229.883 95.8929 228.416 95.7129 226.964 95.9133C225.513 96.1138 224.127 96.6877 222.947 97.5771C221.766 98.4665 220.833 99.6405 220.24 100.981C219.647 102.321 219.416 103.78 219.57 105.212C219.723 106.644 220.256 107.998 221.115 109.137C221.974 110.277 223.128 111.163 224.462 111.705C225.796 112.247 227.263 112.427 228.715 112.227C230.166 112.026 231.552 111.452 232.732 110.563C233.913 109.673 234.846 108.499 235.439 107.159C236.032 105.819 236.263 104.36 236.109 102.928C235.956 101.496 235.423 100.142 234.564 99.0027ZM47.9695 214.56C45.1695 220.83 50.0195 225.32 54.0495 229.45C57.6895 233.19 61.8995 236.09 66.6995 232.86C71.8895 229.38 72.0595 223.24 67.9795 218.66C64.2095 214.41 60.6395 209.6 54.3295 209.99C51.4095 210.17 49.1195 211.99 47.9695 214.56Z" sodipodi:nodetypes="ccccccccccccccccccccccccccccccccccccccccccccccccccccccccccccccccccccccccccccccccccccccccccccccccccccccccccccccccccccccccccccccccccccccccccccccccc"/><path id="shape16" transform="matrix(0.03515625 0 0 0.03515625 11.8026079545455 12.838359375)" fill="#fdfffe" stroke-opacity="0" stroke="#000000" stroke-width="0" stroke-linecap="square" stroke-linejoin="bevel" d="M26.0114 0C24.238 15.2933 22.4147 30.5933 20.5414 45.9C19.668 53.04 18.958 59.6733 18.4114 65.8C16.918 82.2933 15.478 98.8067 14.0914 115.34C11.9047 141.34 15.4147 166.407 24.6214 190.54C31.6547 208.967 42.658 226.023 57.6314 241.71C59.8314 244.02 58.0314 246.27 55.7214 247.28C54.8214 247.667 54.0314 248.097 53.3514 248.57C51.9014 250.07 52.3314 253.14 52.3514 255.14C31.6214 235.93 17.0114 211.99 8.66137 185.13C2.48804 165.29 -0.385293 145.337 0.0413737 125.27C0.691374 94.91 5.82137 63.64 9.38137 32.5C9.99471 27.1467 10.7014 21.75 11.5014 16.31C12.3214 10.7767 13.5247 5.69667 15.1114 1.07C15.2107 0.778294 15.3987 0.524438 15.6494 0.343583C15.9001 0.162728 16.2013 0.0636261 16.5114 0.06Z" sodipodi:nodetypes="ccccccccccccccccc"/><rect id="shape17" transform="matrix(0.0248592227760896 -0.0248592227760896 0.0248592227760896 0.0248592227760896 19.531681996495 13.569794617477)" fill="#fdfffe" stroke-opacity="0" stroke="#000000" stroke-width="0" stroke-linecap="square" stroke-linejoin="bevel" width="23.84" height="22.92" rx="10.61" ry="10.61"/><path id="shape18" transform="matrix(0.03515625 0 0 0.03515625 12.857255859375 13.3649990428515)" fill="#fdfffe" stroke-opacity="0" stroke="#000000" stroke-width="0" stroke-linecap="square" stroke-linejoin="bevel" d="M30.6225 171.52C32.8025 176.187 32.1958 180.223 28.8025 183.63C25.0025 187.46 18.7625 186.11 15.9625 181.69C14.1292 178.81 12.6425 175.893 11.5025 172.94C6.43583 159.887 2.96917 146.447 1.1025 132.62C0.1225 125.393 -0.204167 117.39 0.1225 108.61C0.4625 99.37 1.1225 90.0767 2.1025 80.73C4.5825 56.9634 6.50917 33.53 7.8825 10.43C8.6725 -2.80997 26.8825 -4.35997 26.2625 11.1C26.0892 15.4667 25.8025 19.7567 25.4025 23.97C22.7292 52.2234 20.6125 78.18 19.0525 101.84C18.5525 109.46 18.4158 116.68 18.6425 123.5C19.1825 139.573 23.1758 155.58 30.6225 171.52Z" sodipodi:nodetypes="ccccccccccccc"/><path id="shape19" transform="matrix(0.03515625 0 0 0.03515625 21.7841415488515 13.3674609375)" fill="#0e2b33" stroke-opacity="0" stroke="#000000" stroke-width="0" stroke-linecap="square" stroke-linejoin="bevel" d="M4.0522 0C8.66553 0.146667 13.3755 0.21 18.1822 0.19C20.0355 0.183333 21.4389 0.42 22.3922 0.9C25.8622 2.65 26.8622 6.68 24.4922 9.93C23.2455 11.6367 21.2922 12.4233 18.6322 12.29C16.7255 12.1967 14.9289 12.1633 13.2422 12.19C10.5489 12.0967 7.9222 12.1 5.3622 12.2C-1.3878 12.45 -1.6978 1.74 4.0522 0Z" sodipodi:nodetypes="cccccccc"/><ellipse id="shape20" transform="matrix(0.0338611839889802 -0.00945421244350544 0.00945421244350544 0.0338611839889802 14.9149266129752 14.0867380565676)" rx="5.57" ry="5.2" cx="5.57" cy="5.2" fill="#fdfffe" stroke-opacity="0" stroke="#000000" stroke-width="0" stroke-linecap="square" stroke-linejoin="bevel"/><ellipse id="shape21" transform="matrix(0.0351561964539828 6.13592003636124e-05 -6.13592003636124e-05 0.0351561964539828 19.6449060698586 14.4819473774511)" rx="16.66" ry="16.28" cx="16.66" cy="16.28" fill="#fdfffe" stroke-opacity="0" stroke="#000000" stroke-width="0" stroke-linecap="square" stroke-linejoin="bevel"/><ellipse id="shape22" transform="matrix(-0.0146348716029047 0.031965331958686 -0.031965331958686 -0.0146348716029047 15.8772166930746 14.8739620295146)" rx="9.67" ry="9.33" cx="9.67" cy="9.33" fill="#fdfffe" stroke-opacity="0" stroke="#000000" stroke-width="0" stroke-linecap="square" stroke-linejoin="bevel"/><path id="shape23" transform="matrix(0.03515625 0 0 0.03515625 21.997793706651 14.9540625)" fill="#0e2b33" stroke-opacity="0" stroke="#000000" stroke-width="0" stroke-linecap="square" stroke-linejoin="bevel" d="M18.805 0C21.585 0.06 23.4616 1.22333 24.435 3.49C25.995 7.11667 24.7383 9.90667 20.665 11.86C15.6716 12.2 10.8516 12.3133 6.20498 12.2C3.87831 12.14 2.32498 11.6733 1.54498 10.8C-2.08502 6.74 1.16498 1.1 6.28498 0.8C10.2716 0.566667 14.445 0.3 18.805 0Z" sodipodi:nodetypes="ccccccc"/><path id="shape24" transform="matrix(0.03515625 0 0 0.03515625 22.0361349190606 15.7107890625)" fill="#0e2b33" stroke-opacity="0" stroke="#000000" stroke-width="0" stroke-linecap="square" stroke-linejoin="bevel" d="M19.9144 0.0653333C23.6544 0.312 25.9044 1.90533 26.6644 4.84533C27.3911 7.62533 26.7277 9.78533 24.6744 11.3253C22.6044 12.8753 19.9444 12.4853 17.4044 12.5253C13.2911 12.5987 8.80105 12.5787 3.93438 12.4653C-0.498949 9.852 -1.18562 6.45533 1.87438 2.27533C2.98438 0.765333 4.21438 0.125333 6.20438 0.0853333C10.8177 -0.0213333 15.3877 -0.028 19.9144 0.0653333Z" sodipodi:nodetypes="cccccccc"/><ellipse id="shape25" transform="matrix(-0.0170977282180133 0.0307185547160906 -0.0307185547160906 -0.0170977282180133 15.1542587716268 16.0053675452257)" rx="11.64" ry="11.38" cx="11.64" cy="11.38" fill="#fdfffe" stroke-opacity="0" stroke="#000000" stroke-width="0" stroke-linecap="square" stroke-linejoin="bevel"/><circle id="shape26" transform="matrix(0.03515625 0 0 0.03515625 18.345234375 16.0238671875)" r="7.22" cx="7.22" cy="7.22" fill="#fdfffe" stroke-opacity="0" stroke="#000000" stroke-width="0" stroke-linecap="square" stroke-linejoin="bevel"/><ellipse id="shape27" transform="matrix(0.0280770296501001 -0.0211575594076892 0.0211575594076892 0.0280770296501001 19.8774398273616 16.4371069616574)" rx="8.42" ry="8.13" cx="8.42" cy="8.13" fill="#fdfffe" stroke-opacity="0" stroke="#000000" stroke-width="0" stroke-linecap="square" stroke-linejoin="bevel"/><path id="shape28" transform="matrix(0.03515625 0 0 0.03515625 22.1414052368516 17.2710454963236)" fill="#0e2b33" stroke-opacity="0" stroke="#000000" stroke-width="0" stroke-linecap="square" stroke-linejoin="bevel" d="M22.02 12.1647L3.45003 11.8747C1.14336 10.388 -0.00663785 8.42471 2.88184e-05 5.98471C0.0133622 3.09804 1.57336 1.13137 4.68003 0.0847059C10.1067 0.00470588 15.6967 -0.0186275 21.45 0.0147059C22.75 0.0247059 23.92 0.0247059 24.8 1.15471C27.1134 4.10804 27.24 7.30471 25.18 10.7447C24.5867 11.7314 23.5334 12.2047 22.02 12.1647Z" sodipodi:nodetypes="cccccccc"/><path id="shape29" transform="matrix(0.03515625 0 0 0.03515625 18.9485123620206 17.688515625)" fill="#da8a01" stroke-opacity="0" stroke="#000000" stroke-width="0" stroke-linecap="square" stroke-linejoin="bevel" d="M94.2701 0L112.84 0.29C113.373 6.01 113.157 11.6167 112.19 17.11C110.957 24.1567 109.597 30.3733 108.11 35.76C106.843 40.3467 104.56 46.5667 101.26 54.42C98.5934 60.76 95.7234 66.4633 92.6501 71.53C74.9968 100.71 50.0768 121.763 17.8901 134.69C12.7801 136.32 5.23009 136.79 1.81009 132.18C-2.58991 126.21 1.72009 121.04 7.38009 118.61C18.6068 113.783 28.7468 108.023 37.8001 101.33C57.4201 86.8233 71.8068 69.5767 80.9601 49.59C87.6934 34.8833 92.1301 18.3533 94.2701 0Z" sodipodi:nodetypes="cccccccccccc"/><path id="shape30" transform="matrix(0.03515625 0 0 0.03515625 13.9331058615201 20.210194296345)" fill="#fdfffe" stroke-opacity="0" stroke="#000000" stroke-width="0" stroke-linecap="square" stroke-linejoin="bevel" d="M0.830544 4.59225C1.98054 2.02225 4.27054 0.202251 7.19054 0.0222511C13.5005 -0.367749 17.0705 4.44225 20.8405 8.69225C24.9205 13.2723 24.7505 19.4123 19.5605 22.8923C14.7605 26.1223 10.5505 23.2223 6.91054 19.4823C2.88054 15.3523 -1.96946 10.8623 0.830544 4.59225Z" sodipodi:nodetypes="cccccc"/><path id="shape31" transform="matrix(0.03515625 0 0 0.03515625 13.6404577789765 21.5771484375)" fill="#da8a01" stroke-opacity="0" stroke="#000000" stroke-width="0" stroke-linecap="square" stroke-linejoin="bevel" d="M1.07476 0C8.08142 5.61333 15.5614 10.35 23.5148 14.21C29.8681 17.29 36.3014 20.1933 42.8148 22.92C60.4748 30.32 77.6181 35.09 94.2448 37.23C109.971 39.2633 126.571 38.5767 144.045 35.17L147.645 35.08C147.945 35.0733 148.221 35.15 148.475 35.31C149.161 35.7233 149.338 36.3467 149.005 37.18C148.878 37.4867 148.938 37.7533 149.185 37.98C149.755 38.5 150.175 38.94 150.235 39.77C150.361 41.7967 150.618 43.8033 151.005 45.79C151.065 46.1233 150.975 46.4067 150.735 46.64C150.228 47.1467 149.631 47.4867 148.945 47.66C148.731 47.7133 148.631 47.85 148.645 48.07C148.658 48.2767 148.501 48.4167 148.175 48.49C148.041 48.5167 147.908 48.5333 147.775 48.54L145.005 48.63C144.678 48.6433 144.485 48.81 144.425 49.13C144.371 49.41 144.138 49.5633 143.725 49.59C143.659 49.5967 143.588 49.5933 143.515 49.58C141.015 49.2067 139.005 49.84 137.485 51.48C124.278 53.2267 112.368 53.5833 101.755 52.55C80.2748 50.4633 60.3014 44.84 41.8348 35.68C35.8281 32.7 28.6481 28.54 20.2948 23.2C14.0414 19.2067 7.30142 13.6633 0.0747565 6.57C0.0547565 4.57 -0.375243 1.5 1.07476 0Z" sodipodi:nodetypes="cccccccccccccccccccccccccc"/><path id="shape32" transform="matrix(0.03515625 0 0 0.03515625 16.548046875 24.3846604970638)" fill="#70949a" stroke-opacity="0" stroke="#000000" stroke-width="0" stroke-linecap="square" stroke-linejoin="bevel" d="M37.39 126.792L36.84 125.732C36.6867 125.445 36.61 125.139 36.61 124.812L36.29 50.1519C39.97 50.1319 42.74 50.0419 44.93 47.3519C46.0567 45.9652 46.4067 44.4152 45.98 42.7019C44.81 38.0219 40.08 37.5119 35.72 37.6019L35.91 26.2919C40.16 26.9019 44.77 27.8519 48.81 25.9619C52.26 24.3519 53.31 20.2319 50.85 17.2519C48.51 14.4319 45.36 14.2119 41.99 14.2719C35.7567 14.3852 29.3167 14.4052 22.67 14.3319C19.49 14.3019 16.81 15.9619 15.14 18.6319C15.2 16.6619 12.86 15.6819 11.44 14.7519C10.6133 14.2119 9.90667 13.5852 9.32 12.8719C6.57333 9.53188 3.78 6.23188 0.94 2.97188C0.46 2.41855 0.146667 1.62521 0 0.591879C17.1 3.24521 34.28 3.98188 51.54 2.80188C57.06 2.42188 62.3133 1.51855 67.3 0.0918792C68.18 -0.154787 68.3567 0.0952125 67.83 0.841879C58.7633 13.8352 53.49 29.3252 52.01 47.3119C50.37 67.3319 51 88.9819 56.8 107.652C58.81 114.142 62.13 120.072 65.01 126.212C65.0485 126.291 65.0589 126.382 65.0394 126.468C65.02 126.554 64.9718 126.631 64.9029 126.686C64.834 126.741 64.7483 126.772 64.66 126.772Z" sodipodi:nodetypes="ccccccccccccccccccccccccccc"/><path id="shape33" transform="matrix(0.03515625 0 0 0.03515625 16.486355851717 24.3923298330305)" fill="#fdfffe" stroke-opacity="0" stroke="#000000" stroke-width="0" stroke-linecap="square" stroke-linejoin="bevel" d="M1.75477 0.373729C1.90143 1.40706 2.21477 2.2004 2.69477 2.75373C5.53477 6.01373 8.3281 9.31373 11.0748 12.6537C11.6614 13.3671 12.3681 13.9937 13.1948 14.5337C14.6148 15.4637 16.9548 16.4437 16.8948 18.4137L16.5848 19.0537C15.9714 19.3604 15.6748 19.8204 15.6948 20.4337C15.8148 23.3437 16.3448 26.1237 18.0248 28.6937C19.9714 31.6737 22.1714 34.5471 24.6248 37.3137C19.6548 39.6737 18.5548 46.9937 24.3448 49.3137C24.1981 53.2071 24.2048 57.1237 24.3648 61.0637C24.5581 65.7371 24.5748 69.6437 24.4148 72.7837C24.2014 77.0371 23.9914 81.3304 23.7848 85.6637C23.1248 99.8304 19.6748 113.244 13.4348 125.904C13.2814 126.21 13.0314 126.384 12.6848 126.424L11.5948 126.534L3.79477 126.534C3.66373 126.534 3.5364 126.49 3.43437 126.408C3.33234 126.325 3.26171 126.21 3.23447 126.082C3.20722 125.954 3.22499 125.82 3.28477 125.704C16.0848 100.784 18.1148 71.0737 14.6948 43.5737C12.8014 28.3737 7.92143 14.0371 0.0547669 0.563729C0.0152725 0.50031 -0.00361813 0.426609 0.000572506 0.352292C0.00476314 0.277975 0.0318434 0.20644 0.0782619 0.147067C0.12468 0.0876949 0.188315 0.0431997 0.26082 0.0194171C0.333326 -0.0043654 0.411387 -0.00634806 0.484767 0.0137292Z" sodipodi:nodetypes="ccccccccccccccccccccccccccc"/><path id="shape34" transform="matrix(0.03515625 0 0 0.03515625 17.0617214476865 24.8861307529877)" fill="#0e2b33" stroke-opacity="0" stroke="#000000" stroke-width="0" stroke-linecap="square" stroke-linejoin="bevel" d="M21.2988 12.0278C16.7455 11.8878 12.1288 11.8545 7.44881 11.9278C4.74215 11.9678 2.94548 11.7312 2.05881 11.2178C0.238812 10.1645 -0.374521 8.0945 0.218812 5.00784L0.528812 4.36784C2.19881 1.69784 4.87881 0.0378364 8.05881 0.0678364C14.7055 0.14117 21.1455 0.12117 27.3788 0.00783636C30.7488 -0.0521636 33.8988 0.167836 36.2388 2.98784C38.6988 5.96784 37.6488 10.0878 34.1988 11.6978C30.1588 13.5878 25.5488 12.6378 21.2988 12.0278Z" sodipodi:nodetypes="cccccccccc"/><path id="shape35" transform="matrix(0.03515625 0 0 0.03515625 17.038091694079 25.0621875000001)" fill="#aec7cd" stroke-opacity="0" stroke="#000000" stroke-width="0" stroke-linecap="square" stroke-linejoin="bevel" d="M0.890947 0C0.297614 3.08667 0.910947 5.15667 2.73095 6.21C3.61761 6.72333 5.41428 6.96 8.12095 6.92C12.8009 6.84667 17.4176 6.88 21.9709 7.02L21.7809 18.33L8.93095 18.26C6.47761 15.4933 4.27761 12.62 2.33095 9.64C0.650947 7.07 0.120947 4.29 0.000947368 1.38C-0.0190526 0.766667 0.277614 0.306667 0.890947 0Z" sodipodi:nodetypes="ccccccccc"/><path id="shape36" transform="matrix(0.03515625 0 0 0.03515625 17.2047130847683 25.704140625)" fill="#0e2b33" stroke-opacity="0" stroke="#000000" stroke-width="0" stroke-linecap="square" stroke-linejoin="bevel" d="M4.19149 0L17.0415 0.07C21.4015 -0.02 26.1315 0.49 27.3015 5.17C27.7282 6.88333 27.3782 8.43333 26.2515 9.82C24.0615 12.51 21.2915 12.6 17.6115 12.62L3.91149 12C-1.87851 9.68 -0.778506 2.36 4.19149 0Z" sodipodi:nodetypes="ccccccc"/><path id="shape37" transform="matrix(0.03515625 0 0 0.03515625 16.893984375 26.126015625)" fill="#aec7cd" stroke-opacity="0" stroke="#000000" stroke-width="0" stroke-linecap="square" stroke-linejoin="bevel" d="M12.75 0L26.45 0.62L26.77 75.28C26.77 75.6067 26.8467 75.9133 27 76.2L27.55 77.26L0 77.22L1.09 77.11C1.43667 77.07 1.68667 76.8967 1.84 76.59C8.08 63.93 11.53 50.5167 12.19 36.35C12.3967 32.0167 12.6067 27.7233 12.82 23.47C12.98 20.33 12.9633 16.4233 12.77 11.75C12.61 7.81 12.6033 3.89333 12.75 0Z" sodipodi:nodetypes="cccccccccccc"/><path id="shape38" transform="matrix(0.03515625 0 0 0.03515625 18.22640625 29.4324536132813)" fill="#70949a" stroke-opacity="0" stroke="#000000" stroke-width="0" stroke-linecap="square" stroke-linejoin="bevel" d="M29.96 24.0302C30.7067 23.5835 30.1467 23.1702 28.28 22.7902C27.96 22.7235 27.6733 22.5835 27.42 22.3702C24.9333 20.2235 22.8967 18.7069 21.31 17.8202C12.91 13.1069 5.80667 7.21687 0 0.150208L30.09 0.000208333C30.4767 -0.00645833 30.7833 0.146875 31.01 0.460208C37.57 9.69354 45.7567 17.2435 55.57 23.1102C55.9433 23.3302 55.92 23.4969 55.5 23.6102C54.48 23.8769 53.4167 24.0135 52.31 24.0202C44.77 24.0669 37.32 24.0702 29.96 24.0302Z" sodipodi:nodetypes="ccccccccccc"/><path id="shape39" transform="matrix(0.03515625 0 0 0.03515625 15.2706541442871 29.4394921875)" fill="#fdfffe" stroke-opacity="0" stroke="#000000" stroke-width="0" stroke-linecap="square" stroke-linejoin="bevel" d="M38.2747 0C35.2147 4.74667 31.2681 10.0433 26.4347 15.89C23.4547 19.49 20.7014 22.14 18.1747 23.84L0.754727 23.73C-0.17194 23.7233 -0.245273 23.4733 0.534727 22.98C9.87473 17.05 17.3747 9.52 24.9347 0.58C25.0571 0.432797 25.211 0.314351 25.3856 0.233119C25.5601 0.151886 25.7511 0.109846 25.9447 0.11Z" sodipodi:nodetypes="ccccccccc"/><path id="shape40" transform="matrix(0.03515625 0 0 0.03515625 15.909609375 29.437734375)" fill="#aec7cd" stroke-opacity="0" stroke="#000000" stroke-width="0" stroke-linecap="square" stroke-linejoin="bevel" d="M65.9 0C71.7067 7.06667 78.81 12.9567 87.21 17.67C88.7967 18.5567 90.8333 20.0733 93.32 22.22C93.5733 22.4333 93.86 22.5733 94.18 22.64C96.0467 23.02 96.6067 23.4333 95.86 23.88L0 23.89C2.52667 22.19 5.28 19.54 8.26 15.94C13.0933 10.0933 17.04 4.79667 20.1 0.05Z" sodipodi:nodetypes="ccccccccc"/><path id="shape41" transform="matrix(0.03515625 0 0 0.03515625 12.6264334548969 30.8390367406574)" fill="#fdfffe" stroke-opacity="0" stroke="#000000" stroke-width="0" stroke-linecap="square" stroke-linejoin="bevel" d="M175.558 0.450733C176.245 0.450733 176.568 0.567399 176.528 0.800733C176.494 1.0303 176.388 1.24303 176.226 1.40826C176.065 1.5735 175.855 1.68291 175.628 1.72073C171.935 2.3474 168.581 2.65073 165.568 2.63073C163.998 2.62073 162.798 3.35073 161.188 3.18073C160.808 3.14073 160.445 3.20407 160.098 3.37073L158.488 4.16073C158.195 4.30073 157.958 4.50407 157.778 4.77073C157.045 5.85073 156.111 6.47073 154.978 6.63073C153.258 6.87073 151.491 6.99073 149.678 6.99073C111.858 6.8974 73.5681 6.84073 34.8081 6.82073C28.6781 6.82073 24.4281 9.63073 23.3181 15.9507L0.628115 15.8107C0.50059 15.8104 0.376138 15.7713 0.2713 15.6987C0.166463 15.626 0.0861025 15.5233 0.0409006 15.404C-0.00430136 15.2848 -0.0122487 15.1546 0.0181151 15.0307C2.16812 6.40073 10.0881 -0.0792673 19.0981 0.00073271C53.2181 0.314066 87.8014 0.380733 122.848 0.200733C140.421 0.114066 157.991 0.197399 175.558 0.450733Z" sodipodi:nodetypes="cccccccccccccccccccc"/><path id="shape42" transform="matrix(0.03515625 0 0 0.03515625 13.4462109375 30.8548828125)" fill="#ffc520" stroke-opacity="0" stroke="#000000" stroke-width="0" stroke-linecap="square" stroke-linejoin="bevel" d="M152.24 0L253.08 0.15C253.047 2.17 252.56 3.72667 251.62 4.82C250.867 5.69333 249.93 6.13667 248.81 6.15C221.383 6.39 194.363 6.58667 167.75 6.74C167.283 6.74 167.03 6.97333 166.99 7.44C166.87 8.95333 167.113 10.3433 167.72 11.61C167.847 11.8833 167.89 12.1667 167.85 12.46L167.63 14.18C167.577 14.5867 167.74 14.86 168.12 15C168.573 15.1667 168.867 15.3533 169 15.56L0 15.5C1.11 9.18 5.36 6.37 11.49 6.37C50.25 6.39 88.54 6.44667 126.36 6.54C128.173 6.54 129.94 6.42 131.66 6.18C132.793 6.02 133.727 5.4 134.46 4.32C134.64 4.05333 134.877 3.85 135.17 3.71L136.78 2.92C137.127 2.75333 137.49 2.69 137.87 2.73C139.48 2.9 140.68 2.17 142.25 2.18C145.263 2.2 148.617 1.89667 152.31 1.27C152.537 1.23218 152.746 1.12277 152.908 0.957532C153.07 0.792295 153.175 0.579568 153.21 0.35C153.25 0.116667 152.927 -1.13687e-13 152.24 0Z" sodipodi:nodetypes="cccccccccccccccccccccccc"/><path id="shape43" transform="matrix(0.03515625 0 0 0.03515625 19.3159081135321 30.86015625)" fill="#da8a01" stroke-opacity="0" stroke="#000000" stroke-width="0" stroke-linecap="square" stroke-linejoin="bevel" d="M86.1197 0C93.6331 3.14 98.2231 7.99667 99.8897 14.57C99.9181 14.684 99.9111 14.804 99.8698 14.914C99.8285 15.024 99.7547 15.1189 99.6583 15.186C99.5618 15.2532 99.4472 15.2894 99.3297 15.29L2.03972 15.41C1.90639 15.2033 1.61306 15.0167 1.15972 14.85C0.779725 14.71 0.616391 14.4367 0.669725 14.03L0.889725 12.31C0.929725 12.0167 0.886391 11.7333 0.759725 11.46C0.153058 10.1933 -0.0902752 8.80333 0.0297248 7.29C0.0697248 6.82333 0.323058 6.59 0.789725 6.59C27.4031 6.43667 54.4231 6.24 81.8497 6C82.9697 5.98667 83.9064 5.54333 84.6597 4.67C85.5997 3.57667 86.0864 2.02 86.1197 0Z" sodipodi:nodetypes="ccccccccccccccc"/>
</svg>
