<?xml version="1.0" standalone="no"?>
<!DOCTYPE svg PUBLIC "-//W3C//DTD SVG 20010904//EN" "http://www.w3.org/TR/2001/REC-SVG-20010904/DTD/svg10.dtd">
<!-- Created using Krita: https://krita.org -->
<svg xmlns="http://www.w3.org/2000/svg"
  xmlns:xlink="http://www.w3.org/1999/xlink"
  xmlns:krita="http://krita.org/namespaces/svg/krita"
  xmlns:sodipodi="http://sodipodi.sourceforge.net/DTD/sodipodi-0.dtd"
  width="8.47266pt"
  height="25.4531pt"
  viewBox="0 0 8.47266 25.4531">
  <defs />
  <path id="shape0" transform="matrix(0.03515625 0 0 0.03515625 3.86644252816374 0)" fill="#f0ddc4"
    stroke-opacity="0" stroke="#000000" stroke-width="0" stroke-linecap="square"
    stroke-linejoin="bevel"
    d="M8.41119 0L10.7612 0C12.4679 0.646667 14.0879 1.45333 15.6212 2.42C19.1012 4.60667 20.5545 7.96333 19.9812 12.49C19.9279 7.03 17.6945 3.43 13.2812 1.69C6.63119 -0.93 -0.11881 3.55 0.14119 10.72C-0.77881 4.36 2.89119 1.97 8.41119 0Z"
    sodipodi:nodetypes="ccccccc" />
  <path id="shape1"
    transform="matrix(0.03515625 0 0 0.03515625 0.0143433158462435 0.0328531957217835)"
    fill="#482a0c" stroke-opacity="0" stroke="#000000" stroke-width="0" stroke-linecap="square"
    stroke-linejoin="bevel"
    d="M129.552 11.5555C129.599 19.9488 129.622 28.3688 129.622 36.8155C129.622 37.9688 129.849 39.1922 130.302 40.4855C139.809 49.6588 148.112 59.7388 155.212 70.7255C158.972 76.5455 162.119 82.3855 164.652 88.2455C168.339 96.7788 171.089 105.142 172.902 113.336C176.569 129.856 176.719 146.862 173.352 164.356C172.202 170.366 170.122 176.416 167.452 182.006C166.765 183.432 167.082 183.706 168.402 182.826C183.995 172.326 200.562 164.872 218.102 160.466C221.935 159.499 225.475 159.586 228.722 160.726C234.642 162.816 238.272 169.456 238.622 175.556C239.169 184.909 239.189 194.602 238.682 204.636C238.542 207.316 238.265 210.069 237.852 212.896C237.459 215.529 237.042 218.092 236.602 220.586C234.222 234.052 229.409 246.729 222.162 258.616C222.116 258.693 222.103 258.786 222.124 258.874C222.145 258.962 222.199 259.038 222.275 259.087C222.351 259.136 222.443 259.153 222.532 259.136C233.022 256.976 238.722 264.966 239.032 274.626C239.292 282.819 239.189 291.712 238.722 301.306C238.502 305.886 237.742 310.186 237.132 314.756C236.692 318.102 236.042 321.429 235.182 324.736C232.402 335.496 228.329 345.429 222.962 354.536C222.917 354.616 222.903 354.711 222.924 354.801C222.946 354.891 223 354.968 223.076 355.018C223.152 355.067 223.244 355.084 223.332 355.066C232.812 353.286 239.302 361.706 239.572 370.196C240.102 386.636 239.502 403.206 235.852 419.246C233.252 430.659 229.035 441.122 223.202 450.636C223.151 450.717 223.133 450.814 223.152 450.909C223.172 451.003 223.227 451.087 223.306 451.144C223.386 451.201 223.485 451.226 223.582 451.216C229.442 450.466 234.802 453.516 237.432 458.736C238.385 460.616 238.915 462.996 239.022 465.876C239.549 480.702 238.642 494.432 236.302 507.066C235.435 511.746 234.012 517.052 232.032 522.986C229.339 531.059 226.425 537.739 223.292 543.026C208.972 567.132 188.782 584.079 162.722 593.866C153.082 597.486 143.189 600.016 133.042 601.456C132.302 601.562 131.552 601.619 130.792 601.626C130.585 601.626 130.381 601.681 130.202 601.785C130.023 601.889 129.874 602.04 129.77 602.221C129.667 602.401 129.612 602.607 129.612 602.816L129.572 691.316C129.572 691.916 129.872 692.216 130.472 692.216C158.992 692.262 186.422 692.196 212.762 692.016C215.309 692.002 217.342 692.272 218.862 692.826C221.309 693.712 223.049 695.289 224.082 697.556C226.029 701.829 224.915 705.592 220.742 708.846C218.322 709.992 216.605 710.576 215.592 710.596C208.345 710.696 201.095 710.746 193.842 710.746C138.095 710.786 82.3453 710.809 26.592 710.816C25.872 710.816 25.582 711.159 25.722 711.846C25.7553 711.512 25.642 711.329 25.382 711.296C25.4553 711.256 25.4687 711.159 25.422 711.006C25.4058 710.939 25.3658 710.881 25.3091 710.84C25.2524 710.8 25.1826 710.781 25.112 710.786C20.892 711.092 17.5187 710.096 14.992 707.796C11.062 704.216 11.472 697.756 15.582 694.536C17.5553 692.982 19.822 692.202 22.382 692.196C49.6287 692.156 78.3187 692.119 108.452 692.086C108.647 692.086 108.838 692.034 109.007 691.937C109.176 691.839 109.316 691.699 109.413 691.531C109.511 691.362 109.562 691.17 109.562 690.976L109.662 645.606C109.615 623.752 109.559 609.406 109.492 602.566C109.492 602.366 109.365 602.176 109.112 601.996C109.125 601.896 109.102 601.789 109.042 601.676C108.935 601.496 108.779 601.396 108.572 601.376C96.312 600.409 84.1387 597.382 72.052 592.296C60.292 587.349 50.362 581.302 42.262 574.156C35.6287 568.296 30.752 563.462 27.632 559.656C14.1453 543.196 5.57868 524.122 1.93201 502.436C1.39201 499.276 1.42201 495.976 1.00201 492.796C0.675346 490.389 0.525346 488.112 0.552012 485.966C0.618679 479.799 0.572012 473.369 0.412012 466.676C0.338679 463.856 0.748679 461.469 1.64201 459.516C4.46868 453.349 9.15535 450.629 15.702 451.356C15.9211 451.377 16.141 451.316 16.3169 451.184C16.4929 451.052 16.612 450.858 16.6501 450.644C16.6881 450.429 16.6423 450.208 16.522 450.026C11.9353 443.086 8.53201 436.436 6.31201 430.076C-0.327988 410.996 -0.197988 390.826 0.112012 368.796C0.162012 365.806 1.25201 363.436 2.51201 360.816C3.70535 359.069 5.11868 357.712 6.75201 356.746C7.59868 356.546 8.41535 356.262 9.20201 355.896C11.322 354.926 13.632 354.916 15.852 354.836C15.9947 354.831 16.1309 354.775 16.2362 354.678C16.3415 354.582 16.409 354.451 16.4266 354.31C16.4441 354.168 16.4106 354.025 16.332 353.906C9.26535 343.226 4.62868 331.606 2.42201 319.046C1.94201 316.326 1.77201 313.676 1.32201 311.016C0.962012 308.856 0.755346 306.866 0.702012 305.046C0.415346 294.239 0.285346 283.339 0.312012 272.346C0.322012 269.846 1.27201 267.706 2.34201 265.556C5.16201 259.896 10.642 258.456 16.652 259.056C16.7902 259.068 16.9282 259.028 17.0381 258.944C17.1481 258.859 17.222 258.736 17.245 258.599C17.2679 258.462 17.2383 258.321 17.162 258.206C7.99535 244.526 2.74868 229.482 1.42201 213.076C1.28201 211.266 0.792012 209.566 0.762012 207.796C0.595346 198.462 0.458679 188.442 0.352012 177.736C0.325346 175.569 0.588679 173.429 1.14201 171.316C2.79201 164.916 6.67201 160.396 13.772 160.066C16.392 159.946 18.8587 160.169 21.172 160.736C38.712 165.016 55.692 172.956 71.292 183.356C71.852 183.722 71.9953 183.599 71.722 182.986C66.252 170.386 63.872 156.996 63.632 143.146C63.512 136.166 64.0887 128.219 65.362 119.306C67.1153 107.006 71.2787 94.3455 77.852 81.3255L81.412 74.2155L86.482 66.3155C87.802 65.4622 88.512 64.3788 88.612 63.0655C91.4053 59.2188 94.3353 55.3855 97.402 51.5655C98.2687 50.4788 99.3053 49.3988 100.512 48.3255C101.659 47.2988 102.765 46.2722 103.832 45.2455C105.739 43.7455 107.432 42.0488 108.912 40.1555C109.385 39.5488 109.625 38.8522 109.632 38.0655C109.699 34.0522 109.732 30.0388 109.732 26.0255L109.772 17.0655L109.712 9.78551C109.452 2.61551 116.202 -1.86449 122.852 0.755509C127.265 2.49551 129.499 6.09551 129.552 11.5555ZM85.152 155.106L86.362 160.526C89.8687 175.959 97.6187 189.109 109.612 199.976C109.69 200.047 109.793 200.085 109.899 200.082C110.005 200.078 110.106 200.032 110.181 199.955C110.256 199.877 110.3 199.773 110.302 199.666L110.412 184.616C110.512 175.436 110.522 166.676 110.442 158.336C110.382 152.442 113.199 149.339 118.892 149.026C122.479 148.832 125.299 150.259 127.352 153.306C128.205 154.566 128.632 157.226 128.632 161.286C128.639 168.499 128.639 175.869 128.632 183.396L128.522 200.166C128.52 200.256 128.554 200.344 128.616 200.411C128.678 200.477 128.763 200.517 128.854 200.521C128.945 200.526 129.034 200.495 129.102 200.436C142.022 189.229 150.145 175.302 153.472 158.656L154.382 153.226C155.722 140.959 155.035 128.862 152.322 116.936C148.722 101.096 140.952 86.2955 131.592 73.2655C128.165 68.4855 124.425 64.1455 120.372 60.2455C119.652 59.5455 118.952 59.5655 118.272 60.3055C109.325 70.0855 102.202 80.1488 96.902 90.4955C94.592 95.0155 92.952 99.8155 91.112 104.576C89.3987 108.982 88.192 112.519 87.492 115.186C84.072 128.252 83.292 141.559 85.152 155.106ZM130.322 273.576L128.492 285.626C128.665 287.152 128.632 288.709 128.392 290.296C128.065 292.522 127.895 294.049 127.882 294.876C127.829 298.856 127.875 302.839 128.022 306.826C128.052 307.546 127.782 308.926 128.182 309.816C128.262 309.998 128.403 310.147 128.581 310.236C128.759 310.326 128.963 310.349 129.157 310.304C129.351 310.258 129.523 310.145 129.642 309.986C133.855 304.386 138.612 299.199 143.912 294.426C147.099 291.552 152.502 287.766 160.122 283.066C168.229 278.066 176.272 273.016 184.252 267.916C185.359 267.209 186.355 266.459 187.242 265.666C189.642 263.536 192.202 261.726 194.462 259.426C201.889 251.872 207.532 243.086 211.392 233.066C212.799 229.419 213.912 225.692 214.732 221.886L215.842 215.636C217.829 204.609 218.615 193.526 218.202 182.386C218.189 181.999 217.999 181.869 217.632 181.996C204.679 186.496 192.975 191.986 182.522 198.466C169.802 206.346 158.395 217.082 148.302 230.676C140.282 241.466 134.812 255.226 131.302 268.566C130.862 270.246 130.535 271.916 130.322 273.576ZM22.852 216.066C24.312 223.779 25.6353 228.946 26.822 231.566C28.2287 234.672 29.642 237.782 31.062 240.896C34.842 249.416 40.692 257.866 47.922 263.846C51.502 266.806 54.842 269.846 58.842 272.246C63.8887 275.259 69.2087 278.369 74.802 281.576C83.472 286.536 91.142 291.246 97.242 297.096C101.389 301.062 105.499 305.326 109.572 309.886C109.665 309.989 109.787 310.062 109.922 310.096C110.057 310.13 110.199 310.123 110.33 310.076C110.461 310.029 110.575 309.944 110.657 309.831C110.74 309.719 110.786 309.585 110.792 309.446C111.092 302.579 111.339 295.952 111.532 289.566C111.579 288.052 111.802 286.546 112.202 285.046C112.635 283.439 111.905 281.852 110.012 280.286L108.192 271.106C106.205 262.046 102.479 251.962 97.012 240.856C92.5587 231.816 86.2053 223.426 77.952 215.686C67.5253 205.906 56.652 198.189 45.332 192.536C37.752 188.756 29.422 184.696 21.242 182.656C20.8487 182.562 20.642 182.719 20.622 183.126C20.2287 194.346 20.972 205.326 22.852 216.066ZM129.782 368.056C128.815 372.189 128.342 376.679 128.362 381.526L128.272 404.896C128.265 406.189 128.632 406.306 129.372 405.246C134.165 398.326 139.872 392.512 146.492 387.806C154.259 382.279 164.599 375.909 177.512 368.696C185.819 364.056 193.002 358.099 199.062 350.826C207.352 340.616 213.582 328.926 215.642 315.666C218.252 303.196 218.672 290.136 218.672 277.376C218.671 277.295 218.644 277.216 218.595 277.152C218.546 277.088 218.478 277.042 218.402 277.021C218.325 277 218.245 277.005 218.172 277.036C210.732 279.876 204.035 282.562 198.082 285.096C188.055 289.356 178.089 295.309 168.182 302.956C147.852 318.656 134.612 342.896 129.782 368.056ZM22.872 313.606C22.952 316.166 23.2987 318.449 23.912 320.456C27.792 333.189 34.3487 344.639 43.582 354.806C46.832 358.396 51.462 361.906 55.412 364.686C62.392 369.619 70.322 374.549 79.202 379.476C83.912 382.086 88.542 384.356 92.662 387.736C97.182 391.442 101.655 396.129 106.082 401.796C107.275 403.322 108.569 404.872 109.962 406.446C109.984 406.47 110.013 406.488 110.044 406.495C110.076 406.503 110.11 406.501 110.141 406.489C110.171 406.477 110.197 406.455 110.215 406.428C110.234 406.401 110.243 406.368 110.242 406.336L110.292 377.446L108.012 365.816C106.252 357.816 103.752 350.019 100.512 342.426C91.292 320.806 74.632 303.916 54.512 292.296C43.772 286.096 32.5187 281.166 20.752 277.506C20.6988 277.489 20.6418 277.489 20.5887 277.506C20.5357 277.524 20.4893 277.557 20.4559 277.601C20.4225 277.646 20.4036 277.7 20.402 277.756C20.1153 287.949 20.6353 298.369 21.962 309.016C22.1553 310.569 22.4587 312.099 22.872 313.606ZM22.892 410.816C24.632 419.916 27.8287 428.472 32.482 436.486C35.7953 442.979 40.4187 448.672 46.352 453.566C50.612 457.079 54.942 460.122 59.342 462.696C70.0153 468.929 79.3987 474.616 87.492 479.756C95.5987 484.902 102.969 491.322 109.602 499.016C110.169 499.662 110.449 499.556 110.442 498.696L110.272 474.226L109.962 471.356C109.235 462.336 106.702 452.489 102.362 441.816C94.7087 422.996 83.662 408.326 69.222 397.806C55.2087 387.599 39.192 379.469 21.172 373.416C20.772 373.282 20.562 373.426 20.542 373.846C19.9487 386.359 20.732 398.682 22.892 410.816ZM128.462 475.566L128.332 498.976C128.325 500.342 128.762 500.502 129.642 499.456C137.492 490.096 146.102 482.356 157.052 476.266C163.852 472.492 170.819 468.562 177.952 464.476C186.499 459.589 193.855 453.392 200.022 445.886C207.122 437.196 212.352 427.306 214.872 416.416L215.912 412.106C218.252 399.332 219.185 386.532 218.712 373.706C218.699 373.266 218.485 373.122 218.072 373.276C211.539 375.709 205.119 378.306 198.812 381.066C181.312 388.716 164.152 399.776 152.432 414.596C138.159 432.636 130.169 452.959 128.462 475.566ZM128.502 564.306L128.192 566.526L127.792 581.366C127.79 581.481 127.822 581.595 127.885 581.692C127.948 581.788 128.038 581.864 128.145 581.91C128.251 581.955 128.369 581.967 128.482 581.946C138.729 579.939 148.819 576.739 158.752 572.346C171.919 566.526 183.692 558.056 194.072 546.936C201.052 539.456 206.499 530.856 210.412 521.136C210.535 520.823 210.756 520.554 211.042 520.366C211.562 520.012 211.869 519.706 211.962 519.446C212.869 516.839 213.415 514.119 213.602 511.286C214.022 510.406 214.215 509.482 214.182 508.516C217.532 495.896 218.092 482.936 218.142 469.896C218.141 469.838 218.122 469.783 218.087 469.737C218.053 469.691 218.004 469.658 217.95 469.641C217.895 469.625 217.836 469.626 217.782 469.646C206.142 473.719 195.369 478.472 185.462 483.906C163.622 495.886 144.632 515.466 135.542 538.826C132.132 547.586 129.242 555.996 128.502 564.306ZM24.692 507.646C26.3053 514.106 28.5353 520.469 31.382 526.736C33.4487 531.289 36.352 535.996 40.092 540.856C47.652 550.682 56.592 558.942 66.912 565.636C78.2987 573.022 91.8253 578.196 107.492 581.156C108.485 581.342 109.552 581.442 110.692 581.456C110.798 581.457 110.903 581.43 110.995 581.376C111.087 581.323 111.163 581.245 111.213 581.151C111.264 581.058 111.288 580.952 111.282 580.846L110.602 566.716L109.982 560.826C107.762 547.226 101.792 533.506 94.902 521.876C91.662 516.406 87.402 510.346 83.082 506.056C65.9687 489.062 45.362 476.962 21.262 469.756C21.1847 469.733 21.1021 469.735 21.0258 469.761C20.9496 469.787 20.8832 469.836 20.836 469.901C20.7887 469.966 20.7629 470.045 20.762 470.126C20.6153 482.619 21.9253 495.126 24.692 507.646Z"
    sodipodi:nodetypes="ccccccccccccccccccccccccccccccccccccccccccccccccccccccccccccccccccccccccccccccccccccccccccccccccccccccccccccccccccccccccccccccccccccccccccccccccccccccccccccccccccccccccccccccccccccccccccccccccccccccccccccccccccccccccccccccccccccccccccccccccccccccccccccccccccccccccccccccccccccccccccccccccccccccccc" />
  <path id="shape2" transform="matrix(0.03515625 0 0 0.03515625 3.85417968749999 0.6328125)"
    fill="#c79567" stroke-opacity="0" stroke="#000000" stroke-width="0" stroke-linecap="square"
    stroke-linejoin="bevel" d="M0.55 0L0.51 8.96C0.39 8.32 0.22 8.18 0 8.54Z"
    sodipodi:nodetypes="cccc" />
  <path id="shape3" transform="matrix(0.03515625 0 0 0.03515625 3.6646875 0.926212499999998)"
    fill="#f0ddc4" stroke-opacity="0" stroke="#000000" stroke-width="0" stroke-linecap="square"
    stroke-linejoin="bevel"
    d="M5.39 0.1944C5.61 -0.1656 5.78 -0.0256 5.9 0.6144C5.9 4.62773 5.86667 8.64107 5.8 12.6544C5.79333 13.4411 5.55333 14.1377 5.08 14.7444C3.6 16.6377 1.90667 18.3344 0 19.8344C1.06667 17.9811 2.39333 16.4211 3.98 15.1544C4.09993 15.0566 4.19894 14.9353 4.27111 14.7979C4.34327 14.6604 4.38711 14.5096 4.4 14.3544Z"
    sodipodi:nodetypes="ccccccccc" />
  <path id="shape4" transform="matrix(0.03515625 0 0 0.03515625 2.97341574928977 2.1329150390625)"
    fill="#ffffff" stroke-opacity="0" stroke="#000000" stroke-width="0" stroke-linecap="square"
    stroke-linejoin="bevel"
    d="M70.2128 93.4904L68.4928 95.6404C68.2195 95.9804 67.8662 96.1604 67.4328 96.1804C65.8462 96.2604 64.4295 96.7237 63.1828 97.5704C62.2628 98.1971 61.9162 97.9637 62.1428 96.8704C63.3028 91.3904 63.7195 85.7704 63.3928 80.0104C62.3262 61.1637 56.4128 43.7604 45.6528 27.8004C42.4795 23.1004 39.2262 18.2737 35.8928 13.3204C35.7986 13.183 35.6646 13.0775 35.5089 13.0181C35.3532 12.9587 35.183 12.9481 35.0212 12.9878C34.8593 13.0275 34.7134 13.1157 34.6028 13.2404C30.2162 18.2537 26.5862 23.4937 23.7128 28.9604C21.7128 32.7537 19.6995 36.8804 17.6728 41.3404C15.4062 46.3204 13.7462 50.5471 12.6928 54.0204C8.81284 66.8404 7.39617 80.0304 8.44284 93.5904C8.50951 94.4971 8.78617 96.2804 9.27284 98.9404C7.49284 98.1604 5.45951 97.0204 3.17284 95.5204C2.54617 95.1071 1.81617 95.0571 0.982841 95.3704C-0.877159 81.8238 -0.0971591 68.5171 3.32284 55.4504C4.02284 52.7837 5.22951 49.2471 6.94284 44.8404C8.78284 40.0804 10.4228 35.2804 12.7328 30.7604C18.0328 20.4137 25.1562 10.3504 34.1028 0.570417C34.7828 -0.169583 35.4828 -0.189583 36.2028 0.510417C40.2562 4.41042 43.9962 8.75042 47.4228 13.5304C56.7828 26.5604 64.5528 41.3604 68.1528 57.2004C70.8662 69.1271 71.5528 81.2237 70.2128 93.4904Z"
    sodipodi:nodetypes="cccccccccccccccccccccccccc" />
  <path id="shape5" transform="matrix(0.03515625 0 0 0.03515625 3.05472656249999 2.25)"
    fill="#dfbd96" stroke-opacity="0" stroke="#000000" stroke-width="0" stroke-linecap="square"
    stroke-linejoin="bevel" d="M2.13 0C2.03 1.31333 1.32 2.39667 0 3.25Z" sodipodi:nodetypes="ccc" />
  <path id="shape6" transform="matrix(0.03515625 0 0 0.03515625 3.25850817193843 2.58868789290142)"
    fill="#dfbd96" stroke-opacity="0" stroke="#000000" stroke-width="0" stroke-linecap="square"
    stroke-linejoin="bevel"
    d="M62.1035 80.5262L61.1935 85.9562C60.1269 85.3629 59.1602 85.3695 58.2935 85.9762C57.0869 86.8095 56.0102 87.3995 55.0635 87.7462C54.2969 88.0262 53.7235 87.8162 53.3435 87.1162C53.0702 86.6029 52.8235 86.6162 52.6035 87.1562C50.1702 93.1029 46.7669 98.6129 42.3935 103.686C41.9802 104.166 41.0502 105.39 39.6035 107.356C38.6702 108.623 37.5869 109.736 36.3535 110.696C36.3602 103.17 36.3602 95.7995 36.3535 88.5862C36.3535 84.5262 35.9269 81.8662 35.0735 80.6062C33.0202 77.5595 30.2002 76.1329 26.6135 76.3262C20.9202 76.6395 18.1035 79.7429 18.1635 85.6362C18.2435 93.9762 18.2335 102.736 18.1335 111.916C15.8469 108.696 13.6002 105.633 11.3935 102.726C7.27355 97.3362 4.67355 92.8762 2.52355 86.7262C2.48413 86.6115 2.40267 86.5159 2.29569 86.4588C2.1887 86.4016 2.06393 86.3871 1.94669 86.4182C1.82945 86.4492 1.72823 86.5236 1.66355 86.6262C1.51021 86.8795 1.44688 87.3129 1.47355 87.9262C1.22688 87.2062 1.12355 86.5562 1.16355 85.9762C0.676879 83.3162 0.400212 81.5329 0.333545 80.6262C-0.713121 67.0662 0.703545 53.8762 4.58355 41.0562C5.63688 37.5829 7.29688 33.3562 9.56355 28.3762C11.5902 23.9162 13.6035 19.7895 15.6035 15.9962C18.4769 10.5295 22.1069 5.28954 26.4935 0.276211C26.6041 0.151471 26.75 0.0633395 26.9119 0.0236222C27.0737 -0.016095 27.2439 -0.00554125 27.3996 0.0538697C27.5553 0.113281 27.6893 0.218772 27.7835 0.356211C31.1169 5.30954 34.3702 10.1362 37.5435 14.8362C48.3035 30.7962 54.2169 48.1995 55.2835 67.0462C55.6102 72.8062 55.1935 78.4262 54.0335 83.9062C53.8069 84.9995 54.1535 85.2329 55.0735 84.6062C56.3202 83.7595 57.7369 83.2962 59.3235 83.2162C59.7569 83.1962 60.1102 83.0162 60.3835 82.6762Z"
    sodipodi:nodetypes="cccccccccccccccccccccccccccccccccccc" />
  <path id="shape7" transform="matrix(0.03515625 0 0 0.03515625 2.740078125 2.64199218749999)"
    fill="#dfbd96" stroke-opacity="0" stroke="#000000" stroke-width="0" stroke-linecap="square"
    stroke-linejoin="bevel" d="M3.88 0L0.32 7.11C0.213333 7.07 0.106667 7.03 0 6.99Z"
    sodipodi:nodetypes="cccc" />
  <path id="shape8" transform="matrix(0.03515625 0 0 0.03515625 0 2.88773437499999)" fill="#f0ddc4"
    stroke-opacity="0" stroke="#000000" stroke-width="0" stroke-linecap="square"
    stroke-linejoin="bevel"
    d="M77.94 0C78.0467 0.04 78.1533 0.08 78.26 0.12C71.6867 13.14 67.5233 25.8 65.77 38.1C64.4967 47.0133 63.92 54.96 64.04 61.94C64.28 75.79 66.66 89.18 72.13 101.78C72.4033 102.393 72.26 102.517 71.7 102.15C56.1 91.75 39.12 83.81 21.58 79.53C19.2667 78.9633 16.8 78.74 14.18 78.86C7.08 79.19 3.2 83.71 1.55 90.11C0.996667 92.2233 0.733333 94.3633 0.76 96.53C0.866667 107.237 1.00333 117.257 1.17 126.59C1.2 128.36 1.69 130.06 1.83 131.87C3.15667 148.277 8.40333 163.32 17.57 177C17.6463 177.116 17.6759 177.257 17.653 177.393C17.63 177.53 17.5561 177.653 17.4461 177.738C17.3362 177.823 17.1982 177.863 17.06 177.85C11.05 177.25 5.57 178.69 2.75 184.35C1.68 186.5 0.73 188.64 0.72 191.14C0.693333 202.133 0.823333 213.033 1.11 223.84C1.16333 225.66 1.37 227.65 1.73 229.81C2.18 232.47 2.35 235.12 2.83 237.84C5.03667 250.4 9.67333 262.02 16.74 272.7C16.8186 272.819 16.8521 272.963 16.8346 273.104C16.817 273.246 16.7495 273.377 16.6442 273.473C16.5389 273.569 16.4026 273.625 16.26 273.63C14.04 273.71 11.73 273.72 9.61 274.69C8.82333 275.057 8.00667 275.34 7.16 275.54C9.43333 273.693 11.8667 272.767 14.46 272.76C14.6065 272.76 14.7485 272.709 14.8624 272.617C14.9762 272.525 15.0549 272.397 15.0854 272.253C15.1159 272.11 15.0964 271.961 15.03 271.83C12.9433 267.67 10.87 263.693 8.81 259.9C7.32333 257.173 6.16 254.103 5.32 250.69C4.71 248.2 3.42 246.06 2.94 243.48C2.21 239.58 1.31 236.11 0.91 231.81C0.73 229.85 0.426667 227.903 0 225.97L0 189.62C0.773333 187.313 1.73667 185.107 2.89 183C5.56 178.12 9.95 176.84 15.07 176.84C15.3072 176.838 15.5356 176.747 15.708 176.584C15.8804 176.421 15.984 176.199 15.9974 175.964C16.0107 175.729 15.9329 175.499 15.78 175.32C15.0733 174.487 14.4567 173.59 13.93 172.63C9.97 165.47 6.71333 157.96 4.16 150.1C2.96 146.4 2.63 142.59 1.79 138.79C1.38333 136.963 1.07 134.913 0.85 132.64C0.65 130.573 0.366667 128.52 0 126.48L0 93.62C0.453333 92.04 0.896667 90.4667 1.33 88.9C2.75 83.74 5.91333 80.2433 10.82 78.41C12.2667 77.87 13.7 77.66 15.12 77.78C22.57 78.4 29.23 80.96 36.31 83.19C41.39 84.79 45.83 87.28 50.57 89.37C53.5967 90.7033 56.6567 92.28 59.75 94.1C62.8233 95.9067 65.86 97.6367 68.86 99.29C70.06 99.95 70.44 99.6333 70 98.34C68.27 93.29 66.37 88.31 65.5 82.9C64.86 78.92 64.08 75.19 63.96 71.14C63.8533 67.62 63.61 64.1567 63.23 60.75C63.07 59.27 63.72 57.98 63.74 56.5C63.8467 47.3533 64.5433 39.79 65.83 33.81C67.3033 26.95 69.4367 19.55 72.23 11.61C72.85 9.86333 74.7533 5.99333 77.94 0Z"
    sodipodi:nodetypes="ccccccccccccccccccccccccccccccccccccccccccccccccccccccccccccccc" />
  <path id="shape9" transform="matrix(0.03515625 0 0 0.03515625 3.00796875 5.47865646502294)"
    fill="#f0ddc4" stroke-opacity="0" stroke="#000000" stroke-width="0" stroke-linecap="square"
    stroke-linejoin="bevel"
    d="M0 0.202661C0.833333 -0.110673 1.56333 -0.0606728 2.19 0.352661C4.47667 1.85266 6.51 2.99266 8.29 3.77266C8.25 4.35266 8.35333 5.00266 8.6 5.72266L8.92 7.22266C8.99333 7.54933 8.88667 7.79599 8.6 7.96266C8.36667 8.09599 8.07667 8.05933 7.73 7.85266C5.71 6.62599 3.53667 5.88266 1.21 5.62266Z"
    sodipodi:nodetypes="ccccccccc" />
  <path id="shape10" transform="matrix(0.03515625 0 0 0.03515625 4.53269336311408 5.59511523437499)"
    fill="#c79567" stroke-opacity="0" stroke="#000000" stroke-width="0" stroke-linecap="square"
    stroke-linejoin="bevel"
    d="M24.9501 0.440056C21.6234 17.0867 13.5001 31.0134 0.580055 42.2201C0.511657 42.2797 0.422665 42.3105 0.332026 42.3058C0.241386 42.3012 0.156021 42.2614 0.0941018 42.1951C0.032183 42.1287 -0.00156013 42.0408 5.54492e-05 41.9501L0.110055 25.1801C1.34339 24.2201 2.42672 23.1067 3.36006 21.8401C4.80672 19.8734 5.73672 18.6501 6.15006 18.1701C10.5234 13.0967 13.9267 7.58672 16.3601 1.64006C16.5801 1.10006 16.8267 1.08672 17.1001 1.60006C17.4801 2.30006 18.0534 2.51006 18.8201 2.23006C19.7667 1.88339 20.8434 1.29339 22.0501 0.460056C22.9167 -0.146611 23.8834 -0.153278 24.9501 0.440056Z"
    sodipodi:nodetypes="ccccccccccccc" />
  <path id="shape11" transform="matrix(0.03515625 0 0 0.03515625 3.0505078125 5.62626507615605)"
    fill="#c79567" stroke-opacity="0" stroke="#000000" stroke-width="0" stroke-linecap="square"
    stroke-linejoin="bevel"
    d="M24.05 25.514L23.94 40.564C23.9377 40.672 23.8944 40.7756 23.8193 40.8531C23.7442 40.9306 23.643 40.9761 23.5369 40.98C23.4309 40.9839 23.328 40.9459 23.25 40.874C11.2567 30.0073 3.50667 16.8573 0 1.42402C2.32667 1.68402 4.5 2.42735 6.52 3.65402C6.86667 3.86068 7.15667 3.89735 7.39 3.76402C7.67667 3.59735 7.78333 3.35068 7.71 3.02402L7.39 1.52402C7.36333 0.910682 7.42667 0.477349 7.58 0.224016C7.64468 0.121416 7.7459 0.0470488 7.86315 0.0159936C7.98039 -0.0150615 8.10515 -0.00055409 8.21214 0.0565745C8.31913 0.113703 8.40059 0.209312 8.44 0.324016C10.59 6.47402 13.19 10.934 17.31 16.324C19.5167 19.2307 21.7633 22.294 24.05 25.514Z"
    sodipodi:nodetypes="cccccccccccccccc" />
  <path id="shape12" transform="matrix(0.03515625 0 0 0.03515625 4.5959765625 6.42948457792207)"
    fill="#f59d57" stroke-opacity="0" stroke="#000000" stroke-width="0" stroke-linecap="square"
    stroke-linejoin="bevel"
    d="M85.52 33.6869C83.9267 34.7269 82.19 35.5335 80.31 36.1069C80.0302 36.193 79.7277 36.1671 79.4666 36.0347C79.2055 35.9023 79.0059 35.6735 78.91 35.3969C78.89 35.3369 78.92 35.0835 79 34.6369L80.36 19.4069L81.22 9.35688C81.2393 9.1375 81.1784 8.91838 81.0485 8.74049C80.9187 8.5626 80.7286 8.43776 80.5138 8.38929C80.2989 8.34083 80.0736 8.37197 79.88 8.47688C78.22 9.35688 76.55 10.1902 74.87 10.9769C66.15 15.0569 57.95 19.5135 50.27 24.3469C41.81 29.6569 33.17 37.3569 26.4 44.3569C19.0933 51.9235 12.9667 60.6735 8.02 70.6069C7.12 72.4135 6.09333 74.9902 4.94 78.3369C4.11333 80.7302 3.14667 83.2569 2.04 85.9169C1.62 86.9235 1.26333 88.5902 0.97 90.9169C0.936667 91.1369 0.87 91.3235 0.77 91.4769C0.723333 91.5369 0.693333 91.6002 0.68 91.6669C0.613333 91.9802 0.463333 92.0235 0.23 91.7969C0.163333 91.7302 0.0866667 91.6735 0 91.6269C0.213333 89.9669 0.54 88.2969 0.98 86.6169C4.49 73.2769 9.96 59.5169 17.98 48.7269C28.0733 35.1335 39.48 24.3969 52.2 16.5169C62.6533 10.0369 74.3567 4.54688 87.31 0.0468831C87.6767 -0.0797835 87.8667 0.0502165 87.88 0.436883C88.2933 11.5769 87.5067 22.6602 85.52 33.6869Z"
    sodipodi:nodetypes="ccccccccccccccccccccccccccc" />
  <path id="shape13"
    transform="matrix(0.03515625 0 0 0.03515625 0.735747113269795 6.45341718750001)" fill="#f59d57"
    stroke-opacity="0" stroke="#000000" stroke-width="0" stroke-linecap="square"
    stroke-linejoin="bevel"
    d="M87.6721 88.4761C87.6387 88.9295 87.4754 89.2028 87.1821 89.2961C86.8821 89.3895 86.6954 89.2828 86.6221 88.9761C85.4354 83.6895 83.6187 78.4828 81.1721 73.3561C75.2521 60.9561 67.8887 50.4895 59.0821 41.9561C53.8087 36.8428 48.7921 32.3861 44.0321 28.5861C34.1321 20.7061 22.4421 15.0261 10.8621 9.41613C9.71542 8.86947 8.53875 8.41613 7.33208 8.05613C7.27397 8.03788 7.21164 8.03836 7.1534 8.05751C7.09517 8.07665 7.04375 8.11357 7.00601 8.16333C6.96827 8.21309 6.94597 8.27338 6.94208 8.33613C6.71542 12.6095 7.11875 16.5361 8.15208 20.1161L9.82208 38.0461C9.97542 39.7328 9.43208 40.0028 8.19208 38.8561L2.33208 33.4361C0.452082 22.6961 -0.291251 11.7161 0.102082 0.496133C0.122082 0.0894667 0.328749 -0.0672 0.722082 0.0261333C8.90208 2.06613 17.2321 6.12613 24.8121 9.90613C36.1321 15.5595 47.0054 23.2761 57.4321 33.0561C65.6854 40.7961 72.0387 49.1861 76.4921 58.2261C81.9587 69.3328 85.6854 79.4161 87.6721 88.4761Z"
    sodipodi:nodetypes="ccccccccccccccccccccc" />
  <path id="shape14" transform="matrix(0.03515625 0 0 0.03515625 4.53164062499999 6.72363678556576)"
    fill="#d26c20" stroke-opacity="0" stroke="#000000" stroke-width="0" stroke-linecap="square"
    stroke-linejoin="bevel"
    d="M82.19 11.0399L82.2 9.20989C82.1994 9.06605 82.1479 8.92666 82.0547 8.81736C81.9616 8.70807 81.833 8.63601 81.6927 8.61444C81.5523 8.59288 81.4093 8.62322 81.29 8.69989C77.42 11.1099 74.25 14.2799 70.74 17.1699C62.8467 23.6499 54.8833 30.2832 46.85 37.0699C38.4833 44.1299 31.0733 51.9399 24.62 60.4999C22.6733 63.0866 20.7767 65.6766 18.93 68.2699C17.1833 70.7166 15.53 73.4332 13.97 76.4199C10.8767 82.3399 7.86 88.2732 4.92 94.2199C3.28667 95.1666 1.64667 95.5299 0 95.3099L1.83 83.2599C1.91667 83.3066 1.99333 83.3632 2.06 83.4299C2.29333 83.6566 2.44333 83.6132 2.51 83.2999C2.52333 83.2332 2.55333 83.1699 2.6 83.1099C2.7 82.9566 2.76667 82.7699 2.8 82.5499C3.09333 80.2232 3.45 78.5566 3.87 77.5499C4.97667 74.8899 5.94333 72.3632 6.77 69.9699C7.92333 66.6232 8.95 64.0466 9.85 62.2399C14.7967 52.3066 20.9233 43.5566 28.23 35.9899C35 28.9899 43.64 21.2899 52.1 15.9799C59.78 11.1466 67.98 6.68989 76.7 2.60989C78.38 1.82322 80.05 0.989887 81.71 0.109887C81.9036 0.00496948 82.1289 -0.026167 82.3438 0.0222974C82.5586 0.0707618 82.7487 0.195607 82.8785 0.373497C83.0084 0.551387 83.0693 0.770503 83.05 0.989887Z"
    sodipodi:nodetypes="cccccccccccccccccccccccccccc" />
  <path id="shape15"
    transform="matrix(0.03515625 0 0 0.03515625 0.977654389880954 6.73617151957066)" fill="#d26c20"
    stroke-opacity="0" stroke="#000000" stroke-width="0" stroke-linecap="square"
    stroke-linejoin="bevel"
    d="M80.7912 80.4333L82.6112 89.6133C83.0178 91.3467 83.1245 92.9433 82.9312 94.4033C82.8845 94.7433 82.7012 94.9667 82.3812 95.0733C81.1612 95.48 79.8312 95.51 78.3912 95.1633C77.2112 93.3333 76.0312 91.5133 75.1712 89.5133C68.3645 73.8 59.8012 60.6967 49.4812 50.2033C36.7878 37.3033 22.2612 25.12 5.90116 13.6533C3.78783 12.1733 2.2445 11.6467 1.27116 12.0733C0.237831 8.49334 -0.165503 4.56668 0.061164 0.293343C0.0650481 0.230586 0.0873495 0.170302 0.12509 0.120541C0.16283 0.0707814 0.214251 0.0338638 0.272485 0.0147191C0.33072 -0.00442562 0.393054 -0.00490554 0.451164 0.0133434C1.65783 0.373343 2.8345 0.826677 3.98116 1.37334C15.5612 6.98334 27.2512 12.6633 37.1512 20.5433C41.9112 24.3433 46.9278 28.8 52.2012 33.9133C61.0078 42.4467 68.3712 52.9133 74.2912 65.3133C76.7378 70.44 78.5545 75.6467 79.7412 80.9333C79.8145 81.24 80.0012 81.3467 80.3012 81.2533C80.5945 81.16 80.7578 80.8867 80.7912 80.4333Z"
    sodipodi:nodetypes="cccccccccccccccccccc" />
  <path id="shape16" transform="matrix(0.03515625 0 0 0.03515625 4.70460937499999 7.02625027745975)"
    fill="#a94a12" stroke-opacity="0" stroke="#000000" stroke-width="0" stroke-linecap="square"
    stroke-linejoin="bevel"
    d="M77.27 2.43221L75.91 17.6622L74.38 25.7922C74.06 25.1855 73.91 24.8222 73.93 24.7022C74.1233 23.3155 73.8867 23.2355 73.22 24.4622C65.56 38.5422 55.53 50.6555 43.13 60.8022C41.51 62.1222 39.7833 63.3589 37.95 64.5122C36.2833 65.5589 34.5667 66.7589 32.8 68.1122C24.7933 74.2522 15.8367 79.9122 5.93 85.0922C3.81667 86.1989 1.84 86.3722 0 85.6122C2.94 79.6655 5.95667 73.7322 9.05 67.8122C10.61 64.8255 12.2633 62.1089 14.01 59.6622C15.8567 57.0689 17.7533 54.4789 19.7 51.8922C26.1533 43.3322 33.5633 35.5222 41.93 28.4622C49.9633 21.6755 57.9267 15.0422 65.82 8.56221C69.33 5.67221 72.5 2.50221 76.37 0.0922143C76.4893 0.015549 76.6323 -0.0147939 76.7727 0.00676937C76.913 0.0283326 77.0416 0.100393 77.1347 0.20969C77.2279 0.318987 77.2794 0.458378 77.28 0.602214Z"
    sodipodi:nodetypes="cccccccccccccccccccc" />
  <path id="shape17"
    transform="matrix(0.03515625 0 0 0.03515625 0.817734375000001 7.15559003496503)" fill="#a94a12"
    stroke-opacity="0" stroke="#000000" stroke-width="0" stroke-linecap="square"
    stroke-linejoin="bevel"
    d="M82.94 83.2332C80.4 83.4999 77.66 82.7666 74.72 81.0332C67.5 76.7866 60.89 72.8299 54.89 69.1632C42.13 61.3632 30.9233 51.4766 21.27 39.5032C18.94 36.6132 16.85 33.4632 14.67 30.4032C12.9367 27.9566 11.34 24.7899 9.88 20.9032C9.84667 20.8032 9.78 20.7532 9.68 20.7532C9.58667 20.7466 9.50667 20.7199 9.44 20.6732C9.06 20.4332 8.85667 20.5399 8.83 20.9932C8.69667 23.0732 7.78667 24.8099 6.1 26.2032C5.98151 26.2973 5.8942 26.425 5.84959 26.5695C5.80498 26.714 5.80512 26.8688 5.85 27.0132L9.17 37.5832C9.20834 37.7037 9.20552 37.8336 9.16198 37.9523C9.11845 38.071 9.03662 38.1719 8.92947 38.2391C8.82232 38.3062 8.69582 38.3358 8.57 38.3232L8.21 38.2932C6.79 35.1799 5.37667 32.0699 3.97 28.9632C2.78333 26.3432 1.46 21.1766 0 13.4632L5.86 18.8832C7.1 20.0299 7.64333 19.7599 7.49 18.0732L5.82 0.143217C6.79333 -0.28345 8.33667 0.243217 10.45 1.72322C26.81 13.1899 41.3367 25.3732 54.03 38.2732C64.35 48.7666 72.9133 61.8699 79.72 77.5832C80.58 79.5832 81.76 81.4032 82.94 83.2332Z"
    sodipodi:nodetypes="cccccccccccccccccccccccccc" />
  <path id="shape18" transform="matrix(0.03515625 0 0 0.03515625 7.31953125000001 7.61378906249999)"
    fill="#d26c20" stroke-opacity="0" stroke="#000000" stroke-width="0" stroke-linecap="square"
    stroke-linejoin="bevel"
    d="M8.05 0L6.94 6.25C5.09333 7.60333 2.78 8.54667 0 9.08L1.53 0.95C1.45 1.39667 1.42 1.65 1.44 1.71C1.53586 1.98658 1.73553 2.21537 1.99659 2.34777C2.25766 2.48017 2.56022 2.50608 2.84 2.42C4.72 1.84667 6.45667 1.04 8.05 0Z"
    sodipodi:nodetypes="cccccccc" />
  <path id="shape19" transform="matrix(0.03515625 0 0 0.03515625 4.50944531250001 7.83351562499999)"
    fill="#8a3108" stroke-opacity="0" stroke="#000000" stroke-width="0" stroke-linecap="square"
    stroke-linejoin="bevel"
    d="M86.8713 0C86.0513 3.80667 84.938 7.53333 83.5313 11.18C79.6713 21.2 74.028 29.9867 66.6013 37.54C64.3413 39.84 61.7813 41.65 59.3813 43.78C58.4947 44.5733 57.498 45.3233 56.3913 46.03C48.4113 51.13 40.368 56.18 32.2613 61.18C24.6413 65.88 19.238 69.6667 16.0513 72.54C10.7513 77.3133 5.99467 82.5 1.78133 88.1C1.66198 88.2595 1.49024 88.3721 1.29634 88.418C1.10244 88.4639 0.898462 88.4401 0.720287 88.3509C0.542111 88.2617 0.400842 88.1127 0.321333 87.93C-0.0786667 87.04 0.191333 85.66 0.161333 84.94C0.0146667 80.9533 -0.032 76.97 0.0213333 72.99C0.0346667 72.1633 0.204667 70.6367 0.531333 68.41C0.771333 66.8233 0.804667 65.2667 0.631333 63.74C2.278 63.96 3.918 63.5967 5.55133 62.65C7.39133 63.41 9.368 63.2367 11.4813 62.13C21.388 56.95 30.3447 51.29 38.3513 45.15C40.118 43.7967 41.8347 42.5967 43.5013 41.55C45.3347 40.3967 47.0613 39.16 48.6813 37.84C61.0813 27.6933 71.1113 15.58 78.7713 1.5C79.438 0.273333 79.6747 0.353333 79.4813 1.74C79.4613 1.86 79.6113 2.22333 79.9313 2.83C82.7113 2.29667 85.0247 1.35333 86.8713 0Z"
    sodipodi:nodetypes="cccccccccccccccccccccccc" />
  <path id="shape20" transform="matrix(0.03515625 0 0 0.03515625 1.02221132900634 7.87800180288463)"
    fill="#8a3108" stroke-opacity="0" stroke="#000000" stroke-width="0" stroke-linecap="square"
    stroke-linejoin="bevel"
    d="M77.1238 62.6846C78.5638 63.0313 79.8938 63.0013 81.1138 62.5946C81.4338 62.4879 81.6171 62.2646 81.6638 61.9246C81.8571 60.4646 81.7504 58.8679 81.3438 57.1346C83.2371 58.7013 83.9671 60.2879 83.5338 61.8946C83.1338 63.3946 82.9104 64.9013 82.8638 66.4146C82.6704 72.8013 82.4238 79.4279 82.1238 86.2946C82.1182 86.4337 82.0713 86.568 81.989 86.6803C81.9067 86.7926 81.7928 86.8779 81.6618 86.9251C81.5309 86.9723 81.3887 86.9794 81.2537 86.9455C81.1187 86.9116 80.9968 86.8381 80.9038 86.7346C76.8304 82.1746 72.7204 77.9113 68.5738 73.9446C62.4738 68.0946 54.8038 63.3846 46.1338 58.4246C40.5404 55.2179 35.2204 52.1079 30.1738 49.0946C26.1738 46.6946 22.8338 43.6546 19.2538 40.6946C12.0238 34.7146 6.17377 26.2646 2.39377 17.7446L2.75377 17.7746C2.87958 17.7872 3.00609 17.7576 3.11324 17.6905C3.22039 17.6233 3.30221 17.5224 3.34575 17.4037C3.38929 17.285 3.39211 17.1551 3.35377 17.0346L0.0337666 6.46462C-0.011114 6.32016 -0.0112583 6.16545 0.033353 6.02091C0.0779642 5.87637 0.165278 5.74865 0.283767 5.65462C1.97043 4.26128 2.88043 2.52462 3.01377 0.444615C3.04043 -0.00871795 3.24377 -0.115385 3.62377 0.124615C3.69043 0.171282 3.77043 0.197949 3.86377 0.204615C3.96377 0.204615 4.03043 0.254615 4.06377 0.354615C5.52377 4.24128 7.12043 7.40795 8.85377 9.85462C11.0338 12.9146 13.1238 16.0646 15.4538 18.9546C25.1071 30.9279 36.3138 40.8146 49.0738 48.6146C55.0738 52.2813 61.6838 56.2379 68.9038 60.4846C71.8438 62.2179 74.5838 62.9513 77.1238 62.6846Z"
    sodipodi:nodetypes="cccccccccccccccccccccccccccccccc" />
  <path id="shape21" transform="matrix(0.03515625 0 0 0.03515625 4.57274832589286 9.77141755962191)"
    fill="#ffffff" stroke-opacity="0" stroke="#000000" stroke-width="0" stroke-linecap="square"
    stroke-linejoin="bevel"
    d="M85.9807 38.6575C82.8607 38.8575 80.5074 40.2841 78.9207 42.9375C78.8499 43.0546 78.7387 43.1417 78.608 43.1824C78.4774 43.2231 78.3363 43.2146 78.2115 43.1584C78.0868 43.1022 77.9868 43.0022 77.9307 42.8775C77.8307 42.6575 77.8207 42.3675 77.8507 42.1275C78.1907 39.4941 78.5574 37.1141 78.9507 34.9875C79.8907 30.0275 79.9407 24.8275 80.1907 19.5475L80.8307 10.7975C80.8416 10.6338 80.797 10.4711 80.7042 10.3359C80.6114 10.2007 80.4757 10.1006 80.319 10.0519C80.1624 10.0032 79.9938 10.0087 79.8407 10.0675C76.8607 11.2375 74.0907 12.8175 71.1107 14.1475C61.844 18.2808 53.1607 23.1341 45.0607 28.7075C32.3507 37.4575 21.8607 49.8675 12.7707 62.9975C6.90071 71.4775 3.80071 81.8575 1.05071 92.2175C0.630714 93.8041 0.280714 93.7875 0.000714286 92.1675C-0.00595238 92.1341 0.0340476 91.7608 0.120714 91.0475C4.95071 65.8875 18.1907 41.6475 38.5207 25.9475C48.4274 18.3008 58.394 12.3475 68.4207 8.08746C74.374 5.55412 81.0707 2.86746 88.5107 0.0274561C88.5834 -0.00314364 88.6642 -0.00832516 88.7406 0.0127116C88.8169 0.0337483 88.8847 0.0798618 88.9335 0.143932C88.9823 0.208003 89.0094 0.286553 89.0107 0.367456C89.0107 13.1275 88.5907 26.1875 85.9807 38.6575Z"
    sodipodi:nodetypes="ccccccccccccccccccccccccc" />
  <path id="shape22" transform="matrix(0.03515625 0 0 0.03515625 0.728915450671487 9.7884788335906)"
    fill="#f59d57" stroke-opacity="0" stroke="#000000" stroke-width="0" stroke-linecap="square"
    stroke-linejoin="bevel"
    d="M87.6864 88.3222L87.6364 88.7122C87.5897 89.0522 87.4131 89.1455 87.1064 88.9922C87.0197 88.9455 86.9397 88.8955 86.8664 88.8422C86.6931 88.7022 86.5731 88.5255 86.5064 88.3122C85.2864 84.0922 84.3364 79.8822 82.7164 75.7622C79.9497 68.7022 76.0964 61.5888 71.1564 54.4222C68.0764 49.9622 64.7497 46.0355 61.1764 42.6422C53.9364 35.7555 46.5331 29.6722 38.9664 24.3922C29.8164 17.9922 18.6464 12.6322 7.8664 8.52216C7.77715 8.48757 7.6787 8.48452 7.58747 8.5135C7.49624 8.54249 7.41761 8.60181 7.36468 8.68157C7.31176 8.76133 7.28766 8.85684 7.2964 8.95216L8.0764 19.8322L9.5864 36.5222L5.6964 36.3122C5.3764 36.2988 5.0664 36.3488 4.7664 36.4622C4.1664 36.6822 3.46307 36.7355 2.6564 36.6222C2.90974 36.7088 2.87307 36.5388 2.5464 36.1122C2.13307 34.6055 1.82974 33.0755 1.6364 31.5222C0.309738 20.8755 -0.210262 10.4555 0.076405 0.262158C0.0780231 0.20646 0.096844 0.152606 0.130271 0.108025C0.163699 0.0634436 0.210121 0.0302849 0.263133 0.0131232C0.316146 -0.00403849 0.373193 -0.00437586 0.426405 0.0121576C12.1931 3.67216 23.4464 8.60216 34.1864 14.8022C54.3064 26.4222 70.9664 43.3122 80.1864 64.9322C83.4264 72.5255 85.9264 80.3222 87.6864 88.3222Z"
    sodipodi:nodetypes="ccccccccccccccccccccccccccc" />
  <path id="shape23"
    transform="matrix(0.03515625 0 0 0.03515625 0.985367940950432 10.0870885382836)" fill="#d26c20"
    stroke-opacity="0" stroke="#000000" stroke-width="0" stroke-linecap="square"
    stroke-linejoin="bevel"
    d="M80.3918 79.8284L82.6718 91.4584C83.0184 92.965 81.7551 94.2617 78.8818 95.3484C76.7018 92.9017 75.0484 90.3117 73.9218 87.5784C66.2684 69.045 55.0051 53.235 40.1318 40.1484C32.0984 33.075 26.7784 28.485 24.1718 26.3784C19.5918 22.685 12.9818 17.8817 4.34176 11.9684C3.47176 11.3784 3.02176 10.4984 2.17176 9.92837C1.86509 9.71504 1.60176 9.7617 1.38176 10.0684C1.13509 10.4017 0.93509 10.825 0.781756 11.3384L0.00175635 0.45837C-0.00698982 0.363048 0.0171089 0.267542 0.0700331 0.187781C0.122957 0.10802 0.201591 0.0486992 0.29282 0.0197135C0.384048 -0.00927209 0.482501 -0.00621657 0.571756 0.0283705C11.3518 4.13837 22.5218 9.49837 31.6718 15.8984C39.2384 21.1784 46.6418 27.2617 53.8818 34.1484C57.4551 37.5417 60.7818 41.4684 63.8618 45.9284C68.8018 53.095 72.6551 60.2084 75.4218 67.2684C77.0418 71.3884 77.9918 75.5984 79.2118 79.8184C79.2784 80.0317 79.3984 80.2084 79.5718 80.3484C79.6451 80.4017 79.7251 80.4517 79.8118 80.4984C80.1184 80.6517 80.2951 80.5584 80.3418 80.2184Z"
    sodipodi:nodetypes="ccccccccccccccccccccccc" />
  <path id="shape24" transform="matrix(0.03515625 0 0 0.03515625 4.52704893369932 10.1236471933493)"
    fill="#f0ddc4" stroke-opacity="0" stroke="#000000" stroke-width="0" stroke-linecap="square"
    stroke-linejoin="bevel"
    d="M81.4906 9.52848C79.1706 10.6151 77.0639 11.9185 75.1706 13.4385C71.8706 16.0851 70.2006 17.4251 70.1606 17.4585C62.0939 23.2385 55.6639 28.1518 50.8706 32.1985C43.2106 38.6585 35.2873 46.5851 27.1006 55.9785C18.5906 65.7485 12.9906 77.0285 7.23061 88.2785C6.37727 89.9518 5.67061 91.8685 5.11061 94.0285L0.000608108 94.4985C-0.0193919 89.6518 0.453941 85.1618 1.42061 81.0285C1.33394 81.7418 1.29394 82.1151 1.30061 82.1485C1.58061 83.7685 1.93061 83.7851 2.35061 82.1985C5.10061 71.8385 8.20061 61.4585 14.0706 52.9785C23.1606 39.8485 33.6506 27.4385 46.3606 18.6885C54.4606 13.1151 63.1439 8.26181 72.4106 4.12848C75.3906 2.79848 78.1606 1.21848 81.1406 0.0484798C81.2937 -0.0103022 81.4623 -0.0157923 81.6189 0.0329006C81.7756 0.0815935 81.9113 0.181684 82.0041 0.316924C82.0969 0.452164 82.1415 0.614817 82.1306 0.77848Z"
    sodipodi:nodetypes="ccccccccccccccccccc" />
  <path id="shape25" transform="matrix(0.03515625 0 0 0.03515625 1.0128515625 10.4315174278846)"
    fill="#a94a12" stroke-opacity="0" stroke="#000000" stroke-width="0" stroke-linecap="square"
    stroke-linejoin="bevel"
    d="M78.1 85.5513C73.7533 84.7513 68.8733 82.7346 63.46 79.5013C55.82 74.9413 48.07 70.4913 40.97 65.1913C37.8767 62.8779 34.6367 60.3913 31.25 57.7313C27.6367 54.8913 23.6133 50.9713 19.18 45.9713C16.0667 42.4646 13.3833 38.9013 11.13 35.2813C8.65667 31.3213 6.46667 27.4479 4.56 23.6613C4.16 22.8679 3.62667 22.4813 2.96 22.5013C2.66 20.8146 2.17667 19.3913 1.51 18.2313L0 1.54128C0.153333 1.02795 0.353333 0.604615 0.6 0.271282C0.82 -0.0353846 1.08333 -0.0820513 1.39 0.131282C2.24 0.701282 2.69 1.58128 3.56 2.17128C12.2 8.08462 18.81 12.8879 23.39 16.5813C25.9967 18.6879 31.3167 23.2779 39.35 30.3513C54.2233 43.4379 65.4867 59.2479 73.14 77.7813C74.2667 80.5146 75.92 83.1046 78.1 85.5513Z"
    sodipodi:nodetypes="ccccccccccccccccc" />
  <path id="shape26" transform="matrix(0.03515625 0 0 0.03515625 4.70671874999999 10.4586328125)"
    fill="#dfbd96" stroke-opacity="0" stroke="#000000" stroke-width="0" stroke-linecap="square"
    stroke-linejoin="bevel"
    d="M76.38 0C76.13 5.28 76.08 10.48 75.14 15.44C74.7467 17.5667 74.38 19.9467 74.04 22.58C74.01 22.82 74.02 23.11 74.12 23.33C74.1761 23.4548 74.2761 23.5548 74.4008 23.611C74.5256 23.6671 74.6667 23.6757 74.7973 23.635C74.9279 23.5943 75.0392 23.5071 75.11 23.39C76.6967 20.7367 79.05 19.31 82.17 19.11C80.11 32.37 73.88 44.06 65.59 54.27C64.55 54.67 64.4567 54.05 65.31 52.41C65.5433 51.97 65.81 51.55 66.11 51.15C68.7033 47.7233 71.4067 43.86 74.22 39.56C74.8467 38.6 75.1933 37.54 75.26 36.38C75.4733 32.9133 75.13 29.9467 74.23 27.48C74.0033 26.86 74 26.2267 74.22 25.58C74.34 25.22 74.25 24.9233 73.95 24.69L73.25 24.16C72.8633 23.8667 72.5633 23.94 72.35 24.38C69.7233 29.88 67.02 34.3767 64.24 37.87C53.8733 50.8833 41.7133 61.8467 27.76 70.76C22.1133 74.3667 17.6767 77.0167 14.45 78.71C9.83 81.13 5.01333 83.06 0 84.5C0.56 82.34 1.26667 80.4233 2.12 78.75C7.88 67.5 13.48 56.22 21.99 46.45C30.1767 37.0567 38.1 29.13 45.76 22.67C50.5533 18.6233 56.9833 13.71 65.05 7.93C65.09 7.89667 66.76 6.55667 70.06 3.91C71.9533 2.39 74.06 1.08667 76.38 0Z"
    sodipodi:nodetypes="cccccccccccccccccccccccccccc" />
  <path id="shape27" transform="matrix(0.03515625 0 0 0.03515625 0.818437500000002 11.058046875)"
    fill="#8a3108" stroke-opacity="0" stroke="#000000" stroke-width="0" stroke-linecap="square"
    stroke-linejoin="bevel"
    d="M0 0C0.326667 0.426667 0.363333 0.596667 0.11 0.51C1.53667 2.41 3.02667 4.17667 4.58 5.81C5.63 6.9 6.03 8.55 6.81 9.5C8.13667 11.1067 8.62 10.8833 8.26 8.83C8.05333 7.61667 8.13 6.23333 8.49 4.68C9.15667 4.66 9.69 5.04667 10.09 5.84C11.9967 9.62667 14.1867 13.5 16.66 17.46C18.9133 21.08 21.5967 24.6433 24.71 28.15C29.1433 33.15 33.1667 37.07 36.78 39.91C40.1667 42.57 43.4067 45.0567 46.5 47.37C53.6 52.67 61.35 57.12 68.99 61.68C74.4033 64.9133 79.2833 66.93 83.63 67.73C86.5033 66.6433 87.7667 65.3467 87.42 63.84L87.37 92.73C87.3709 92.7629 87.3616 92.7952 87.3434 92.8226C87.3253 92.85 87.2991 92.8711 87.2686 92.8832C87.238 92.8952 87.2044 92.8975 87.1725 92.8898C87.1405 92.882 87.1117 92.8647 87.09 92.84C85.6967 91.2667 84.4033 89.7167 83.21 88.19C78.7833 82.5233 74.31 77.8367 69.79 74.13C65.67 70.75 61.04 68.48 56.33 65.87C47.45 60.9433 39.52 56.0133 32.54 51.08C28.59 48.3 23.96 44.79 20.71 41.2C11.4767 31.0333 4.92 19.5833 1.04 6.85C0.426667 4.84333 0.08 2.56 0 0Z"
    sodipodi:nodetypes="cccccccccccccccccccccccccc" />
  <path id="shape28"
    transform="matrix(0.03515625 0 0 0.03515625 0.822304687500001 11.0650041118421)" fill="#d26c20"
    stroke-opacity="0" stroke="#000000" stroke-width="0" stroke-linecap="square"
    stroke-linejoin="bevel"
    d="M6.93 0.212105C7.59667 1.37211 8.08 2.79544 8.38 4.48211C8.02 6.03544 7.94333 7.41877 8.15 8.63211C8.51 10.6854 8.02667 10.9088 6.7 9.30211C5.92 8.35211 5.52 6.70211 4.47 5.61211C2.91667 3.97877 1.42667 2.21211 0 0.312105C0.806667 0.425439 1.51 0.372105 2.11 0.152105C2.41 0.0387719 2.72 -0.0112281 3.04 0.00210526Z"
    sodipodi:nodetypes="ccccccccc" />
  <path id="shape29" transform="matrix(0.03515625 0 0 0.03515625 4.52390311104911 11.3018203125)"
    fill="#c79567" stroke-opacity="0" stroke="#000000" stroke-width="0" stroke-linecap="square"
    stroke-linejoin="bevel"
    d="M70.7901 30.286C64.7301 37.5593 57.5468 43.516 49.2401 48.156C36.3268 55.3693 25.9868 61.7393 18.2201 67.266C11.6001 71.9727 5.89342 77.786 1.10009 84.706C0.360089 85.766 -0.00657738 85.6493 8.92857e-05 84.356L0.0900893 60.986L5.20009 60.516C10.2134 59.076 15.0301 57.146 19.6501 54.726C22.8768 53.0327 27.3134 50.3827 32.9601 46.776C46.9134 37.8627 59.0734 26.8993 69.4401 13.886C72.2201 10.3927 74.9234 5.896 77.5501 0.396C77.7634 -0.044 78.0634 -0.117333 78.4501 0.176L79.1501 0.706C79.4501 0.939333 79.5401 1.236 79.4201 1.596C79.2001 2.24267 79.2034 2.876 79.4301 3.496C80.3301 5.96267 80.6734 8.92933 80.4601 12.396C80.3934 13.556 80.0468 14.616 79.4201 15.576C76.6068 19.876 73.9034 23.7393 71.3101 27.166C71.0101 27.566 70.7434 27.986 70.5101 28.426C69.6568 30.066 69.7501 30.686 70.7901 30.286Z"
    sodipodi:nodetypes="cccccccccccccccccccc" />
  <path id="shape30" transform="matrix(0.03515625 0 0 0.03515625 0 12.7177734375)" fill="#f0ddc4"
    stroke-opacity="0" stroke="#000000" stroke-width="0" stroke-linecap="square"
    stroke-linejoin="bevel"
    d="M2.92 0C1.66 2.62 0.57 4.99 0.52 7.98C0.21 30.01 0.08 50.18 6.72 69.26C8.94 75.62 12.3433 82.27 16.93 89.21C17.0503 89.392 17.0961 89.613 17.0581 89.828C17.02 90.043 16.9009 90.2362 16.7249 90.3683C16.549 90.5005 16.3291 90.5619 16.11 90.54C9.56333 89.8133 4.87667 92.5333 2.05 98.7C1.15667 100.653 0.746667 103.04 0.82 105.86C0.98 112.553 1.02667 118.983 0.96 125.15C0.933333 127.297 1.08333 129.573 1.41 131.98C1.83 135.16 1.8 138.46 2.34 141.62C5.98667 163.307 14.5533 182.38 28.04 198.84C31.16 202.647 36.0367 207.48 42.67 213.34C50.77 220.487 60.7 226.533 72.46 231.48C84.5467 236.567 96.72 239.593 108.98 240.56C109.187 240.58 109.343 240.68 109.45 240.86C109.51 240.973 109.533 241.08 109.52 241.18C108.4 241.313 107.313 241.31 106.26 241.17C91.3 239.21 77.18 234.92 63.9 228.3C60.1467 226.433 56.2267 224.12 52.14 221.36C46.3133 217.42 42.5933 214.64 40.98 213.02C36.0133 208 31.4167 203.2 27.19 198.62C24.4233 195.62 20.4333 189.823 15.22 181.23C12.2867 176.397 9.34 169.78 6.38 161.38C3.82667 154.147 2.05 145.937 1.05 136.75C0.576667 132.383 0.226667 129.59 0 128.37L0 102.61C1.17333 97.45 3.83 93.6933 7.97 91.34C10.36 89.99 12.97 90.33 15.57 89.18C15.8633 89.0467 15.9267 88.8433 15.76 88.57C13.86 85.37 11.53 82.59 10.07 79.15C7.65667 73.51 5.49667 67.75 3.59 61.87C2.75667 59.3033 2.07333 56.2733 1.54 52.78C1.06 49.64 0.546667 46.5 0 43.36L0 6.27C0.533333 3.89 1.50667 1.8 2.92 0Z"
    sodipodi:nodetypes="ccccccccccccccccccccccccccccccccccccc" />
  <path id="shape31"
    transform="matrix(0.03515625 0 0 0.03515625 0.729780758171913 13.1590479103916)" fill="#ffffff"
    stroke-opacity="0" stroke="#000000" stroke-width="0" stroke-linecap="square"
    stroke-linejoin="bevel"
    d="M89.6118 97.9882L89.5518 99.1182C89.5318 99.3915 89.3851 99.5449 89.1118 99.5782C89.0051 99.5915 88.8985 99.5849 88.7918 99.5582C88.4518 99.4582 88.2651 99.2315 88.2318 98.8782C86.4018 81.7482 79.6818 65.4182 68.1318 52.1282C61.7451 44.7749 54.7551 37.9715 47.1618 31.7182C43.0885 28.3715 38.1285 25.0915 32.2818 21.8782C24.2418 17.4582 16.8018 13.6182 8.79179 10.7882C8.68674 10.7497 8.57183 10.7483 8.46553 10.7842C8.35924 10.8201 8.26757 10.8913 8.20528 10.9862C8.14298 11.0812 8.11358 11.1946 8.12179 11.3082L8.72179 19.6282L10.2718 40.0982C10.298 40.4656 10.4149 40.8197 10.6118 41.1282C11.6051 42.7015 11.6685 44.3082 10.8018 45.9482C10.7361 46.0733 10.6342 46.1756 10.509 46.242C10.3839 46.3084 10.2411 46.3359 10.0991 46.321C9.95713 46.306 9.82224 46.2493 9.71179 46.1582C7.39179 44.2449 5.87179 41.9715 5.15179 39.3382C4.82179 38.1282 3.71179 37.5682 2.54179 37.4482C0.381792 25.3149 -0.401542 12.9915 0.191792 0.478193C0.211792 0.0581928 0.421792 -0.0851406 0.821792 0.0481928C18.8418 6.10153 34.8585 14.2315 48.8718 24.4382C63.3118 34.9582 74.3585 49.6282 82.0118 68.4482C86.3518 79.1215 88.8851 88.9682 89.6118 97.9882Z"
    sodipodi:nodetypes="cccccccccccccccccccccccccc" />
  <path id="shape32" transform="matrix(0.03515625 0 0 0.03515625 4.53058593750001 13.1537306882022)"
    fill="#ffffff" stroke-opacity="0" stroke="#000000" stroke-width="0" stroke-linecap="square"
    stroke-linejoin="bevel"
    d="M87.45 38.8894C87.1567 39.1028 86.8833 39.2161 86.63 39.2294C86.2567 39.2494 86.0233 39.0828 85.93 38.7294L85.47 37.0194C85.3767 36.6728 85.1533 36.4661 84.8 36.3994L82.04 35.9194C81.6267 35.8528 81.3867 35.6094 81.32 35.1894L80.78 31.7694L81.47 25.0694L82.44 11.8894C82.4622 11.5742 82.3779 11.2605 82.2005 10.9989C82.0232 10.7374 81.7629 10.5429 81.4619 10.4469C81.1608 10.3509 80.836 10.3588 80.54 10.4694C73.59 13.0494 67.22 16.6794 60.59 19.9194C56.87 21.7328 53.0733 24.0194 49.2 26.7794C44.72 29.9794 40.45 33.2628 36.39 36.6294C31.54 40.6594 27.61 45.5594 23.5 50.3094C21.9533 52.0961 20.44 54.0394 18.96 56.1394C16.28 59.9394 13.52 63.5294 11.43 67.6594C10.47 69.5461 9.53667 71.4094 8.63 73.2494C5.51 79.6228 3.34333 86.7361 2.13 94.5894C1.76333 96.9228 1.88667 99.0828 2.5 101.069C1.88667 101.663 1.39667 102.366 1.03 103.179C0.943333 103.379 0.79 103.476 0.57 103.469C0.416667 103.463 0.28 103.506 0.16 103.599L0 102.349C1.70667 79.7428 9.69667 59.4194 23.97 41.3794C35.69 26.5594 52.85 15.4994 70.35 7.84944C76.6567 5.08944 83.0767 2.49277 89.61 0.0594382C90.0233 -0.0938951 90.2367 0.0494382 90.25 0.489438C90.7233 13.3161 89.79 26.1161 87.45 38.8894Z"
    sodipodi:nodetypes="ccccccccccccccccccccccccccccccc" />
  <path id="shape33" transform="matrix(0.03515625 0 0 0.03515625 4.59823421556122 13.5186621639659)"
    fill="#f0ddc4" stroke-opacity="0" stroke="#000000" stroke-width="0" stroke-linecap="square"
    stroke-linejoin="bevel"
    d="M79.5458 14.6892L79.3658 10.5292C79.3634 10.4135 79.3195 10.3027 79.2419 10.2166C79.1642 10.1305 79.0578 10.0745 78.9414 10.0585C78.825 10.0425 78.7061 10.0675 78.6058 10.1292C73.5658 13.3025 68.8591 16.6858 64.4858 20.2792C54.8758 28.1592 44.4058 35.6992 35.5158 44.3192C30.8758 48.8192 26.8658 53.1425 23.4858 57.2892C20.6758 60.7492 18.6458 64.6792 16.1458 68.3092C13.4991 72.1492 9.75912 78.9425 4.92578 88.6892C4.17245 90.2092 2.72245 90.8758 0.575782 90.6892C-0.037551 88.7025 -0.160884 86.5425 0.205782 84.2092C1.41912 76.3558 3.58578 69.2425 6.70578 62.8692C7.61245 61.0292 8.54578 59.1658 9.50578 57.2792C11.5958 53.1492 14.3558 49.5592 17.0358 45.7592C18.5158 43.6592 20.0291 41.7158 21.5758 39.9292C25.6858 35.1792 29.6158 30.2792 34.4658 26.2492C38.5258 22.8825 42.7958 19.5992 47.2758 16.3992C51.1491 13.6392 54.9458 11.3525 58.6658 9.53917C65.2958 6.29917 71.6658 2.66917 78.6158 0.0891651C78.9118 -0.021435 79.2366 -0.0293737 79.5376 0.0666315C79.8387 0.162637 80.0989 0.357122 80.2763 0.61867C80.4536 0.880218 80.538 1.19394 80.5158 1.50917Z"
    sodipodi:nodetypes="cccccccccccccccccccccccc" />
  <path id="shape34" transform="matrix(0.03515625 0 0 0.03515625 1.01526497446448 13.5372693375436)"
    fill="#f0ddc4" stroke-opacity="0" stroke="#000000" stroke-width="0" stroke-linecap="square"
    stroke-linejoin="bevel"
    d="M81.4914 87.2299L81.8014 90.0999C82.308 91.8932 80.6047 92.4999 76.6914 91.9199C75.4047 91.9266 74.6547 91.5866 74.4414 90.8999C71.0347 80.2199 66.5014 70.9899 60.8414 63.2099C51.408 50.2366 39.618 38.4366 25.4714 27.8099C17.3714 21.7299 9.08135 15.4166 0.601352 8.86989L0.00135184 0.549894C-0.00686372 0.436283 0.0225402 0.322884 0.0848373 0.227925C0.147134 0.132967 0.238798 0.0618252 0.345093 0.0259356C0.451389 -0.00995397 0.566298 -0.00855968 0.671352 0.0298944C8.68135 2.85989 16.1214 6.69989 24.1614 11.1199C30.008 14.3332 34.968 17.6132 39.0414 20.9599C46.6347 27.2132 53.6247 34.0166 60.0114 41.3699C71.5614 54.6599 78.2814 70.9899 80.1114 88.1199C80.1447 88.4732 80.3314 88.6999 80.6714 88.7999C80.778 88.8266 80.8847 88.8332 80.9914 88.8199C81.2647 88.7866 81.4114 88.6332 81.4314 88.3599Z"
    sodipodi:nodetypes="ccccccccccccccccccc" />
  <path id="shape35" transform="matrix(0.03515625 0 0 0.03515625 0.819140624999999 13.8491015625)"
    fill="#dfbd96" stroke-opacity="0" stroke="#000000" stroke-width="0" stroke-linecap="square"
    stroke-linejoin="bevel"
    d="M6.18 0C14.66 6.54667 22.95 12.86 31.05 18.94C45.1967 29.5667 56.9867 41.3667 66.42 54.34C72.08 62.12 76.6133 71.35 80.02 82.03C80.2333 82.7167 80.9833 83.0567 82.27 83.05C81.0833 83.5833 79.7167 83.5533 78.17 82.96C74.9233 81.7267 71.8267 80.2167 68.88 78.43C62.6733 74.6633 56.1967 70.5567 49.45 66.11C32.96 55.24 18.81 41.39 10.34 23.84C10 23.1267 9.83 23.1667 9.83 23.96C9.83 24.5267 9.69667 25.0667 9.43 25.58C9.13 26.1667 8.94333 26.86 8.87 27.66C8.41 32.7933 8.65 38.07 9.59 43.49C4.93667 35.4767 1.74 26.92 0 17.82C1.17 17.94 2.28 18.5 2.61 19.71C3.33 22.3433 4.85 24.6167 7.17 26.53C7.28045 26.6212 7.41534 26.6778 7.55734 26.6928C7.69935 26.7077 7.8421 26.6802 7.96725 26.6138C8.09241 26.5474 8.19436 26.4451 8.26 26.32C9.12667 24.68 9.06333 23.0733 8.07 21.5C7.87308 21.1915 7.7562 20.8374 7.73 20.47Z"
    sodipodi:nodetypes="cccccccccccccccccccccc" />
  <path id="shape36" transform="matrix(0.03515625 0 0 0.03515625 4.53474609375 13.87211504111)"
    fill="#dfbd96" stroke-opacity="0" stroke="#000000" stroke-width="0" stroke-linecap="square"
    stroke-linejoin="bevel"
    d="M81.3517 4.63539L80.6617 11.3354L79.0717 20.6454C79.1917 19.8521 79.1517 19.3054 78.9517 19.0054C78.6983 18.6387 78.4917 18.6621 78.3317 19.0754C75.445 26.3021 72.5717 31.9721 69.7117 36.0854C63.9817 44.3054 56.8117 50.8054 49.1217 57.4254C46.0817 60.0321 42.695 62.5854 38.9617 65.0854C28.7817 71.8987 19.3517 77.2454 10.6717 81.1254C7.57167 82.5121 4.08167 83.3387 0.201667 83.6054C0.0816667 83.6121 0.015 83.5554 0.00166667 83.4354C-0.005 83.3487 0.00833333 83.2587 0.0416667 83.1654C0.161667 83.0721 0.298333 83.0287 0.451667 83.0354C0.671667 83.0421 0.825 82.9454 0.911667 82.7454C1.27833 81.9321 1.76833 81.2287 2.38167 80.6354C4.52833 80.8221 5.97833 80.1554 6.73167 78.6354C11.565 68.8887 15.305 62.0954 17.9517 58.2554C20.4517 54.6254 22.4817 50.6954 25.2917 47.2354C28.6717 43.0887 32.6817 38.7654 37.3217 34.2654C46.2117 25.6454 56.6817 18.1054 66.2917 10.2254C70.665 6.63206 75.3717 3.24873 80.4117 0.0753944C80.512 0.0137574 80.6309 -0.011289 80.7473 0.00471128C80.8636 0.0207115 80.9701 0.0767497 81.0477 0.162856C81.1254 0.248963 81.1693 0.35971 81.1717 0.475394Z"
    sodipodi:nodetypes="ccccccccccccccccccccccccc" />
  <path id="shape37" transform="matrix(0.03515625 0 0 0.03515625 7.30611732219828 14.270625)"
    fill="#f0ddc4" stroke-opacity="0" stroke="#000000" stroke-width="0" stroke-linecap="square"
    stroke-linejoin="bevel"
    d="M1.83155 0L2.37155 3.42C2.43822 3.84 2.67822 4.08333 3.09155 4.15L5.85155 4.63C6.20489 4.69667 6.42822 4.90333 6.52155 5.25L6.98155 6.96C7.07489 7.31333 7.30822 7.48 7.68155 7.46C7.93489 7.44667 8.20822 7.33333 8.50155 7.12L7.46155 11.43C6.80155 11.4033 6.17822 11.4167 5.59155 11.47C5.01155 11.5167 4.45489 11.73 3.92155 12.11C3.04155 12.7367 2.25155 13.34 1.55155 13.92C1.15822 14.42 0.814885 14.7533 0.521552 14.92C0.154885 15.1333 -0.0184483 15.03 0.00155172 14.61L0.241552 9.31Z"
    sodipodi:nodetypes="cccccccccccccccc" />
  <path id="shape38" transform="matrix(0.03515625 0 0 0.03515625 4.52601298167293 14.5311838942308)"
    fill="#c79567" stroke-opacity="0" stroke="#000000" stroke-width="0" stroke-linecap="square"
    stroke-linejoin="bevel"
    d="M79.3201 1.89855L79.0801 7.19855C79.0601 7.61855 79.2334 7.72188 79.6001 7.50855C79.8934 7.34188 80.2367 7.00855 80.6301 6.50855C81.6301 7.43521 81.9201 8.74188 81.5001 10.4285C80.9067 12.8152 80.3567 15.1585 79.8501 17.4585C79.4967 19.0652 78.9667 20.4219 78.2601 21.5285C77.4867 22.7219 76.7901 23.9585 76.1701 25.2385C74.8101 28.0285 72.5901 30.2185 70.7601 32.6885C70.6966 32.776 70.6604 32.8803 70.6558 32.9883C70.6513 33.0963 70.6787 33.2033 70.7346 33.2958C70.7904 33.3883 70.8724 33.4623 70.9701 33.5085C71.1367 33.5885 71.3767 33.5819 71.6901 33.4885C65.5234 40.9952 58.1667 47.1919 49.6201 52.0785C42.4867 56.1652 35.5201 60.0952 28.7201 63.8685C17.7701 69.9585 9.16008 77.6985 1.31008 87.0585C0.430075 88.1052 -0.00659148 87.9452 7.5188e-05 86.5785L0.130075 63.1685L0.290075 64.4185C0.256742 64.5119 0.243409 64.6019 0.250075 64.6885C0.263409 64.8085 0.330075 64.8652 0.450075 64.8585C4.33008 64.5919 7.82008 63.7652 10.9201 62.3785C19.6001 58.4985 29.0301 53.1519 39.2101 46.3385C42.9434 43.8385 46.3301 41.2852 49.3701 38.6785C57.0601 32.0585 64.2301 25.5585 69.9601 17.3385C72.8201 13.2252 75.6934 7.55521 78.5801 0.328547C78.7401 -0.0847863 78.9467 -0.10812 79.2001 0.258547C79.4001 0.558547 79.4401 1.10521 79.3201 1.89855Z"
    sodipodi:nodetypes="cccccccccccccccccccccccccccc" />
  <path id="shape39" transform="matrix(0.03515625 0 0 0.03515625 1.12300613839286 14.6694166551438)"
    fill="#c79567" stroke-opacity="0" stroke="#000000" stroke-width="0" stroke-linecap="square"
    stroke-linejoin="bevel"
    d="M73.6267 59.7166C77.54 60.2966 79.2434 59.6899 78.7367 57.8966L78.9067 82.3666C78.9134 83.2266 78.6334 83.3333 78.0667 82.6866C71.4334 74.9933 64.0634 68.5733 55.9567 63.4266C47.8634 58.2866 38.48 52.5999 27.8067 46.3666C23.4067 43.7933 19.0767 40.7499 14.8167 37.2366C8.88338 32.3433 4.26005 26.6499 0.946714 20.1566C0.00671429 14.7366 -0.233286 9.45993 0.226714 4.32659C0.300048 3.52659 0.486714 2.83326 0.786714 2.24659C1.05338 1.73326 1.18671 1.19326 1.18671 0.626593C1.18671 -0.16674 1.35671 -0.20674 1.69671 0.506593C10.1667 18.0566 24.3167 31.9066 40.8067 42.7766C47.5534 47.2233 54.03 51.3299 60.2367 55.0966C63.1834 56.8833 66.28 58.3933 69.5267 59.6266C71.0734 60.2199 72.44 60.2499 73.6267 59.7166Z"
    sodipodi:nodetypes="cccccccccccccccc" />
  <path id="shape40" transform="matrix(0.03515625 0 0 0.03515625 7.00998984363937 14.6719921875)"
    fill="#dfbd96" stroke-opacity="0" stroke="#000000" stroke-width="0" stroke-linecap="square"
    stroke-linejoin="bevel"
    d="M15.8847 0.0133333C13.3647 10.9033 8.13473 20.7933 1.03473 29.4833C0.7214 29.5767 0.4814 29.5833 0.314733 29.5033C0.21704 29.4571 0.135108 29.3831 0.0792248 29.2906C0.0233416 29.1981 -0.00405163 29.0911 0.000484585 28.9831C0.0050208 28.8751 0.0412883 28.7708 0.104733 28.6833C1.93473 26.2133 4.15473 24.0233 5.51473 21.2333C6.13473 19.9533 6.8314 18.7167 7.60473 17.5233C8.3114 16.4167 8.8414 15.06 9.19473 13.4533C9.7014 11.1533 10.2514 8.81 10.8447 6.42333C11.2647 4.73667 10.9747 3.43 9.97473 2.50333C10.6747 1.92333 11.4647 1.32 12.3447 0.693333C12.8781 0.313333 13.4347 0.1 14.0147 0.0533333C14.6014 0 15.2247 -0.0133333 15.8847 0.0133333Z"
    sodipodi:nodetypes="cccccccccccccc" />
  <path id="shape41" transform="matrix(0.03515625 0 0 0.03515625 4.531953125 16.5432848550276)"
    fill="#f59d57" stroke-opacity="0" stroke="#000000" stroke-width="0" stroke-linecap="square"
    stroke-linejoin="bevel"
    d="M85.6811 38.8855C83.9878 38.6388 82.4544 38.8888 81.0811 39.6355C80.8876 39.7416 80.6613 39.7721 80.4466 39.7209C80.2319 39.6697 80.0437 39.5404 79.9189 39.3584C79.7941 39.1763 79.7414 38.9542 79.7711 38.7355C80.1511 35.9088 80.6044 33.1088 81.1311 30.3355C81.9578 25.9621 82.1878 21.2988 81.8211 16.3455C82.4411 14.5588 82.7244 12.1755 82.6711 9.19545C82.6679 8.99615 82.6 8.80319 82.4777 8.6458C82.3554 8.4884 82.1852 8.37493 81.9929 8.32258C81.8005 8.27022 81.5963 8.28176 81.4111 8.35545C78.6811 9.44545 76.3011 11.0555 73.5411 12.3055C64.9544 16.1988 57.5978 20.0988 51.4711 24.0055C40.2578 31.1521 30.0278 40.3455 20.7811 51.5855C14.4478 59.2921 9.04444 68.8721 4.57111 80.3255C2.73111 85.0455 1.84111 89.9455 0.601111 94.7755C0.583237 94.8479 0.542643 94.9128 0.485293 94.9606C0.427943 95.0083 0.35679 95.0365 0.282287 95.041C0.207784 95.0455 0.133768 95.026 0.0711111 94.9855C0.0177778 94.9521 -0.00555556 94.8488 0.00111111 94.6755C0.741111 86.3655 3.63111 77.9555 7.04111 69.1955C16.1311 45.8355 35.1211 26.2555 56.9611 14.2755C66.8678 8.84212 77.6411 4.08879 89.2811 0.015453C89.3351 -0.00365042 89.3938 -0.00507906 89.4487 0.0113749C89.5036 0.027829 89.5518 0.061327 89.5864 0.106995C89.621 0.152664 89.6401 0.208175 89.6411 0.265453C89.5911 13.3055 89.0311 26.2655 85.6811 38.8855Z"
    sodipodi:nodetypes="ccccccccccccccccccccccccccc" />
  <path id="shape42"
    transform="matrix(0.03515625 0 0 0.03515625 0.743868438930207 16.5471385005722)" fill="#f59d57"
    stroke-opacity="0" stroke="#000000" stroke-width="0" stroke-linecap="square"
    stroke-linejoin="bevel"
    d="M89.2311 91.0858C89.1844 91.1658 89.1477 91.2458 89.1211 91.3258C89.0928 91.4132 89.0457 91.4928 88.9833 91.5586C88.921 91.6244 88.845 91.6748 88.7611 91.7058C88.6477 91.7392 88.5377 91.7092 88.4311 91.6158C88.3044 91.4958 88.2211 91.3492 88.1811 91.1758C86.9744 85.4358 85.7877 80.9992 84.6211 77.8658C76.0611 54.9058 59.6711 38.0258 39.7211 24.3158C29.6811 17.4158 18.3611 12.7558 7.04108 7.93584C6.54108 7.7225 6.33108 7.88584 6.41108 8.42584L8.11108 20.2858C8.08441 25.3058 8.78774 30.3792 10.2211 35.5058C7.53441 35.7458 5.44108 36.5458 3.94108 37.9058C1.17441 25.3858 -0.135591 12.8792 0.0110755 0.385838C0.0119353 0.305219 0.037774 0.226815 0.085015 0.161481C0.132256 0.0961467 0.198614 0.0470417 0.274904 0.020963C0.351194 -0.00511565 0.433726 -0.00690656 0.511076 0.0158382C24.6111 7.2225 45.2177 19.3225 62.3311 36.3158C66.6511 40.6058 70.9111 46.6658 74.1511 52.1358C81.0411 63.7658 87.0111 77.4858 89.2311 91.0858Z"
    sodipodi:nodetypes="cccccccccccccccccccc" />
  <path id="shape43" transform="matrix(0.03515625 0 0 0.03515625 0.968675915948275 16.822946971792)"
    fill="#d26c20" stroke-opacity="0" stroke="#000000" stroke-width="0" stroke-linecap="square"
    stroke-linejoin="bevel"
    d="M82.8366 83.2406L83.4566 89.1306L77.4066 90.4206C76.6666 90.4606 76.2032 90.2206 76.0166 89.7006C70.6099 74.9073 62.4866 62.014 51.6466 51.0206C43.7732 43.034 34.5032 34.5906 23.8366 25.6906C17.1466 20.1006 9.49655 16.1706 2.78655 10.6206C2.67292 10.5289 2.53235 10.4767 2.38637 10.4722C2.24038 10.4677 2.09685 10.511 1.97776 10.5956C1.85867 10.6801 1.77042 10.8013 1.72655 10.9406C1.60655 11.3473 1.60322 11.8473 1.71655 12.4406L0.0165517 0.580619C-0.0634483 0.0406195 0.146552 -0.122714 0.646552 0.0906195C11.9666 4.91062 23.2866 9.57062 33.3266 16.4706C53.2766 30.1806 69.6666 47.0606 78.2266 70.0206C79.3932 73.154 80.5799 77.5906 81.7866 83.3306C81.8266 83.504 81.9099 83.6506 82.0366 83.7706C82.1432 83.864 82.2532 83.894 82.3666 83.8606C82.4504 83.8295 82.5264 83.7792 82.5888 83.7134C82.6511 83.6476 82.6982 83.568 82.7266 83.4806C82.7532 83.4006 82.7899 83.3206 82.8366 83.2406Z"
    sodipodi:nodetypes="ccccccccccccccccccccc" />
  <path id="shape44" transform="matrix(0.03515625 0 0 0.03515625 4.52109375000001 16.834740058588)"
    fill="#d26c20" stroke-opacity="0" stroke="#000000" stroke-width="0" stroke-linecap="square"
    stroke-linejoin="bevel"
    d="M82.13 8.05517C79.03 10.5952 76.0433 13.0418 73.17 15.3952C66.9767 20.4685 60.73 25.4818 54.43 30.4352C49.96 33.9552 45.73 37.7152 41.31 41.3452C37.91 44.1452 34.98 47.5652 31.88 50.7552C29.5467 53.1552 27.3967 55.6918 25.43 58.3652C19.02 67.0852 12.99 75.2852 8.61 85.5252C7.97 87.0252 7.24333 88.4752 6.43 89.8752L2.15 89.6152C1.81667 89.5952 1.49667 89.6518 1.19 89.7852C1.00333 89.8718 0.81 89.9052 0.61 89.8852C0.243333 89.8518 0.05 89.6518 0.03 89.2852L0 88.6052L0.31 86.3852C0.303333 86.5585 0.326667 86.6618 0.38 86.6952C0.442657 86.7357 0.516673 86.7552 0.591176 86.7507C0.665679 86.7462 0.736832 86.7181 0.794182 86.6703C0.851532 86.6225 0.892126 86.5576 0.91 86.4852C2.15 81.6552 3.04 76.7552 4.88 72.0352C9.35333 60.5818 14.7567 51.0018 21.09 43.2952C30.3367 32.0552 40.5667 22.8618 51.78 15.7152C57.9067 11.8085 65.2633 7.90851 73.85 4.01517C76.61 2.76517 78.99 1.15517 81.72 0.0651717C81.9052 -0.00851842 82.1094 -0.0200601 82.3018 0.0322944C82.4941 0.084649 82.6643 0.198116 82.7866 0.355514C82.9089 0.512911 82.9768 0.705871 82.98 0.905172C83.0333 3.88517 82.75 6.26851 82.13 8.05517Z"
    sodipodi:nodetypes="ccccccccccccccccccccccccccc" />
  <path id="shape45" transform="matrix(0.03515625 0 0 0.03515625 4.74714843749999 17.1179296875)"
    fill="#a94a12" stroke-opacity="0" stroke="#000000" stroke-width="0" stroke-linecap="square"
    stroke-linejoin="bevel"
    d="M75.7 0C76.0667 4.95333 75.8367 9.61667 75.01 13.99C74.4833 16.7633 74.03 19.5633 73.65 22.39C73.6203 22.6087 73.673 22.8309 73.7978 23.0129C73.9226 23.195 74.1108 23.3243 74.3255 23.3755C74.5402 23.4266 74.7665 23.3962 74.96 23.29C76.3333 22.5433 77.8667 22.2933 79.56 22.54C79.5933 23.5067 79.4 24.43 78.98 25.31L75.3 34.95C75.2654 35.0432 75.207 35.1257 75.1308 35.189C75.0547 35.2523 74.9635 35.2941 74.8667 35.3101C74.7699 35.326 74.6709 35.3157 74.58 35.28L74.3 35.17C74.26 35.1567 74.2467 35.1267 74.26 35.08C75.04 32.5067 75.6467 30.1867 76.08 28.12C76.1134 27.9489 76.0964 27.7718 76.0311 27.6106C75.9657 27.4495 75.855 27.3114 75.7126 27.2135C75.5702 27.1156 75.4024 27.0622 75.23 27.06C73.8767 27.0467 73.1767 26.4 73.13 25.12C73.1167 24.7133 72.95 24.3867 72.63 24.14C72.3633 23.94 72.1467 23.9833 71.98 24.27C69.9533 27.73 67.7967 31.2533 65.51 34.84C63.1833 38.5 60.7467 41.84 58.2 44.86C48.44 56.44 37.5 66.67 24.73 74.19C18.1433 78.0767 11.2267 80.7867 3.98 82.32C2.51333 82.6267 1.18667 82.46 0 81.82C0.813333 80.42 1.54 78.97 2.18 77.47C6.56 67.23 12.59 59.03 19 50.31C20.9667 47.6367 23.1167 45.1 25.45 42.7C28.55 39.51 31.48 36.09 34.88 33.29C39.3 29.66 43.53 25.9 48 22.38C54.3 17.4267 60.5467 12.4133 66.74 7.34C69.6133 4.98667 72.6 2.54 75.7 0Z"
    sodipodi:nodetypes="ccccccccccccccccccccccccccccccccc" />
  <path id="shape46" transform="matrix(0.03515625 0 0 0.03515625 1.02612053571428 17.1910988612845)"
    fill="#a94a12" stroke-opacity="0" stroke="#000000" stroke-width="0" stroke-linecap="square"
    stroke-linejoin="bevel"
    d="M75.7726 79.9487C71.9859 80.1887 68.4092 79.6354 65.0426 78.2887C56.8159 74.9887 48.7659 70.4187 40.8926 64.5787C38.4859 62.7921 35.5826 60.2754 32.1826 57.0287C29.4426 54.4021 26.5959 51.8054 23.6426 49.2387C21.6226 47.4854 18.0826 43.2887 13.0226 36.6487C11.3092 34.4021 9.84257 32.0554 8.62257 29.6087C7.36257 27.0754 6.04924 24.6154 4.68257 22.2287C4.5759 22.0421 4.4159 21.9287 4.20257 21.8887C4.1159 21.8687 4.0359 21.8821 3.96257 21.9287C3.62924 22.1287 3.49257 22.4221 3.55257 22.8087C3.85257 24.6221 3.95924 26.4121 3.87257 28.1787C3.87257 28.2321 3.8459 28.2621 3.79257 28.2687C3.75924 28.2754 3.72924 28.2754 3.70257 28.2687C3.6359 28.2421 3.59924 28.1921 3.59257 28.1187C3.21924 24.4054 2.75257 20.7621 2.19257 17.1887C0.759238 12.0621 0.0559048 6.98874 0.0825714 1.96874C-0.0307619 1.37541 -0.0274286 0.87541 0.0925714 0.468744C0.136443 0.329436 0.224685 0.208222 0.343778 0.123675C0.462871 0.0391277 0.606404 -0.00420314 0.752387 0.00032156C0.898369 0.00484626 1.03894 0.056983 1.15257 0.148744C7.86257 5.69874 15.5126 9.62874 22.2026 15.2187C32.8692 24.1187 42.1392 32.5621 50.0126 40.5487C60.8526 51.5421 68.9759 64.4354 74.3826 79.2287C74.5692 79.7487 75.0326 79.9887 75.7726 79.9487Z"
    sodipodi:nodetypes="ccccccccccccccccccccccccc" />
  <path id="shape47" transform="matrix(0.03515625 0 0 0.03515625 0.882421874999999 17.795390625)"
    fill="#8a3108" stroke-opacity="0" stroke="#000000" stroke-width="0" stroke-linecap="square"
    stroke-linejoin="bevel"
    d="M6.28 0C6.84 3.57333 7.30667 7.21667 7.68 10.93C7.68667 11.0033 7.72333 11.0533 7.79 11.08C7.81667 11.0867 7.84667 11.0867 7.88 11.08C7.93333 11.0733 7.96 11.0433 7.96 10.99C8.04667 9.22333 7.94 7.43333 7.64 5.62C7.58 5.23333 7.71667 4.94 8.05 4.74C8.12333 4.69333 8.20333 4.68 8.29 4.7C8.50333 4.74 8.66333 4.85333 8.77 5.04C10.1367 7.42667 11.45 9.88667 12.71 12.42C13.93 14.8667 15.3967 17.2133 17.11 19.46C22.17 26.1 25.71 30.2967 27.73 32.05C30.6833 34.6167 33.53 37.2133 36.27 39.84C39.67 43.0867 42.5733 45.6033 44.98 47.39C52.8533 53.23 60.9033 57.8 69.13 61.1C72.4967 62.4467 76.0733 63 79.86 62.76L85.91 61.47L86.59 75.6C86.5955 75.7063 86.5717 75.8121 86.5211 75.9057C86.4705 75.9994 86.3952 76.0773 86.3032 76.131C86.2113 76.1846 86.1064 76.212 86 76.21C84.86 76.1967 83.7933 76.0967 82.8 75.91C67.1333 72.95 53.6067 67.7767 42.22 60.39C31.9 53.6967 22.96 45.4367 15.4 35.61C11.66 30.75 8.75667 26.0433 6.69 21.49C3.84333 15.2233 1.61333 8.86 0 2.4C1.5 1.04 3.59333 0.24 6.28 0Z"
    sodipodi:nodetypes="ccccccccccccccccccccccccccc" />
  <path id="shape48" transform="matrix(0.03515625 0 0 0.03515625 4.50702787978673 17.9622672303082)"
    fill="#8a3108" stroke-opacity="0" stroke="#000000" stroke-width="0" stroke-linecap="square"
    stroke-linejoin="bevel"
    d="M85.8101 1.29329C85.6234 4.12662 85.0768 6.84662 84.1701 9.45329C84.0768 9.71329 83.7701 10.02 83.2501 10.3733C82.9636 10.5619 82.7436 10.8309 82.6201 11.1433C78.7068 20.8633 73.2601 29.4633 66.2801 36.9433C55.9001 48.0633 44.1268 56.5333 30.9601 62.3533C21.0268 66.7466 10.9368 69.9466 0.690096 71.9533C0.576654 71.9752 0.459204 71.9628 0.352888 71.9175C0.246571 71.8723 0.156161 71.7963 0.0933117 71.6993C0.0304622 71.6024 -0.00200484 71.4888 9.58638e-05 71.3733L0.400096 56.5333L0.430096 57.2133C0.450096 57.58 0.643429 57.78 1.0101 57.8133C1.2101 57.8333 1.40343 57.8 1.5901 57.7133C1.89676 57.58 2.21676 57.5233 2.5501 57.5433L6.8301 57.8033C8.01676 58.4433 9.34343 58.61 10.8101 58.3033C18.0568 56.77 24.9734 54.06 31.5601 50.1733C44.3301 42.6533 55.2701 32.4233 65.0301 20.8433C67.5768 17.8233 70.0134 14.4833 72.3401 10.8233C74.6268 7.23662 76.7834 3.71329 78.8101 0.253288C78.9768 -0.033379 79.1934 -0.0767123 79.4601 0.123288C79.7801 0.369954 79.9468 0.696621 79.9601 1.10329C80.0068 2.38329 80.7068 3.02995 82.0601 3.04329C82.2325 3.04552 82.4003 3.09891 82.5427 3.19679C82.6851 3.29467 82.7958 3.43279 82.8611 3.59392C82.9265 3.75506 82.9435 3.93221 82.9101 4.10329C82.4768 6.16995 81.8701 8.48995 81.0901 11.0633C81.0768 11.11 81.0901 11.14 81.1301 11.1533L81.4101 11.2633C81.501 11.299 81.6 11.3093 81.6968 11.2933C81.7936 11.2774 81.8848 11.2356 81.9609 11.1723C82.0371 11.109 82.0955 11.0265 82.1301 10.9333Z"
    sodipodi:nodetypes="cccccccccccccccccccccccccccccccccc" />
</svg>