<?xml version="1.0" encoding="UTF-8" standalone="no"?>
<!DOCTYPE svg PUBLIC "-//W3C//DTD SVG 1.1//EN" "http://www.w3.org/Graphics/SVG/1.1/DTD/svg11.dtd">
<svg xmlns="http://www.w3.org/2000/svg" version="1.1" viewBox="0.00 0.00 474.00 700.00">
<g stroke-width="2.00" fill="none" stroke-linecap="butt">
<path stroke="#80a19e" vector-effect="non-scaling-stroke" d="
  M 256.38 0.47
  Q 258.29 1.44 260.14 2.28
  Q 262.50 3.36 263.78 4.33
  Q 268.39 7.85 270.76 12.82
  Q 271.77 14.93 271.80 17.82
  C 272.05 41.24 271.94 64.68 272.03 88.10
  Q 272.04 88.50 272.01 88.90
  Q 271.90 90.59 273.48 90.99
  C 302.01 98.14 326.02 116.78 339.52 143.36
  A 1.69 1.68 -10.8 0 0 340.85 144.26
  Q 360.10 146.00 377.12 152.49
  Q 385.05 155.51 393.14 160.32
  Q 409.53 170.09 420.96 182.83
  Q 449.96 215.15 469.37 252.61
  C 472.83 259.28 475.63 266.49 469.47 272.70
  C 467.09 275.09 463.24 277.26 460.25 278.47
  Q 441.61 286.03 421.42 291.48
  A 0.98 0.98 0.0 0 0 420.83 292.92
  Q 421.67 294.35 422.80 295.48
  C 441.23 313.90 452.36 337.73 457.22 363.36
  Q 460.72 381.87 460.40 400.31
  Q 460.19 412.16 459.54 422.07
  Q 458.82 432.96 456.50 445.18
  C 455.48 450.51 452.49 456.26 446.90 457.20
  Q 443.82 457.72 440.90 457.30
  Q 430.10 455.76 420.07 453.57
  C 411.98 451.80 404.25 448.99 396.21 446.99
  Q 395.30 446.77 395.34 447.70
  Q 395.79 458.85 395.62 470.48
  C 395.56 474.39 395.20 478.50 394.65 482.36
  Q 392.86 494.84 389.31 509.39
  Q 383.48 533.21 372.09 556.13
  C 371.06 558.21 369.72 560.11 368.55 562.13
  C 363.75 570.40 352.26 568.06 345.08 565.30
  A 1.09 1.06 -59.5 0 0 343.86 565.63
  Q 343.74 565.77 343.97 566.00"
/>
<path stroke="#80a19e" vector-effect="non-scaling-stroke" d="
  M 343.91 566.54
  Q 343.74 566.51 343.67 566.42
  Q 343.65 566.40 343.65 566.43
  Q 340.87 599.34 323.27 625.32
  Q 311.22 643.11 294.05 658.96
  Q 289.84 662.85 285.69 666.63
  Q 269.12 681.73 252.10 692.83
  Q 244.60 697.73 240.91 698.59
  Q 234.36 700.12 228.02 696.57
  Q 219.46 691.77 210.22 684.60
  Q 196.84 674.22 186.93 665.36
  Q 181.78 660.75 170.50 649.33
  Q 162.16 640.89 157.28 634.37
  Q 144.50 617.32 137.82 599.46
  Q 131.75 583.21 130.21 566.35
  Q 130.07 564.75 128.56 565.29
  C 124.90 566.60 118.13 569.25 114.75 568.22
  Q 112.19 567.44 109.49 566.58"
/>
<path stroke="#80a19e" vector-effect="non-scaling-stroke" d="
  M 105.71 563.03
  Q 102.40 557.70 101.50 555.75
  Q 94.74 541.28 89.55 526.70
  Q 82.82 507.82 79.83 487.96
  Q 76.91 468.55 78.45 447.42
  A 0.66 0.66 0.0 0 0 77.60 446.74
  Q 54.21 453.64 33.97 457.11
  Q 24.78 458.68 20.15 453.02
  Q 17.51 449.80 16.39 442.57
  Q 11.52 411.32 13.95 381.07
  Q 14.60 372.91 16.27 364.18
  C 21.10 338.91 31.95 316.30 49.13 297.13
  Q 49.98 296.18 51.92 294.43
  Q 52.48 293.93 52.71 293.44
  Q 53.40 292.00 51.98 292.11"
/>
<path stroke="#80a19e" vector-effect="non-scaling-stroke" d="
  M 51.21 291.89
  Q 50.85 291.43 49.13 291.13
  Q 41.70 289.85 21.76 282.60
  Q 18.65 281.47 11.37 278.14
  Q 4.65 275.06 0.94 270.32"
/>
<path stroke="#80a19e" vector-effect="non-scaling-stroke" d="
  M 0.29 260.96
  Q 3.77 252.17 7.41 246.26
  Q 9.34 243.13 11.05 240.12
  Q 13.02 236.66 14.88 233.73
  Q 26.83 214.95 33.71 205.57
  Q 37.57 200.31 41.79 195.33
  Q 43.80 192.95 45.72 190.78
  Q 51.55 184.19 58.09 177.68
  Q 64.53 171.28 71.71 166.18
  Q 96.02 148.89 126.55 144.72
  Q 128.22 144.49 130.12 144.43
  Q 131.69 144.39 133.33 144.20"
/>
<path stroke="#80a19e" vector-effect="non-scaling-stroke" d="
  M 134.04 143.99
  Q 134.14 144.05 134.36 144.00
  Q 134.67 143.93 134.82 143.65
  C 148.13 117.05 172.13 97.65 201.22 90.70
  Q 201.92 90.53 201.91 89.81
  Q 201.28 57.36 201.91 19.28
  Q 202.07 9.57 209.84 4.09
  Q 211.40 2.99 213.34 2.16
  Q 215.17 1.38 217.00 0.48"
/>
<path stroke="#539029" vector-effect="non-scaling-stroke" d="
  M 243.4534 32.2484
  A 0.33 0.33 0.0 0 0 243.1228 31.9190
  L 230.4628 31.9411
  A 0.33 0.33 0.0 0 0 230.1334 32.2717
  L 230.2266 85.6716
  A 0.33 0.33 0.0 0 0 230.5572 86.0010
  L 243.2172 85.9789
  A 0.33 0.33 0.0 0 0 243.5466 85.6483
  L 243.4534 32.2484"
/>
<path stroke="#539029" vector-effect="non-scaling-stroke" d="
  M 223.42 117.16
  Q 212.13 118.58 207.25 119.99
  Q 177.23 128.68 162.50 155.92
  C 151.74 175.84 153.02 200.49 160.16 221.40
  Q 162.97 229.63 166.41 238.70
  A 0.70 0.70 0.0 0 0 167.41 239.06
  C 191.38 225.50 216.89 209.88 231.71 185.97
  Q 234.63 181.26 236.48 176.14
  Q 236.94 174.88 237.47 176.11
  Q 240.64 183.54 244.97 190.04
  C 250.38 198.15 258.49 205.96 266.16 212.27
  Q 282.18 225.46 303.48 237.01
  Q 305.32 238.00 307.37 238.63
  Q 307.87 238.78 308.07 238.29
  Q 315.50 219.69 317.76 206.97
  Q 319.98 194.47 318.29 178.42
  C 316.36 160.07 306.24 142.74 291.07 131.95
  Q 273.20 119.23 250.81 117.04"
/>
<path stroke="#80a19e" vector-effect="non-scaling-stroke" d="
  M 250.81 117.04
  Q 237.28 115.97 223.42 117.16"
/>
<path stroke="#d3ee8b" vector-effect="non-scaling-stroke" d="
  M 250.81 117.04
  Q 253.25 118.92 255.68 120.34
  Q 259.58 122.63 260.68 123.42
  C 277.40 135.44 290.10 150.87 297.70 170.41
  C 299.39 174.76 299.86 179.94 297.27 183.96
  C 293.60 189.64 285.86 189.85 281.89 184.44
  Q 278.83 180.27 275.27 174.59
  C 265.98 159.78 253.31 148.08 238.98 137.32
  Q 237.56 136.25 236.03 137.28
  Q 209.66 154.97 194.42 182.29
  Q 190.09 190.06 182.37 187.80
  Q 178.56 186.69 176.51 182.94
  C 173.57 177.57 176.09 171.45 178.57 166.16
  C 186.67 148.82 198.46 134.53 214.12 123.69
  Q 218.69 120.54 223.42 117.16"
/>
<path stroke="#539029" vector-effect="non-scaling-stroke" d="
  M 90.32 192.31
  Q 88.09 193.47 85.28 195.82
  Q 73.86 205.37 65.19 215.44
  Q 53.74 228.76 40.36 250.30"
/>
<path stroke="#1d8232" vector-effect="non-scaling-stroke" d="
  M 40.36 250.30
  L 37.20 254.74
  A 0.77 0.76 30.3 0 0 37.50 255.88
  C 42.11 258.04 46.51 259.23 51.26 260.67
  Q 74.15 267.61 97.90 268.07
  C 113.41 268.36 127.80 265.89 142.34 261.26
  A 0.60 0.59 -19.4 0 0 142.72 260.47
  L 131.15 231.89"
/>
<path stroke="#539029" vector-effect="non-scaling-stroke" d="
  M 131.15 231.89
  Q 127.19 219.37 125.53 208.50
  Q 124.83 203.90 124.81 198.52"
/>
<path stroke="#80a19e" vector-effect="non-scaling-stroke" d="
  M 124.81 198.52
  Q 124.34 186.68 125.81 176.34
  A 0.66 0.66 0.0 0 0 124.98 175.61
  Q 105.75 180.76 90.32 192.31"
/>
<path stroke="#d3ee8b" vector-effect="non-scaling-stroke" d="
  M 124.81 198.52
  Q 113.65 204.33 103.16 211.93
  Q 99.14 214.84 95.54 217.61
  Q 90.93 221.15 87.95 221.44
  C 81.74 222.05 76.57 217.98 77.04 211.48
  Q 77.44 205.97 81.95 201.69
  Q 86.55 197.32 90.32 192.31"
/>
<path stroke="#70cf1f" vector-effect="non-scaling-stroke" d="
  M 131.15 231.89
  Q 126.01 235.11 120.79 238.06
  Q 115.09 241.28 107.26 243.66
  Q 100.02 245.86 97.79 246.31
  Q 80.94 249.69 62.25 250.18
  Q 51.64 250.45 40.36 250.30"
/>
<path stroke="#539029" vector-effect="non-scaling-stroke" d="
  M 349.22 198.86
  Q 348.69 203.49 348.26 207.24
  Q 346.83 219.56 343.31 230.54"
/>
<path stroke="#1d8232" vector-effect="non-scaling-stroke" d="
  M 343.31 230.54
  L 332.56 259.75
  Q 332.25 260.61 333.09 260.94
  Q 350.78 267.85 370.82 268.19
  Q 385.08 268.43 396.33 266.64
  Q 416.36 263.46 435.75 256.19
  Q 436.59 255.88 436.13 255.11
  L 433.14 250.17"
/>
<path stroke="#539029" vector-effect="non-scaling-stroke" d="
  M 433.14 250.17
  C 422.73 234.05 412.12 218.53 398.59 204.91
  Q 393.73 200.01 386.81 195.37"
/>
<path stroke="#80a19e" vector-effect="non-scaling-stroke" d="
  M 386.81 195.37
  Q 370.05 180.91 348.74 176.00
  A 0.47 0.47 0.0 0 0 348.17 176.51
  Q 349.50 188.24 349.22 198.86"
/>
<path stroke="#d3ee8b" vector-effect="non-scaling-stroke" d="
  M 386.81 195.37
  Q 389.20 198.73 391.92 201.76
  C 395.42 205.68 398.46 211.34 395.80 216.60
  C 392.69 222.79 384.54 222.33 379.81 218.67
  Q 364.43 206.75 349.22 198.86"
/>
<path stroke="#70cf1f" vector-effect="non-scaling-stroke" d="
  M 433.14 250.17
  Q 415.15 250.53 397.39 249.48
  Q 389.35 249.01 383.18 247.94
  Q 376.13 246.72 369.21 244.88
  Q 354.63 240.99 343.31 230.54"
/>
<path stroke="#539029" vector-effect="non-scaling-stroke" d="
  M 158.78 323.92
  Q 163.18 351.99 178.93 374.57
  Q 189.48 389.69 202.60 402.65
  Q 218.60 418.45 236.12 431.65
  A 1.59 1.57 -43.7 0 0 237.98 431.68
  C 256.52 418.77 274.07 402.44 288.46 384.13
  Q 297.28 372.89 299.99 368.20
  Q 312.64 346.25 315.75 321.83"
/>
<path stroke="#1d8232" vector-effect="non-scaling-stroke" d="
  M 315.75 321.83
  Q 318.50 298.10 311.94 276.75
  C 311.34 274.81 310.54 273.46 308.51 272.69
  C 282.34 262.67 258.14 246.68 237.54 227.92
  A 1.09 1.08 -45.6 0 0 236.05 227.94
  C 224.70 238.92 211.67 247.71 197.96 256.24
  Q 183.28 265.36 165.02 272.53
  C 161.87 273.77 161.69 276.41 160.87 280.03
  Q 155.89 302.08 158.78 323.92"
/>
<path stroke="#70cf1f" vector-effect="non-scaling-stroke" d="
  M 315.75 321.83
  Q 307.50 311.10 298.36 303.16
  Q 278.13 285.56 255.52 270.67
  Q 249.28 266.56 243.16 262.05
  Q 240.54 260.12 237.61 258.40
  Q 237.12 258.11 236.66 258.44
  C 227.31 265.18 216.48 271.52 207.93 277.77
  Q 193.07 288.62 176.92 302.43
  Q 165.46 312.23 158.78 323.92"
/>
<path stroke="#539029" vector-effect="non-scaling-stroke" d="
  M 348.44 385.19
  Q 366.29 402.07 389.56 411.13
  Q 408.70 418.59 427.73 423.51
  Q 428.24 423.64 428.29 423.11
  Q 430.12 404.80 429.10 386.34
  Q 427.97 365.81 421.21 347.26
  Q 419.60 342.85 416.25 337.59"
/>
<path stroke="#1d8232" vector-effect="non-scaling-stroke" d="
  M 416.25 337.59
  Q 413.44 331.93 408.58 325.67
  Q 396.66 310.30 383.34 299.34
  Q 382.90 298.98 382.33 298.99
  Q 379.79 299.04 377.23 299.18
  Q 360.63 300.07 345.71 296.28
  A 0.63 0.62 4.6 0 0 344.93 296.94
  Q 346.97 320.39 342.55 340.20
  Q 339.30 354.76 333.92 366.79
  Q 333.32 368.13 334.25 369.50
  Q 340.27 378.32 348.44 385.19"
/>
<path stroke="#70cf1f" vector-effect="non-scaling-stroke" d="
  M 416.25 337.59
  Q 413.33 336.13 410.77 334.20
  Q 407.26 331.54 405.46 330.61
  Q 391.35 323.36 375.65 321.54
  C 369.56 320.83 363.54 321.09 357.46 320.72
  A 0.87 0.87 0.0 0 0 356.54 321.66
  Q 357.74 338.33 356.10 354.12
  Q 354.65 368.13 348.44 385.19"
/>
<path stroke="#539029" vector-effect="non-scaling-stroke" d="
  M 57.10 338.06
  Q 53.41 343.68 50.71 351.49
  Q 47.78 359.92 46.64 366.76
  Q 41.99 394.51 45.56 423.20
  Q 45.61 423.59 46.00 423.50
  Q 75.46 416.35 102.43 402.44
  Q 111.66 397.68 124.31 386.24"
/>
<path stroke="#1d8232" vector-effect="non-scaling-stroke" d="
  M 124.31 386.24
  Q 132.96 378.91 139.91 369.89
  Q 141.11 368.33 140.31 366.47
  Q 133.28 350.03 130.79 336.97
  Q 126.91 316.68 129.44 297.81
  A 0.56 0.56 0.0 0 0 128.80 297.18
  Q 110.50 300.10 93.87 299.08
  C 91.18 298.92 89.42 299.98 87.53 301.73
  Q 76.03 312.35 65.95 324.70
  Q 60.24 331.69 57.10 338.06"
/>
<path stroke="#70cf1f" vector-effect="non-scaling-stroke" d="
  M 124.31 386.24
  C 120.44 371.86 117.22 358.99 116.40 344.73
  Q 115.80 334.25 116.39 321.34
  Q 116.42 320.65 115.75 320.82
  C 114.46 321.16 112.95 321.27 111.62 321.24
  C 96.70 320.89 82.69 323.40 69.50 330.04
  Q 67.10 331.25 63.28 333.98
  Q 60.37 336.07 57.10 338.06"
/>
<path stroke="#539029" vector-effect="non-scaling-stroke" d="
  M 108.56 467.46
  Q 108.50 475.78 109.94 484.51
  Q 111.78 495.64 115.27 507.26
  Q 117.24 513.84 120.32 520.92
  Q 123.30 527.81 126.33 534.28
  Q 126.77 535.21 127.66 534.70
  Q 136.84 529.46 146.09 523.76
  Q 169.62 509.26 189.16 488.21"
/>
<path stroke="#1d8232" vector-effect="non-scaling-stroke" d="
  M 189.16 488.21
  Q 191.07 486.64 194.53 482.27
  Q 205.26 468.69 212.33 452.48
  Q 212.77 451.48 211.88 450.84
  C 191.83 436.53 174.85 418.48 159.89 398.78
  A 0.52 0.51 -40.0 0 0 159.13 398.72
  Q 138.62 417.71 113.53 431.37
  C 112.19 432.10 111.27 433.20 111.00 434.75
  Q 109.88 441.13 108.75 447.50
  Q 107.61 453.93 108.56 467.46"
/>
<path stroke="#70cf1f" vector-effect="non-scaling-stroke" d="
  M 189.16 488.21
  Q 184.55 477.14 180.31 469.45
  Q 172.40 455.10 163.66 439.33
  Q 159.48 431.80 155.80 423.68
  A 0.70 0.70 0.0 0 0 154.72 423.43
  C 152.71 425.08 150.76 426.87 148.62 428.34
  Q 134.33 438.12 121.91 450.66
  Q 114.52 458.12 108.56 467.46"
/>
<path stroke="#539029" vector-effect="non-scaling-stroke" d="
  M 284.60 487.17
  Q 301.44 505.84 322.18 519.55
  Q 331.87 525.96 341.14 531.58
  Q 343.76 533.17 347.39 534.81
  Q 347.86 535.01 348.05 534.54
  C 352.95 522.78 357.66 511.59 361.31 499.00
  Q 364.53 487.93 365.07 470.88"
/>
<path stroke="#1d8232" vector-effect="non-scaling-stroke" d="
  M 365.07 470.88
  Q 366.51 453.32 362.96 434.25
  C 362.74 433.06 362.82 432.52 361.63 431.89
  Q 336.20 418.35 315.28 398.68
  A 0.65 0.65 0.0 0 0 314.31 398.76
  Q 306.92 408.59 298.67 418.05
  Q 285.95 432.64 264.99 448.90
  Q 263.54 450.03 261.83 450.93
  A 0.78 0.78 0.0 0 0 261.50 451.97
  Q 266.31 461.56 271.40 470.34
  Q 275.78 477.91 284.60 487.17"
/>
<path stroke="#70cf1f" vector-effect="non-scaling-stroke" d="
  M 365.07 470.88
  Q 362.01 464.26 360.88 462.44
  C 351.03 446.62 335.19 434.98 319.51 424.16
  A 0.68 0.68 0.0 0 0 318.48 424.51
  Q 318.10 425.65 317.49 426.73
  Q 305.77 447.57 293.19 469.45
  Q 289.21 476.37 284.60 487.17"
/>
<path stroke="#539029" vector-effect="non-scaling-stroke" d="
  M 163.60 582.32
  Q 169.24 599.44 177.82 611.43
  Q 186.67 623.80 194.79 631.52
  Q 203.16 639.47 211.90 647.24
  Q 223.35 657.42 237.10 666.87
  A 0.81 0.80 -46.1 0 0 238.03 666.85
  C 254.51 654.77 268.54 641.80 282.61 627.77
  Q 289.17 621.24 295.01 613.49
  Q 306.03 598.89 310.57 581.28"
/>
<path stroke="#1d8232" vector-effect="non-scaling-stroke" d="
  M 310.57 581.28
  C 313.37 571.96 314.12 562.70 314.88 553.02
  Q 315.07 550.62 313.03 549.42
  C 291.89 536.94 273.36 522.31 257.92 504.14
  Q 246.21 490.37 237.24 475.41
  A 0.27 0.27 0.0 0 0 236.79 475.40
  C 232.28 482.10 228.19 489.01 223.23 495.35
  Q 197.32 528.53 160.37 550.72
  A 1.99 1.99 0.0 0 0 159.41 552.33
  C 159.02 561.46 160.61 570.24 162.64 578.99
  Q 163.23 581.52 163.60 582.32"
/>
<path stroke="#70cf1f" vector-effect="non-scaling-stroke" d="
  M 310.57 581.28
  Q 302.25 568.22 293.84 560.66
  Q 266.69 536.26 237.79 514.08
  A 0.85 0.83 -44.6 0 0 236.78 514.08
  Q 206.46 536.71 178.69 562.44
  Q 168.77 571.62 163.60 582.32"
/>
</g>
<path fill="#00433c" d="
  M 231.85 0.00
  L 242.11 0.00
  L 256.38 0.47
  Q 258.29 1.44 260.14 2.28
  Q 262.50 3.36 263.78 4.33
  Q 268.39 7.85 270.76 12.82
  Q 271.77 14.93 271.80 17.82
  C 272.05 41.24 271.94 64.68 272.03 88.10
  Q 272.04 88.50 272.01 88.90
  Q 271.90 90.59 273.48 90.99
  C 302.01 98.14 326.02 116.78 339.52 143.36
  A 1.69 1.68 -10.8 0 0 340.85 144.26
  Q 360.10 146.00 377.12 152.49
  Q 385.05 155.51 393.14 160.32
  Q 409.53 170.09 420.96 182.83
  Q 449.96 215.15 469.37 252.61
  C 472.83 259.28 475.63 266.49 469.47 272.70
  C 467.09 275.09 463.24 277.26 460.25 278.47
  Q 441.61 286.03 421.42 291.48
  A 0.98 0.98 0.0 0 0 420.83 292.92
  Q 421.67 294.35 422.80 295.48
  C 441.23 313.90 452.36 337.73 457.22 363.36
  Q 460.72 381.87 460.40 400.31
  Q 460.19 412.16 459.54 422.07
  Q 458.82 432.96 456.50 445.18
  C 455.48 450.51 452.49 456.26 446.90 457.20
  Q 443.82 457.72 440.90 457.30
  Q 430.10 455.76 420.07 453.57
  C 411.98 451.80 404.25 448.99 396.21 446.99
  Q 395.30 446.77 395.34 447.70
  Q 395.79 458.85 395.62 470.48
  C 395.56 474.39 395.20 478.50 394.65 482.36
  Q 392.86 494.84 389.31 509.39
  Q 383.48 533.21 372.09 556.13
  C 371.06 558.21 369.72 560.11 368.55 562.13
  C 363.75 570.40 352.26 568.06 345.08 565.30
  A 1.09 1.06 -59.5 0 0 343.86 565.63
  Q 343.74 565.77 343.97 566.00
  L 343.91 566.54
  Q 343.74 566.51 343.67 566.42
  Q 343.65 566.40 343.65 566.43
  Q 340.87 599.34 323.27 625.32
  Q 311.22 643.11 294.05 658.96
  Q 289.84 662.85 285.69 666.63
  Q 269.12 681.73 252.10 692.83
  Q 244.60 697.73 240.91 698.59
  Q 234.36 700.12 228.02 696.57
  Q 219.46 691.77 210.22 684.60
  Q 196.84 674.22 186.93 665.36
  Q 181.78 660.75 170.50 649.33
  Q 162.16 640.89 157.28 634.37
  Q 144.50 617.32 137.82 599.46
  Q 131.75 583.21 130.21 566.35
  Q 130.07 564.75 128.56 565.29
  C 124.90 566.60 118.13 569.25 114.75 568.22
  Q 112.19 567.44 109.49 566.58
  Q 107.07 565.30 105.71 563.03
  Q 102.40 557.70 101.50 555.75
  Q 94.74 541.28 89.55 526.70
  Q 82.82 507.82 79.83 487.96
  Q 76.91 468.55 78.45 447.42
  A 0.66 0.66 0.0 0 0 77.60 446.74
  Q 54.21 453.64 33.97 457.11
  Q 24.78 458.68 20.15 453.02
  Q 17.51 449.80 16.39 442.57
  Q 11.52 411.32 13.95 381.07
  Q 14.60 372.91 16.27 364.18
  C 21.10 338.91 31.95 316.30 49.13 297.13
  Q 49.98 296.18 51.92 294.43
  Q 52.48 293.93 52.71 293.44
  Q 53.40 292.00 51.98 292.11
  L 51.21 291.89
  Q 50.85 291.43 49.13 291.13
  Q 41.70 289.85 21.76 282.60
  Q 18.65 281.47 11.37 278.14
  Q 4.65 275.06 0.94 270.32
  L 0.00 265.38
  L 0.00 262.50
  Q 0.33 261.98 0.29 260.96
  Q 3.77 252.17 7.41 246.26
  Q 9.34 243.13 11.05 240.12
  Q 13.02 236.66 14.88 233.73
  Q 26.83 214.95 33.71 205.57
  Q 37.57 200.31 41.79 195.33
  Q 43.80 192.95 45.72 190.78
  Q 51.55 184.19 58.09 177.68
  Q 64.53 171.28 71.71 166.18
  Q 96.02 148.89 126.55 144.72
  Q 128.22 144.49 130.12 144.43
  Q 131.69 144.39 133.33 144.20
  Q 133.23 144.03 134.04 143.99
  Q 134.14 144.05 134.36 144.00
  Q 134.67 143.93 134.82 143.65
  C 148.13 117.05 172.13 97.65 201.22 90.70
  Q 201.92 90.53 201.91 89.81
  Q 201.28 57.36 201.91 19.28
  Q 202.07 9.57 209.84 4.09
  Q 211.40 2.99 213.34 2.16
  Q 215.17 1.38 217.00 0.48
  L 231.85 0.00
  Z
  M 243.4534 32.2484
  A 0.33 0.33 0.0 0 0 243.1228 31.9190
  L 230.4628 31.9411
  A 0.33 0.33 0.0 0 0 230.1334 32.2717
  L 230.2266 85.6716
  A 0.33 0.33 0.0 0 0 230.5572 86.0010
  L 243.2172 85.9789
  A 0.33 0.33 0.0 0 0 243.5466 85.6483
  L 243.4534 32.2484
  Z
  M 223.42 117.16
  Q 212.13 118.58 207.25 119.99
  Q 177.23 128.68 162.50 155.92
  C 151.74 175.84 153.02 200.49 160.16 221.40
  Q 162.97 229.63 166.41 238.70
  A 0.70 0.70 0.0 0 0 167.41 239.06
  C 191.38 225.50 216.89 209.88 231.71 185.97
  Q 234.63 181.26 236.48 176.14
  Q 236.94 174.88 237.47 176.11
  Q 240.64 183.54 244.97 190.04
  C 250.38 198.15 258.49 205.96 266.16 212.27
  Q 282.18 225.46 303.48 237.01
  Q 305.32 238.00 307.37 238.63
  Q 307.87 238.78 308.07 238.29
  Q 315.50 219.69 317.76 206.97
  Q 319.98 194.47 318.29 178.42
  C 316.36 160.07 306.24 142.74 291.07 131.95
  Q 273.20 119.23 250.81 117.04
  Q 237.28 115.97 223.42 117.16
  Z
  M 90.32 192.31
  Q 88.09 193.47 85.28 195.82
  Q 73.86 205.37 65.19 215.44
  Q 53.74 228.76 40.36 250.30
  L 37.20 254.74
  A 0.77 0.76 30.3 0 0 37.50 255.88
  C 42.11 258.04 46.51 259.23 51.26 260.67
  Q 74.15 267.61 97.90 268.07
  C 113.41 268.36 127.80 265.89 142.34 261.26
  A 0.60 0.59 -19.4 0 0 142.72 260.47
  L 131.15 231.89
  Q 127.19 219.37 125.53 208.50
  Q 124.83 203.90 124.81 198.52
  Q 124.34 186.68 125.81 176.34
  A 0.66 0.66 0.0 0 0 124.98 175.61
  Q 105.75 180.76 90.32 192.31
  Z
  M 349.22 198.86
  Q 348.69 203.49 348.26 207.24
  Q 346.83 219.56 343.31 230.54
  L 332.56 259.75
  Q 332.25 260.61 333.09 260.94
  Q 350.78 267.85 370.82 268.19
  Q 385.08 268.43 396.33 266.64
  Q 416.36 263.46 435.75 256.19
  Q 436.59 255.88 436.13 255.11
  L 433.14 250.17
  C 422.73 234.05 412.12 218.53 398.59 204.91
  Q 393.73 200.01 386.81 195.37
  Q 370.05 180.91 348.74 176.00
  A 0.47 0.47 0.0 0 0 348.17 176.51
  Q 349.50 188.24 349.22 198.86
  Z
  M 158.78 323.92
  Q 163.18 351.99 178.93 374.57
  Q 189.48 389.69 202.60 402.65
  Q 218.60 418.45 236.12 431.65
  A 1.59 1.57 -43.7 0 0 237.98 431.68
  C 256.52 418.77 274.07 402.44 288.46 384.13
  Q 297.28 372.89 299.99 368.20
  Q 312.64 346.25 315.75 321.83
  Q 318.50 298.10 311.94 276.75
  C 311.34 274.81 310.54 273.46 308.51 272.69
  C 282.34 262.67 258.14 246.68 237.54 227.92
  A 1.09 1.08 -45.6 0 0 236.05 227.94
  C 224.70 238.92 211.67 247.71 197.96 256.24
  Q 183.28 265.36 165.02 272.53
  C 161.87 273.77 161.69 276.41 160.87 280.03
  Q 155.89 302.08 158.78 323.92
  Z
  M 348.44 385.19
  Q 366.29 402.07 389.56 411.13
  Q 408.70 418.59 427.73 423.51
  Q 428.24 423.64 428.29 423.11
  Q 430.12 404.80 429.10 386.34
  Q 427.97 365.81 421.21 347.26
  Q 419.60 342.85 416.25 337.59
  Q 413.44 331.93 408.58 325.67
  Q 396.66 310.30 383.34 299.34
  Q 382.90 298.98 382.33 298.99
  Q 379.79 299.04 377.23 299.18
  Q 360.63 300.07 345.71 296.28
  A 0.63 0.62 4.6 0 0 344.93 296.94
  Q 346.97 320.39 342.55 340.20
  Q 339.30 354.76 333.92 366.79
  Q 333.32 368.13 334.25 369.50
  Q 340.27 378.32 348.44 385.19
  Z
  M 57.10 338.06
  Q 53.41 343.68 50.71 351.49
  Q 47.78 359.92 46.64 366.76
  Q 41.99 394.51 45.56 423.20
  Q 45.61 423.59 46.00 423.50
  Q 75.46 416.35 102.43 402.44
  Q 111.66 397.68 124.31 386.24
  Q 132.96 378.91 139.91 369.89
  Q 141.11 368.33 140.31 366.47
  Q 133.28 350.03 130.79 336.97
  Q 126.91 316.68 129.44 297.81
  A 0.56 0.56 0.0 0 0 128.80 297.18
  Q 110.50 300.10 93.87 299.08
  C 91.18 298.92 89.42 299.98 87.53 301.73
  Q 76.03 312.35 65.95 324.70
  Q 60.24 331.69 57.10 338.06
  Z
  M 108.56 467.46
  Q 108.50 475.78 109.94 484.51
  Q 111.78 495.64 115.27 507.26
  Q 117.24 513.84 120.32 520.92
  Q 123.30 527.81 126.33 534.28
  Q 126.77 535.21 127.66 534.70
  Q 136.84 529.46 146.09 523.76
  Q 169.62 509.26 189.16 488.21
  Q 191.07 486.64 194.53 482.27
  Q 205.26 468.69 212.33 452.48
  Q 212.77 451.48 211.88 450.84
  C 191.83 436.53 174.85 418.48 159.89 398.78
  A 0.52 0.51 -40.0 0 0 159.13 398.72
  Q 138.62 417.71 113.53 431.37
  C 112.19 432.10 111.27 433.20 111.00 434.75
  Q 109.88 441.13 108.75 447.50
  Q 107.61 453.93 108.56 467.46
  Z
  M 284.60 487.17
  Q 301.44 505.84 322.18 519.55
  Q 331.87 525.96 341.14 531.58
  Q 343.76 533.17 347.39 534.81
  Q 347.86 535.01 348.05 534.54
  C 352.95 522.78 357.66 511.59 361.31 499.00
  Q 364.53 487.93 365.07 470.88
  Q 366.51 453.32 362.96 434.25
  C 362.74 433.06 362.82 432.52 361.63 431.89
  Q 336.20 418.35 315.28 398.68
  A 0.65 0.65 0.0 0 0 314.31 398.76
  Q 306.92 408.59 298.67 418.05
  Q 285.95 432.64 264.99 448.90
  Q 263.54 450.03 261.83 450.93
  A 0.78 0.78 0.0 0 0 261.50 451.97
  Q 266.31 461.56 271.40 470.34
  Q 275.78 477.91 284.60 487.17
  Z
  M 163.60 582.32
  Q 169.24 599.44 177.82 611.43
  Q 186.67 623.80 194.79 631.52
  Q 203.16 639.47 211.90 647.24
  Q 223.35 657.42 237.10 666.87
  A 0.81 0.80 -46.1 0 0 238.03 666.85
  C 254.51 654.77 268.54 641.80 282.61 627.77
  Q 289.17 621.24 295.01 613.49
  Q 306.03 598.89 310.57 581.28
  C 313.37 571.96 314.12 562.70 314.88 553.02
  Q 315.07 550.62 313.03 549.42
  C 291.89 536.94 273.36 522.31 257.92 504.14
  Q 246.21 490.37 237.24 475.41
  A 0.27 0.27 0.0 0 0 236.79 475.40
  C 232.28 482.10 228.19 489.01 223.23 495.35
  Q 197.32 528.53 160.37 550.72
  A 1.99 1.99 0.0 0 0 159.41 552.33
  C 159.02 561.46 160.61 570.24 162.64 578.99
  Q 163.23 581.52 163.60 582.32
  Z"
/>
<path fill="#ffffff" d="
  M 217.00 0.48
  Q 215.17 1.38 213.34 2.16
  Q 211.40 2.99 209.84 4.09
  Q 202.07 9.57 201.91 19.28
  Q 201.28 57.36 201.91 89.81
  Q 201.92 90.53 201.22 90.70
  C 172.13 97.65 148.13 117.05 134.82 143.65
  Q 134.67 143.93 134.36 144.00
  Q 134.14 144.05 134.04 143.99
  C 133.85 142.41 135.14 141.60 135.66 140.65
  Q 139.45 133.73 142.29 129.85
  Q 151.69 116.94 165.13 106.75
  C 169.28 103.60 174.33 100.98 178.88 98.23
  Q 180.28 97.39 181.99 96.86
  Q 183.72 96.33 185.37 95.40
  C 187.30 94.31 189.43 93.88 191.44 92.87
  Q 192.53 92.32 193.74 92.07
  Q 197.17 91.35 200.63 89.93
  Q 201.08 89.75 201.07 89.27
  Q 200.81 45.30 201.61 18.60
  Q 201.72 14.69 203.55 10.82
  Q 205.42 6.84 208.39 4.43
  Q 212.09 1.45 217.00 0.48
  Z"
/>
<path fill="#ffffff" d="
  M 256.38 0.47
  Q 261.81 1.52 263.92 3.58
  C 266.35 5.96 269.31 8.41 270.70 11.34
  Q 272.51 15.15 272.56 19.05
  Q 272.94 53.08 273.37 89.16
  A 1.54 1.54 0.0 0 0 274.52 90.64
  Q 278.96 91.82 283.65 93.37
  C 287.11 94.52 289.75 96.13 292.92 97.38
  Q 294.90 98.17 296.49 99.08
  Q 310.31 107.01 316.90 112.60
  Q 323.90 118.54 332.83 130.87
  Q 334.47 133.13 335.66 135.37
  Q 336.76 137.43 338.39 139.19
  Q 338.95 139.79 339.06 140.66
  C 339.33 142.82 340.95 143.59 342.90 143.81
  Q 353.80 145.03 364.28 147.70
  Q 366.92 148.37 368.63 148.96
  Q 370.60 149.64 372.47 150.13
  C 374.28 150.61 375.81 151.47 377.61 152.14
  Q 387.29 155.75 389.29 157.23
  Q 390.86 158.40 392.51 159.30
  C 397.36 161.94 402.26 165.35 406.24 168.30
  Q 415.38 175.09 419.86 180.46
  C 423.62 184.95 427.91 189.45 431.17 193.44
  Q 443.13 208.12 452.09 221.94
  Q 455.25 226.82 458.35 231.61
  Q 459.98 234.13 461.10 236.34
  Q 461.97 238.04 462.95 239.49
  C 464.54 241.82 465.66 244.43 466.92 246.90
  Q 467.46 247.97 469.28 251.00
  Q 472.69 256.65 474.00 263.39
  L 474.00 264.74
  Q 472.87 272.43 467.64 275.60
  Q 461.24 279.49 448.26 283.67
  C 445.67 284.50 443.43 285.84 440.81 286.47
  Q 437.96 287.15 435.22 288.07
  Q 428.64 290.27 422.47 291.96
  Q 421.45 292.23 421.99 293.36
  A 1.38 1.27 -82.5 0 0 422.25 293.73
  Q 437.43 308.96 446.65 328.39
  C 447.64 330.47 448.25 332.59 449.27 334.62
  Q 450.37 336.84 451.21 339.25
  Q 456.61 354.83 459.13 370.34
  Q 460.54 379.01 460.79 390.35
  Q 461.13 405.81 460.35 420.80
  Q 459.77 431.98 457.40 444.27
  Q 456.35 449.71 454.47 452.63
  C 452.99 454.92 450.39 457.36 447.56 457.65
  Q 440.97 458.32 435.50 457.06
  C 426.53 454.99 417.27 454.14 408.48 450.95
  Q 403.37 449.09 397.49 447.89
  Q 395.90 447.56 395.92 449.19
  Q 396.06 461.96 395.69 476.00
  Q 395.52 482.48 394.26 489.13
  Q 392.92 496.20 391.41 503.66
  Q 389.98 510.76 385.68 524.88
  Q 385.32 526.07 384.82 527.17
  Q 384.30 528.33 383.94 529.50
  Q 381.63 537.00 378.33 544.30
  Q 378.01 545.00 377.86 545.78
  Q 377.77 546.21 377.53 546.58
  Q 376.46 548.17 375.75 549.98
  Q 373.43 555.89 369.27 562.27
  Q 367.54 564.91 364.97 566.40
  Q 360.55 568.97 356.83 568.77
  Q 351.10 568.46 344.52 565.87
  Q 344.29 565.78 343.97 566.00
  Q 343.74 565.77 343.86 565.63
  A 1.09 1.06 -59.5 0 1 345.08 565.30
  C 352.26 568.06 363.75 570.40 368.55 562.13
  C 369.72 560.11 371.06 558.21 372.09 556.13
  Q 383.48 533.21 389.31 509.39
  Q 392.86 494.84 394.65 482.36
  C 395.20 478.50 395.56 474.39 395.62 470.48
  Q 395.79 458.85 395.34 447.70
  Q 395.30 446.77 396.21 446.99
  C 404.25 448.99 411.98 451.80 420.07 453.57
  Q 430.10 455.76 440.90 457.30
  Q 443.82 457.72 446.90 457.20
  C 452.49 456.26 455.48 450.51 456.50 445.18
  Q 458.82 432.96 459.54 422.07
  Q 460.19 412.16 460.40 400.31
  Q 460.72 381.87 457.22 363.36
  C 452.36 337.73 441.23 313.90 422.80 295.48
  Q 421.67 294.35 420.83 292.92
  A 0.98 0.98 0.0 0 1 421.42 291.48
  Q 441.61 286.03 460.25 278.47
  C 463.24 277.26 467.09 275.09 469.47 272.70
  C 475.63 266.49 472.83 259.28 469.37 252.61
  Q 449.96 215.15 420.96 182.83
  Q 409.53 170.09 393.14 160.32
  Q 385.05 155.51 377.12 152.49
  Q 360.10 146.00 340.85 144.26
  A 1.69 1.68 -10.8 0 1 339.52 143.36
  C 326.02 116.78 302.01 98.14 273.48 90.99
  Q 271.90 90.59 272.01 88.90
  Q 272.04 88.50 272.03 88.10
  C 271.94 64.68 272.05 41.24 271.80 17.82
  Q 271.77 14.93 270.76 12.82
  Q 268.39 7.85 263.78 4.33
  Q 262.50 3.36 260.14 2.28
  Q 258.29 1.44 256.38 0.47
  Z"
/>
<rect fill="#a6dd16" x="-6.66" y="-27.03" transform="translate(236.84,58.96) rotate(-0.1)" width="13.32" height="54.06" rx="0.33"/>
<path fill="#ffffff" d="
  M 250.81 117.04
  Q 253.25 118.92 255.68 120.34
  Q 259.58 122.63 260.68 123.42
  C 277.40 135.44 290.10 150.87 297.70 170.41
  C 299.39 174.76 299.86 179.94 297.27 183.96
  C 293.60 189.64 285.86 189.85 281.89 184.44
  Q 278.83 180.27 275.27 174.59
  C 265.98 159.78 253.31 148.08 238.98 137.32
  Q 237.56 136.25 236.03 137.28
  Q 209.66 154.97 194.42 182.29
  Q 190.09 190.06 182.37 187.80
  Q 178.56 186.69 176.51 182.94
  C 173.57 177.57 176.09 171.45 178.57 166.16
  C 186.67 148.82 198.46 134.53 214.12 123.69
  Q 218.69 120.54 223.42 117.16
  Q 237.28 115.97 250.81 117.04
  Z"
/>
<path fill="#a6dd16" d="
  M 223.42 117.16
  Q 218.69 120.54 214.12 123.69
  C 198.46 134.53 186.67 148.82 178.57 166.16
  C 176.09 171.45 173.57 177.57 176.51 182.94
  Q 178.56 186.69 182.37 187.80
  Q 190.09 190.06 194.42 182.29
  Q 209.66 154.97 236.03 137.28
  Q 237.56 136.25 238.98 137.32
  C 253.31 148.08 265.98 159.78 275.27 174.59
  Q 278.83 180.27 281.89 184.44
  C 285.86 189.85 293.60 189.64 297.27 183.96
  C 299.86 179.94 299.39 174.76 297.70 170.41
  C 290.10 150.87 277.40 135.44 260.68 123.42
  Q 259.58 122.63 255.68 120.34
  Q 253.25 118.92 250.81 117.04
  Q 273.20 119.23 291.07 131.95
  C 306.24 142.74 316.36 160.07 318.29 178.42
  Q 319.98 194.47 317.76 206.97
  Q 315.50 219.69 308.07 238.29
  Q 307.87 238.78 307.37 238.63
  Q 305.32 238.00 303.48 237.01
  Q 282.18 225.46 266.16 212.27
  C 258.49 205.96 250.38 198.15 244.97 190.04
  Q 240.64 183.54 237.47 176.11
  Q 236.94 174.88 236.48 176.14
  Q 234.63 181.26 231.71 185.97
  C 216.89 209.88 191.38 225.50 167.41 239.06
  A 0.70 0.70 0.0 0 1 166.41 238.70
  Q 162.97 229.63 160.16 221.40
  C 153.02 200.49 151.74 175.84 162.50 155.92
  Q 177.23 128.68 207.25 119.99
  Q 212.13 118.58 223.42 117.16
  Z"
/>
<path fill="#ffffff" d="
  M 133.33 144.20
  Q 131.69 144.39 130.12 144.43
  Q 128.22 144.49 126.55 144.72
  Q 96.02 148.89 71.71 166.18
  Q 64.53 171.28 58.09 177.68
  Q 51.55 184.19 45.72 190.78
  Q 43.80 192.95 41.79 195.33
  Q 37.57 200.31 33.71 205.57
  Q 26.83 214.95 14.88 233.73
  Q 13.02 236.66 11.05 240.12
  Q 9.34 243.13 7.41 246.26
  Q 3.77 252.17 0.29 260.96
  Q 1.44 256.16 2.60 254.00
  Q 14.81 231.23 29.24 210.94
  Q 40.47 195.15 54.54 180.58
  Q 62.25 172.59 69.30 167.31
  Q 93.28 149.37 123.51 144.56
  Q 128.29 143.80 133.33 144.20
  Z"
/>
<path fill="#ffffff" d="
  M 124.81 198.52
  Q 113.65 204.33 103.16 211.93
  Q 99.14 214.84 95.54 217.61
  Q 90.93 221.15 87.95 221.44
  C 81.74 222.05 76.57 217.98 77.04 211.48
  Q 77.44 205.97 81.95 201.69
  Q 86.55 197.32 90.32 192.31
  Q 105.75 180.76 124.98 175.61
  A 0.66 0.66 0.0 0 1 125.81 176.34
  Q 124.34 186.68 124.81 198.52
  Z"
/>
<path fill="#ffffff" d="
  M 386.81 195.37
  Q 389.20 198.73 391.92 201.76
  C 395.42 205.68 398.46 211.34 395.80 216.60
  C 392.69 222.79 384.54 222.33 379.81 218.67
  Q 364.43 206.75 349.22 198.86
  Q 349.50 188.24 348.17 176.51
  A 0.47 0.47 0.0 0 1 348.74 176.00
  Q 370.05 180.91 386.81 195.37
  Z"
/>
<path fill="#a6dd16" d="
  M 90.32 192.31
  Q 86.55 197.32 81.95 201.69
  Q 77.44 205.97 77.04 211.48
  C 76.57 217.98 81.74 222.05 87.95 221.44
  Q 90.93 221.15 95.54 217.61
  Q 99.14 214.84 103.16 211.93
  Q 113.65 204.33 124.81 198.52
  Q 124.83 203.90 125.53 208.50
  Q 127.19 219.37 131.15 231.89
  Q 126.01 235.11 120.79 238.06
  Q 115.09 241.28 107.26 243.66
  Q 100.02 245.86 97.79 246.31
  Q 80.94 249.69 62.25 250.18
  Q 51.64 250.45 40.36 250.30
  Q 53.74 228.76 65.19 215.44
  Q 73.86 205.37 85.28 195.82
  Q 88.09 193.47 90.32 192.31
  Z"
/>
<path fill="#a6dd16" d="
  M 386.81 195.37
  Q 393.73 200.01 398.59 204.91
  C 412.12 218.53 422.73 234.05 433.14 250.17
  Q 415.15 250.53 397.39 249.48
  Q 389.35 249.01 383.18 247.94
  Q 376.13 246.72 369.21 244.88
  Q 354.63 240.99 343.31 230.54
  Q 346.83 219.56 348.26 207.24
  Q 348.69 203.49 349.22 198.86
  Q 364.43 206.75 379.81 218.67
  C 384.54 222.33 392.69 222.79 395.80 216.60
  C 398.46 211.34 395.42 205.68 391.92 201.76
  Q 389.20 198.73 386.81 195.37
  Z"
/>
<path fill="#3ac127" d="
  M 315.75 321.83
  Q 307.50 311.10 298.36 303.16
  Q 278.13 285.56 255.52 270.67
  Q 249.28 266.56 243.16 262.05
  Q 240.54 260.12 237.61 258.40
  Q 237.12 258.11 236.66 258.44
  C 227.31 265.18 216.48 271.52 207.93 277.77
  Q 193.07 288.62 176.92 302.43
  Q 165.46 312.23 158.78 323.92
  Q 155.89 302.08 160.87 280.03
  C 161.69 276.41 161.87 273.77 165.02 272.53
  Q 183.28 265.36 197.96 256.24
  C 211.67 247.71 224.70 238.92 236.05 227.94
  A 1.09 1.08 -45.6 0 1 237.54 227.92
  C 258.14 246.68 282.34 262.67 308.51 272.69
  C 310.54 273.46 311.34 274.81 311.94 276.75
  Q 318.50 298.10 315.75 321.83
  Z"
/>
<path fill="#3ac127" d="
  M 343.31 230.54
  Q 354.63 240.99 369.21 244.88
  Q 376.13 246.72 383.18 247.94
  Q 389.35 249.01 397.39 249.48
  Q 415.15 250.53 433.14 250.17
  L 436.13 255.11
  Q 436.59 255.88 435.75 256.19
  Q 416.36 263.46 396.33 266.64
  Q 385.08 268.43 370.82 268.19
  Q 350.78 267.85 333.09 260.94
  Q 332.25 260.61 332.56 259.75
  L 343.31 230.54
  Z"
/>
<path fill="#3ac127" d="
  M 131.15 231.89
  L 142.72 260.47
  A 0.60 0.59 -19.4 0 1 142.34 261.26
  C 127.80 265.89 113.41 268.36 97.90 268.07
  Q 74.15 267.61 51.26 260.67
  C 46.51 259.23 42.11 258.04 37.50 255.88
  A 0.77 0.76 30.3 0 1 37.20 254.74
  L 40.36 250.30
  Q 51.64 250.45 62.25 250.18
  Q 80.94 249.69 97.79 246.31
  Q 100.02 245.86 107.26 243.66
  Q 115.09 241.28 120.79 238.06
  Q 126.01 235.11 131.15 231.89
  Z"
/>
<path fill="#a6dd16" d="
  M 315.75 321.83
  Q 312.64 346.25 299.99 368.20
  Q 297.28 372.89 288.46 384.13
  C 274.07 402.44 256.52 418.77 237.98 431.68
  A 1.59 1.57 -43.7 0 1 236.12 431.65
  Q 218.60 418.45 202.60 402.65
  Q 189.48 389.69 178.93 374.57
  Q 163.18 351.99 158.78 323.92
  Q 165.46 312.23 176.92 302.43
  Q 193.07 288.62 207.93 277.77
  C 216.48 271.52 227.31 265.18 236.66 258.44
  Q 237.12 258.11 237.61 258.40
  Q 240.54 260.12 243.16 262.05
  Q 249.28 266.56 255.52 270.67
  Q 278.13 285.56 298.36 303.16
  Q 307.50 311.10 315.75 321.83
  Z"
/>
<path fill="#ffffff" d="
  M 0.94 270.32
  Q 4.65 275.06 11.37 278.14
  Q 18.65 281.47 21.76 282.60
  Q 41.70 289.85 49.13 291.13
  Q 50.85 291.43 51.21 291.89
  Q 50.10 292.05 49.00 291.72
  Q 43.94 290.20 39.00 288.81
  Q 34.64 287.58 29.62 285.69
  Q 24.75 283.85 20.25 282.48
  Q 7.41 278.58 0.94 270.32
  Z"
/>
<path fill="#ffffff" d="
  M 51.98 292.11
  Q 53.40 292.00 52.71 293.44
  Q 52.48 293.93 51.92 294.43
  Q 49.98 296.18 49.13 297.13
  C 31.95 316.30 21.10 338.91 16.27 364.18
  Q 14.60 372.91 13.95 381.07
  Q 11.52 411.32 16.39 442.57
  Q 17.51 449.80 20.15 453.02
  Q 24.78 458.68 33.97 457.11
  Q 54.21 453.64 77.60 446.74
  A 0.66 0.66 0.0 0 1 78.45 447.42
  Q 76.91 468.55 79.83 487.96
  Q 82.82 507.82 89.55 526.70
  Q 94.74 541.28 101.50 555.75
  Q 102.40 557.70 105.71 563.03
  Q 101.88 558.74 99.99 553.44
  Q 99.65 552.49 99.19 551.70
  Q 98.63 550.76 98.26 549.83
  Q 96.82 546.20 95.18 542.52
  Q 93.55 538.88 92.30 535.29
  Q 91.20 532.15 89.80 528.94
  Q 88.27 525.41 87.10 521.58
  Q 82.44 506.36 80.31 494.57
  Q 77.67 479.93 77.18 461.87
  Q 77.04 456.79 77.53 451.75
  C 77.61 450.87 78.13 450.08 78.12 449.27
  Q 78.12 447.23 76.18 447.84
  Q 56.65 453.98 36.02 457.36
  C 29.13 458.49 23.74 458.10 19.31 452.73
  Q 17.27 450.26 16.48 445.83
  Q 14.76 436.17 14.06 429.26
  Q 13.14 420.10 12.41 408.90
  Q 12.00 402.58 12.53 395.73
  C 13.25 386.28 13.18 376.94 15.10 367.58
  Q 15.84 363.99 16.58 360.29
  Q 18.43 351.10 21.68 341.51
  C 22.69 338.55 24.16 335.73 25.37 332.80
  Q 28.91 324.26 34.48 315.45
  Q 40.56 305.83 51.81 293.63
  Q 52.04 293.38 52.10 293.05
  Q 52.18 292.55 51.98 292.11
  Z"
/>
<path fill="#3ac127" d="
  M 416.25 337.59
  Q 413.33 336.13 410.77 334.20
  Q 407.26 331.54 405.46 330.61
  Q 391.35 323.36 375.65 321.54
  C 369.56 320.83 363.54 321.09 357.46 320.72
  A 0.87 0.87 0.0 0 0 356.54 321.66
  Q 357.74 338.33 356.10 354.12
  Q 354.65 368.13 348.44 385.19
  Q 340.27 378.32 334.25 369.50
  Q 333.32 368.13 333.92 366.79
  Q 339.30 354.76 342.55 340.20
  Q 346.97 320.39 344.93 296.94
  A 0.63 0.62 4.6 0 1 345.71 296.28
  Q 360.63 300.07 377.23 299.18
  Q 379.79 299.04 382.33 298.99
  Q 382.90 298.98 383.34 299.34
  Q 396.66 310.30 408.58 325.67
  Q 413.44 331.93 416.25 337.59
  Z"
/>
<path fill="#3ac127" d="
  M 124.31 386.24
  C 120.44 371.86 117.22 358.99 116.40 344.73
  Q 115.80 334.25 116.39 321.34
  Q 116.42 320.65 115.75 320.82
  C 114.46 321.16 112.95 321.27 111.62 321.24
  C 96.70 320.89 82.69 323.40 69.50 330.04
  Q 67.10 331.25 63.28 333.98
  Q 60.37 336.07 57.10 338.06
  Q 60.24 331.69 65.95 324.70
  Q 76.03 312.35 87.53 301.73
  C 89.42 299.98 91.18 298.92 93.87 299.08
  Q 110.50 300.10 128.80 297.18
  A 0.56 0.56 0.0 0 1 129.44 297.81
  Q 126.91 316.68 130.79 336.97
  Q 133.28 350.03 140.31 366.47
  Q 141.11 368.33 139.91 369.89
  Q 132.96 378.91 124.31 386.24
  Z"
/>
<path fill="#a6dd16" d="
  M 124.31 386.24
  Q 111.66 397.68 102.43 402.44
  Q 75.46 416.35 46.00 423.50
  Q 45.61 423.59 45.56 423.20
  Q 41.99 394.51 46.64 366.76
  Q 47.78 359.92 50.71 351.49
  Q 53.41 343.68 57.10 338.06
  Q 60.37 336.07 63.28 333.98
  Q 67.10 331.25 69.50 330.04
  C 82.69 323.40 96.70 320.89 111.62 321.24
  C 112.95 321.27 114.46 321.16 115.75 320.82
  Q 116.42 320.65 116.39 321.34
  Q 115.80 334.25 116.40 344.73
  C 117.22 358.99 120.44 371.86 124.31 386.24
  Z"
/>
<path fill="#a6dd16" d="
  M 416.25 337.59
  Q 419.60 342.85 421.21 347.26
  Q 427.97 365.81 429.10 386.34
  Q 430.12 404.80 428.29 423.11
  Q 428.24 423.64 427.73 423.51
  Q 408.70 418.59 389.56 411.13
  Q 366.29 402.07 348.44 385.19
  Q 354.65 368.13 356.10 354.12
  Q 357.74 338.33 356.54 321.66
  A 0.87 0.87 0.0 0 1 357.46 320.72
  C 363.54 321.09 369.56 320.83 375.65 321.54
  Q 391.35 323.36 405.46 330.61
  Q 407.26 331.54 410.77 334.20
  Q 413.33 336.13 416.25 337.59
  Z"
/>
<path fill="#3ac127" d="
  M 189.16 488.21
  Q 184.55 477.14 180.31 469.45
  Q 172.40 455.10 163.66 439.33
  Q 159.48 431.80 155.80 423.68
  A 0.70 0.70 0.0 0 0 154.72 423.43
  C 152.71 425.08 150.76 426.87 148.62 428.34
  Q 134.33 438.12 121.91 450.66
  Q 114.52 458.12 108.56 467.46
  Q 107.61 453.93 108.75 447.50
  Q 109.88 441.13 111.00 434.75
  C 111.27 433.20 112.19 432.10 113.53 431.37
  Q 138.62 417.71 159.13 398.72
  A 0.52 0.51 -40.0 0 1 159.89 398.78
  C 174.85 418.48 191.83 436.53 211.88 450.84
  Q 212.77 451.48 212.33 452.48
  Q 205.26 468.69 194.53 482.27
  Q 191.07 486.64 189.16 488.21
  Z"
/>
<path fill="#3ac127" d="
  M 365.07 470.88
  Q 362.01 464.26 360.88 462.44
  C 351.03 446.62 335.19 434.98 319.51 424.16
  A 0.68 0.68 0.0 0 0 318.48 424.51
  Q 318.10 425.65 317.49 426.73
  Q 305.77 447.57 293.19 469.45
  Q 289.21 476.37 284.60 487.17
  Q 275.78 477.91 271.40 470.34
  Q 266.31 461.56 261.50 451.97
  A 0.78 0.78 0.0 0 1 261.83 450.93
  Q 263.54 450.03 264.99 448.90
  Q 285.95 432.64 298.67 418.05
  Q 306.92 408.59 314.31 398.76
  A 0.65 0.65 0.0 0 1 315.28 398.68
  Q 336.20 418.35 361.63 431.89
  C 362.82 432.52 362.74 433.06 362.96 434.25
  Q 366.51 453.32 365.07 470.88
  Z"
/>
<path fill="#a6dd16" d="
  M 189.16 488.21
  Q 169.62 509.26 146.09 523.76
  Q 136.84 529.46 127.66 534.70
  Q 126.77 535.21 126.33 534.28
  Q 123.30 527.81 120.32 520.92
  Q 117.24 513.84 115.27 507.26
  Q 111.78 495.64 109.94 484.51
  Q 108.50 475.78 108.56 467.46
  Q 114.52 458.12 121.91 450.66
  Q 134.33 438.12 148.62 428.34
  C 150.76 426.87 152.71 425.08 154.72 423.43
  A 0.70 0.70 0.0 0 1 155.80 423.68
  Q 159.48 431.80 163.66 439.33
  Q 172.40 455.10 180.31 469.45
  Q 184.55 477.14 189.16 488.21
  Z"
/>
<path fill="#a6dd16" d="
  M 365.07 470.88
  Q 364.53 487.93 361.31 499.00
  C 357.66 511.59 352.95 522.78 348.05 534.54
  Q 347.86 535.01 347.39 534.81
  Q 343.76 533.17 341.14 531.58
  Q 331.87 525.96 322.18 519.55
  Q 301.44 505.84 284.60 487.17
  Q 289.21 476.37 293.19 469.45
  Q 305.77 447.57 317.49 426.73
  Q 318.10 425.65 318.48 424.51
  A 0.68 0.68 0.0 0 1 319.51 424.16
  C 335.19 434.98 351.03 446.62 360.88 462.44
  Q 362.01 464.26 365.07 470.88
  Z"
/>
<path fill="#3ac127" d="
  M 310.57 581.28
  Q 302.25 568.22 293.84 560.66
  Q 266.69 536.26 237.79 514.08
  A 0.85 0.83 -44.6 0 0 236.78 514.08
  Q 206.46 536.71 178.69 562.44
  Q 168.77 571.62 163.60 582.32
  Q 163.23 581.52 162.64 578.99
  C 160.61 570.24 159.02 561.46 159.41 552.33
  A 1.99 1.99 0.0 0 1 160.37 550.72
  Q 197.32 528.53 223.23 495.35
  C 228.19 489.01 232.28 482.10 236.79 475.40
  A 0.27 0.27 0.0 0 1 237.24 475.41
  Q 246.21 490.37 257.92 504.14
  C 273.36 522.31 291.89 536.94 313.03 549.42
  Q 315.07 550.62 314.88 553.02
  C 314.12 562.70 313.37 571.96 310.57 581.28
  Z"
/>
<path fill="#a6dd16" d="
  M 310.57 581.28
  Q 306.03 598.89 295.01 613.49
  Q 289.17 621.24 282.61 627.77
  C 268.54 641.80 254.51 654.77 238.03 666.85
  A 0.81 0.80 -46.1 0 1 237.10 666.87
  Q 223.35 657.42 211.90 647.24
  Q 203.16 639.47 194.79 631.52
  Q 186.67 623.80 177.82 611.43
  Q 169.24 599.44 163.60 582.32
  Q 168.77 571.62 178.69 562.44
  Q 206.46 536.71 236.78 514.08
  A 0.85 0.83 -44.6 0 1 237.79 514.08
  Q 266.69 536.26 293.84 560.66
  Q 302.25 568.22 310.57 581.28
  Z"
/>
<path fill="#ffffff" d="
  M 343.91 566.54
  Q 344.15 571.39 342.73 578.50
  Q 340.28 590.74 337.65 598.67
  Q 336.81 601.21 335.63 603.67
  Q 334.55 605.93 333.52 608.47
  Q 331.47 613.54 327.42 620.22
  Q 323.66 626.42 319.83 631.45
  Q 308.33 646.56 297.96 656.34
  C 289.15 664.66 278.88 673.88 269.07 681.50
  Q 257.23 690.70 247.85 696.35
  Q 244.70 698.25 238.35 700.00
  L 236.52 700.00
  Q 234.08 699.21 231.58 698.55
  Q 228.89 697.84 226.87 696.62
  Q 217.91 691.19 207.13 682.71
  C 190.01 669.27 175.14 655.76 161.35 640.17
  Q 153.09 630.85 146.24 618.27
  Q 143.61 613.44 141.00 608.35
  Q 138.48 603.41 136.75 597.70
  C 136.29 596.19 135.43 594.89 135.09 593.29
  C 134.51 590.52 133.45 587.93 132.82 585.15
  Q 131.22 578.12 130.18 571.62
  Q 129.75 568.92 128.99 566.31
  A 0.60 0.60 0.0 0 0 128.19 565.93
  Q 123.36 567.91 118.00 568.86
  Q 114.29 569.51 109.49 566.58
  Q 112.19 567.44 114.75 568.22
  C 118.13 569.25 124.90 566.60 128.56 565.29
  Q 130.07 564.75 130.21 566.35
  Q 131.75 583.21 137.82 599.46
  Q 144.50 617.32 157.28 634.37
  Q 162.16 640.89 170.50 649.33
  Q 181.78 660.75 186.93 665.36
  Q 196.84 674.22 210.22 684.60
  Q 219.46 691.77 228.02 696.57
  Q 234.36 700.12 240.91 698.59
  Q 244.60 697.73 252.10 692.83
  Q 269.12 681.73 285.69 666.63
  Q 289.84 662.85 294.05 658.96
  Q 311.22 643.11 323.27 625.32
  Q 340.87 599.34 343.65 566.43
  Q 343.65 566.40 343.67 566.42
  Q 343.74 566.51 343.91 566.54
  Z"
/>
</svg>
