<?xml version="1.0" encoding="UTF-8" standalone="no"?>
<!DOCTYPE svg PUBLIC "-//W3C//DTD SVG 1.1//EN" "http://www.w3.org/Graphics/SVG/1.1/DTD/svg11.dtd">
<svg xmlns="http://www.w3.org/2000/svg" version="1.1" viewBox="0.00 0.00 677.00 593.00">
<g stroke-width="2.00" fill="none" stroke-linecap="butt">
<path stroke="#ece9e5" vector-effect="non-scaling-stroke" d="
  M 372.75 3.89
  Q 372.73 4.10 372.71 4.30"
/>
<path stroke="#8f9aa0" vector-effect="non-scaling-stroke" d="
  M 372.71 4.30
  Q 364.06 0.72 359.50 0.75
  Q 340.27 0.87 321.04 0.86
  Q 314.01 0.85 309.59 2.09
  Q 303.68 3.75 298.28 6.84"
/>
<path stroke="#7d8685" vector-effect="non-scaling-stroke" d="
  M 372.71 4.30
  L 379.93 8.34"
/>
<path stroke="#667374" vector-effect="non-scaling-stroke" d="
  M 379.93 8.34
  C 387.72 13.75 394.69 21.77 397.38 30.86
  Q 398.07 33.16 398.84 35.53"
/>
<path stroke="#8f9aa0" vector-effect="non-scaling-stroke" d="
  M 398.84 35.53
  Q 399.54 45.01 399.17 54.72
  Q 399.15 55.32 399.34 55.74
  Q 399.86 56.92 400.48 56.09"
/>
<path stroke="#667374" vector-effect="non-scaling-stroke" d="
  M 486.17 56.53
  Q 489.72 57.82 493.19 58.72
  Q 497.74 59.89 500.17 60.92
  Q 517.98 68.46 531.75 81.01
  Q 551.22 98.74 560.76 125.08
  C 561.93 128.30 562.43 131.73 563.04 135.13
  A 1.80 1.79 85.8 0 0 564.74 136.61
  Q 565.97 136.65 567.13 136.99
  Q 577.35 139.97 584.60 147.89
  Q 589.05 152.75 591.32 160.89
  Q 592.64 165.62 592.32 174.65
  Q 591.90 186.63 592.20 199.12
  A 1.55 1.55 0.0 0 0 593.76 200.63
  L 629.22 200.31"
/>
<path stroke="#667374" vector-effect="non-scaling-stroke" d="
  M 642.16 200.64
  Q 650.26 202.05 656.15 205.36
  Q 671.87 214.17 676.33 232.60"
/>
<path stroke="#667374" vector-effect="non-scaling-stroke" d="
  M 676.63 247.24
  Q 673.08 261.70 662.72 270.83
  C 656.29 276.50 649.13 279.30 640.66 279.24
  Q 618.70 279.09 594.50 279.02
  A 2.10 2.10 0.0 0 0 592.39 281.11
  Q 591.82 359.73 592.09 437.72
  Q 592.22 476.74 591.94 484.00
  Q 591.64 491.62 590.35 497.12
  Q 589.66 500.02 587.75 506.46
  Q 586.13 511.95 584.71 515.66
  Q 574.55 542.08 554.38 561.74
  Q 552.75 563.32 550.88 564.57
  A 0.53 0.52 41.9 0 0 550.93 565.47
  Q 551.68 565.87 552.44 565.85
  Q 562.17 565.58 573.57 565.75
  Q 577.23 565.80 580.01 567.36
  Q 585.37 570.36 587.20 576.52
  Q 588.48 580.80 586.17 585.16
  Q 584.06 589.16 581.89 590.41
  Q 579.63 591.73 579.10 592.49"
/>
<path stroke="#667374" vector-effect="non-scaling-stroke" d="
  M 557.13 593.00
  Q 553.42 592.78 549.72 592.57
  Q 546.03 592.36 542.29 592.36
  Q 341.97 592.34 141.65 592.38
  C 133.79 592.39 124.58 592.67 116.04 592.68"
/>
<path stroke="#667374" vector-effect="non-scaling-stroke" d="
  M 100.09 592.46
  L 92.63 587.26"
/>
<path stroke="#667374" vector-effect="non-scaling-stroke" d="
  M 90.30 575.11
  Q 91.29 573.81 92.24 572.30
  C 94.98 567.94 99.42 565.95 104.80 565.82
  Q 114.96 565.57 126.46 565.91
  A 0.57 0.57 0.0 0 0 126.95 565.02
  Q 126.69 564.65 126.03 564.53"
/>
<path stroke="#667374" vector-effect="non-scaling-stroke" d="
  M 124.75 563.26
  Q 115.20 554.44 109.07 545.95
  Q 95.05 526.52 88.09 501.17
  Q 87.21 497.98 86.45 492.87
  C 86.01 489.87 86.23 486.76 86.00 483.67
  Q 85.73 480.06 85.75 476.78
  Q 86.28 404.88 85.77 332.85
  Q 85.55 301.36 85.77 281.75
  Q 85.78 280.64 84.75 279.23"
/>
<path stroke="#7d8685" vector-effect="non-scaling-stroke" d="
  M 84.75 279.23
  L 39.02 279.55"
/>
<path stroke="#667374" vector-effect="non-scaling-stroke" d="
  M 35.45 279.47
  Q 33.35 278.93 31.15 278.70
  C 22.25 277.79 14.27 271.87 8.62 264.39
  C 0.64 253.82 -1.57 238.28 3.28 225.55
  Q 7.21 215.25 16.59 207.71"
/>
<path stroke="#667374" vector-effect="non-scaling-stroke" d="
  M 47.79 200.35
  L 83.59 200.78
  Q 85.94 200.80 85.91 198.45
  L 85.51 169.53"
/>
<path stroke="#667374" vector-effect="non-scaling-stroke" d="
  M 85.95 162.48
  Q 88.29 151.87 96.18 144.08"
/>
<path stroke="#667374" vector-effect="non-scaling-stroke" d="
  M 110.54 136.81
  Q 112.27 137.30 113.51 136.68
  Q 113.93 136.46 114.00 135.99
  Q 114.97 129.52 117.24 123.22
  Q 122.20 109.44 130.17 98.31
  Q 138.45 86.76 144.90 81.15
  Q 149.02 77.56 153.00 73.99"
/>
<path stroke="#667374" vector-effect="non-scaling-stroke" d="
  M 278.33 56.11
  Q 279.01 49.49 278.75 42.82
  Q 278.55 37.75 279.28 34.71
  Q 280.74 28.62 283.81 23.09
  Q 287.84 15.83 294.20 10.05"
/>
<path stroke="#8f9aa0" vector-effect="non-scaling-stroke" d="
  M 311.16 55.96
  L 367.00 56.16
  A 0.53 0.53 0.0 0 0 367.53 55.63
  L 367.57 46.14
  A 12.97 12.62 0.2 0 0 354.64 33.47
  L 323.68 33.37
  A 12.97 12.62 0.2 0 0 310.67 45.94
  L 310.63 55.43
  A 0.53 0.53 0.0 0 0 311.16 55.96"
/>
<path stroke="#8f9aa0" vector-effect="non-scaling-stroke" d="
  M 410.54 87.30
  Q 312.05 87.20 213.55 87.27
  Q 203.40 87.28 197.72 88.63
  C 174.51 94.18 156.38 112.32 148.14 134.94
  Q 147.92 135.55 148.56 135.55
  L 475.38 135.53"
/>
<path stroke="#7d8685" vector-effect="non-scaling-stroke" d="
  M 475.38 135.53
  L 529.18 135.44
  Q 529.76 135.44 529.57 134.88
  C 522.17 113.38 502.22 94.46 480.19 88.75
  C 472.47 86.75 464.17 87.05 456.25 87.05
  Q 425.42 87.06 410.54 87.30"
/>
<path stroke="#ece9e5" vector-effect="non-scaling-stroke" d="
  M 475.38 135.53
  Q 471.27 125.44 465.43 116.54
  C 461.27 110.20 456.61 105.66 450.33 101.37
  Q 437.34 92.49 423.80 89.42
  C 422.32 89.08 420.78 88.98 419.36 88.48
  Q 417.82 87.94 416.03 87.78
  Q 413.28 87.53 410.54 87.30"
/>
<path stroke="#7d8685" vector-effect="non-scaling-stroke" d="
  M 130.34 201.13
  L 559.29 201.12
  A 1.21 1.21 0.0 0 0 560.50 199.90
  Q 560.42 194.22 560.69 188.44
  C 561.11 179.40 558.78 172.16 550.19 168.53
  Q 546.97 167.17 539.95 167.10
  Q 507.95 166.80 476.07 166.99"
/>
<path stroke="#8f9aa0" vector-effect="non-scaling-stroke" d="
  M 476.07 166.99
  Q 308.30 166.98 140.67 167.03
  Q 132.25 167.03 129.29 168.18
  C 121.27 171.29 117.16 177.84 117.14 186.35
  Q 117.12 193.57 117.16 200.34
  Q 117.16 200.95 117.78 200.96
  L 130.34 201.13"
/>
<path stroke="#ece9e5" vector-effect="non-scaling-stroke" d="
  M 476.07 166.99
  Q 475.89 170.90 474.59 174.03
  C 470.66 183.44 462.84 188.01 453.00 188.03
  Q 299.03 188.25 142.93 188.30
  Q 139.62 188.30 136.53 189.86
  Q 130.52 192.87 130.34 201.13"
/>
<path stroke="#7d8685" vector-effect="non-scaling-stroke" d="
  M 642.19 248.48
  C 650.13 241.42 643.04 228.40 633.22 230.58
  C 629.33 231.44 626.32 234.54 623.93 237.51
  A 1.90 1.90 0.0 0 1 622.45 238.22
  L 593.25 238.28
  A 0.73 0.72 -0.0 0 0 592.52 239.00
  L 592.49 249.92
  A 2.22 2.22 0.0 0 0 594.73 252.14
  Q 612.28 252.01 631.58 252.03
  C 635.59 252.03 639.18 251.17 642.19 248.48"
/>
<path stroke="#667374" vector-effect="non-scaling-stroke" d="
  M 39.41 251.03
  C 40.92 251.67 42.23 252.17 43.93 252.17
  Q 63.45 252.25 83.02 252.24
  Q 85.92 252.24 85.21 248.28"
/>
<path stroke="#7d8685" vector-effect="non-scaling-stroke" d="
  M 85.21 248.28
  L 85.32 239.29
  Q 85.33 238.39 84.44 238.37
  Q 70.98 238.11 55.84 238.26
  C 53.84 238.28 52.26 237.19 51.28 235.46
  C 44.66 223.72 25.89 234.18 33.33 246.19
  Q 35.53 249.74 39.41 251.03"
/>
<path stroke="#c3c2b9" vector-effect="non-scaling-stroke" d="
  M 85.21 248.28
  Q 69.00 248.20 52.75 248.28
  Q 48.49 248.30 44.01 250.57
  Q 42.09 251.55 39.41 251.03"
/>
<path stroke="#8f9aa0" vector-effect="non-scaling-stroke" d="
  M 117.08 246.08
  L 117.08 484.04"
/>
<path stroke="#7d8685" vector-effect="non-scaling-stroke" d="
  M 117.08 484.04
  Q 119.05 493.98 121.97 502.55
  Q 128.22 520.91 141.25 534.34
  C 156.47 550.02 177.06 561.65 199.00 561.74
  Q 317.57 562.25 474.80 561.77
  C 480.11 561.75 485.23 561.51 490.38 560.46
  Q 521.76 554.01 542.37 527.33
  Q 555.35 510.53 559.30 489.17
  Q 560.51 482.62 560.60 469.25
  C 561.14 389.76 560.75 309.94 560.51 232.36
  A 0.91 0.90 -86.8 0 0 559.71 231.46
  Q 558.37 231.31 557.18 231.31
  Q 338.24 231.17 119.35 231.26
  Q 117.30 231.26 117.27 233.31
  L 117.08 246.08"
/>
<path stroke="#ece9e5" vector-effect="non-scaling-stroke" d="
  M 117.08 484.04
  Q 123.90 486.78 129.32 485.73
  C 131.17 485.37 132.82 485.71 133.35 487.67
  Q 134.69 492.60 137.59 497.24
  Q 155.35 525.67 186.42 529.71
  Q 192.09 530.45 206.76 530.44
  Q 300.51 530.35 394.25 530.36
  Q 425.37 530.37 457.74 530.46
  Q 468.24 530.49 479.86 526.99
  C 496.98 521.82 511.22 507.97 518.21 491.68
  A 0.44 0.44 0.0 0 0 517.92 491.08
  Q 517.54 490.99 517.24 491.20
  Q 504.36 500.39 487.61 499.61
  Q 473.04 498.94 459.33 490.54
  Q 453.72 487.11 447.53 481.76
  C 444.30 478.98 440.14 478.42 436.01 478.36
  Q 401.05 477.90 380.26 478.21
  C 377.67 478.25 374.79 479.78 374.81 482.74
  Q 374.84 489.84 374.60 496.31
  Q 374.32 503.92 368.35 509.02
  C 359.06 516.94 347.59 515.82 337.56 509.25
  Q 325.72 501.49 316.18 491.63
  Q 311.89 487.21 307.71 482.56
  C 304.97 479.52 302.48 476.39 300.60 472.72
  Q 298.45 468.55 296.14 464.79
  Q 294.46 462.07 294.55 458.57
  A 1.31 1.31 0.0 0 0 294.09 457.53
  Q 292.20 455.88 291.04 453.77"
/>
<path stroke="#7d8685" vector-effect="non-scaling-stroke" d="
  M 291.04 453.77
  Q 293.78 455.63 296.46 457.50
  Q 319.75 473.77 346.77 464.78
  C 358.40 460.92 365.67 453.85 373.29 444.69
  A 1.94 1.93 19.8 0 1 374.78 443.99
  L 416.74 443.90
  Q 417.96 443.90 418.76 444.81
  C 422.08 448.63 425.39 452.51 429.20 455.79
  C 446.61 470.77 470.00 475.90 492.23 469.23
  Q 511.99 463.30 525.38 446.34
  Q 544.06 422.66 538.52 392.37
  C 536.33 380.43 529.63 369.23 521.26 360.28"
/>
<path stroke="#ece9e5" vector-effect="non-scaling-stroke" d="
  M 521.26 360.28
  Q 522.61 360.79 521.95 359.40
  C 521.15 357.68 519.60 357.52 520.36 355.02
  Q 521.39 351.64 522.77 349.96
  Q 526.19 345.82 526.64 343.88
  Q 529.27 332.50 521.10 322.59"
/>
<path stroke="#7d8685" vector-effect="non-scaling-stroke" d="
  M 521.10 322.59
  C 526.27 322.62 532.04 322.93 536.57 321.72
  C 547.57 318.81 555.41 309.43 556.00 297.75
  Q 556.44 289.17 550.50 281.21
  Q 542.84 270.93 528.49 269.71"
/>
<path stroke="#ece9e5" vector-effect="non-scaling-stroke" d="
  M 528.49 269.71
  Q 524.24 253.93 509.67 248.48
  Q 501.84 245.55 491.35 245.52
  C 464.27 245.44 437.39 245.83 410.50 245.77
  Q 267.62 245.49 124.75 245.81
  Q 120.86 245.81 117.08 246.08"
/>
<path stroke="#8f9aa0" vector-effect="non-scaling-stroke" d="
  M 528.49 269.71
  Q 464.90 269.54 401.19 269.76
  Q 393.66 269.78 389.97 271.05
  Q 384.59 272.90 380.20 277.06
  Q 369.08 287.61 372.04 302.33
  C 373.79 310.98 380.24 318.10 388.57 321.17
  Q 392.27 322.54 398.61 322.55
  Q 416.33 322.58 431.51 322.35
  Q 434.51 322.30 431.79 323.58
  C 424.70 326.89 417.85 334.28 417.72 342.73
  Q 417.49 359.01 417.49 372.74
  A 0.51 0.51 0.0 0 1 416.98 373.25
  L 375.20 373.22
  A 1.27 1.25 71.5 0 1 374.19 372.71
  C 362.13 356.41 342.85 346.56 322.32 348.41
  Q 307.00 349.79 293.56 360.19
  C 277.75 372.42 269.34 391.42 270.60 411.41
  C 271.66 428.08 279.08 442.05 291.04 453.77"
/>
<path stroke="#8f9aa0" vector-effect="non-scaling-stroke" d="
  M 521.10 322.59
  L 501.05 322.47
  Q 499.11 322.46 500.86 323.30
  C 507.27 326.37 512.45 331.69 514.55 338.07
  C 516.10 342.80 515.34 349.04 515.52 354.09
  A 1.13 1.12 22.0 0 0 515.85 354.86
  L 521.26 360.28"
/>
<path stroke="#c3c2b9" vector-effect="non-scaling-stroke" d="
  M 380.26 7.93
  Q 380.38 8.30 379.93 8.34"
/>
<path stroke="#d5d6d3" vector-effect="non-scaling-stroke" d="
  M 398.94 35.00
  Q 398.62 35.04 398.84 35.53"
/>
<path stroke="#c3c2b9" vector-effect="non-scaling-stroke" d="
  M 627.3994 249.4712
  A 0.91 0.91 0.0 0 0 626.4831 248.5676
  L 594.2839 248.7924
  A 0.91 0.91 0.0 0 0 593.3803 249.7088
  L 593.3806 249.7488
  A 0.91 0.91 0.0 0 0 594.2969 250.6524
  L 626.4961 250.4276
  A 0.91 0.91 0.0 0 0 627.3997 249.5112
  L 627.3994 249.4712"
/>
<path stroke="#7d8685" vector-effect="non-scaling-stroke" d="
  M 416.44 303.31
  L 457.21 303.71"
/>
<path stroke="#8f9aa0" vector-effect="non-scaling-stroke" d="
  M 457.21 303.71
  L 457.29 318.53"
/>
<path stroke="#667374" vector-effect="non-scaling-stroke" d="
  M 457.29 318.53
  Q 457.03 322.06 460.23 322.09
  Q 466.45 322.16 473.03 321.93
  A 2.00 1.99 -0.3 0 0 474.95 319.99
  L 475.34 303.39"
/>
<path stroke="#7d8685" vector-effect="non-scaling-stroke" d="
  M 475.34 303.39
  Q 500.18 303.26 523.66 303.26
  Q 527.55 303.25 529.54 302.04
  Q 532.82 300.04 532.75 296.27"
/>
<path stroke="#8f9aa0" vector-effect="non-scaling-stroke" d="
  M 532.75 296.27
  C 531.54 290.66 528.05 289.48 522.49 289.50
  Q 458.81 289.76 415.49 289.54
  Q 404.71 289.49 401.94 289.86
  C 394.08 290.90 395.11 302.92 402.74 303.07
  Q 409.62 303.21 416.44 303.31"
/>
<path stroke="#ece9e5" vector-effect="non-scaling-stroke" d="
  M 532.75 296.27
  Q 476.43 296.76 420.37 296.91
  Q 417.95 296.92 415.65 297.13
  Q 413.25 297.35 410.86 297.56
  Q 408.87 297.74 410.44 298.98
  Q 411.48 299.79 412.78 300.12
  Q 413.31 300.26 413.72 300.62
  Q 414.44 301.25 415.39 301.15
  Q 416.09 301.07 416.51 301.63
  Q 416.68 301.86 416.93 302.00
  Q 417.61 302.38 416.91 302.77
  Q 416.60 302.95 416.44 303.31"
/>
<path stroke="#c3c2b9" vector-effect="non-scaling-stroke" d="
  M 475.34 303.39
  Q 470.85 302.30 465.15 302.10
  C 463.28 302.03 461.35 302.52 459.52 302.84
  Q 459.32 302.87 459.20 303.04
  Q 459.11 303.16 459.00 303.23
  Q 458.19 303.70 459.13 303.72
  Q 462.09 303.77 465.10 303.72
  Q 466.71 303.69 467.26 304.35
  Q 468.04 305.30 467.28 307.11"
/>
<path stroke="#ece9e5" vector-effect="non-scaling-stroke" d="
  M 467.28 307.11
  Q 467.76 304.04 465.75 304.07
  Q 461.41 304.13 457.21 303.71"
/>
<path stroke="#d5d6d3" vector-effect="non-scaling-stroke" d="
  M 457.29 318.53
  Q 462.21 317.42 466.23 315.10
  A 1.95 1.94 75.5 0 0 467.20 313.45
  L 467.28 307.11"
/>
<path stroke="#7d8685" vector-effect="non-scaling-stroke" d="
  M 462.30 351.36
  Q 475.78 351.61 489.50 351.48
  Q 493.82 351.44 494.63 347.30
  C 495.43 343.13 490.04 340.77 486.75 340.78
  Q 473.82 340.82 461.14 340.74"
/>
<path stroke="#8f9aa0" vector-effect="non-scaling-stroke" d="
  M 461.14 340.74
  Q 447.20 340.00 443.71 340.85
  Q 438.89 342.01 438.74 346.49
  Q 438.66 348.84 440.41 350.25
  Q 441.60 351.20 443.98 351.25
  Q 453.05 351.44 462.30 351.36"
/>
<path stroke="#ece9e5" vector-effect="non-scaling-stroke" d="
  M 461.14 340.74
  Q 461.29 344.65 461.18 348.47
  Q 461.16 349.33 461.50 349.97
  Q 461.81 350.58 462.30 351.36"
/>
<path stroke="#8f9aa0" vector-effect="non-scaling-stroke" d="
  M 446.71 373.65
  Q 446.62 379.18 446.51 385.00
  Q 446.41 390.47 441.80 393.29
  Q 438.09 395.55 434.93 395.56
  C 407.39 395.57 380.23 395.36 353.25 395.71
  C 346.66 395.79 342.23 396.86 339.26 402.51
  Q 337.73 405.41 337.64 408.47"
/>
<path stroke="#7d8685" vector-effect="non-scaling-stroke" d="
  M 337.64 408.47
  Q 338.09 415.65 343.11 418.42
  Q 345.98 419.99 351.08 420.00
  Q 390.42 420.06 426.66 420.00
  Q 432.42 419.99 436.97 424.20
  C 446.06 432.64 456.17 440.00 468.60 441.35
  C 482.71 442.88 496.42 435.47 503.58 423.53
  C 512.41 408.82 509.92 392.60 498.65 380.22
  C 493.25 374.30 484.73 367.87 476.55 367.83
  Q 462.01 367.75 447.48 367.76
  A 0.61 0.61 0.0 0 0 446.88 368.25
  Q 446.36 370.80 446.71 373.65"
/>
<path stroke="#ece9e5" vector-effect="non-scaling-stroke" d="
  M 337.64 408.47
  Q 342.77 407.84 348.06 408.06
  Q 357.34 408.45 358.45 408.44
  Q 406.35 408.12 438.50 408.36
  Q 443.56 408.40 446.66 411.58
  Q 452.73 417.78 459.75 422.22
  C 467.95 427.40 478.41 425.93 485.79 419.86
  Q 494.11 413.02 494.89 403.29
  C 495.63 394.12 490.76 384.55 483.89 379.08
  Q 481.62 377.28 478.48 376.01
  Q 473.45 373.97 471.51 373.98
  Q 459.15 374.06 446.71 373.65"
/>
<path stroke="#7d8685" vector-effect="non-scaling-stroke" d="
  M 301.10 411.21
  Q 302.62 423.67 312.34 431.65
  Q 322.37 439.90 335.03 436.98
  Q 337.97 436.30 340.20 434.39
  A 0.44 0.44 0.0 0 0 339.98 433.62
  C 327.72 431.84 317.89 422.18 317.30 409.57"
/>
<path stroke="#8f9aa0" vector-effect="non-scaling-stroke" d="
  M 317.30 409.57
  Q 317.57 392.21 332.43 384.84
  C 334.12 384.01 336.04 383.54 337.80 382.86
  Q 339.15 382.34 337.83 381.77
  C 331.02 378.82 323.41 379.08 316.82 382.24
  Q 306.91 387.00 302.95 397.99
  Q 300.66 404.35 301.10 411.21"
/>
<path stroke="#ece9e5" vector-effect="non-scaling-stroke" d="
  M 317.30 409.57
  L 317.30 411.05
  Q 317.30 411.70 316.66 411.60
  Q 316.26 411.54 315.97 411.28
  Q 315.52 410.87 314.92 410.82
  Q 307.87 410.22 301.10 411.21"
/>
<path stroke="#c3c2b9" vector-effect="non-scaling-stroke" d="
  M 84.75 279.23
  Q 84.73 279.51 84.71 279.79"
/>
</g>
<path fill="#fefdff" d="
  M 331.88 0.00
  L 343.75 0.00
  Q 351.24 0.45 358.75 0.51
  Q 365.60 0.56 372.75 3.89
  Q 372.73 4.10 372.71 4.30
  Q 364.06 0.72 359.50 0.75
  Q 340.27 0.87 321.04 0.86
  Q 314.01 0.85 309.59 2.09
  Q 303.68 3.75 298.28 6.84
  Q 307.62 0.61 317.50 0.52
  Q 324.70 0.45 331.88 0.00
  Z"
/>
<path fill="#203640" d="
  M 372.71 4.30
  L 379.93 8.34
  C 387.72 13.75 394.69 21.77 397.38 30.86
  Q 398.07 33.16 398.84 35.53
  Q 399.54 45.01 399.17 54.72
  Q 399.15 55.32 399.34 55.74
  Q 399.86 56.92 400.48 56.09
  L 486.17 56.53
  Q 489.72 57.82 493.19 58.72
  Q 497.74 59.89 500.17 60.92
  Q 517.98 68.46 531.75 81.01
  Q 551.22 98.74 560.76 125.08
  C 561.93 128.30 562.43 131.73 563.04 135.13
  A 1.80 1.79 85.8 0 0 564.74 136.61
  Q 565.97 136.65 567.13 136.99
  Q 577.35 139.97 584.60 147.89
  Q 589.05 152.75 591.32 160.89
  Q 592.64 165.62 592.32 174.65
  Q 591.90 186.63 592.20 199.12
  A 1.55 1.55 0.0 0 0 593.76 200.63
  L 629.22 200.31
  L 642.16 200.64
  Q 650.26 202.05 656.15 205.36
  Q 671.87 214.17 676.33 232.60
  L 677.00 238.62
  L 677.00 243.51
  L 676.63 247.24
  Q 673.08 261.70 662.72 270.83
  C 656.29 276.50 649.13 279.30 640.66 279.24
  Q 618.70 279.09 594.50 279.02
  A 2.10 2.10 0.0 0 0 592.39 281.11
  Q 591.82 359.73 592.09 437.72
  Q 592.22 476.74 591.94 484.00
  Q 591.64 491.62 590.35 497.12
  Q 589.66 500.02 587.75 506.46
  Q 586.13 511.95 584.71 515.66
  Q 574.55 542.08 554.38 561.74
  Q 552.75 563.32 550.88 564.57
  A 0.53 0.52 41.9 0 0 550.93 565.47
  Q 551.68 565.87 552.44 565.85
  Q 562.17 565.58 573.57 565.75
  Q 577.23 565.80 580.01 567.36
  Q 585.37 570.36 587.20 576.52
  Q 588.48 580.80 586.17 585.16
  Q 584.06 589.16 581.89 590.41
  Q 579.63 591.73 579.10 592.49
  L 557.63 593.00
  L 557.13 593.00
  Q 553.42 592.78 549.72 592.57
  Q 546.03 592.36 542.29 592.36
  Q 341.97 592.34 141.65 592.38
  C 133.79 592.39 124.58 592.67 116.04 592.68
  L 100.09 592.46
  L 92.63 587.26
  C 89.64 584.15 89.78 579.48 90.30 575.11
  Q 91.29 573.81 92.24 572.30
  C 94.98 567.94 99.42 565.95 104.80 565.82
  Q 114.96 565.57 126.46 565.91
  A 0.57 0.57 0.0 0 0 126.95 565.02
  Q 126.69 564.65 126.03 564.53
  Q 125.14 563.91 124.75 563.26
  Q 115.20 554.44 109.07 545.95
  Q 95.05 526.52 88.09 501.17
  Q 87.21 497.98 86.45 492.87
  C 86.01 489.87 86.23 486.76 86.00 483.67
  Q 85.73 480.06 85.75 476.78
  Q 86.28 404.88 85.77 332.85
  Q 85.55 301.36 85.77 281.75
  Q 85.78 280.64 84.75 279.23
  L 39.02 279.55
  Q 37.29 279.82 35.45 279.47
  Q 33.35 278.93 31.15 278.70
  C 22.25 277.79 14.27 271.87 8.62 264.39
  C 0.64 253.82 -1.57 238.28 3.28 225.55
  Q 7.21 215.25 16.59 207.71
  Q 23.78 202.38 32.84 200.61
  Q 35.92 200.00 47.79 200.35
  L 83.59 200.78
  Q 85.94 200.80 85.91 198.45
  L 85.51 169.53
  Q 85.09 165.88 85.95 162.48
  Q 88.29 151.87 96.18 144.08
  Q 102.03 138.28 110.54 136.81
  Q 112.27 137.30 113.51 136.68
  Q 113.93 136.46 114.00 135.99
  Q 114.97 129.52 117.24 123.22
  Q 122.20 109.44 130.17 98.31
  Q 138.45 86.76 144.90 81.15
  Q 149.02 77.56 153.00 73.99
  Q 167.92 62.25 185.89 57.83
  Q 191.21 56.52 198.76 56.39
  Q 238.11 55.71 278.33 56.11
  Q 279.01 49.49 278.75 42.82
  Q 278.55 37.75 279.28 34.71
  Q 280.74 28.62 283.81 23.09
  Q 287.84 15.83 294.20 10.05
  Q 295.64 8.16 298.28 6.84
  Q 303.68 3.75 309.59 2.09
  Q 314.01 0.85 321.04 0.86
  Q 340.27 0.87 359.50 0.75
  Q 364.06 0.72 372.71 4.30
  Z
  M 311.16 55.96
  L 367.00 56.16
  A 0.53 0.53 0.0 0 0 367.53 55.63
  L 367.57 46.14
  A 12.97 12.62 0.2 0 0 354.64 33.47
  L 323.68 33.37
  A 12.97 12.62 0.2 0 0 310.67 45.94
  L 310.63 55.43
  A 0.53 0.53 0.0 0 0 311.16 55.96
  Z
  M 410.54 87.30
  Q 312.05 87.20 213.55 87.27
  Q 203.40 87.28 197.72 88.63
  C 174.51 94.18 156.38 112.32 148.14 134.94
  Q 147.92 135.55 148.56 135.55
  L 475.38 135.53
  L 529.18 135.44
  Q 529.76 135.44 529.57 134.88
  C 522.17 113.38 502.22 94.46 480.19 88.75
  C 472.47 86.75 464.17 87.05 456.25 87.05
  Q 425.42 87.06 410.54 87.30
  Z
  M 130.34 201.13
  L 559.29 201.12
  A 1.21 1.21 0.0 0 0 560.50 199.90
  Q 560.42 194.22 560.69 188.44
  C 561.11 179.40 558.78 172.16 550.19 168.53
  Q 546.97 167.17 539.95 167.10
  Q 507.95 166.80 476.07 166.99
  Q 308.30 166.98 140.67 167.03
  Q 132.25 167.03 129.29 168.18
  C 121.27 171.29 117.16 177.84 117.14 186.35
  Q 117.12 193.57 117.16 200.34
  Q 117.16 200.95 117.78 200.96
  L 130.34 201.13
  Z
  M 642.19 248.48
  C 650.13 241.42 643.04 228.40 633.22 230.58
  C 629.33 231.44 626.32 234.54 623.93 237.51
  A 1.90 1.90 0.0 0 1 622.45 238.22
  L 593.25 238.28
  A 0.73 0.72 -0.0 0 0 592.52 239.00
  L 592.49 249.92
  A 2.22 2.22 0.0 0 0 594.73 252.14
  Q 612.28 252.01 631.58 252.03
  C 635.59 252.03 639.18 251.17 642.19 248.48
  Z
  M 39.41 251.03
  C 40.92 251.67 42.23 252.17 43.93 252.17
  Q 63.45 252.25 83.02 252.24
  Q 85.92 252.24 85.21 248.28
  L 85.32 239.29
  Q 85.33 238.39 84.44 238.37
  Q 70.98 238.11 55.84 238.26
  C 53.84 238.28 52.26 237.19 51.28 235.46
  C 44.66 223.72 25.89 234.18 33.33 246.19
  Q 35.53 249.74 39.41 251.03
  Z
  M 117.08 246.08
  L 117.08 484.04
  Q 119.05 493.98 121.97 502.55
  Q 128.22 520.91 141.25 534.34
  C 156.47 550.02 177.06 561.65 199.00 561.74
  Q 317.57 562.25 474.80 561.77
  C 480.11 561.75 485.23 561.51 490.38 560.46
  Q 521.76 554.01 542.37 527.33
  Q 555.35 510.53 559.30 489.17
  Q 560.51 482.62 560.60 469.25
  C 561.14 389.76 560.75 309.94 560.51 232.36
  A 0.91 0.90 -86.8 0 0 559.71 231.46
  Q 558.37 231.31 557.18 231.31
  Q 338.24 231.17 119.35 231.26
  Q 117.30 231.26 117.27 233.31
  L 117.08 246.08
  Z"
/>
<path fill="#dad5ca" d="
  M 372.75 3.89
  L 380.26 7.93
  Q 380.38 8.30 379.93 8.34
  L 372.71 4.30
  Q 372.73 4.10 372.75 3.89
  Z"
/>
<path fill="#abafa7" d="
  M 380.26 7.93
  Q 394.99 17.90 398.94 35.00
  Q 398.62 35.04 398.84 35.53
  Q 398.07 33.16 397.38 30.86
  C 394.69 21.77 387.72 13.75 379.93 8.34
  Q 380.38 8.30 380.26 7.93
  Z"
/>
<path fill="#abafa7" d="
  M 294.20 10.05
  Q 287.84 15.83 283.81 23.09
  Q 280.74 28.62 279.28 34.71
  Q 278.55 37.75 278.75 42.82
  Q 279.01 49.49 278.33 56.11
  Q 277.51 44.92 278.48 36.75
  Q 278.82 33.96 280.03 30.32
  C 281.97 24.49 285.61 18.97 289.42 14.17
  Q 291.40 11.68 294.20 10.05
  Z"
/>
<path fill="#fefdff" d="
  M 311.16 55.96
  A 0.53 0.53 0.0 0 1 310.63 55.43
  L 310.67 45.94
  A 12.97 12.62 0.2 0 1 323.68 33.37
  L 354.64 33.47
  A 12.97 12.62 0.2 0 1 367.57 46.14
  L 367.53 55.63
  A 0.53 0.53 0.0 0 1 367.00 56.16
  L 311.16 55.96
  Z"
/>
<path fill="#fefdff" d="
  M 398.94 35.00
  Q 400.32 45.20 399.98 55.50
  Q 399.96 56.05 400.48 56.09
  Q 399.86 56.92 399.34 55.74
  Q 399.15 55.32 399.17 54.72
  Q 399.54 45.01 398.84 35.53
  Q 398.62 35.04 398.94 35.00
  Z"
/>
<path fill="#abafa7" d="
  M 486.17 56.53
  Q 489.95 57.21 493.30 58.29
  Q 495.26 58.93 497.26 59.38
  Q 499.19 59.83 501.56 60.89
  Q 528.88 73.15 545.37 94.95
  C 547.06 97.19 548.32 99.48 549.89 101.77
  Q 551.60 104.26 552.87 106.81
  C 554.07 109.22 555.65 111.27 556.77 113.71
  Q 559.88 120.50 561.47 126.25
  Q 562.71 130.73 563.90 135.44
  Q 564.04 135.98 564.59 135.98
  Q 565.78 135.97 566.85 136.27
  Q 581.37 140.26 588.68 152.77
  Q 590.63 156.10 591.67 160.22
  Q 592.41 163.13 592.58 167.82
  Q 593.15 183.32 593.00 199.52
  Q 593.00 200.02 593.49 200.02
  L 629.22 200.31
  L 593.76 200.63
  A 1.55 1.55 0.0 0 1 592.20 199.12
  Q 591.90 186.63 592.32 174.65
  Q 592.64 165.62 591.32 160.89
  Q 589.05 152.75 584.60 147.89
  Q 577.35 139.97 567.13 136.99
  Q 565.97 136.65 564.74 136.61
  A 1.80 1.79 85.8 0 1 563.04 135.13
  C 562.43 131.73 561.93 128.30 560.76 125.08
  Q 551.22 98.74 531.75 81.01
  Q 517.98 68.46 500.17 60.92
  Q 497.74 59.89 493.19 58.72
  Q 489.72 57.82 486.17 56.53
  Z"
/>
<path fill="#abafa7" d="
  M 153.00 73.99
  Q 149.02 77.56 144.90 81.15
  Q 138.45 86.76 130.17 98.31
  Q 122.20 109.44 117.24 123.22
  Q 114.97 129.52 114.00 135.99
  Q 113.93 136.46 113.51 136.68
  Q 112.27 137.30 110.54 136.81
  Q 113.15 136.68 113.57 134.78
  Q 118.04 114.59 130.10 97.80
  Q 136.99 88.19 144.83 80.58
  Q 148.36 77.16 153.00 73.99
  Z"
/>
<path fill="#dad5ca" d="
  M 475.38 135.53
  Q 471.27 125.44 465.43 116.54
  C 461.27 110.20 456.61 105.66 450.33 101.37
  Q 437.34 92.49 423.80 89.42
  C 422.32 89.08 420.78 88.98 419.36 88.48
  Q 417.82 87.94 416.03 87.78
  Q 413.28 87.53 410.54 87.30
  Q 425.42 87.06 456.25 87.05
  C 464.17 87.05 472.47 86.75 480.19 88.75
  C 502.22 94.46 522.17 113.38 529.57 134.88
  Q 529.76 135.44 529.18 135.44
  L 475.38 135.53
  Z"
/>
<path fill="#fefdff" d="
  M 410.54 87.30
  Q 413.28 87.53 416.03 87.78
  Q 417.82 87.94 419.36 88.48
  C 420.78 88.98 422.32 89.08 423.80 89.42
  Q 437.34 92.49 450.33 101.37
  C 456.61 105.66 461.27 110.20 465.43 116.54
  Q 471.27 125.44 475.38 135.53
  L 148.56 135.55
  Q 147.92 135.55 148.14 134.94
  C 156.38 112.32 174.51 94.18 197.72 88.63
  Q 203.40 87.28 213.55 87.27
  Q 312.05 87.20 410.54 87.30
  Z"
/>
<path fill="#abafa7" d="
  M 96.18 144.08
  Q 88.29 151.87 85.95 162.48
  Q 87.50 151.35 96.18 144.08
  Z"
/>
<path fill="#fefdff" d="
  M 476.07 166.99
  Q 475.89 170.90 474.59 174.03
  C 470.66 183.44 462.84 188.01 453.00 188.03
  Q 299.03 188.25 142.93 188.30
  Q 139.62 188.30 136.53 189.86
  Q 130.52 192.87 130.34 201.13
  L 117.78 200.96
  Q 117.16 200.95 117.16 200.34
  Q 117.12 193.57 117.14 186.35
  C 117.16 177.84 121.27 171.29 129.29 168.18
  Q 132.25 167.03 140.67 167.03
  Q 308.30 166.98 476.07 166.99
  Z"
/>
<path fill="#dad5ca" d="
  M 476.07 166.99
  Q 507.95 166.80 539.95 167.10
  Q 546.97 167.17 550.19 168.53
  C 558.78 172.16 561.11 179.40 560.69 188.44
  Q 560.42 194.22 560.50 199.90
  A 1.21 1.21 0.0 0 1 559.29 201.12
  L 130.34 201.13
  Q 130.52 192.87 136.53 189.86
  Q 139.62 188.30 142.93 188.30
  Q 299.03 188.25 453.00 188.03
  C 462.84 188.01 470.66 183.44 474.59 174.03
  Q 475.89 170.90 476.07 166.99
  Z"
/>
<path fill="#abafa7" d="
  M 85.51 169.53
  L 85.91 198.45
  Q 85.94 200.80 83.59 200.78
  L 47.79 200.35
  L 83.82 200.09
  A 1.14 1.14 0.0 0 0 84.95 198.97
  L 85.51 169.53
  Z"
/>
<path fill="#abafa7" d="
  M 642.16 200.64
  Q 646.25 200.25 648.98 201.54
  Q 650.76 202.38 652.07 202.84
  C 659.13 205.35 665.37 210.72 669.83 216.68
  Q 675.15 223.80 676.33 232.60
  Q 671.87 214.17 656.15 205.36
  Q 650.26 202.05 642.16 200.64
  Z"
/>
<path fill="#abafa7" d="
  M 16.59 207.71
  Q 7.21 215.25 3.28 225.55
  C -1.57 238.28 0.64 253.82 8.62 264.39
  C 14.27 271.87 22.25 277.79 31.15 278.70
  Q 33.35 278.93 35.45 279.47
  Q 26.63 279.66 19.75 275.30
  Q 1.34 263.62 0.00 241.12
  L 0.00 237.52
  Q 1.72 218.65 16.59 207.71
  Z"
/>
<path fill="#dad5ca" d="
  M 633.22 230.58
  C 643.04 228.40 650.13 241.42 642.19 248.48
  C 639.18 251.17 635.59 252.03 631.58 252.03
  Q 612.28 252.01 594.73 252.14
  A 2.22 2.22 0.0 0 1 592.49 249.92
  L 592.52 239.00
  A 0.73 0.72 0.0 0 1 593.25 238.28
  L 622.45 238.22
  A 1.90 1.90 0.0 0 0 623.93 237.51
  C 626.32 234.54 629.33 231.44 633.22 230.58
  Z
  M 627.3994 249.4712
  A 0.91 0.91 0.0 0 0 626.4831 248.5676
  L 594.2839 248.7924
  A 0.91 0.91 0.0 0 0 593.3803 249.7088
  L 593.3806 249.7488
  A 0.91 0.91 0.0 0 0 594.2969 250.6524
  L 626.4961 250.4276
  A 0.91 0.91 0.0 0 0 627.3997 249.5112
  L 627.3994 249.4712
  Z"
/>
<path fill="#dad5ca" d="
  M 85.21 248.28
  Q 69.00 248.20 52.75 248.28
  Q 48.49 248.30 44.01 250.57
  Q 42.09 251.55 39.41 251.03
  Q 35.53 249.74 33.33 246.19
  C 25.89 234.18 44.66 223.72 51.28 235.46
  C 52.26 237.19 53.84 238.28 55.84 238.26
  Q 70.98 238.11 84.44 238.37
  Q 85.33 238.39 85.32 239.29
  L 85.21 248.28
  Z"
/>
<path fill="#dad5ca" d="
  M 117.08 484.04
  Q 123.90 486.78 129.32 485.73
  C 131.17 485.37 132.82 485.71 133.35 487.67
  Q 134.69 492.60 137.59 497.24
  Q 155.35 525.67 186.42 529.71
  Q 192.09 530.45 206.76 530.44
  Q 300.51 530.35 394.25 530.36
  Q 425.37 530.37 457.74 530.46
  Q 468.24 530.49 479.86 526.99
  C 496.98 521.82 511.22 507.97 518.21 491.68
  A 0.44 0.44 0.0 0 0 517.92 491.08
  Q 517.54 490.99 517.24 491.20
  Q 504.36 500.39 487.61 499.61
  Q 473.04 498.94 459.33 490.54
  Q 453.72 487.11 447.53 481.76
  C 444.30 478.98 440.14 478.42 436.01 478.36
  Q 401.05 477.90 380.26 478.21
  C 377.67 478.25 374.79 479.78 374.81 482.74
  Q 374.84 489.84 374.60 496.31
  Q 374.32 503.92 368.35 509.02
  C 359.06 516.94 347.59 515.82 337.56 509.25
  Q 325.72 501.49 316.18 491.63
  Q 311.89 487.21 307.71 482.56
  C 304.97 479.52 302.48 476.39 300.60 472.72
  Q 298.45 468.55 296.14 464.79
  Q 294.46 462.07 294.55 458.57
  A 1.31 1.31 0.0 0 0 294.09 457.53
  Q 292.20 455.88 291.04 453.77
  Q 293.78 455.63 296.46 457.50
  Q 319.75 473.77 346.77 464.78
  C 358.40 460.92 365.67 453.85 373.29 444.69
  A 1.94 1.93 19.8 0 1 374.78 443.99
  L 416.74 443.90
  Q 417.96 443.90 418.76 444.81
  C 422.08 448.63 425.39 452.51 429.20 455.79
  C 446.61 470.77 470.00 475.90 492.23 469.23
  Q 511.99 463.30 525.38 446.34
  Q 544.06 422.66 538.52 392.37
  C 536.33 380.43 529.63 369.23 521.26 360.28
  Q 522.61 360.79 521.95 359.40
  C 521.15 357.68 519.60 357.52 520.36 355.02
  Q 521.39 351.64 522.77 349.96
  Q 526.19 345.82 526.64 343.88
  Q 529.27 332.50 521.10 322.59
  C 526.27 322.62 532.04 322.93 536.57 321.72
  C 547.57 318.81 555.41 309.43 556.00 297.75
  Q 556.44 289.17 550.50 281.21
  Q 542.84 270.93 528.49 269.71
  Q 524.24 253.93 509.67 248.48
  Q 501.84 245.55 491.35 245.52
  C 464.27 245.44 437.39 245.83 410.50 245.77
  Q 267.62 245.49 124.75 245.81
  Q 120.86 245.81 117.08 246.08
  L 117.27 233.31
  Q 117.30 231.26 119.35 231.26
  Q 338.24 231.17 557.18 231.31
  Q 558.37 231.31 559.71 231.46
  A 0.91 0.90 -86.8 0 1 560.51 232.36
  C 560.75 309.94 561.14 389.76 560.60 469.25
  Q 560.51 482.62 559.30 489.17
  Q 555.35 510.53 542.37 527.33
  Q 521.76 554.01 490.38 560.46
  C 485.23 561.51 480.11 561.75 474.80 561.77
  Q 317.57 562.25 199.00 561.74
  C 177.06 561.65 156.47 550.02 141.25 534.34
  Q 128.22 520.91 121.97 502.55
  Q 119.05 493.98 117.08 484.04
  Z"
/>
<path fill="#fefdff" d="
  M 528.49 269.71
  Q 464.90 269.54 401.19 269.76
  Q 393.66 269.78 389.97 271.05
  Q 384.59 272.90 380.20 277.06
  Q 369.08 287.61 372.04 302.33
  C 373.79 310.98 380.24 318.10 388.57 321.17
  Q 392.27 322.54 398.61 322.55
  Q 416.33 322.58 431.51 322.35
  Q 434.51 322.30 431.79 323.58
  C 424.70 326.89 417.85 334.28 417.72 342.73
  Q 417.49 359.01 417.49 372.74
  A 0.51 0.51 0.0 0 1 416.98 373.25
  L 375.20 373.22
  A 1.27 1.25 71.5 0 1 374.19 372.71
  C 362.13 356.41 342.85 346.56 322.32 348.41
  Q 307.00 349.79 293.56 360.19
  C 277.75 372.42 269.34 391.42 270.60 411.41
  C 271.66 428.08 279.08 442.05 291.04 453.77
  Q 292.20 455.88 294.09 457.53
  A 1.31 1.31 0.0 0 1 294.55 458.57
  Q 294.46 462.07 296.14 464.79
  Q 298.45 468.55 300.60 472.72
  C 302.48 476.39 304.97 479.52 307.71 482.56
  Q 311.89 487.21 316.18 491.63
  Q 325.72 501.49 337.56 509.25
  C 347.59 515.82 359.06 516.94 368.35 509.02
  Q 374.32 503.92 374.60 496.31
  Q 374.84 489.84 374.81 482.74
  C 374.79 479.78 377.67 478.25 380.26 478.21
  Q 401.05 477.90 436.01 478.36
  C 440.14 478.42 444.30 478.98 447.53 481.76
  Q 453.72 487.11 459.33 490.54
  Q 473.04 498.94 487.61 499.61
  Q 504.36 500.39 517.24 491.20
  Q 517.54 490.99 517.92 491.08
  A 0.44 0.44 0.0 0 1 518.21 491.68
  C 511.22 507.97 496.98 521.82 479.86 526.99
  Q 468.24 530.49 457.74 530.46
  Q 425.37 530.37 394.25 530.36
  Q 300.51 530.35 206.76 530.44
  Q 192.09 530.45 186.42 529.71
  Q 155.35 525.67 137.59 497.24
  Q 134.69 492.60 133.35 487.67
  C 132.82 485.71 131.17 485.37 129.32 485.73
  Q 123.90 486.78 117.08 484.04
  L 117.08 246.08
  Q 120.86 245.81 124.75 245.81
  Q 267.62 245.49 410.50 245.77
  C 437.39 245.83 464.27 245.44 491.35 245.52
  Q 501.84 245.55 509.67 248.48
  Q 524.24 253.93 528.49 269.71
  Z"
/>
<path fill="#abafa7" d="
  M 676.63 247.24
  Q 673.38 267.44 654.82 276.84
  Q 649.91 279.32 642.94 279.51
  Q 618.26 280.18 593.58 279.97
  A 0.58 0.57 -0.0 0 0 593.00 280.54
  Q 593.00 369.67 592.98 456.33
  Q 592.98 474.00 592.36 487.48
  Q 592.14 492.19 590.55 498.61
  Q 588.37 507.42 585.74 514.97
  Q 582.93 523.03 577.10 533.48
  Q 568.95 548.08 553.47 563.74
  Q 553.24 563.98 552.90 563.99
  L 552.45 564.02
  Q 551.78 564.06 552.00 564.69
  Q 552.13 565.04 552.51 565.04
  Q 568.46 564.81 575.76 565.63
  Q 581.15 566.24 585.21 571.17
  Q 588.00 574.56 587.82 579.98
  Q 587.54 588.60 579.10 592.49
  Q 579.63 591.73 581.89 590.41
  Q 584.06 589.16 586.17 585.16
  Q 588.48 580.80 587.20 576.52
  Q 585.37 570.36 580.01 567.36
  Q 577.23 565.80 573.57 565.75
  Q 562.17 565.58 552.44 565.85
  Q 551.68 565.87 550.93 565.47
  A 0.53 0.52 41.9 0 1 550.88 564.57
  Q 552.75 563.32 554.38 561.74
  Q 574.55 542.08 584.71 515.66
  Q 586.13 511.95 587.75 506.46
  Q 589.66 500.02 590.35 497.12
  Q 591.64 491.62 591.94 484.00
  Q 592.22 476.74 592.09 437.72
  Q 591.82 359.73 592.39 281.11
  A 2.10 2.10 0.0 0 1 594.50 279.02
  Q 618.70 279.09 640.66 279.24
  C 649.13 279.30 656.29 276.50 662.72 270.83
  Q 673.08 261.70 676.63 247.24
  Z"
/>
<path fill="#abafa7" d="
  M 85.21 248.28
  Q 85.92 252.24 83.02 252.24
  Q 63.45 252.25 43.93 252.17
  C 42.23 252.17 40.92 251.67 39.41 251.03
  Q 42.09 251.55 44.01 250.57
  Q 48.49 248.30 52.75 248.28
  Q 69.00 248.20 85.21 248.28
  Z"
/>
<rect fill="#abafa7" x="-17.01" y="-0.93" transform="translate(610.39,249.61) rotate(-0.4)" width="34.02" height="1.86" rx="0.91"/>
<path fill="#203640" d="
  M 528.49 269.71
  Q 542.84 270.93 550.50 281.21
  Q 556.44 289.17 556.00 297.75
  C 555.41 309.43 547.57 318.81 536.57 321.72
  C 532.04 322.93 526.27 322.62 521.10 322.59
  L 501.05 322.47
  Q 499.11 322.46 500.86 323.30
  C 507.27 326.37 512.45 331.69 514.55 338.07
  C 516.10 342.80 515.34 349.04 515.52 354.09
  A 1.13 1.12 22.0 0 0 515.85 354.86
  L 521.26 360.28
  C 529.63 369.23 536.33 380.43 538.52 392.37
  Q 544.06 422.66 525.38 446.34
  Q 511.99 463.30 492.23 469.23
  C 470.00 475.90 446.61 470.77 429.20 455.79
  C 425.39 452.51 422.08 448.63 418.76 444.81
  Q 417.96 443.90 416.74 443.90
  L 374.78 443.99
  A 1.94 1.93 19.8 0 0 373.29 444.69
  C 365.67 453.85 358.40 460.92 346.77 464.78
  Q 319.75 473.77 296.46 457.50
  Q 293.78 455.63 291.04 453.77
  C 279.08 442.05 271.66 428.08 270.60 411.41
  C 269.34 391.42 277.75 372.42 293.56 360.19
  Q 307.00 349.79 322.32 348.41
  C 342.85 346.56 362.13 356.41 374.19 372.71
  A 1.27 1.25 71.5 0 0 375.20 373.22
  L 416.98 373.25
  A 0.51 0.51 0.0 0 0 417.49 372.74
  Q 417.49 359.01 417.72 342.73
  C 417.85 334.28 424.70 326.89 431.79 323.58
  Q 434.51 322.30 431.51 322.35
  Q 416.33 322.58 398.61 322.55
  Q 392.27 322.54 388.57 321.17
  C 380.24 318.10 373.79 310.98 372.04 302.33
  Q 369.08 287.61 380.20 277.06
  Q 384.59 272.90 389.97 271.05
  Q 393.66 269.78 401.19 269.76
  Q 464.90 269.54 528.49 269.71
  Z
  M 416.44 303.31
  L 457.21 303.71
  L 457.29 318.53
  Q 457.03 322.06 460.23 322.09
  Q 466.45 322.16 473.03 321.93
  A 2.00 1.99 -0.3 0 0 474.95 319.99
  L 475.34 303.39
  Q 500.18 303.26 523.66 303.26
  Q 527.55 303.25 529.54 302.04
  Q 532.82 300.04 532.75 296.27
  C 531.54 290.66 528.05 289.48 522.49 289.50
  Q 458.81 289.76 415.49 289.54
  Q 404.71 289.49 401.94 289.86
  C 394.08 290.90 395.11 302.92 402.74 303.07
  Q 409.62 303.21 416.44 303.31
  Z
  M 462.30 351.36
  Q 475.78 351.61 489.50 351.48
  Q 493.82 351.44 494.63 347.30
  C 495.43 343.13 490.04 340.77 486.75 340.78
  Q 473.82 340.82 461.14 340.74
  Q 447.20 340.00 443.71 340.85
  Q 438.89 342.01 438.74 346.49
  Q 438.66 348.84 440.41 350.25
  Q 441.60 351.20 443.98 351.25
  Q 453.05 351.44 462.30 351.36
  Z
  M 446.71 373.65
  Q 446.62 379.18 446.51 385.00
  Q 446.41 390.47 441.80 393.29
  Q 438.09 395.55 434.93 395.56
  C 407.39 395.57 380.23 395.36 353.25 395.71
  C 346.66 395.79 342.23 396.86 339.26 402.51
  Q 337.73 405.41 337.64 408.47
  Q 338.09 415.65 343.11 418.42
  Q 345.98 419.99 351.08 420.00
  Q 390.42 420.06 426.66 420.00
  Q 432.42 419.99 436.97 424.20
  C 446.06 432.64 456.17 440.00 468.60 441.35
  C 482.71 442.88 496.42 435.47 503.58 423.53
  C 512.41 408.82 509.92 392.60 498.65 380.22
  C 493.25 374.30 484.73 367.87 476.55 367.83
  Q 462.01 367.75 447.48 367.76
  A 0.61 0.61 0.0 0 0 446.88 368.25
  Q 446.36 370.80 446.71 373.65
  Z
  M 301.10 411.21
  Q 302.62 423.67 312.34 431.65
  Q 322.37 439.90 335.03 436.98
  Q 337.97 436.30 340.20 434.39
  A 0.44 0.44 0.0 0 0 339.98 433.62
  C 327.72 431.84 317.89 422.18 317.30 409.57
  Q 317.57 392.21 332.43 384.84
  C 334.12 384.01 336.04 383.54 337.80 382.86
  Q 339.15 382.34 337.83 381.77
  C 331.02 378.82 323.41 379.08 316.82 382.24
  Q 306.91 387.00 302.95 397.99
  Q 300.66 404.35 301.10 411.21
  Z"
/>
<path fill="#dad5ca" d="
  M 84.75 279.23
  Q 84.73 279.51 84.71 279.79
  Q 84.43 280.04 84.00 280.05
  Q 61.53 280.22 39.02 279.55
  L 84.75 279.23
  Z"
/>
<path fill="#abafa7" d="
  M 84.75 279.23
  Q 85.78 280.64 85.77 281.75
  Q 85.55 301.36 85.77 332.85
  Q 86.28 404.88 85.75 476.78
  Q 85.73 480.06 86.00 483.67
  C 86.23 486.76 86.01 489.87 86.45 492.87
  Q 87.21 497.98 88.09 501.17
  Q 95.05 526.52 109.07 545.95
  Q 115.20 554.44 124.75 563.26
  Q 121.48 561.37 117.22 556.53
  Q 107.77 545.78 103.29 538.05
  Q 100.84 533.83 98.31 529.51
  Q 95.89 525.36 94.47 521.44
  Q 93.21 517.98 91.92 514.72
  Q 88.43 505.94 86.81 497.66
  Q 85.55 491.23 85.30 480.27
  Q 85.04 468.87 85.01 459.00
  Q 84.92 422.65 85.02 280.25
  Q 85.02 280.02 84.71 279.79
  Q 84.73 279.51 84.75 279.23
  Z"
/>
<path fill="#fefdff" d="
  M 532.75 296.27
  Q 476.43 296.76 420.37 296.91
  Q 417.95 296.92 415.65 297.13
  Q 413.25 297.35 410.86 297.56
  Q 408.87 297.74 410.44 298.98
  Q 411.48 299.79 412.78 300.12
  Q 413.31 300.26 413.72 300.62
  Q 414.44 301.25 415.39 301.15
  Q 416.09 301.07 416.51 301.63
  Q 416.68 301.86 416.93 302.00
  Q 417.61 302.38 416.91 302.77
  Q 416.60 302.95 416.44 303.31
  Q 409.62 303.21 402.74 303.07
  C 395.11 302.92 394.08 290.90 401.94 289.86
  Q 404.71 289.49 415.49 289.54
  Q 458.81 289.76 522.49 289.50
  C 528.05 289.48 531.54 290.66 532.75 296.27
  Z"
/>
<path fill="#dad5ca" d="
  M 532.75 296.27
  Q 532.82 300.04 529.54 302.04
  Q 527.55 303.25 523.66 303.26
  Q 500.18 303.26 475.34 303.39
  Q 470.85 302.30 465.15 302.10
  C 463.28 302.03 461.35 302.52 459.52 302.84
  Q 459.32 302.87 459.20 303.04
  Q 459.11 303.16 459.00 303.23
  Q 458.19 303.70 459.13 303.72
  Q 462.09 303.77 465.10 303.72
  Q 466.71 303.69 467.26 304.35
  Q 468.04 305.30 467.28 307.11
  Q 467.76 304.04 465.75 304.07
  Q 461.41 304.13 457.21 303.71
  L 416.44 303.31
  Q 416.60 302.95 416.91 302.77
  Q 417.61 302.38 416.93 302.00
  Q 416.68 301.86 416.51 301.63
  Q 416.09 301.07 415.39 301.15
  Q 414.44 301.25 413.72 300.62
  Q 413.31 300.26 412.78 300.12
  Q 411.48 299.79 410.44 298.98
  Q 408.87 297.74 410.86 297.56
  Q 413.25 297.35 415.65 297.13
  Q 417.95 296.92 420.37 296.91
  Q 476.43 296.76 532.75 296.27
  Z"
/>
<path fill="#abafa7" d="
  M 475.34 303.39
  L 474.95 319.99
  A 2.00 1.99 -0.3 0 1 473.03 321.93
  Q 466.45 322.16 460.23 322.09
  Q 457.03 322.06 457.29 318.53
  Q 462.21 317.42 466.23 315.10
  A 1.95 1.94 75.5 0 0 467.20 313.45
  L 467.28 307.11
  Q 468.04 305.30 467.26 304.35
  Q 466.71 303.69 465.10 303.72
  Q 462.09 303.77 459.13 303.72
  Q 458.19 303.70 459.00 303.23
  Q 459.11 303.16 459.20 303.04
  Q 459.32 302.87 459.52 302.84
  C 461.35 302.52 463.28 302.03 465.15 302.10
  Q 470.85 302.30 475.34 303.39
  Z"
/>
<path fill="#fefdff" d="
  M 467.28 307.11
  L 467.20 313.45
  A 1.95 1.94 75.5 0 1 466.23 315.10
  Q 462.21 317.42 457.29 318.53
  L 457.21 303.71
  Q 461.41 304.13 465.75 304.07
  Q 467.76 304.04 467.28 307.11
  Z"
/>
<path fill="#fefdff" d="
  M 521.10 322.59
  Q 529.27 332.50 526.64 343.88
  Q 526.19 345.82 522.77 349.96
  Q 521.39 351.64 520.36 355.02
  C 519.60 357.52 521.15 357.68 521.95 359.40
  Q 522.61 360.79 521.26 360.28
  L 515.85 354.86
  A 1.13 1.12 22.0 0 1 515.52 354.09
  C 515.34 349.04 516.10 342.80 514.55 338.07
  C 512.45 331.69 507.27 326.37 500.86 323.30
  Q 499.11 322.46 501.05 322.47
  L 521.10 322.59
  Z"
/>
<path fill="#fefdff" d="
  M 461.14 340.74
  Q 461.29 344.65 461.18 348.47
  Q 461.16 349.33 461.50 349.97
  Q 461.81 350.58 462.30 351.36
  Q 453.05 351.44 443.98 351.25
  Q 441.60 351.20 440.41 350.25
  Q 438.66 348.84 438.74 346.49
  Q 438.89 342.01 443.71 340.85
  Q 447.20 340.00 461.14 340.74
  Z"
/>
<path fill="#dad5ca" d="
  M 461.14 340.74
  Q 473.82 340.82 486.75 340.78
  C 490.04 340.77 495.43 343.13 494.63 347.30
  Q 493.82 351.44 489.50 351.48
  Q 475.78 351.61 462.30 351.36
  Q 461.81 350.58 461.50 349.97
  Q 461.16 349.33 461.18 348.47
  Q 461.29 344.65 461.14 340.74
  Z"
/>
<path fill="#dad5ca" d="
  M 337.64 408.47
  Q 342.77 407.84 348.06 408.06
  Q 357.34 408.45 358.45 408.44
  Q 406.35 408.12 438.50 408.36
  Q 443.56 408.40 446.66 411.58
  Q 452.73 417.78 459.75 422.22
  C 467.95 427.40 478.41 425.93 485.79 419.86
  Q 494.11 413.02 494.89 403.29
  C 495.63 394.12 490.76 384.55 483.89 379.08
  Q 481.62 377.28 478.48 376.01
  Q 473.45 373.97 471.51 373.98
  Q 459.15 374.06 446.71 373.65
  Q 446.36 370.80 446.88 368.25
  A 0.61 0.61 0.0 0 1 447.48 367.76
  Q 462.01 367.75 476.55 367.83
  C 484.73 367.87 493.25 374.30 498.65 380.22
  C 509.92 392.60 512.41 408.82 503.58 423.53
  C 496.42 435.47 482.71 442.88 468.60 441.35
  C 456.17 440.00 446.06 432.64 436.97 424.20
  Q 432.42 419.99 426.66 420.00
  Q 390.42 420.06 351.08 420.00
  Q 345.98 419.99 343.11 418.42
  Q 338.09 415.65 337.64 408.47
  Z"
/>
<path fill="#fefdff" d="
  M 446.71 373.65
  Q 459.15 374.06 471.51 373.98
  Q 473.45 373.97 478.48 376.01
  Q 481.62 377.28 483.89 379.08
  C 490.76 384.55 495.63 394.12 494.89 403.29
  Q 494.11 413.02 485.79 419.86
  C 478.41 425.93 467.95 427.40 459.75 422.22
  Q 452.73 417.78 446.66 411.58
  Q 443.56 408.40 438.50 408.36
  Q 406.35 408.12 358.45 408.44
  Q 357.34 408.45 348.06 408.06
  Q 342.77 407.84 337.64 408.47
  Q 337.73 405.41 339.26 402.51
  C 342.23 396.86 346.66 395.79 353.25 395.71
  C 380.23 395.36 407.39 395.57 434.93 395.56
  Q 438.09 395.55 441.80 393.29
  Q 446.41 390.47 446.51 385.00
  Q 446.62 379.18 446.71 373.65
  Z"
/>
<path fill="#fefdff" d="
  M 317.30 409.57
  L 317.30 411.05
  Q 317.30 411.70 316.66 411.60
  Q 316.26 411.54 315.97 411.28
  Q 315.52 410.87 314.92 410.82
  Q 307.87 410.22 301.10 411.21
  Q 300.66 404.35 302.95 397.99
  Q 306.91 387.00 316.82 382.24
  C 323.41 379.08 331.02 378.82 337.83 381.77
  Q 339.15 382.34 337.80 382.86
  C 336.04 383.54 334.12 384.01 332.43 384.84
  Q 317.57 392.21 317.30 409.57
  Z"
/>
<path fill="#dad5ca" d="
  M 317.30 409.57
  C 317.89 422.18 327.72 431.84 339.98 433.62
  A 0.44 0.44 0.0 0 1 340.20 434.39
  Q 337.97 436.30 335.03 436.98
  Q 322.37 439.90 312.34 431.65
  Q 302.62 423.67 301.10 411.21
  Q 307.87 410.22 314.92 410.82
  Q 315.52 410.87 315.97 411.28
  Q 316.26 411.54 316.66 411.60
  Q 317.30 411.70 317.30 411.05
  L 317.30 409.57
  Z"
/>
<path fill="#abafa7" d="
  M 126.03 564.53
  Q 126.69 564.65 126.95 565.02
  A 0.57 0.57 0.0 0 1 126.46 565.91
  Q 114.96 565.57 104.80 565.82
  C 99.42 565.95 94.98 567.94 92.24 572.30
  Q 91.29 573.81 90.30 575.11
  Q 92.16 569.49 97.30 567.08
  Q 100.32 565.67 107.15 565.32
  Q 115.23 564.92 125.50 565.04
  Q 126.07 565.05 126.03 564.53
  Z"
/>
<path fill="#abafa7" d="
  M 92.63 587.26
  L 100.09 592.46
  Q 95.10 591.42 92.63 587.26
  Z"
/>
<path fill="#abafa7" d="
  M 557.13 593.00
  L 119.50 593.00
  Q 118.11 592.50 116.04 592.68
  C 124.58 592.67 133.79 592.39 141.65 592.38
  Q 341.97 592.34 542.29 592.36
  Q 546.03 592.36 549.72 592.57
  Q 553.42 592.78 557.13 593.00
  Z"
/>
</svg>
