<?xml version="1.0" encoding="UTF-8" standalone="no"?>
<!DOCTYPE svg PUBLIC "-//W3C//DTD SVG 1.1//EN" "http://www.w3.org/Graphics/SVG/1.1/DTD/svg11.dtd">
<svg xmlns="http://www.w3.org/2000/svg" version="1.1" viewBox="0.00 0.00 569.00 669.00">
<g stroke-width="2.00" fill="none" stroke-linecap="butt">
<path stroke="#96b8cf" vector-effect="non-scaling-stroke" d="
  M 298.74 6.47
  Q 298.65 6.50 298.56 6.53"
/>
<path stroke="#4a819e" vector-effect="non-scaling-stroke" d="
  M 298.56 6.53
  Q 294.59 1.57 288.99 0.54
  Q 284.95 -0.20 279.89 1.16
  Q 277.53 1.80 275.41 3.50
  Q 273.19 5.30 271.92 7.18
  Q 263.91 19.13 255.31 33.07
  Q 245.69 48.67 235.91 63.86
  Q 230.33 72.55 224.77 80.45
  Q 215.59 93.51 205.72 107.23
  Q 205.40 107.68 204.95 107.93"
/>
<path stroke="#6d7d92" vector-effect="non-scaling-stroke" d="
  M 466.23 59.30
  Q 455.46 70.96 443.93 81.90
  Q 443.17 82.62 442.21 83.72
  C 440.79 85.34 439.04 86.69 438.04 88.53
  Q 436.44 91.51 435.94 95.25
  Q 435.34 99.75 437.55 103.69
  C 443.23 113.80 455.73 115.21 463.72 106.97
  Q 478.68 91.55 493.14 77.13
  Q 497.45 72.83 498.54 70.68
  C 501.93 63.97 499.74 55.44 493.49 51.36
  C 486.79 46.98 477.62 47.63 471.91 53.66
  Q 470.30 55.35 468.62 56.69"
/>
<path stroke="#6d7d92" vector-effect="non-scaling-stroke" d="
  M 298.56 6.53
  Q 304.92 16.25 315.85 34.14
  Q 335.26 65.89 359.01 99.99
  Q 361.87 104.10 364.87 108.38
  Q 378.73 128.23 390.55 144.92
  Q 395.05 151.27 400.11 158.10
  C 400.75 158.98 401.01 159.95 401.65 160.81
  Q 416.36 180.68 431.72 201.99
  Q 443.89 218.89 455.81 236.39
  Q 477.05 267.56 492.89 297.99
  Q 500.65 312.91 508.78 333.02
  Q 512.22 341.52 515.26 351.84
  Q 519.10 364.92 520.78 371.83
  Q 523.89 384.67 525.43 396.32
  Q 528.02 415.89 526.85 440.34
  C 526.33 451.11 524.48 462.02 522.52 472.74
  Q 519.77 487.87 515.01 501.69
  C 514.00 504.63 512.69 509.35 511.17 513.15
  Q 506.68 524.34 503.28 531.45
  Q 497.93 542.59 488.93 557.67
  Q 484.33 565.38 473.16 579.48
  Q 466.53 587.84 460.11 594.42
  Q 429.34 625.99 391.75 644.61
  Q 382.77 649.06 373.33 652.54
  Q 342.95 663.77 312.04 667.20
  Q 307.43 667.71 302.68 668.16
  Q 298.09 668.60 293.37 668.62
  Q 274.18 668.68 268.54 668.31
  Q 252.98 667.29 236.77 663.77
  Q 187.91 653.15 146.77 625.51
  C 112.95 602.79 86.15 570.69 67.78 534.26
  Q 65.56 529.85 58.59 513.67"
/>
<path stroke="#4a819e" vector-effect="non-scaling-stroke" d="
  M 58.59 513.67
  Q 57.24 509.70 55.87 505.69
  Q 37.35 451.74 44.59 396.07
  Q 45.30 390.59 46.64 384.19
  Q 47.91 378.14 49.17 372.08
  Q 53.92 349.16 63.77 326.04
  Q 72.87 304.66 84.00 285.02
  Q 89.03 276.13 94.42 267.69
  Q 101.97 255.88 109.86 243.46
  Q 113.30 238.06 117.37 232.37
  Q 117.73 231.87 118.01 231.28
  Q 118.29 230.71 118.72 230.24
  Q 119.97 228.86 121.00 227.05
  Q 122.51 224.40 123.04 223.65
  Q 128.40 216.08 134.22 207.98
  Q 136.20 205.23 140.82 198.37
  Q 143.81 193.94 147.61 188.89
  Q 149.23 186.74 150.85 184.58
  Q 155.50 178.37 160.32 171.72
  C 160.71 171.17 160.81 170.55 161.13 170.13
  Q 171.47 156.15 183.25 139.73
  Q 183.67 139.14 184.14 138.20
  Q 184.68 137.12 185.12 136.74
  Q 186.38 135.68 187.00 134.18
  A 2.18 2.16 80.6 0 1 187.56 133.39
  Q 189.16 131.97 189.38 130.19"
/>
<path stroke="#4a819e" vector-effect="non-scaling-stroke" d="
  M 198.33 117.84
  L 204.95 107.93"
/>
<path stroke="#6c96ad" vector-effect="non-scaling-stroke" d="
  M 158.73 595.56
  Q 161.37 598.10 163.09 599.17
  Q 178.34 608.68 191.24 615.21
  Q 219.16 629.32 250.98 634.39"
/>
<path stroke="#4a819e" vector-effect="non-scaling-stroke" d="
  M 250.98 634.39
  Q 262.54 636.61 274.25 637.24
  Q 333.89 640.43 385.75 612.83
  Q 394.39 608.23 402.96 602.28
  C 425.74 586.49 445.84 566.67 461.51 543.55
  Q 466.42 536.31 471.60 526.25
  Q 477.20 515.37 480.15 508.15
  Q 483.56 499.76 486.81 489.87
  Q 488.49 484.75 489.59 479.31
  C 491.39 470.33 493.72 460.96 494.63 452.26
  Q 497.97 420.43 493.24 392.40
  Q 488.61 364.88 477.72 337.94
  Q 476.01 333.70 473.99 329.59
  C 470.62 322.74 467.62 315.58 463.99 308.90
  C 452.12 287.09 439.27 267.40 425.15 246.34
  Q 419.22 237.50 413.77 229.94
  Q 384.81 189.83 356.00 149.62
  Q 350.38 141.78 344.53 133.31
  Q 322.54 101.46 316.32 91.67
  Q 302.42 69.78 287.79 47.70"
/>
<path stroke="#90a3b0" vector-effect="non-scaling-stroke" d="
  M 287.79 47.70
  Q 287.07 46.20 285.59 44.68
  A 0.52 0.51 39.6 0 0 284.79 44.75
  Q 269.18 68.72 253.32 93.11
  Q 246.50 103.60 239.57 113.56
  Q 210.78 154.93 181.89 194.65
  Q 155.48 230.97 142.40 250.71
  Q 135.41 261.26 127.99 272.40
  C 114.99 291.93 103.85 312.34 94.11 334.15
  C 86.40 351.41 81.91 367.22 77.79 387.58
  Q 73.92 406.68 74.08 426.52
  C 74.29 453.01 78.05 477.87 87.25 501.05
  C 91.04 510.60 94.71 520.09 99.89 529.09
  C 114.78 554.96 134.16 578.27 158.73 595.56"
/>
<path stroke="#b9dded" vector-effect="non-scaling-stroke" d="
  M 287.79 47.70
  L 287.59 85.86"
/>
<path stroke="#dbf3fc" vector-effect="non-scaling-stroke" d="
  M 287.59 85.86
  Q 284.80 90.80 284.05 92.01
  Q 272.13 111.16 259.46 129.81
  C 255.53 135.60 251.90 142.19 253.29 149.38
  C 254.65 156.43 254.02 162.74 250.42 169.24
  Q 245.94 177.32 239.58 186.33
  C 232.61 196.22 225.99 207.09 219.33 216.83
  Q 211.96 227.62 205.07 237.94
  Q 199.14 246.83 193.66 254.36
  Q 187.39 262.97 181.32 271.61
  C 171.06 286.22 159.98 300.52 149.18 314.69
  C 144.14 321.31 140.72 327.51 143.41 336.11
  Q 144.89 340.86 148.78 343.56
  Q 158.35 350.22 169.12 344.82
  C 174.91 341.92 177.01 337.66 179.59 332.31
  C 184.14 322.86 195.34 319.24 204.81 323.12
  Q 210.68 325.53 214.62 331.68
  C 219.04 338.59 218.66 348.90 215.86 356.41
  C 211.46 368.21 203.18 377.63 193.07 385.30
  C 180.75 394.64 163.06 397.19 148.00 394.84
  Q 144.24 394.26 140.17 393.43"
/>
<path stroke="#90a3b0" vector-effect="non-scaling-stroke" d="
  M 140.17 393.43
  Q 139.01 385.03 131.25 381.20
  Q 126.97 379.09 123.00 379.78
  Q 111.59 381.77 109.30 393.38"
/>
<path stroke="#dbf3fc" vector-effect="non-scaling-stroke" d="
  M 109.30 393.38
  Q 107.14 398.67 106.36 404.09
  Q 105.21 412.18 105.17 412.38
  Q 104.18 418.24 104.01 424.11
  C 103.57 439.53 104.59 454.89 108.20 469.88
  C 111.69 484.35 115.77 497.57 122.54 510.64
  C 125.12 515.62 125.83 518.49 131.32 518.48
  A 0.36 0.36 0.0 0 1 131.64 519.01
  L 131.46 519.36
  A 1.51 1.49 -76.8 0 1 130.19 520.16
  Q 124.25 520.38 125.09 525.25
  Q 125.31 526.52 126.60 526.41
  L 130.87 526.05
  Q 132.71 525.89 133.19 527.67
  Q 133.98 530.64 135.39 532.71
  Q 146.39 549.01 162.17 564.35
  C 166.47 568.53 171.84 572.28 176.82 576.29
  Q 180.44 579.22 181.43 581.40
  C 183.76 586.54 182.06 590.48 178.20 594.04
  Q 176.07 595.99 172.29 596.53
  Q 165.41 597.50 158.73 595.56"
/>
<path stroke="#6c96ad" vector-effect="non-scaling-stroke" d="
  M 462.62 467.00
  Q 467.87 435.54 462.96 404.26
  Q 461.74 396.52 459.86 391.01
  C 457.01 382.69 446.42 377.32 438.31 381.06
  Q 429.91 384.93 429.47 395.69"
/>
<path stroke="#95d1ea" vector-effect="non-scaling-stroke" d="
  M 429.47 395.69
  Q 429.51 397.87 429.91 400.10
  Q 430.38 402.68 430.37 404.46
  Q 430.37 407.06 430.37 409.66
  Q 430.38 411.82 429.98 414.81
  C 429.53 418.13 429.56 421.57 429.16 424.75
  Q 428.26 432.03 427.77 434.30
  C 426.06 442.20 423.94 450.18 420.94 457.53
  C 418.35 463.85 416.31 470.25 413.16 476.49
  Q 399.12 504.28 375.51 524.97
  Q 369.58 530.17 362.37 535.08
  C 353.45 541.15 344.54 546.64 334.36 550.36
  Q 314.55 557.58 292.56 559.61
  Q 287.83 560.05 284.24 561.79
  Q 280.01 563.83 278.06 568.60
  Q 273.10 580.72 259.71 581.88"
/>
<path stroke="#6c96ad" vector-effect="non-scaling-stroke" d="
  M 259.71 581.88
  Q 242.52 578.46 235.39 575.63
  Q 226.91 572.26 220.93 570.46
  Q 211.20 567.54 204.83 575.86
  Q 198.46 584.16 205.14 593.78
  C 206.40 595.60 210.38 597.35 212.29 598.69"
/>
<path stroke="#6c96ad" vector-effect="non-scaling-stroke" d="
  M 109.30 393.38
  Q 108.35 409.87 109.02 426.00
  Q 109.26 431.65 113.52 435.52
  Q 119.61 441.07 127.00 439.78
  C 132.39 438.84 136.80 435.05 138.81 429.97
  Q 140.05 426.83 140.07 418.87
  Q 140.11 406.18 140.17 393.43"
/>
<path stroke="#95d1ea" vector-effect="non-scaling-stroke" d="
  M 250.98 634.39
  Q 252.61 634.63 253.21 633.86
  Q 253.60 633.36 252.99 633.16
  C 250.29 632.29 247.74 631.38 245.32 629.83
  C 242.11 627.78 238.65 626.27 235.57 623.94
  C 232.65 621.72 229.62 619.64 227.18 616.89
  Q 225.40 614.87 223.34 613.00
  C 220.82 610.74 218.68 608.12 216.50 605.56
  C 214.71 603.48 213.70 601.08 212.29 598.69"
/>
<path stroke="#4a819e" vector-effect="non-scaling-stroke" d="
  M 212.29 598.69
  Q 219.80 601.34 227.27 604.05
  Q 236.69 607.48 242.41 608.95
  Q 258.31 613.03 274.63 613.90
  Q 343.53 617.58 397.99 575.84
  C 411.68 565.34 423.76 550.97 433.89 535.99
  Q 439.72 527.38 444.38 518.30
  Q 456.89 493.90 462.62 467.00"
/>
<path stroke="#95d1ea" vector-effect="non-scaling-stroke" d="
  M 462.62 467.00
  Q 462.65 467.70 462.71 467.72
  A 0.68 0.67 -69.9 0 0 463.64 467.28
  Q 466.18 457.77 467.46 447.56
  Q 468.80 436.87 468.60 428.85
  Q 468.12 409.96 464.48 393.40
  C 460.66 376.02 454.36 356.61 446.32 339.52
  C 436.79 319.24 426.17 300.44 414.81 281.64
  Q 404.05 263.81 390.42 243.56
  C 387.25 238.84 384.47 234.05 381.31 229.30
  Q 341.78 170.05 302.75 109.65
  Q 296.70 100.29 290.50 90.98
  C 289.41 89.34 288.73 87.48 287.59 85.86"
/>
<path stroke="#4a819e" vector-effect="non-scaling-stroke" d="
  M 259.71 581.88
  Q 265.00 583.14 272.25 583.75
  Q 322.14 587.98 363.32 562.88
  C 393.41 544.54 415.82 515.28 427.24 482.32
  C 432.69 466.60 434.86 451.17 434.57 434.49
  Q 434.22 414.18 429.47 395.69"
/>
<path stroke="#96b8cf" vector-effect="non-scaling-stroke" d="
  M 58.42 513.78
  Q 58.51 513.73 58.59 513.67"
/>
<path stroke="#6d7d92" vector-effect="non-scaling-stroke" d="
  M 96.1209 52.7475
  A 15.13 15.13 0.0 0 0 74.7239 52.7475
  L 74.0875 53.3839
  A 15.13 15.13 0.0 0 0 74.0875 74.7809
  L 107.2791 107.9725
  A 15.13 15.13 0.0 0 0 128.6761 107.9725
  L 129.3125 107.3361
  A 15.13 15.13 0.0 0 0 129.3125 85.9391
  L 96.1209 52.7475"
/>
<path stroke="#dbf3fc" vector-effect="non-scaling-stroke" d="
  M 197.0810 445.8267
  A 19.77 19.54 -15.5 0 0 172.8082 432.2807
  A 19.77 19.54 -15.5 0 0 158.9790 456.3933
  A 19.77 19.54 -15.5 0 0 183.2518 469.9393
  A 19.77 19.54 -15.5 0 0 197.0810 445.8267"
/>
<path stroke="#6d7d92" vector-effect="non-scaling-stroke" d="
  M 58.36 156.92
  C 59.42 161.33 63.78 165.81 66.87 168.59
  Q 73.99 175.00 81.41 182.02
  C 89.82 189.99 102.82 185.50 106.74 175.26
  C 109.41 168.27 106.80 162.28 101.26 157.35
  Q 93.69 150.61 86.83 144.27
  C 82.05 139.84 77.30 137.83 70.63 139.52
  Q 61.66 141.80 58.81 150.21
  Q 57.60 153.76 58.36 156.92"
/>
<path stroke="#6d7d92" vector-effect="non-scaling-stroke" d="
  M 478.61 148.05
  Q 473.27 153.21 468.40 157.79
  C 462.38 163.44 459.22 171.65 464.55 179.06
  Q 468.67 184.79 476.73 186.11
  C 481.48 186.89 487.07 183.89 490.26 180.66
  Q 495.63 175.21 503.40 168.02
  Q 508.40 163.40 509.97 159.89
  Q 512.58 154.04 509.49 147.76
  Q 504.68 137.97 492.94 138.85
  C 487.58 139.25 482.46 144.31 478.61 148.05"
/>
<path stroke="#6d7d92" vector-effect="non-scaling-stroke" d="
  M 45.77 213.55
  C 52.51 216.54 57.33 221.95 57.18 229.43
  Q 57.07 234.72 53.77 238.73
  Q 50.49 242.70 45.07 244.53"
/>
<path stroke="#6d7d92" vector-effect="non-scaling-stroke" d="
  M 38.20 244.64
  L 19.54 244.67"
/>
<path stroke="#6d7d92" vector-effect="non-scaling-stroke" d="
  M 11.70 244.60
  Q 10.76 243.60 9.33 242.92
  C 2.66 239.75 -0.44 232.25 1.10 225.37
  Q 2.82 217.70 11.67 213.61"
/>
<path stroke="#6d7d92" vector-effect="non-scaling-stroke" d="
  M 557.94 213.49
  Q 561.09 215.53 563.87 218.31
  Q 566.72 221.16 567.76 224.69
  Q 571.75 238.31 556.18 244.54"
/>
<path stroke="#6d7d92" vector-effect="non-scaling-stroke" d="
  M 548.70 244.65
  L 531.80 244.68"
/>
<path stroke="#4a819e" vector-effect="non-scaling-stroke" d="
  M 523.03 244.50
  Q 520.85 243.18 518.84 241.86
  Q 516.60 240.38 515.27 238.50
  Q 512.92 235.19 512.61 232.75
  Q 511.01 219.83 522.55 213.57"
/>
</g>
<path fill="#73bbda" d="
  M 284.39 0.00
  L 287.00 0.00
  Q 294.38 0.47 298.74 6.47
  Q 298.65 6.50 298.56 6.53
  Q 294.59 1.57 288.99 0.54
  Q 284.95 -0.20 279.89 1.16
  Q 277.53 1.80 275.41 3.50
  Q 273.19 5.30 271.92 7.18
  Q 263.91 19.13 255.31 33.07
  Q 245.69 48.67 235.91 63.86
  Q 230.33 72.55 224.77 80.45
  Q 215.59 93.51 205.72 107.23
  Q 205.40 107.68 204.95 107.93
  Q 214.03 94.88 222.96 81.74
  Q 245.72 48.20 266.84 13.60
  Q 267.89 11.88 271.97 6.42
  Q 276.65 0.15 284.39 0.00
  Z"
/>
<path fill="#214661" d="
  M 298.56 6.53
  Q 304.92 16.25 315.85 34.14
  Q 335.26 65.89 359.01 99.99
  Q 361.87 104.10 364.87 108.38
  Q 378.73 128.23 390.55 144.92
  Q 395.05 151.27 400.11 158.10
  C 400.75 158.98 401.01 159.95 401.65 160.81
  Q 416.36 180.68 431.72 201.99
  Q 443.89 218.89 455.81 236.39
  Q 477.05 267.56 492.89 297.99
  Q 500.65 312.91 508.78 333.02
  Q 512.22 341.52 515.26 351.84
  Q 519.10 364.92 520.78 371.83
  Q 523.89 384.67 525.43 396.32
  Q 528.02 415.89 526.85 440.34
  C 526.33 451.11 524.48 462.02 522.52 472.74
  Q 519.77 487.87 515.01 501.69
  C 514.00 504.63 512.69 509.35 511.17 513.15
  Q 506.68 524.34 503.28 531.45
  Q 497.93 542.59 488.93 557.67
  Q 484.33 565.38 473.16 579.48
  Q 466.53 587.84 460.11 594.42
  Q 429.34 625.99 391.75 644.61
  Q 382.77 649.06 373.33 652.54
  Q 342.95 663.77 312.04 667.20
  Q 307.43 667.71 302.68 668.16
  Q 298.09 668.60 293.37 668.62
  Q 274.18 668.68 268.54 668.31
  Q 252.98 667.29 236.77 663.77
  Q 187.91 653.15 146.77 625.51
  C 112.95 602.79 86.15 570.69 67.78 534.26
  Q 65.56 529.85 58.59 513.67
  Q 57.24 509.70 55.87 505.69
  Q 37.35 451.74 44.59 396.07
  Q 45.30 390.59 46.64 384.19
  Q 47.91 378.14 49.17 372.08
  Q 53.92 349.16 63.77 326.04
  Q 72.87 304.66 84.00 285.02
  Q 89.03 276.13 94.42 267.69
  Q 101.97 255.88 109.86 243.46
  Q 113.30 238.06 117.37 232.37
  Q 117.73 231.87 118.01 231.28
  Q 118.29 230.71 118.72 230.24
  Q 119.97 228.86 121.00 227.05
  Q 122.51 224.40 123.04 223.65
  Q 128.40 216.08 134.22 207.98
  Q 136.20 205.23 140.82 198.37
  Q 143.81 193.94 147.61 188.89
  Q 149.23 186.74 150.85 184.58
  Q 155.50 178.37 160.32 171.72
  C 160.71 171.17 160.81 170.55 161.13 170.13
  Q 171.47 156.15 183.25 139.73
  Q 183.67 139.14 184.14 138.20
  Q 184.68 137.12 185.12 136.74
  Q 186.38 135.68 187.00 134.18
  A 2.18 2.16 80.6 0 1 187.56 133.39
  Q 189.16 131.97 189.38 130.19
  L 198.33 117.84
  L 204.95 107.93
  Q 205.40 107.68 205.72 107.23
  Q 215.59 93.51 224.77 80.45
  Q 230.33 72.55 235.91 63.86
  Q 245.69 48.67 255.31 33.07
  Q 263.91 19.13 271.92 7.18
  Q 273.19 5.30 275.41 3.50
  Q 277.53 1.80 279.89 1.16
  Q 284.95 -0.20 288.99 0.54
  Q 294.59 1.57 298.56 6.53
  Z
  M 158.73 595.56
  Q 161.37 598.10 163.09 599.17
  Q 178.34 608.68 191.24 615.21
  Q 219.16 629.32 250.98 634.39
  Q 262.54 636.61 274.25 637.24
  Q 333.89 640.43 385.75 612.83
  Q 394.39 608.23 402.96 602.28
  C 425.74 586.49 445.84 566.67 461.51 543.55
  Q 466.42 536.31 471.60 526.25
  Q 477.20 515.37 480.15 508.15
  Q 483.56 499.76 486.81 489.87
  Q 488.49 484.75 489.59 479.31
  C 491.39 470.33 493.72 460.96 494.63 452.26
  Q 497.97 420.43 493.24 392.40
  Q 488.61 364.88 477.72 337.94
  Q 476.01 333.70 473.99 329.59
  C 470.62 322.74 467.62 315.58 463.99 308.90
  C 452.12 287.09 439.27 267.40 425.15 246.34
  Q 419.22 237.50 413.77 229.94
  Q 384.81 189.83 356.00 149.62
  Q 350.38 141.78 344.53 133.31
  Q 322.54 101.46 316.32 91.67
  Q 302.42 69.78 287.79 47.70
  Q 287.07 46.20 285.59 44.68
  A 0.52 0.51 39.6 0 0 284.79 44.75
  Q 269.18 68.72 253.32 93.11
  Q 246.50 103.60 239.57 113.56
  Q 210.78 154.93 181.89 194.65
  Q 155.48 230.97 142.40 250.71
  Q 135.41 261.26 127.99 272.40
  C 114.99 291.93 103.85 312.34 94.11 334.15
  C 86.40 351.41 81.91 367.22 77.79 387.58
  Q 73.92 406.68 74.08 426.52
  C 74.29 453.01 78.05 477.87 87.25 501.05
  C 91.04 510.60 94.71 520.09 99.89 529.09
  C 114.78 554.96 134.16 578.27 158.73 595.56
  Z"
/>
<path fill="#bab4c4" fill-opacity="0.996" d="
  M 298.56 6.53
  Q 298.65 6.50 298.74 6.47
  Q 303.19 12.53 305.19 15.80
  Q 315.54 32.75 326.10 49.58
  Q 331.12 57.58 336.95 66.38
  Q 346.81 81.24 355.36 93.88
  Q 363.40 105.76 374.48 121.48
  Q 389.05 142.15 399.68 156.79
  C 406.73 166.49 413.29 175.82 420.25 185.19
  Q 443.92 217.08 468.34 254.48
  Q 471.43 259.21 474.52 264.50
  Q 477.10 268.94 480.55 274.60
  Q 485.16 282.20 488.79 289.22
  C 489.09 289.80 489.54 290.17 489.85 290.77
  C 494.32 299.69 499.09 308.49 502.89 317.64
  Q 504.63 321.83 506.48 325.81
  C 507.99 329.06 508.70 332.50 510.31 335.61
  Q 511.67 338.23 512.24 341.08
  C 512.83 344.03 514.40 346.40 515.09 349.30
  C 515.95 352.94 517.39 356.42 518.25 360.04
  Q 519.92 366.97 521.81 374.28
  Q 523.69 381.55 524.75 388.48
  Q 528.14 410.50 527.83 429.71
  Q 527.55 447.04 524.54 465.30
  Q 521.41 484.23 517.23 496.85
  Q 514.80 504.18 513.22 509.61
  Q 512.72 511.32 511.98 512.94
  C 511.22 514.58 510.84 516.24 510.02 517.83
  Q 508.52 520.70 507.59 523.67
  C 505.91 529.03 502.88 534.22 500.34 539.25
  Q 498.89 542.13 497.12 544.94
  C 495.57 547.38 494.47 550.22 492.89 552.77
  Q 479.37 574.61 465.84 589.48
  Q 441.80 615.91 410.58 635.04
  Q 406.35 637.63 399.33 641.34
  Q 397.05 642.55 394.90 643.94
  C 392.64 645.40 390.01 646.06 387.56 647.22
  Q 381.98 649.87 375.98 652.30
  Q 372.35 653.76 361.21 657.44
  Q 354.67 659.59 348.21 661.19
  C 342.40 662.62 336.57 664.22 330.54 665.24
  Q 312.14 668.37 306.00 668.43
  Q 298.04 668.50 290.12 669.00
  L 278.76 669.00
  Q 273.93 668.61 269.09 668.51
  Q 263.64 668.39 259.40 667.90
  Q 246.09 666.39 241.44 665.51
  Q 223.70 662.16 203.76 654.97
  Q 196.62 652.39 190.37 649.93
  C 186.26 648.31 182.39 646.10 178.09 644.35
  Q 174.95 643.07 171.28 641.03
  Q 152.40 630.52 139.87 621.34
  Q 128.19 612.78 114.34 599.70
  Q 107.23 592.97 100.39 584.61
  Q 89.34 571.10 80.57 557.76
  Q 78.33 554.35 76.43 550.84
  C 74.70 547.65 72.46 544.86 70.82 541.60
  Q 67.57 535.12 64.44 528.72
  C 64.01 527.84 64.03 526.97 63.55 526.08
  Q 60.39 520.18 58.42 513.78
  Q 58.51 513.73 58.59 513.67
  Q 65.56 529.85 67.78 534.26
  C 86.15 570.69 112.95 602.79 146.77 625.51
  Q 187.91 653.15 236.77 663.77
  Q 252.98 667.29 268.54 668.31
  Q 274.18 668.68 293.37 668.62
  Q 298.09 668.60 302.68 668.16
  Q 307.43 667.71 312.04 667.20
  Q 342.95 663.77 373.33 652.54
  Q 382.77 649.06 391.75 644.61
  Q 429.34 625.99 460.11 594.42
  Q 466.53 587.84 473.16 579.48
  Q 484.33 565.38 488.93 557.67
  Q 497.93 542.59 503.28 531.45
  Q 506.68 524.34 511.17 513.15
  C 512.69 509.35 514.00 504.63 515.01 501.69
  Q 519.77 487.87 522.52 472.74
  C 524.48 462.02 526.33 451.11 526.85 440.34
  Q 528.02 415.89 525.43 396.32
  Q 523.89 384.67 520.78 371.83
  Q 519.10 364.92 515.26 351.84
  Q 512.22 341.52 508.78 333.02
  Q 500.65 312.91 492.89 297.99
  Q 477.05 267.56 455.81 236.39
  Q 443.89 218.89 431.72 201.99
  Q 416.36 180.68 401.65 160.81
  C 401.01 159.95 400.75 158.98 400.11 158.10
  Q 395.05 151.27 390.55 144.92
  Q 378.73 128.23 364.87 108.38
  Q 361.87 104.10 359.01 99.99
  Q 335.26 65.89 315.85 34.14
  Q 304.92 16.25 298.56 6.53
  Z"
/>
<path fill="#ffffff" d="
  M 287.79 47.70
  L 287.59 85.86
  Q 284.80 90.80 284.05 92.01
  Q 272.13 111.16 259.46 129.81
  C 255.53 135.60 251.90 142.19 253.29 149.38
  C 254.65 156.43 254.02 162.74 250.42 169.24
  Q 245.94 177.32 239.58 186.33
  C 232.61 196.22 225.99 207.09 219.33 216.83
  Q 211.96 227.62 205.07 237.94
  Q 199.14 246.83 193.66 254.36
  Q 187.39 262.97 181.32 271.61
  C 171.06 286.22 159.98 300.52 149.18 314.69
  C 144.14 321.31 140.72 327.51 143.41 336.11
  Q 144.89 340.86 148.78 343.56
  Q 158.35 350.22 169.12 344.82
  C 174.91 341.92 177.01 337.66 179.59 332.31
  C 184.14 322.86 195.34 319.24 204.81 323.12
  Q 210.68 325.53 214.62 331.68
  C 219.04 338.59 218.66 348.90 215.86 356.41
  C 211.46 368.21 203.18 377.63 193.07 385.30
  C 180.75 394.64 163.06 397.19 148.00 394.84
  Q 144.24 394.26 140.17 393.43
  Q 139.01 385.03 131.25 381.20
  Q 126.97 379.09 123.00 379.78
  Q 111.59 381.77 109.30 393.38
  Q 107.14 398.67 106.36 404.09
  Q 105.21 412.18 105.17 412.38
  Q 104.18 418.24 104.01 424.11
  C 103.57 439.53 104.59 454.89 108.20 469.88
  C 111.69 484.35 115.77 497.57 122.54 510.64
  C 125.12 515.62 125.83 518.49 131.32 518.48
  A 0.36 0.36 0.0 0 1 131.64 519.01
  L 131.46 519.36
  A 1.51 1.49 -76.8 0 1 130.19 520.16
  Q 124.25 520.38 125.09 525.25
  Q 125.31 526.52 126.60 526.41
  L 130.87 526.05
  Q 132.71 525.89 133.19 527.67
  Q 133.98 530.64 135.39 532.71
  Q 146.39 549.01 162.17 564.35
  C 166.47 568.53 171.84 572.28 176.82 576.29
  Q 180.44 579.22 181.43 581.40
  C 183.76 586.54 182.06 590.48 178.20 594.04
  Q 176.07 595.99 172.29 596.53
  Q 165.41 597.50 158.73 595.56
  C 134.16 578.27 114.78 554.96 99.89 529.09
  C 94.71 520.09 91.04 510.60 87.25 501.05
  C 78.05 477.87 74.29 453.01 74.08 426.52
  Q 73.92 406.68 77.79 387.58
  C 81.91 367.22 86.40 351.41 94.11 334.15
  C 103.85 312.34 114.99 291.93 127.99 272.40
  Q 135.41 261.26 142.40 250.71
  Q 155.48 230.97 181.89 194.65
  Q 210.78 154.93 239.57 113.56
  Q 246.50 103.60 253.32 93.11
  Q 269.18 68.72 284.79 44.75
  A 0.52 0.51 39.6 0 1 285.59 44.68
  Q 287.07 46.20 287.79 47.70
  Z"
/>
<path fill="#bab4c4" fill-opacity="0.996" d="
  M 133.84 95.38
  C 133.92 98.26 133.97 101.34 132.54 103.95
  Q 127.06 113.89 115.41 112.82
  Q 110.84 112.40 106.86 108.44
  Q 90.40 92.12 76.05 77.50
  C 72.70 74.08 69.01 70.88 69.12 65.61
  Q 69.32 55.61 76.10 50.83
  C 79.84 48.19 84.45 47.79 88.86 48.22
  C 92.97 48.62 96.96 52.39 99.79 55.20
  Q 110.15 65.47 120.27 75.46
  Q 126.63 81.76 131.72 88.71
  Q 133.73 91.45 133.84 95.38
  Z
  M 96.1209 52.7475
  A 15.13 15.13 0.0 0 0 74.7239 52.7475
  L 74.0875 53.3839
  A 15.13 15.13 0.0 0 0 74.0875 74.7809
  L 107.2791 107.9725
  A 15.13 15.13 0.0 0 0 128.6761 107.9725
  L 129.3125 107.3361
  A 15.13 15.13 0.0 0 0 129.3125 85.9391
  L 96.1209 52.7475
  Z"
/>
<path fill="#73bbda" d="
  M 287.79 47.70
  Q 302.42 69.78 316.32 91.67
  Q 322.54 101.46 344.53 133.31
  Q 350.38 141.78 356.00 149.62
  Q 384.81 189.83 413.77 229.94
  Q 419.22 237.50 425.15 246.34
  C 439.27 267.40 452.12 287.09 463.99 308.90
  C 467.62 315.58 470.62 322.74 473.99 329.59
  Q 476.01 333.70 477.72 337.94
  Q 488.61 364.88 493.24 392.40
  Q 497.97 420.43 494.63 452.26
  C 493.72 460.96 491.39 470.33 489.59 479.31
  Q 488.49 484.75 486.81 489.87
  Q 483.56 499.76 480.15 508.15
  Q 477.20 515.37 471.60 526.25
  Q 466.42 536.31 461.51 543.55
  C 445.84 566.67 425.74 586.49 402.96 602.28
  Q 394.39 608.23 385.75 612.83
  Q 333.89 640.43 274.25 637.24
  Q 262.54 636.61 250.98 634.39
  Q 252.61 634.63 253.21 633.86
  Q 253.60 633.36 252.99 633.16
  C 250.29 632.29 247.74 631.38 245.32 629.83
  C 242.11 627.78 238.65 626.27 235.57 623.94
  C 232.65 621.72 229.62 619.64 227.18 616.89
  Q 225.40 614.87 223.34 613.00
  C 220.82 610.74 218.68 608.12 216.50 605.56
  C 214.71 603.48 213.70 601.08 212.29 598.69
  Q 219.80 601.34 227.27 604.05
  Q 236.69 607.48 242.41 608.95
  Q 258.31 613.03 274.63 613.90
  Q 343.53 617.58 397.99 575.84
  C 411.68 565.34 423.76 550.97 433.89 535.99
  Q 439.72 527.38 444.38 518.30
  Q 456.89 493.90 462.62 467.00
  Q 462.65 467.70 462.71 467.72
  A 0.68 0.67 -69.9 0 0 463.64 467.28
  Q 466.18 457.77 467.46 447.56
  Q 468.80 436.87 468.60 428.85
  Q 468.12 409.96 464.48 393.40
  C 460.66 376.02 454.36 356.61 446.32 339.52
  C 436.79 319.24 426.17 300.44 414.81 281.64
  Q 404.05 263.81 390.42 243.56
  C 387.25 238.84 384.47 234.05 381.31 229.30
  Q 341.78 170.05 302.75 109.65
  Q 296.70 100.29 290.50 90.98
  C 289.41 89.34 288.73 87.48 287.59 85.86
  L 287.79 47.70
  Z"
/>
<path fill="#bab4c4" fill-opacity="0.996" d="
  M 466.23 59.30
  Q 455.46 70.96 443.93 81.90
  Q 443.17 82.62 442.21 83.72
  C 440.79 85.34 439.04 86.69 438.04 88.53
  Q 436.44 91.51 435.94 95.25
  Q 435.34 99.75 437.55 103.69
  C 443.23 113.80 455.73 115.21 463.72 106.97
  Q 478.68 91.55 493.14 77.13
  Q 497.45 72.83 498.54 70.68
  C 501.93 63.97 499.74 55.44 493.49 51.36
  C 486.79 46.98 477.62 47.63 471.91 53.66
  Q 470.30 55.35 468.62 56.69
  Q 474.99 47.59 485.27 48.14
  Q 491.48 48.47 495.34 51.96
  Q 499.80 56.00 500.67 62.59
  Q 501.65 69.98 496.30 75.30
  Q 480.80 90.70 465.15 106.40
  C 462.35 109.22 459.03 112.01 454.90 112.65
  Q 442.78 114.50 436.75 103.31
  Q 433.60 97.47 436.73 90.73
  Q 439.09 85.66 442.45 82.45
  Q 454.44 70.98 466.23 59.30
  Z"
/>
<rect fill="#214661" x="-15.58" y="-38.60" transform="translate(101.70,80.36) rotate(-45.0)" width="31.16" height="77.20" rx="15.13"/>
<path fill="#214661" d="
  M 466.23 59.30
  Q 467.11 57.83 468.62 56.69
  Q 470.30 55.35 471.91 53.66
  C 477.62 47.63 486.79 46.98 493.49 51.36
  C 499.74 55.44 501.93 63.97 498.54 70.68
  Q 497.45 72.83 493.14 77.13
  Q 478.68 91.55 463.72 106.97
  C 455.73 115.21 443.23 113.80 437.55 103.69
  Q 435.34 99.75 435.94 95.25
  Q 436.44 91.51 438.04 88.53
  C 439.04 86.69 440.79 85.34 442.21 83.72
  Q 443.17 82.62 443.93 81.90
  Q 455.46 70.96 466.23 59.30
  Z"
/>
<path fill="#b7e6f9" d="
  M 287.59 85.86
  C 288.73 87.48 289.41 89.34 290.50 90.98
  Q 296.70 100.29 302.75 109.65
  Q 341.78 170.05 381.31 229.30
  C 384.47 234.05 387.25 238.84 390.42 243.56
  Q 404.05 263.81 414.81 281.64
  C 426.17 300.44 436.79 319.24 446.32 339.52
  C 454.36 356.61 460.66 376.02 464.48 393.40
  Q 468.12 409.96 468.60 428.85
  Q 468.80 436.87 467.46 447.56
  Q 466.18 457.77 463.64 467.28
  A 0.68 0.67 -69.9 0 1 462.71 467.72
  Q 462.65 467.70 462.62 467.00
  Q 467.87 435.54 462.96 404.26
  Q 461.74 396.52 459.86 391.01
  C 457.01 382.69 446.42 377.32 438.31 381.06
  Q 429.91 384.93 429.47 395.69
  Q 429.51 397.87 429.91 400.10
  Q 430.38 402.68 430.37 404.46
  Q 430.37 407.06 430.37 409.66
  Q 430.38 411.82 429.98 414.81
  C 429.53 418.13 429.56 421.57 429.16 424.75
  Q 428.26 432.03 427.77 434.30
  C 426.06 442.20 423.94 450.18 420.94 457.53
  C 418.35 463.85 416.31 470.25 413.16 476.49
  Q 399.12 504.28 375.51 524.97
  Q 369.58 530.17 362.37 535.08
  C 353.45 541.15 344.54 546.64 334.36 550.36
  Q 314.55 557.58 292.56 559.61
  Q 287.83 560.05 284.24 561.79
  Q 280.01 563.83 278.06 568.60
  Q 273.10 580.72 259.71 581.88
  Q 242.52 578.46 235.39 575.63
  Q 226.91 572.26 220.93 570.46
  Q 211.20 567.54 204.83 575.86
  Q 198.46 584.16 205.14 593.78
  C 206.40 595.60 210.38 597.35 212.29 598.69
  C 213.70 601.08 214.71 603.48 216.50 605.56
  C 218.68 608.12 220.82 610.74 223.34 613.00
  Q 225.40 614.87 227.18 616.89
  C 229.62 619.64 232.65 621.72 235.57 623.94
  C 238.65 626.27 242.11 627.78 245.32 629.83
  C 247.74 631.38 250.29 632.29 252.99 633.16
  Q 253.60 633.36 253.21 633.86
  Q 252.61 634.63 250.98 634.39
  Q 219.16 629.32 191.24 615.21
  Q 178.34 608.68 163.09 599.17
  Q 161.37 598.10 158.73 595.56
  Q 165.41 597.50 172.29 596.53
  Q 176.07 595.99 178.20 594.04
  C 182.06 590.48 183.76 586.54 181.43 581.40
  Q 180.44 579.22 176.82 576.29
  C 171.84 572.28 166.47 568.53 162.17 564.35
  Q 146.39 549.01 135.39 532.71
  Q 133.98 530.64 133.19 527.67
  Q 132.71 525.89 130.87 526.05
  L 126.60 526.41
  Q 125.31 526.52 125.09 525.25
  Q 124.25 520.38 130.19 520.16
  A 1.51 1.49 -76.8 0 0 131.46 519.36
  L 131.64 519.01
  A 0.36 0.36 0.0 0 0 131.32 518.48
  C 125.83 518.49 125.12 515.62 122.54 510.64
  C 115.77 497.57 111.69 484.35 108.20 469.88
  C 104.59 454.89 103.57 439.53 104.01 424.11
  Q 104.18 418.24 105.17 412.38
  Q 105.21 412.18 106.36 404.09
  Q 107.14 398.67 109.30 393.38
  Q 108.35 409.87 109.02 426.00
  Q 109.26 431.65 113.52 435.52
  Q 119.61 441.07 127.00 439.78
  C 132.39 438.84 136.80 435.05 138.81 429.97
  Q 140.05 426.83 140.07 418.87
  Q 140.11 406.18 140.17 393.43
  Q 144.24 394.26 148.00 394.84
  C 163.06 397.19 180.75 394.64 193.07 385.30
  C 203.18 377.63 211.46 368.21 215.86 356.41
  C 218.66 348.90 219.04 338.59 214.62 331.68
  Q 210.68 325.53 204.81 323.12
  C 195.34 319.24 184.14 322.86 179.59 332.31
  C 177.01 337.66 174.91 341.92 169.12 344.82
  Q 158.35 350.22 148.78 343.56
  Q 144.89 340.86 143.41 336.11
  C 140.72 327.51 144.14 321.31 149.18 314.69
  C 159.98 300.52 171.06 286.22 181.32 271.61
  Q 187.39 262.97 193.66 254.36
  Q 199.14 246.83 205.07 237.94
  Q 211.96 227.62 219.33 216.83
  C 225.99 207.09 232.61 196.22 239.58 186.33
  Q 245.94 177.32 250.42 169.24
  C 254.02 162.74 254.65 156.43 253.29 149.38
  C 251.90 142.19 255.53 135.60 259.46 129.81
  Q 272.13 111.16 284.05 92.01
  Q 284.80 90.80 287.59 85.86
  Z
  M 197.0810 445.8267
  A 19.77 19.54 -15.5 0 0 172.8082 432.2807
  A 19.77 19.54 -15.5 0 0 158.9790 456.3933
  A 19.77 19.54 -15.5 0 0 183.2518 469.9393
  A 19.77 19.54 -15.5 0 0 197.0810 445.8267
  Z"
/>
<path fill="#73bbda" d="
  M 204.95 107.93
  L 198.33 117.84
  L 204.95 107.93
  Z"
/>
<path fill="#73bbda" d="
  M 189.38 130.19
  Q 189.16 131.97 187.56 133.39
  A 2.18 2.16 80.6 0 0 187.00 134.18
  Q 186.38 135.68 185.12 136.74
  Q 184.68 137.12 184.14 138.20
  Q 183.67 139.14 183.25 139.73
  Q 171.47 156.15 161.13 170.13
  C 160.81 170.55 160.71 171.17 160.32 171.72
  Q 155.50 178.37 150.85 184.58
  Q 149.23 186.74 147.61 188.89
  Q 143.81 193.94 140.82 198.37
  Q 136.20 205.23 134.22 207.98
  Q 128.40 216.08 123.04 223.65
  Q 122.51 224.40 121.00 227.05
  Q 119.97 228.86 118.72 230.24
  Q 118.29 230.71 118.01 231.28
  Q 117.73 231.87 117.37 232.37
  Q 113.30 238.06 109.86 243.46
  Q 101.97 255.88 94.42 267.69
  Q 89.03 276.13 84.00 285.02
  Q 72.87 304.66 63.77 326.04
  Q 53.92 349.16 49.17 372.08
  Q 47.91 378.14 46.64 384.19
  Q 45.30 390.59 44.59 396.07
  Q 37.35 451.74 55.87 505.69
  Q 57.24 509.70 58.59 513.67
  Q 58.51 513.73 58.42 513.78
  Q 53.88 503.43 52.24 497.00
  Q 51.36 493.55 50.50 490.19
  Q 47.18 477.28 45.04 465.09
  Q 43.31 455.24 42.68 445.00
  Q 40.82 414.82 45.25 388.90
  Q 48.73 368.50 55.80 345.71
  Q 57.35 340.70 59.67 334.88
  Q 61.64 329.94 63.78 324.72
  Q 66.16 318.93 68.84 313.42
  Q 71.56 307.82 74.29 302.29
  Q 82.69 285.30 93.67 267.92
  Q 102.35 254.18 112.05 239.53
  Q 135.32 204.40 163.47 166.22
  Q 178.47 145.86 189.38 130.19
  Z"
/>
<path fill="#bab4c4" fill-opacity="0.996" d="
  M 57.56 153.10
  Q 57.44 153.00 57.35 152.87
  Q 57.26 152.73 57.31 152.57
  C 59.08 146.46 61.75 141.79 68.16 139.56
  Q 71.95 138.24 75.64 138.10
  C 78.64 137.99 83.46 140.28 85.66 142.33
  Q 93.68 149.79 101.94 157.28
  Q 105.31 160.34 107.23 164.43
  C 107.96 166.00 107.84 167.77 108.68 169.22
  Q 108.99 169.76 108.78 170.35
  C 107.72 173.31 107.44 176.47 105.66 179.10
  Q 100.90 186.09 91.61 186.81
  Q 86.36 187.21 81.71 182.98
  Q 73.91 175.87 66.33 168.87
  Q 62.53 165.38 59.50 161.21
  C 58.00 159.14 57.94 156.83 57.26 154.49
  A 0.43 0.42 -37.7 0 1 57.31 154.13
  Q 57.40 153.99 57.55 153.88
  Q 58.09 153.50 57.56 153.10
  Z
  M 58.36 156.92
  C 59.42 161.33 63.78 165.81 66.87 168.59
  Q 73.99 175.00 81.41 182.02
  C 89.82 189.99 102.82 185.50 106.74 175.26
  C 109.41 168.27 106.80 162.28 101.26 157.35
  Q 93.69 150.61 86.83 144.27
  C 82.05 139.84 77.30 137.83 70.63 139.52
  Q 61.66 141.80 58.81 150.21
  Q 57.60 153.76 58.36 156.92
  Z"
/>
<path fill="#bab4c4" fill-opacity="0.996" d="
  M 481.57 144.71
  C 485.66 141.10 490.08 137.78 495.64 138.11
  Q 501.08 138.44 506.05 141.70
  Q 506.55 142.02 506.77 142.58
  C 507.53 144.54 509.23 145.42 510.11 147.27
  Q 513.41 154.24 510.60 160.40
  C 509.01 163.87 505.75 166.66 503.06 169.53
  Q 495.01 178.13 487.69 183.40
  Q 484.81 185.48 480.58 186.60
  C 478.07 187.26 475.57 186.49 473.18 185.78
  C 464.83 183.30 458.62 174.69 462.20 165.95
  Q 463.92 161.76 466.98 158.49
  Q 472.03 153.11 481.57 144.71
  Z
  M 478.61 148.05
  Q 473.27 153.21 468.40 157.79
  C 462.38 163.44 459.22 171.65 464.55 179.06
  Q 468.67 184.79 476.73 186.11
  C 481.48 186.89 487.07 183.89 490.26 180.66
  Q 495.63 175.21 503.40 168.02
  Q 508.40 163.40 509.97 159.89
  Q 512.58 154.04 509.49 147.76
  Q 504.68 137.97 492.94 138.85
  C 487.58 139.25 482.46 144.31 478.61 148.05
  Z"
/>
<path fill="#214661" d="
  M 478.61 148.05
  C 482.46 144.31 487.58 139.25 492.94 138.85
  Q 504.68 137.97 509.49 147.76
  Q 512.58 154.04 509.97 159.89
  Q 508.40 163.40 503.40 168.02
  Q 495.63 175.21 490.26 180.66
  C 487.07 183.89 481.48 186.89 476.73 186.11
  Q 468.67 184.79 464.55 179.06
  C 459.22 171.65 462.38 163.44 468.40 157.79
  Q 473.27 153.21 478.61 148.05
  Z"
/>
<path fill="#214661" d="
  M 66.87 168.59
  C 63.78 165.81 59.42 161.33 58.36 156.92
  Q 57.60 153.76 58.81 150.21
  Q 61.66 141.80 70.63 139.52
  C 77.30 137.83 82.05 139.84 86.83 144.27
  Q 93.69 150.61 101.26 157.35
  C 106.80 162.28 109.41 168.27 106.74 175.26
  C 102.82 185.50 89.82 189.99 81.41 182.02
  Q 73.99 175.00 66.87 168.59
  Z"
/>
<path fill="#214661" d="
  M 45.77 213.55
  C 52.51 216.54 57.33 221.95 57.18 229.43
  Q 57.07 234.72 53.77 238.73
  Q 50.49 242.70 45.07 244.53
  L 38.20 244.64
  L 19.54 244.67
  L 11.70 244.60
  Q 10.76 243.60 9.33 242.92
  C 2.66 239.75 -0.44 232.25 1.10 225.37
  Q 2.82 217.70 11.67 213.61
  Q 28.48 212.57 45.77 213.55
  Z"
/>
<path fill="#214661" d="
  M 557.94 213.49
  Q 561.09 215.53 563.87 218.31
  Q 566.72 221.16 567.76 224.69
  Q 571.75 238.31 556.18 244.54
  L 548.70 244.65
  L 531.80 244.68
  L 523.03 244.50
  Q 520.85 243.18 518.84 241.86
  Q 516.60 240.38 515.27 238.50
  Q 512.92 235.19 512.61 232.75
  Q 511.01 219.83 522.55 213.57
  Q 539.85 212.67 557.94 213.49
  Z"
/>
<path fill="#bab4c4" fill-opacity="0.996" d="
  M 11.67 213.61
  Q 2.82 217.70 1.10 225.37
  C -0.44 232.25 2.66 239.75 9.33 242.92
  Q 10.76 243.60 11.70 244.60
  Q 1.64 241.53 0.00 230.11
  L 0.00 227.75
  Q 0.77 223.84 2.80 220.29
  Q 5.78 215.10 11.67 213.61
  Z"
/>
<path fill="#bab4c4" fill-opacity="0.996" d="
  M 45.77 213.55
  C 48.28 213.49 48.85 214.96 50.77 215.90
  C 53.85 217.39 55.83 221.02 57.06 224.55
  Q 58.31 228.13 57.39 232.40
  Q 55.33 241.93 45.07 244.53
  Q 50.49 242.70 53.77 238.73
  Q 57.07 234.72 57.18 229.43
  C 57.33 221.95 52.51 216.54 45.77 213.55
  Z"
/>
<path fill="#73bbda" d="
  M 522.55 213.57
  Q 511.01 219.83 512.61 232.75
  Q 512.92 235.19 515.27 238.50
  Q 516.60 240.38 518.84 241.86
  Q 520.85 243.18 523.03 244.50
  Q 514.25 241.88 512.55 233.74
  Q 509.62 219.73 522.55 213.57
  Z"
/>
<path fill="#bab4c4" fill-opacity="0.996" d="
  M 557.94 213.49
  Q 563.02 215.18 566.65 220.35
  Q 568.74 223.33 569.00 227.88
  L 569.00 230.49
  Q 567.95 242.51 556.18 244.54
  Q 571.75 238.31 567.76 224.69
  Q 566.72 221.16 563.87 218.31
  Q 561.09 215.53 557.94 213.49
  Z"
/>
<path fill="#bab4c4" fill-opacity="0.996" d="
  M 38.20 244.64
  L 19.54 244.67
  L 38.20 244.64
  Z"
/>
<path fill="#bab4c4" fill-opacity="0.996" d="
  M 548.70 244.65
  L 531.80 244.68
  L 548.70 244.65
  Z"
/>
<path fill="#214661" d="
  M 140.17 393.43
  Q 140.11 406.18 140.07 418.87
  Q 140.05 426.83 138.81 429.97
  C 136.80 435.05 132.39 438.84 127.00 439.78
  Q 119.61 441.07 113.52 435.52
  Q 109.26 431.65 109.02 426.00
  Q 108.35 409.87 109.30 393.38
  Q 111.59 381.77 123.00 379.78
  Q 126.97 379.09 131.25 381.20
  Q 139.01 385.03 140.17 393.43
  Z"
/>
<path fill="#214661" d="
  M 462.62 467.00
  Q 456.89 493.90 444.38 518.30
  Q 439.72 527.38 433.89 535.99
  C 423.76 550.97 411.68 565.34 397.99 575.84
  Q 343.53 617.58 274.63 613.90
  Q 258.31 613.03 242.41 608.95
  Q 236.69 607.48 227.27 604.05
  Q 219.80 601.34 212.29 598.69
  C 210.38 597.35 206.40 595.60 205.14 593.78
  Q 198.46 584.16 204.83 575.86
  Q 211.20 567.54 220.93 570.46
  Q 226.91 572.26 235.39 575.63
  Q 242.52 578.46 259.71 581.88
  Q 265.00 583.14 272.25 583.75
  Q 322.14 587.98 363.32 562.88
  C 393.41 544.54 415.82 515.28 427.24 482.32
  C 432.69 466.60 434.86 451.17 434.57 434.49
  Q 434.22 414.18 429.47 395.69
  Q 429.91 384.93 438.31 381.06
  C 446.42 377.32 457.01 382.69 459.86 391.01
  Q 461.74 396.52 462.96 404.26
  Q 467.87 435.54 462.62 467.00
  Z"
/>
<path fill="#73bbda" d="
  M 429.47 395.69
  Q 434.22 414.18 434.57 434.49
  C 434.86 451.17 432.69 466.60 427.24 482.32
  C 415.82 515.28 393.41 544.54 363.32 562.88
  Q 322.14 587.98 272.25 583.75
  Q 265.00 583.14 259.71 581.88
  Q 273.10 580.72 278.06 568.60
  Q 280.01 563.83 284.24 561.79
  Q 287.83 560.05 292.56 559.61
  Q 314.55 557.58 334.36 550.36
  C 344.54 546.64 353.45 541.15 362.37 535.08
  Q 369.58 530.17 375.51 524.97
  Q 399.12 504.28 413.16 476.49
  C 416.31 470.25 418.35 463.85 420.94 457.53
  C 423.94 450.18 426.06 442.20 427.77 434.30
  Q 428.26 432.03 429.16 424.75
  C 429.56 421.57 429.53 418.13 429.98 414.81
  Q 430.38 411.82 430.37 409.66
  Q 430.37 407.06 430.37 404.46
  Q 430.38 402.68 429.91 400.10
  Q 429.51 397.87 429.47 395.69
  Z"
/>
<ellipse fill="#ffffff" cx="0.00" cy="0.00" transform="translate(178.03,451.11) rotate(-15.5)" rx="19.77" ry="19.54"/>
</svg>
