<?xml version="1.0" encoding="UTF-8" standalone="no"?>
<!DOCTYPE svg PUBLIC "-//W3C//DTD SVG 1.1//EN" "http://www.w3.org/Graphics/SVG/1.1/DTD/svg11.dtd">
<svg xmlns="http://www.w3.org/2000/svg" version="1.1" viewBox="0.00 0.00 312.00 738.00">
<g stroke-width="2.00" fill="none" stroke-linecap="butt">
<path stroke="#6d696b" vector-effect="non-scaling-stroke" d="
  M 294.76 127.70
  Q 295.87 126.05 297.15 124.49
  C 307.50 111.76 312.11 95.00 311.17 78.62
  Q 310.40 64.97 304.48 52.95
  C 295.57 34.83 279.67 21.50 261.50 13.65
  C 257.67 12.00 253.80 10.90 249.85 9.74
  Q 247.96 9.19 246.12 8.84
  C 243.81 8.41 241.83 7.26 239.51 7.03
  C 237.02 6.79 234.80 6.59 232.40 5.94
  C 229.17 5.05 226.01 5.72 222.93 4.60
  C 219.73 3.45 216.40 3.97 213.05 3.35
  Q 206.52 2.13 199.19 2.30
  C 197.32 2.35 195.87 1.39 193.98 1.38
  C 185.05 1.32 175.81 0.56 166.61 0.70
  Q 150.37 0.94 132.81 0.58
  Q 130.36 0.53 126.21 0.91
  Q 122.87 1.22 119.55 1.10"
/>
<path stroke="#6d696b" vector-effect="non-scaling-stroke" d="
  M 294.76 127.70
  Q 282.86 140.35 266.54 146.97
  A 1.55 1.55 0.0 0 0 265.57 148.41
  C 265.45 167.84 265.15 187.48 265.16 207.00
  Q 265.20 342.44 265.26 471.00
  Q 265.31 559.47 265.16 629.00
  Q 265.13 642.99 262.34 654.61
  Q 259.05 668.34 254.37 678.14
  Q 249.64 688.07 243.92 695.67
  C 229.90 714.32 210.66 727.52 187.89 733.74
  C 175.97 736.99 163.33 737.11 150.98 736.94
  Q 141.49 736.82 134.14 735.58
  Q 120.24 733.23 107.33 727.58
  C 92.31 721.01 78.86 709.42 69.04 696.39
  Q 51.92 673.65 47.99 646.27
  Q 47.04 639.65 47.01 626.50
  Q 46.80 536.25 46.86 428.50
  Q 46.94 300.37 46.82 180.08
  C 46.81 169.23 46.54 158.44 46.50 147.76
  Q 46.50 147.17 45.94 146.97
  C 36.30 143.65 27.86 138.89 21.17 131.68
  Q 18.62 128.94 16.06 125.74
  Q 2.04 108.22 1.01 86.81
  Q -0.07 64.27 10.72 46.85
  Q 25.99 22.19 54.11 12.08
  Q 61.56 9.40 71.41 7.44
  Q 72.43 7.23 73.53 6.94
  Q 76.01 6.26 78.16 6.16
  C 80.34 6.06 81.77 5.03 84.21 5.06
  Q 87.25 5.09 89.99 3.91"
/>
<path stroke="#6d696b" vector-effect="non-scaling-stroke" d="
  M 91.04 3.93
  L 116.22 1.47"
/>
<path stroke="#7c7677" vector-effect="non-scaling-stroke" d="
  M 30.61 67.40
  Q 27.80 73.13 27.38 78.41
  C 26.96 83.62 27.04 89.35 28.55 94.40
  Q 32.52 107.73 42.96 116.79"
/>
<path stroke="#9a8d8b" vector-effect="non-scaling-stroke" d="
  M 42.96 116.79
  Q 48.42 120.50 54.07 122.91
  Q 63.26 126.83 73.02 128.92
  Q 86.72 131.86 100.42 133.32"
/>
<path stroke="#595759" vector-effect="non-scaling-stroke" d="
  M 100.42 133.32
  Q 103.59 134.08 105.50 134.26
  C 131.43 136.69 158.00 136.65 184.12 135.93
  Q 205.91 135.33 238.00 129.05
  C 254.11 125.90 269.99 120.03 279.21 105.43
  Q 287.79 91.88 284.28 74.76
  Q 283.65 71.67 282.35 68.82"
/>
<path stroke="#7c7677" vector-effect="non-scaling-stroke" d="
  M 282.35 68.82
  C 278.33 57.13 269.51 48.15 258.92 42.21
  Q 253.16 38.98 243.68 36.34
  Q 223.97 30.84 203.55 29.62"
/>
<path stroke="#9a8d8b" vector-effect="non-scaling-stroke" d="
  M 203.55 29.62
  Q 149.69 23.85 96.04 30.62
  Q 83.42 32.21 70.99 34.88
  Q 51.44 39.09 38.15 53.92
  Q 33.35 59.28 30.61 67.40"
/>
<path stroke="#e1e8eb" vector-effect="non-scaling-stroke" d="
  M 203.55 29.62
  L 204.53 29.75
  Q 205.03 29.82 205.32 30.23
  Q 205.88 31.02 206.80 31.27
  Q 209.45 31.98 211.98 33.05
  Q 224.17 38.18 237.37 46.32
  Q 239.52 47.64 241.48 49.17
  Q 243.80 50.97 241.00 50.08
  C 236.82 48.75 232.90 47.72 228.53 46.95
  Q 216.21 44.80 205.51 43.48
  Q 192.82 41.92 168.34 40.85
  Q 134.01 39.34 98.26 44.49
  Q 80.51 47.04 66.84 53.83"
/>
<path stroke="#9a8d8b" vector-effect="non-scaling-stroke" d="
  M 66.84 53.83
  Q 59.54 55.56 57.15 60.71
  C 52.94 69.76 61.15 77.45 68.89 81.38
  C 78.85 86.44 92.22 89.15 103.27 90.46
  Q 158.76 97.03 214.73 89.36
  Q 221.82 88.39 231.74 85.78
  Q 242.95 82.84 251.53 76.05
  Q 255.68 72.77 257.20 67.72"
/>
<path stroke="#e1e8eb" vector-effect="non-scaling-stroke" d="
  M 257.20 67.72
  Q 258.47 70.30 256.16 73.26
  Q 254.28 75.67 253.13 77.58
  Q 251.23 80.75 250.18 81.88
  C 239.70 93.17 225.59 99.04 210.18 101.79
  Q 188.34 105.69 171.19 106.16
  C 149.86 106.75 129.67 106.72 108.98 104.47
  C 104.09 103.94 99.16 105.55 99.80 111.71
  Q 100.03 114.00 101.95 115.09
  Q 103.74 116.11 108.95 118.36"
/>
<path stroke="#bec9cd" vector-effect="non-scaling-stroke" d="
  M 108.95 118.36
  Q 112.42 124.12 108.80 128.79
  Q 106.30 132.03 100.42 133.32"
/>
<path stroke="#e1e8eb" vector-effect="non-scaling-stroke" d="
  M 42.96 116.79
  Q 44.13 115.47 43.44 114.10
  Q 39.22 105.75 44.90 98.84
  A 0.82 0.81 -49.2 0 0 44.82 97.72
  Q 36.15 89.78 32.48 78.50
  Q 31.70 76.12 30.61 67.40"
/>
<path stroke="#a0b2b9" vector-effect="non-scaling-stroke" d="
  M 282.35 68.82
  Q 282.39 75.21 278.16 81.99
  C 272.04 91.81 265.60 99.23 255.74 104.25
  C 245.46 109.48 234.89 112.46 223.53 114.57
  Q 205.81 117.86 189.77 119.42
  Q 181.22 120.26 169.50 120.38
  Q 145.20 120.62 132.00 120.22
  Q 125.44 120.02 108.95 118.36"
/>
<path stroke="#7c7677" vector-effect="non-scaling-stroke" d="
  M 257.20 67.72
  C 258.22 60.22 253.10 55.22 246.52 53.40
  Q 245.94 53.24 246.01 53.84
  C 246.49 57.67 242.97 59.47 239.47 60.62
  Q 227.20 64.68 214.22 66.25"
/>
<path stroke="#9bacb2" vector-effect="non-scaling-stroke" d="
  M 214.22 66.25
  Q 210.66 65.53 207.09 64.99
  C 199.59 63.86 191.74 62.15 184.75 61.52
  Q 160.51 59.34 133.75 60.94
  Q 120.05 61.76 99.71 66.33"
/>
<path stroke="#7c7677" vector-effect="non-scaling-stroke" d="
  M 99.71 66.33
  Q 90.11 65.43 80.49 63.06
  Q 77.15 62.24 72.49 60.05
  Q 68.04 57.96 66.84 53.83"
/>
<path stroke="#545153" vector-effect="non-scaling-stroke" d="
  M 99.71 66.33
  Q 102.91 67.18 107.50 67.66
  Q 161.55 73.29 214.22 66.25"
/>
<path stroke="#545153" vector-effect="non-scaling-stroke" d="
  M 226.03 157.47
  Q 195.75 162.13 176.25 162.78
  Q 157.02 163.41 121.62 161.49"
/>
<path stroke="#9a8d8b" vector-effect="non-scaling-stroke" d="
  M 121.62 161.49
  L 104.42 160.32"
/>
<path stroke="#6d696b" vector-effect="non-scaling-stroke" d="
  M 104.42 160.32
  Q 89.86 158.68 74.61 154.95
  A 0.80 0.80 0.0 0 0 73.62 155.73
  L 73.61 162.34"
/>
<path stroke="#9a8d8b" vector-effect="non-scaling-stroke" d="
  M 73.61 162.34
  C 73.15 200.08 73.49 237.21 73.49 274.26
  Q 73.47 448.12 73.19 622.52
  Q 73.16 636.18 74.12 642.45
  C 77.24 662.79 87.55 682.01 103.71 694.59"
/>
<path stroke="#7c7677" vector-effect="non-scaling-stroke" d="
  M 103.71 694.59
  Q 115.49 703.39 125.66 707.38
  C 139.10 712.66 155.46 713.19 169.42 711.63
  Q 177.28 710.75 185.12 707.85
  C 216.82 696.13 238.41 666.62 238.72 632.56"
/>
<path stroke="#6d696b" vector-effect="non-scaling-stroke" d="
  M 238.72 632.56
  L 239.17 155.33
  Q 239.17 154.81 238.66 154.91
  L 226.03 157.47"
/>
<path stroke="#b4c4cb" vector-effect="non-scaling-stroke" d="
  M 238.72 632.56
  Q 238.21 630.67 238.15 628.64
  Q 238.14 628.62 238.14 628.62
  Q 238.01 628.57 238.15 628.63
  Q 238.17 628.64 238.17 628.67
  Q 238.08 629.79 237.09 630.36
  Q 236.71 630.59 236.45 630.22
  Q 235.71 629.15 234.43 628.74
  Q 233.95 628.58 233.79 628.11
  L 232.50 624.33
  Q 232.44 624.15 232.53 623.98
  L 232.66 623.73
  Q 232.77 623.54 232.64 623.36
  Q 230.87 621.05 228.52 619.03
  Q 228.10 618.67 227.57 618.76
  Q 226.97 618.87 226.66 619.45
  Q 226.61 619.55 226.54 619.47
  Q 226.50 619.44 226.49 619.40
  Q 226.32 618.86 226.39 619.43
  Q 226.54 620.73 226.10 621.55"
/>
<path stroke="#94817e" vector-effect="non-scaling-stroke" d="
  M 226.10 621.55
  L 226.11 338.68"
/>
<path stroke="#6d696b" vector-effect="non-scaling-stroke" d="
  M 226.11 338.68
  Q 234.82 324.58 225.90 311.13"
/>
<path stroke="#8c9fa7" vector-effect="non-scaling-stroke" d="
  M 225.90 311.13
  Q 226.50 270.66 226.21 231.00
  Q 226.14 221.28 226.21 211.01
  Q 226.37 184.31 226.03 157.47"
/>
<path stroke="#545153" vector-effect="non-scaling-stroke" d="
  M 225.90 311.13
  Q 218.10 303.08 209.81 299.66"
/>
<path stroke="#8c9fa7" vector-effect="non-scaling-stroke" d="
  M 209.81 299.66
  Q 209.51 262.90 209.78 251.25
  Q 210.14 235.76 209.47 227.47"
/>
<path stroke="#545153" vector-effect="non-scaling-stroke" d="
  M 209.47 227.47
  Q 213.35 221.42 208.69 217.84"
/>
<path stroke="#8c9fa7" vector-effect="non-scaling-stroke" d="
  M 208.69 217.84
  Q 210.29 217.13 210.07 214.33
  Q 209.84 211.49 209.84 211.41
  Q 209.64 193.31 209.86 175.01
  A 1.01 1.01 0.0 0 0 208.74 173.99
  L 196.01 175.40"
/>
<path stroke="#9bacb2" vector-effect="non-scaling-stroke" d="
  M 196.01 175.40
  C 188.21 175.97 180.29 176.69 172.65 176.87
  Q 144.61 177.55 129.25 176.06
  Q 123.78 175.53 121.42 175.51"
/>
<path stroke="#b9c3c7" vector-effect="non-scaling-stroke" d="
  M 121.42 175.51
  Q 120.39 168.91 121.62 161.49"
/>
<path stroke="#a28e89" vector-effect="non-scaling-stroke" d="
  M 226.10 621.55
  Q 226.03 630.90 225.75 636.75
  Q 225.21 648.16 220.08 659.42
  Q 209.63 682.33 187.12 693.56
  Q 178.67 697.77 169.99 698.93
  Q 162.46 699.93 151.98 699.74
  Q 130.90 699.36 114.43 686.14"
/>
<path stroke="#ac7767" vector-effect="non-scaling-stroke" d="
  M 114.43 686.14
  Q 114.20 685.39 115.41 685.21"
/>
<path stroke="#9a5d4e" vector-effect="non-scaling-stroke" d="
  M 115.41 685.21
  Q 117.14 685.55 119.02 686.25
  Q 121.13 687.04 122.59 687.27
  C 133.23 688.99 144.73 689.10 155.36 686.76
  Q 159.77 685.78 163.51 684.89
  Q 184.26 679.93 197.63 663.78
  Q 204.10 655.97 206.91 646.81
  Q 209.56 638.20 209.68 627.00
  Q 209.88 609.55 209.78 592.27"
/>
<path stroke="#5c332a" vector-effect="non-scaling-stroke" d="
  M 209.78 592.27
  Q 213.20 587.15 209.55 582.38"
/>
<path stroke="#9a5d4e" vector-effect="non-scaling-stroke" d="
  M 209.55 582.38
  L 209.41 544.76"
/>
<path stroke="#5c332a" vector-effect="non-scaling-stroke" d="
  M 209.41 544.76
  Q 211.34 541.50 209.76 536.20"
/>
<path stroke="#9a5d4e" vector-effect="non-scaling-stroke" d="
  M 209.76 536.20
  L 209.38 484.99"
/>
<path stroke="#5c332a" vector-effect="non-scaling-stroke" d="
  M 209.38 484.99
  Q 211.76 480.36 209.52 475.70"
/>
<path stroke="#9a5d4e" vector-effect="non-scaling-stroke" d="
  M 209.52 475.70
  Q 210.37 459.86 209.17 443.89"
/>
<path stroke="#5c332a" vector-effect="non-scaling-stroke" d="
  M 209.17 443.89
  Q 211.28 439.88 209.32 435.66"
/>
<path stroke="#9a5d4e" vector-effect="non-scaling-stroke" d="
  M 209.32 435.66
  Q 210.47 430.79 209.43 425.35"
/>
<path stroke="#5c332a" vector-effect="non-scaling-stroke" d="
  M 209.43 425.35
  Q 211.35 421.82 209.53 417.04"
/>
<path stroke="#9a5d4e" vector-effect="non-scaling-stroke" d="
  M 209.53 417.04
  L 209.60 395.97
  Q 209.60 395.45 209.11 395.26
  Q 207.65 394.69 205.50 395.11
  Q 202.25 395.76 195.18 394.02"
/>
<path stroke="#ac7767" vector-effect="non-scaling-stroke" d="
  M 195.18 394.02
  Q 192.01 389.59 194.79 384.41"
/>
<path stroke="#9a5d4e" vector-effect="non-scaling-stroke" d="
  M 194.79 384.41
  L 209.09 384.32
  Q 209.77 384.31 209.77 383.63
  L 209.87 349.15"
/>
<path stroke="#5c332a" vector-effect="non-scaling-stroke" d="
  M 226.11 338.68
  Q 218.44 345.47 209.87 349.15"
/>
<path stroke="#74463c" vector-effect="non-scaling-stroke" d="
  M 209.87 349.15
  L 195.00 353.12"
/>
<path stroke="#856055" vector-effect="non-scaling-stroke" d="
  M 195.00 353.12
  Q 164.71 359.73 133.70 356.16
  Q 127.34 355.43 121.13 354.09"
/>
<path stroke="#856055" vector-effect="non-scaling-stroke" d="
  M 121.08 334.20
  Q 134.00 336.41 147.00 336.94
  Q 166.19 337.70 185.25 335.50
  Q 189.03 335.06 194.99 333.38"
/>
<path stroke="#74463c" vector-effect="non-scaling-stroke" d="
  M 194.99 333.38
  C 200.55 332.52 209.29 330.30 213.51 326.53
  Q 214.66 325.51 213.51 324.49
  Q 205.88 317.68 195.37 314.58"
/>
<path stroke="#856055" vector-effect="non-scaling-stroke" d="
  M 195.37 314.58
  Q 176.68 310.31 157.00 310.27
  C 141.38 310.24 127.44 311.30 112.99 315.74
  Q 106.08 317.86 101.33 322.81"
/>
<path stroke="#856055" vector-effect="non-scaling-stroke" d="
  M 104.46 347.53
  Q 104.47 348.23 104.31 348.66
  Q 104.12 349.17 103.61 348.96
  Q 94.24 345.15 87.53 337.50"
/>
<path stroke="#6d696b" vector-effect="non-scaling-stroke" d="
  M 208.69 217.84
  L 195.22 217.54"
/>
<path stroke="#b4c4cb" vector-effect="non-scaling-stroke" d="
  M 195.22 217.54
  Q 195.54 216.61 195.09 215.19
  Q 194.68 213.90 194.70 212.98
  Q 194.91 201.97 194.67 191.10
  C 194.58 187.11 194.95 182.95 194.79 178.75
  Q 194.77 178.18 195.18 177.79
  Q 196.03 176.97 197.14 176.64
  A 0.12 0.11 73.0 0 0 197.21 176.49
  Q 197.16 176.36 197.24 176.24
  Q 197.66 175.68 196.89 175.58
  Q 196.44 175.52 196.01 175.40"
/>
<path stroke="#6d696b" vector-effect="non-scaling-stroke" d="
  M 209.81 299.66
  L 194.29 294.67"
/>
<path stroke="#8c9fa7" vector-effect="non-scaling-stroke" d="
  M 194.66 247.71
  C 200.40 254.63 209.83 246.09 203.56 240.50
  Q 200.32 237.60 195.81 240.27"
/>
<path stroke="#7c7677" vector-effect="non-scaling-stroke" d="
  M 195.22 217.54
  Q 189.63 216.79 188.34 221.50
  Q 187.06 226.13 191.53 227.69"
/>
<path stroke="#b4c4cb" vector-effect="non-scaling-stroke" d="
  M 191.53 227.69
  Q 192.20 229.25 191.94 230.68
  Q 191.84 231.17 192.09 231.61
  Q 193.25 233.62 194.89 235.25
  Q 196.32 236.68 195.81 240.27"
/>
<path stroke="#9bacb2" vector-effect="non-scaling-stroke" d="
  M 195.81 240.27
  Q 193.21 243.32 194.66 247.71"
/>
<path stroke="#b4c4cb" vector-effect="non-scaling-stroke" d="
  M 194.66 247.71
  Q 194.86 267.76 194.76 287.61
  C 194.74 289.84 194.00 292.04 195.75 293.76
  Q 196.21 294.22 195.62 294.50
  Q 195.09 294.74 194.29 294.67"
/>
<path stroke="#7c7677" vector-effect="non-scaling-stroke" d="
  M 194.29 294.67
  Q 158.46 286.91 121.09 294.19"
/>
<path stroke="#e1e8eb" vector-effect="non-scaling-stroke" d="
  M 121.42 175.51
  L 121.09 294.19"
/>
<path stroke="#9a8d8b" vector-effect="non-scaling-stroke" d="
  M 121.09 294.19
  Q 111.46 296.01 101.76 300.89
  Q 99.98 301.79 97.43 303.49
  Q 95.40 304.84 93.17 306.21"
/>
<path stroke="#e1e8eb" vector-effect="non-scaling-stroke" d="
  M 93.17 306.21
  Q 95.50 302.22 100.81 299.91
  C 102.54 299.16 103.99 299.32 104.06 296.76
  Q 104.34 287.47 104.22 278.46
  Q 104.12 271.25 99.06 269.20
  C 95.38 267.70 90.41 268.75 88.54 272.46
  Q 87.52 274.47 87.61 280.05
  Q 87.75 289.42 87.58 300.25
  C 87.56 302.03 86.94 304.21 87.02 306.25
  Q 87.19 310.10 87.14 313.63"
/>
<path stroke="#9a8d8b" vector-effect="non-scaling-stroke" d="
  M 87.14 313.63
  Q 79.78 326.42 87.53 337.50"
/>
<path stroke="#ead2c9" vector-effect="non-scaling-stroke" d="
  M 87.53 337.50
  Q 87.69 341.92 87.68 346.25
  Q 87.62 373.93 87.53 401.62
  C 87.52 406.04 87.98 408.66 91.39 411.25
  C 95.61 414.47 100.84 412.18 103.27 408.05
  Q 104.23 406.41 104.24 403.31
  Q 104.35 375.42 104.46 347.53"
/>
<path stroke="#9a8d8b" vector-effect="non-scaling-stroke" d="
  M 104.46 347.53
  L 104.49 331.34
  A 1.86 1.85 -79.4 0 0 103.31 329.61
  L 100.28 328.42
  A 1.93 1.93 0.0 0 1 99.40 325.51
  L 101.33 322.81"
/>
<path stroke="#ead2c9" vector-effect="non-scaling-stroke" d="
  M 101.33 322.81
  Q 105.12 320.20 110.26 319.91
  Q 120.70 319.32 120.96 329.25
  Q 121.03 332.16 121.08 334.20"
/>
<path stroke="#9a8d8b" vector-effect="non-scaling-stroke" d="
  M 121.08 334.20
  L 121.13 354.09"
/>
<path stroke="#ead2c9" vector-effect="non-scaling-stroke" d="
  M 121.13 354.09
  Q 121.19 380.38 121.12 406.81
  C 121.11 408.60 121.13 409.79 123.04 410.59
  Q 130.64 413.78 128.64 422.03
  Q 128.52 422.50 128.04 422.59
  Q 126.27 422.90 125.55 423.96"
/>
<path stroke="#9a8d8b" vector-effect="non-scaling-stroke" d="
  M 125.55 423.96
  Q 118.67 426.55 118.00 433.25
  Q 117.45 438.71 121.43 443.10"
/>
<path stroke="#ead2c9" vector-effect="non-scaling-stroke" d="
  M 121.43 443.10
  L 121.25 491.32
  A 1.40 1.39 2.0 0 0 122.55 492.71
  Q 124.80 492.85 126.70 494.44
  Q 131.12 498.14 127.99 503.40
  Q 126.11 506.54 122.58 507.06
  A 1.35 1.35 0.0 0 0 121.43 508.38
  Q 121.35 513.88 121.35 519.25
  Q 121.33 576.75 121.30 634.25
  Q 121.29 649.37 121.27 664.72
  A 0.38 0.37 81.7 0 1 121.01 665.08
  Q 120.63 665.21 120.31 664.97
  C 112.60 659.31 108.06 648.68 105.79 639.38
  Q 104.30 633.26 104.30 623.76
  Q 104.31 566.98 104.29 509.27
  Q 104.29 504.12 104.00 498.76
  C 103.76 494.36 97.30 493.15 100.83 488.18
  Q 101.80 486.80 102.94 485.56
  C 104.23 484.16 104.14 481.98 104.17 480.19
  Q 104.48 462.31 104.28 441.44
  C 104.24 436.84 102.96 433.51 99.38 430.70
  C 96.25 428.25 90.32 428.45 88.50 432.50
  Q 87.54 434.65 87.54 437.11
  Q 87.65 531.53 87.44 625.84
  Q 87.41 638.54 88.56 644.94
  Q 91.22 659.79 100.50 672.23
  Q 105.80 679.32 109.23 682.40
  Q 110.00 683.09 112.74 685.06"
/>
<path stroke="#e1e8eb" vector-effect="non-scaling-stroke" d="
  M 112.74 685.06
  Q 113.30 685.52 113.40 686.03
  Q 113.50 686.54 112.99 686.65
  Q 112.01 686.85 110.28 687.77
  Q 105.11 690.48 103.71 694.59"
/>
<path stroke="#6d696b" vector-effect="non-scaling-stroke" d="
  M 209.47 227.47
  Q 200.14 228.51 191.53 227.69"
/>
<path stroke="#74463c" vector-effect="non-scaling-stroke" d="
  M 209.32 435.66
  Q 202.70 433.85 196.48 435.22"
/>
<path stroke="#74463c" vector-effect="non-scaling-stroke" d="
  M 209.76 536.20
  Q 203.52 534.37 195.16 535.60"
/>
<path stroke="#74463c" vector-effect="non-scaling-stroke" d="
  M 209.55 582.38
  L 195.24 582.17"
/>
<path stroke="#74463c" vector-effect="non-scaling-stroke" d="
  M 209.53 417.04
  Q 203.59 415.42 195.84 416.36"
/>
<path stroke="#74463c" vector-effect="non-scaling-stroke" d="
  M 209.41 544.76
  Q 201.89 546.00 195.19 544.62"
/>
<path stroke="#74463c" vector-effect="non-scaling-stroke" d="
  M 209.17 443.89
  Q 202.12 446.69 195.02 444.21"
/>
<path stroke="#74463c" vector-effect="non-scaling-stroke" d="
  M 209.78 592.27
  L 194.52 592.48"
/>
<path stroke="#c48a79" vector-effect="non-scaling-stroke" d="
  M 194.79 384.41
  L 195.00 353.12"
/>
<path stroke="#c48a79" vector-effect="non-scaling-stroke" d="
  M 195.18 394.02
  Q 194.56 405.16 195.84 416.36"
/>
<path stroke="#856055" vector-effect="non-scaling-stroke" d="
  M 195.84 416.36
  Q 191.98 418.44 192.85 422.95
  Q 193.50 426.37 197.45 426.38"
/>
<path stroke="#c48a79" vector-effect="non-scaling-stroke" d="
  M 197.45 426.38
  L 204.67 426.36
  A 0.76 0.75 -9.9 0 1 205.38 426.85
  L 205.51 427.18
  Q 205.61 427.44 205.32 427.47
  L 198.77 428.04
  A 2.25 2.25 0.0 0 0 196.84 431.03
  Q 197.51 432.93 196.48 435.22"
/>
<path stroke="#856055" vector-effect="non-scaling-stroke" d="
  M 196.48 435.22
  Q 191.57 438.87 195.02 444.21"
/>
<path stroke="#c48a79" vector-effect="non-scaling-stroke" d="
  M 195.02 444.21
  L 195.23 474.81"
/>
<path stroke="#856055" vector-effect="non-scaling-stroke" d="
  M 195.23 474.81
  Q 190.00 476.32 190.40 481.25
  Q 190.77 485.66 195.20 485.83"
/>
<path stroke="#c48a79" vector-effect="non-scaling-stroke" d="
  M 195.20 485.83
  Q 195.21 487.30 195.05 488.62
  Q 194.83 490.41 194.85 491.39
  Q 195.15 513.30 195.16 535.60"
/>
<path stroke="#856055" vector-effect="non-scaling-stroke" d="
  M 195.16 535.60
  Q 193.32 536.87 192.70 538.50
  Q 191.17 542.51 195.19 544.62"
/>
<path stroke="#c48a79" vector-effect="non-scaling-stroke" d="
  M 195.19 544.62
  L 195.24 582.17"
/>
<path stroke="#856055" vector-effect="non-scaling-stroke" d="
  M 195.24 582.17
  Q 191.60 582.58 190.85 586.09
  Q 189.84 590.81 194.52 592.48"
/>
<path stroke="#c48a79" vector-effect="non-scaling-stroke" d="
  M 194.52 592.48
  Q 195.27 612.66 194.95 632.75
  C 194.71 647.56 185.38 660.31 172.32 666.79
  Q 161.85 671.99 148.96 673.69
  Q 131.92 675.94 115.41 685.21"
/>
<path stroke="#ccbbb4" vector-effect="non-scaling-stroke" d="
  M 114.43 686.14
  Q 113.94 685.10 112.74 685.06"
/>
<path stroke="#856055" vector-effect="non-scaling-stroke" d="
  M 121.43 443.10
  C 132.20 451.45 145.92 438.14 137.34 427.64
  Q 132.63 421.88 125.55 423.96"
/>
<path stroke="#74463c" vector-effect="non-scaling-stroke" d="
  M 209.43 425.35
  C 206.32 426.89 200.99 426.38 197.45 426.38"
/>
<path stroke="#74463c" vector-effect="non-scaling-stroke" d="
  M 209.38 484.99
  Q 201.91 486.46 195.20 485.83"
/>
<path stroke="#74463c" vector-effect="non-scaling-stroke" d="
  M 209.52 475.70
  Q 202.72 474.44 195.23 474.81"
/>
<path stroke="#7c7677" vector-effect="non-scaling-stroke" d="
  M 93.17 306.21
  L 87.14 313.63"
/>
<path stroke="#c48a79" vector-effect="non-scaling-stroke" d="
  M 195.37 314.58
  L 194.99 333.38"
/>
<path stroke="#d2dbdf" vector-effect="non-scaling-stroke" d="
  M 104.42 160.32
  L 104.00 169.18
  A 1.41 1.41 0.0 0 1 102.32 170.50
  Q 87.74 167.57 73.61 162.34"
/>
<path stroke="#7c7677" vector-effect="non-scaling-stroke" d="
  M 169.9573 254.6535
  A 6.61 6.37 96.8 0 0 177.0652 248.8442
  A 6.61 6.37 96.8 0 0 171.5227 241.5265
  A 6.61 6.37 96.8 0 0 164.4148 247.3358
  A 6.61 6.37 96.8 0 0 169.9573 254.6535"
/>
<path stroke="#856055" vector-effect="non-scaling-stroke" d="
  M 166.0420 393.0062
  A 9.96 9.83 49.7 0 0 167.0970 379.0521
  A 9.96 9.83 49.7 0 0 153.1580 377.8138
  A 9.96 9.83 49.7 0 0 152.1030 391.7679
  A 9.96 9.83 49.7 0 0 166.0420 393.0062"
/>
<path stroke="#856055" vector-effect="non-scaling-stroke" d="
  M 166.99 463.79
  A 10.26 10.26 0.0 0 0 156.73 453.53
  A 10.26 10.26 0.0 0 0 146.47 463.79
  A 10.26 10.26 0.0 0 0 156.73 474.05
  A 10.26 10.26 0.0 0 0 166.99 463.79"
/>
<path stroke="#ead2c9" vector-effect="non-scaling-stroke" d="
  M 134.8978 485.5826
  A 6.48 6.08 117.6 0 0 143.2881 482.6568
  A 6.48 6.08 117.6 0 0 140.9022 474.0974
  A 6.48 6.08 117.6 0 0 132.5119 477.0232
  A 6.48 6.08 117.6 0 0 134.8978 485.5826"
/>
<path stroke="#856055" vector-effect="non-scaling-stroke" d="
  M 162.0511 526.4273
  A 9.59 9.25 78.2 0 0 169.1445 515.1484
  A 9.59 9.25 78.2 0 0 158.1289 507.6527
  A 9.59 9.25 78.2 0 0 151.0355 518.9316
  A 9.59 9.25 78.2 0 0 162.0511 526.4273"
/>
<path stroke="#856055" vector-effect="non-scaling-stroke" d="
  M 183.6199 570.9451
  A 17.88 17.47 4.7 0 0 167.2315 552.0687
  A 17.88 17.47 4.7 0 0 147.9801 568.0149
  A 17.88 17.47 4.7 0 0 164.3685 586.8913
  A 17.88 17.47 4.7 0 0 183.6199 570.9451"
/>
<path stroke="#ead2c9" vector-effect="non-scaling-stroke" d="
  M 175.2317 609.7463
  A 4.29 3.92 5.3 0 0 171.3221 605.4468
  A 4.29 3.92 5.3 0 0 166.6883 608.9537
  A 4.29 3.92 5.3 0 0 170.5979 613.2532
  A 4.29 3.92 5.3 0 0 175.2317 609.7463"
/>
<path stroke="#856055" vector-effect="non-scaling-stroke" d="
  M 136.1249 645.1521
  A 11.40 11.21 111.7 0 0 150.7556 638.7049
  A 11.40 11.21 111.7 0 0 144.5551 623.9679
  A 11.40 11.21 111.7 0 0 129.9244 630.4151
  A 11.40 11.21 111.7 0 0 136.1249 645.1521"
/>
<path stroke="#856055" vector-effect="non-scaling-stroke" d="
  M 187.64 638.98
  A 5.91 5.91 0.0 0 0 181.73 633.07
  A 5.91 5.91 0.0 0 0 175.82 638.98
  A 5.91 5.91 0.0 0 0 181.73 644.89
  A 5.91 5.91 0.0 0 0 187.64 638.98"
/>
<path stroke="#856055" vector-effect="non-scaling-stroke" d="
  M 173.6061 572.0083
  A 7.78 7.22 15.8 0 0 168.0859 562.9428
  A 7.78 7.22 15.8 0 0 158.6339 567.7717
  A 7.78 7.22 15.8 0 0 164.1541 576.8372
  A 7.78 7.22 15.8 0 0 173.6061 572.0083"
/>
</g>
<path fill="#a5b7bf" d="
  M 147.13 0.00
  L 163.75 0.00
  Q 171.38 0.24 179.01 0.43
  Q 186.85 0.62 194.24 1.19
  Q 203.72 1.93 213.26 2.49
  Q 219.02 2.83 224.26 3.91
  Q 228.28 4.74 232.30 5.18
  Q 236.59 5.65 240.24 6.44
  Q 246.28 7.74 253.43 9.79
  Q 255.54 10.39 258.35 11.67
  Q 260.72 12.75 263.12 13.72
  Q 276.03 18.94 287.97 29.99
  C 289.00 30.95 289.90 32.04 290.92 33.05
  Q 304.32 46.29 309.25 64.76
  Q 311.40 72.82 312.00 81.13
  L 312.00 85.00
  Q 311.14 97.66 307.92 106.75
  Q 303.99 117.81 294.76 127.70
  Q 295.87 126.05 297.15 124.49
  C 307.50 111.76 312.11 95.00 311.17 78.62
  Q 310.40 64.97 304.48 52.95
  C 295.57 34.83 279.67 21.50 261.50 13.65
  C 257.67 12.00 253.80 10.90 249.85 9.74
  Q 247.96 9.19 246.12 8.84
  C 243.81 8.41 241.83 7.26 239.51 7.03
  C 237.02 6.79 234.80 6.59 232.40 5.94
  C 229.17 5.05 226.01 5.72 222.93 4.60
  C 219.73 3.45 216.40 3.97 213.05 3.35
  Q 206.52 2.13 199.19 2.30
  C 197.32 2.35 195.87 1.39 193.98 1.38
  C 185.05 1.32 175.81 0.56 166.61 0.70
  Q 150.37 0.94 132.81 0.58
  Q 130.36 0.53 126.21 0.91
  Q 122.87 1.22 119.55 1.10
  L 147.13 0.00
  Z"
/>
<path fill="#351b17" d="
  M 294.76 127.70
  Q 282.86 140.35 266.54 146.97
  A 1.55 1.55 0.0 0 0 265.57 148.41
  C 265.45 167.84 265.15 187.48 265.16 207.00
  Q 265.20 342.44 265.26 471.00
  Q 265.31 559.47 265.16 629.00
  Q 265.13 642.99 262.34 654.61
  Q 259.05 668.34 254.37 678.14
  Q 249.64 688.07 243.92 695.67
  C 229.90 714.32 210.66 727.52 187.89 733.74
  C 175.97 736.99 163.33 737.11 150.98 736.94
  Q 141.49 736.82 134.14 735.58
  Q 120.24 733.23 107.33 727.58
  C 92.31 721.01 78.86 709.42 69.04 696.39
  Q 51.92 673.65 47.99 646.27
  Q 47.04 639.65 47.01 626.50
  Q 46.80 536.25 46.86 428.50
  Q 46.94 300.37 46.82 180.08
  C 46.81 169.23 46.54 158.44 46.50 147.76
  Q 46.50 147.17 45.94 146.97
  C 36.30 143.65 27.86 138.89 21.17 131.68
  Q 18.62 128.94 16.06 125.74
  Q 2.04 108.22 1.01 86.81
  Q -0.07 64.27 10.72 46.85
  Q 25.99 22.19 54.11 12.08
  Q 61.56 9.40 71.41 7.44
  Q 72.43 7.23 73.53 6.94
  Q 76.01 6.26 78.16 6.16
  C 80.34 6.06 81.77 5.03 84.21 5.06
  Q 87.25 5.09 89.99 3.91
  Q 90.49 4.10 91.04 3.93
  L 116.22 1.47
  Q 117.80 0.96 119.55 1.10
  Q 122.87 1.22 126.21 0.91
  Q 130.36 0.53 132.81 0.58
  Q 150.37 0.94 166.61 0.70
  C 175.81 0.56 185.05 1.32 193.98 1.38
  C 195.87 1.39 197.32 2.35 199.19 2.30
  Q 206.52 2.13 213.05 3.35
  C 216.40 3.97 219.73 3.45 222.93 4.60
  C 226.01 5.72 229.17 5.05 232.40 5.94
  C 234.80 6.59 237.02 6.79 239.51 7.03
  C 241.83 7.26 243.81 8.41 246.12 8.84
  Q 247.96 9.19 249.85 9.74
  C 253.80 10.90 257.67 12.00 261.50 13.65
  C 279.67 21.50 295.57 34.83 304.48 52.95
  Q 310.40 64.97 311.17 78.62
  C 312.11 95.00 307.50 111.76 297.15 124.49
  Q 295.87 126.05 294.76 127.70
  Z
  M 30.61 67.40
  Q 27.80 73.13 27.38 78.41
  C 26.96 83.62 27.04 89.35 28.55 94.40
  Q 32.52 107.73 42.96 116.79
  Q 48.42 120.50 54.07 122.91
  Q 63.26 126.83 73.02 128.92
  Q 86.72 131.86 100.42 133.32
  Q 103.59 134.08 105.50 134.26
  C 131.43 136.69 158.00 136.65 184.12 135.93
  Q 205.91 135.33 238.00 129.05
  C 254.11 125.90 269.99 120.03 279.21 105.43
  Q 287.79 91.88 284.28 74.76
  Q 283.65 71.67 282.35 68.82
  C 278.33 57.13 269.51 48.15 258.92 42.21
  Q 253.16 38.98 243.68 36.34
  Q 223.97 30.84 203.55 29.62
  Q 149.69 23.85 96.04 30.62
  Q 83.42 32.21 70.99 34.88
  Q 51.44 39.09 38.15 53.92
  Q 33.35 59.28 30.61 67.40
  Z
  M 226.03 157.47
  Q 195.75 162.13 176.25 162.78
  Q 157.02 163.41 121.62 161.49
  L 104.42 160.32
  Q 89.86 158.68 74.61 154.95
  A 0.80 0.80 0.0 0 0 73.62 155.73
  L 73.61 162.34
  C 73.15 200.08 73.49 237.21 73.49 274.26
  Q 73.47 448.12 73.19 622.52
  Q 73.16 636.18 74.12 642.45
  C 77.24 662.79 87.55 682.01 103.71 694.59
  Q 115.49 703.39 125.66 707.38
  C 139.10 712.66 155.46 713.19 169.42 711.63
  Q 177.28 710.75 185.12 707.85
  C 216.82 696.13 238.41 666.62 238.72 632.56
  L 239.17 155.33
  Q 239.17 154.81 238.66 154.91
  L 226.03 157.47
  Z"
/>
<path fill="#a5b7bf" d="
  M 116.22 1.47
  L 91.04 3.93
  Q 91.17 3.67 91.39 3.50
  Q 91.57 3.37 91.88 3.34
  Q 104.01 2.00 116.22 1.47
  Z"
/>
<path fill="#a5b7bf" d="
  M 89.99 3.91
  Q 87.25 5.09 84.21 5.06
  C 81.77 5.03 80.34 6.06 78.16 6.16
  Q 76.01 6.26 73.53 6.94
  Q 72.43 7.23 71.41 7.44
  Q 61.56 9.40 54.11 12.08
  Q 25.99 22.19 10.72 46.85
  Q -0.07 64.27 1.01 86.81
  Q 2.04 108.22 16.06 125.74
  Q 18.62 128.94 21.17 131.68
  C 27.86 138.89 36.30 143.65 45.94 146.97
  Q 46.50 147.17 46.50 147.76
  C 46.54 158.44 46.81 169.23 46.82 180.08
  Q 46.94 300.37 46.86 428.50
  Q 46.80 536.25 47.01 626.50
  Q 47.04 639.65 47.99 646.27
  Q 51.92 673.65 69.04 696.39
  C 78.86 709.42 92.31 721.01 107.33 727.58
  Q 120.24 733.23 134.14 735.58
  Q 141.49 736.82 150.98 736.94
  C 163.33 737.11 175.97 736.99 187.89 733.74
  C 210.66 727.52 229.90 714.32 243.92 695.67
  Q 249.64 688.07 254.37 678.14
  Q 259.05 668.34 262.34 654.61
  Q 265.13 642.99 265.16 629.00
  Q 265.31 559.47 265.26 471.00
  Q 265.20 342.44 265.16 207.00
  C 265.15 187.48 265.45 167.84 265.57 148.41
  A 1.55 1.55 0.0 0 1 266.54 146.97
  Q 282.86 140.35 294.76 127.70
  Q 294.41 128.55 293.71 129.26
  Q 288.16 134.86 281.74 139.75
  C 279.45 141.50 276.71 142.27 274.49 143.98
  C 272.44 145.57 270.16 146.01 267.85 146.96
  A 2.36 2.34 79.2 0 0 266.41 149.10
  C 266.30 158.72 266.01 168.37 266.01 178.01
  Q 266.01 399.80 265.95 609.15
  C 265.95 619.08 265.76 629.25 265.33 639.24
  Q 264.90 649.45 261.05 662.27
  Q 258.32 671.34 255.50 677.21
  Q 253.16 682.09 250.44 687.00
  Q 247.02 693.17 242.02 699.01
  Q 232.59 710.04 221.39 718.58
  C 218.23 720.99 214.92 722.87 211.50 724.90
  Q 207.30 727.39 203.83 728.83
  Q 195.10 732.47 185.36 735.15
  Q 180.02 736.62 172.14 737.18
  Q 165.26 737.68 158.37 738.00
  L 151.50 738.00
  Q 148.17 737.75 144.83 737.62
  C 134.83 737.22 124.74 734.85 115.26 731.61
  Q 111.68 730.39 108.57 728.77
  C 103.22 725.98 97.89 723.71 92.94 720.21
  Q 83.18 713.29 75.39 704.78
  Q 53.67 681.09 47.53 649.83
  Q 46.61 645.15 46.52 641.25
  Q 46.03 619.47 46.03 595.75
  Q 46.02 385.89 46.00 176.03
  C 46.00 167.35 45.67 157.99 45.55 148.90
  A 2.09 2.09 0.0 0 0 44.14 146.95
  Q 29.56 142.00 19.65 130.79
  Q 9.61 119.42 5.62 110.14
  Q 1.05 99.53 0.00 85.13
  L 0.00 80.77
  Q 0.56 71.44 3.04 62.58
  Q 4.27 58.20 6.30 54.40
  C 8.09 51.02 9.58 47.60 11.73 44.32
  Q 21.86 28.92 37.81 19.31
  C 43.29 16.00 49.54 12.63 55.80 11.12
  C 58.31 10.51 60.46 9.19 62.97 8.60
  Q 68.96 7.20 75.11 6.23
  C 79.45 5.55 83.31 3.94 87.81 3.80
  C 88.38 3.78 88.75 3.53 89.20 3.21
  Q 89.74 2.84 89.89 3.47
  L 89.99 3.91
  Z"
/>
<path fill="#ffffff" d="
  M 203.55 29.62
  L 204.53 29.75
  Q 205.03 29.82 205.32 30.23
  Q 205.88 31.02 206.80 31.27
  Q 209.45 31.98 211.98 33.05
  Q 224.17 38.18 237.37 46.32
  Q 239.52 47.64 241.48 49.17
  Q 243.80 50.97 241.00 50.08
  C 236.82 48.75 232.90 47.72 228.53 46.95
  Q 216.21 44.80 205.51 43.48
  Q 192.82 41.92 168.34 40.85
  Q 134.01 39.34 98.26 44.49
  Q 80.51 47.04 66.84 53.83
  Q 59.54 55.56 57.15 60.71
  C 52.94 69.76 61.15 77.45 68.89 81.38
  C 78.85 86.44 92.22 89.15 103.27 90.46
  Q 158.76 97.03 214.73 89.36
  Q 221.82 88.39 231.74 85.78
  Q 242.95 82.84 251.53 76.05
  Q 255.68 72.77 257.20 67.72
  Q 258.47 70.30 256.16 73.26
  Q 254.28 75.67 253.13 77.58
  Q 251.23 80.75 250.18 81.88
  C 239.70 93.17 225.59 99.04 210.18 101.79
  Q 188.34 105.69 171.19 106.16
  C 149.86 106.75 129.67 106.72 108.98 104.47
  C 104.09 103.94 99.16 105.55 99.80 111.71
  Q 100.03 114.00 101.95 115.09
  Q 103.74 116.11 108.95 118.36
  Q 112.42 124.12 108.80 128.79
  Q 106.30 132.03 100.42 133.32
  Q 86.72 131.86 73.02 128.92
  Q 63.26 126.83 54.07 122.91
  Q 48.42 120.50 42.96 116.79
  Q 44.13 115.47 43.44 114.10
  Q 39.22 105.75 44.90 98.84
  A 0.82 0.81 -49.2 0 0 44.82 97.72
  Q 36.15 89.78 32.48 78.50
  Q 31.70 76.12 30.61 67.40
  Q 33.35 59.28 38.15 53.92
  Q 51.44 39.09 70.99 34.88
  Q 83.42 32.21 96.04 30.62
  Q 149.69 23.85 203.55 29.62
  Z"
/>
<path fill="#c2d1d6" d="
  M 203.55 29.62
  Q 223.97 30.84 243.68 36.34
  Q 253.16 38.98 258.92 42.21
  C 269.51 48.15 278.33 57.13 282.35 68.82
  Q 282.39 75.21 278.16 81.99
  C 272.04 91.81 265.60 99.23 255.74 104.25
  C 245.46 109.48 234.89 112.46 223.53 114.57
  Q 205.81 117.86 189.77 119.42
  Q 181.22 120.26 169.50 120.38
  Q 145.20 120.62 132.00 120.22
  Q 125.44 120.02 108.95 118.36
  Q 103.74 116.11 101.95 115.09
  Q 100.03 114.00 99.80 111.71
  C 99.16 105.55 104.09 103.94 108.98 104.47
  C 129.67 106.72 149.86 106.75 171.19 106.16
  Q 188.34 105.69 210.18 101.79
  C 225.59 99.04 239.70 93.17 250.18 81.88
  Q 251.23 80.75 253.13 77.58
  Q 254.28 75.67 256.16 73.26
  Q 258.47 70.30 257.20 67.72
  C 258.22 60.22 253.10 55.22 246.52 53.40
  Q 245.94 53.24 246.01 53.84
  C 246.49 57.67 242.97 59.47 239.47 60.62
  Q 227.20 64.68 214.22 66.25
  Q 210.66 65.53 207.09 64.99
  C 199.59 63.86 191.74 62.15 184.75 61.52
  Q 160.51 59.34 133.75 60.94
  Q 120.05 61.76 99.71 66.33
  Q 90.11 65.43 80.49 63.06
  Q 77.15 62.24 72.49 60.05
  Q 68.04 57.96 66.84 53.83
  Q 80.51 47.04 98.26 44.49
  Q 134.01 39.34 168.34 40.85
  Q 192.82 41.92 205.51 43.48
  Q 216.21 44.80 228.53 46.95
  C 232.90 47.72 236.82 48.75 241.00 50.08
  Q 243.80 50.97 241.48 49.17
  Q 239.52 47.64 237.37 46.32
  Q 224.17 38.18 211.98 33.05
  Q 209.45 31.98 206.80 31.27
  Q 205.88 31.02 205.32 30.23
  Q 205.03 29.82 204.53 29.75
  L 203.55 29.62
  Z"
/>
<path fill="#351b17" d="
  M 257.20 67.72
  Q 255.68 72.77 251.53 76.05
  Q 242.95 82.84 231.74 85.78
  Q 221.82 88.39 214.73 89.36
  Q 158.76 97.03 103.27 90.46
  C 92.22 89.15 78.85 86.44 68.89 81.38
  C 61.15 77.45 52.94 69.76 57.15 60.71
  Q 59.54 55.56 66.84 53.83
  Q 68.04 57.96 72.49 60.05
  Q 77.15 62.24 80.49 63.06
  Q 90.11 65.43 99.71 66.33
  Q 102.91 67.18 107.50 67.66
  Q 161.55 73.29 214.22 66.25
  Q 227.20 64.68 239.47 60.62
  C 242.97 59.47 246.49 57.67 246.01 53.84
  Q 245.94 53.24 246.52 53.40
  C 253.10 55.22 258.22 60.22 257.20 67.72
  Z"
/>
<path fill="#73868e" d="
  M 214.22 66.25
  Q 161.55 73.29 107.50 67.66
  Q 102.91 67.18 99.71 66.33
  Q 120.05 61.76 133.75 60.94
  Q 160.51 59.34 184.75 61.52
  C 191.74 62.15 199.59 63.86 207.09 64.99
  Q 210.66 65.53 214.22 66.25
  Z"
/>
<path fill="#c2d1d6" d="
  M 30.61 67.40
  Q 31.70 76.12 32.48 78.50
  Q 36.15 89.78 44.82 97.72
  A 0.82 0.81 -49.2 0 1 44.90 98.84
  Q 39.22 105.75 43.44 114.10
  Q 44.13 115.47 42.96 116.79
  Q 32.52 107.73 28.55 94.40
  C 27.04 89.35 26.96 83.62 27.38 78.41
  Q 27.80 73.13 30.61 67.40
  Z"
/>
<path fill="#7d939b" d="
  M 282.35 68.82
  Q 283.65 71.67 284.28 74.76
  Q 287.79 91.88 279.21 105.43
  C 269.99 120.03 254.11 125.90 238.00 129.05
  Q 205.91 135.33 184.12 135.93
  C 158.00 136.65 131.43 136.69 105.50 134.26
  Q 103.59 134.08 100.42 133.32
  Q 106.30 132.03 108.80 128.79
  Q 112.42 124.12 108.95 118.36
  Q 125.44 120.02 132.00 120.22
  Q 145.20 120.62 169.50 120.38
  Q 181.22 120.26 189.77 119.42
  Q 205.81 117.86 223.53 114.57
  C 234.89 112.46 245.46 109.48 255.74 104.25
  C 265.60 99.23 272.04 91.81 278.16 81.99
  Q 282.39 75.21 282.35 68.82
  Z"
/>
<path fill="#a5b7bf" d="
  M 238.72 632.56
  Q 238.21 630.67 238.15 628.64
  Q 238.14 628.62 238.14 628.62
  Q 238.01 628.57 238.15 628.63
  Q 238.17 628.64 238.17 628.67
  Q 238.08 629.79 237.09 630.36
  Q 236.71 630.59 236.45 630.22
  Q 235.71 629.15 234.43 628.74
  Q 233.95 628.58 233.79 628.11
  L 232.50 624.33
  Q 232.44 624.15 232.53 623.98
  L 232.66 623.73
  Q 232.77 623.54 232.64 623.36
  Q 230.87 621.05 228.52 619.03
  Q 228.10 618.67 227.57 618.76
  Q 226.97 618.87 226.66 619.45
  Q 226.61 619.55 226.54 619.47
  Q 226.50 619.44 226.49 619.40
  Q 226.32 618.86 226.39 619.43
  Q 226.54 620.73 226.10 621.55
  L 226.11 338.68
  Q 234.82 324.58 225.90 311.13
  Q 226.50 270.66 226.21 231.00
  Q 226.14 221.28 226.21 211.01
  Q 226.37 184.31 226.03 157.47
  L 238.66 154.91
  Q 239.17 154.81 239.17 155.33
  L 238.72 632.56
  Z"
/>
<path fill="#a5b7bf" d="
  M 104.42 160.32
  L 104.00 169.18
  A 1.41 1.41 0.0 0 1 102.32 170.50
  Q 87.74 167.57 73.61 162.34
  L 73.62 155.73
  A 0.80 0.80 0.0 0 1 74.61 154.95
  Q 89.86 158.68 104.42 160.32
  Z"
/>
<path fill="#73868e" d="
  M 226.03 157.47
  Q 226.37 184.31 226.21 211.01
  Q 226.14 221.28 226.21 231.00
  Q 226.50 270.66 225.90 311.13
  Q 218.10 303.08 209.81 299.66
  Q 209.51 262.90 209.78 251.25
  Q 210.14 235.76 209.47 227.47
  Q 213.35 221.42 208.69 217.84
  Q 210.29 217.13 210.07 214.33
  Q 209.84 211.49 209.84 211.41
  Q 209.64 193.31 209.86 175.01
  A 1.01 1.01 0.0 0 0 208.74 173.99
  L 196.01 175.40
  C 188.21 175.97 180.29 176.69 172.65 176.87
  Q 144.61 177.55 129.25 176.06
  Q 123.78 175.53 121.42 175.51
  Q 120.39 168.91 121.62 161.49
  Q 157.02 163.41 176.25 162.78
  Q 195.75 162.13 226.03 157.47
  Z"
/>
<path fill="#ffffff" d="
  M 104.42 160.32
  L 121.62 161.49
  Q 120.39 168.91 121.42 175.51
  L 121.09 294.19
  Q 111.46 296.01 101.76 300.89
  Q 99.98 301.79 97.43 303.49
  Q 95.40 304.84 93.17 306.21
  Q 95.50 302.22 100.81 299.91
  C 102.54 299.16 103.99 299.32 104.06 296.76
  Q 104.34 287.47 104.22 278.46
  Q 104.12 271.25 99.06 269.20
  C 95.38 267.70 90.41 268.75 88.54 272.46
  Q 87.52 274.47 87.61 280.05
  Q 87.75 289.42 87.58 300.25
  C 87.56 302.03 86.94 304.21 87.02 306.25
  Q 87.19 310.10 87.14 313.63
  Q 79.78 326.42 87.53 337.50
  Q 87.69 341.92 87.68 346.25
  Q 87.62 373.93 87.53 401.62
  C 87.52 406.04 87.98 408.66 91.39 411.25
  C 95.61 414.47 100.84 412.18 103.27 408.05
  Q 104.23 406.41 104.24 403.31
  Q 104.35 375.42 104.46 347.53
  L 104.49 331.34
  A 1.86 1.85 -79.4 0 0 103.31 329.61
  L 100.28 328.42
  A 1.93 1.93 0.0 0 1 99.40 325.51
  L 101.33 322.81
  Q 105.12 320.20 110.26 319.91
  Q 120.70 319.32 120.96 329.25
  Q 121.03 332.16 121.08 334.20
  L 121.13 354.09
  Q 121.19 380.38 121.12 406.81
  C 121.11 408.60 121.13 409.79 123.04 410.59
  Q 130.64 413.78 128.64 422.03
  Q 128.52 422.50 128.04 422.59
  Q 126.27 422.90 125.55 423.96
  Q 118.67 426.55 118.00 433.25
  Q 117.45 438.71 121.43 443.10
  L 121.25 491.32
  A 1.40 1.39 2.0 0 0 122.55 492.71
  Q 124.80 492.85 126.70 494.44
  Q 131.12 498.14 127.99 503.40
  Q 126.11 506.54 122.58 507.06
  A 1.35 1.35 0.0 0 0 121.43 508.38
  Q 121.35 513.88 121.35 519.25
  Q 121.33 576.75 121.30 634.25
  Q 121.29 649.37 121.27 664.72
  A 0.38 0.37 81.7 0 1 121.01 665.08
  Q 120.63 665.21 120.31 664.97
  C 112.60 659.31 108.06 648.68 105.79 639.38
  Q 104.30 633.26 104.30 623.76
  Q 104.31 566.98 104.29 509.27
  Q 104.29 504.12 104.00 498.76
  C 103.76 494.36 97.30 493.15 100.83 488.18
  Q 101.80 486.80 102.94 485.56
  C 104.23 484.16 104.14 481.98 104.17 480.19
  Q 104.48 462.31 104.28 441.44
  C 104.24 436.84 102.96 433.51 99.38 430.70
  C 96.25 428.25 90.32 428.45 88.50 432.50
  Q 87.54 434.65 87.54 437.11
  Q 87.65 531.53 87.44 625.84
  Q 87.41 638.54 88.56 644.94
  Q 91.22 659.79 100.50 672.23
  Q 105.80 679.32 109.23 682.40
  Q 110.00 683.09 112.74 685.06
  Q 113.30 685.52 113.40 686.03
  Q 113.50 686.54 112.99 686.65
  Q 112.01 686.85 110.28 687.77
  Q 105.11 690.48 103.71 694.59
  C 87.55 682.01 77.24 662.79 74.12 642.45
  Q 73.16 636.18 73.19 622.52
  Q 73.47 448.12 73.49 274.26
  C 73.49 237.21 73.15 200.08 73.61 162.34
  Q 87.74 167.57 102.32 170.50
  A 1.41 1.41 0.0 0 0 104.00 169.18
  L 104.42 160.32
  Z"
/>
<path fill="#a5b7bf" d="
  M 208.69 217.84
  L 195.22 217.54
  Q 195.54 216.61 195.09 215.19
  Q 194.68 213.90 194.70 212.98
  Q 194.91 201.97 194.67 191.10
  C 194.58 187.11 194.95 182.95 194.79 178.75
  Q 194.77 178.18 195.18 177.79
  Q 196.03 176.97 197.14 176.64
  A 0.12 0.11 73.0 0 0 197.21 176.49
  Q 197.16 176.36 197.24 176.24
  Q 197.66 175.68 196.89 175.58
  Q 196.44 175.52 196.01 175.40
  L 208.74 173.99
  A 1.01 1.01 0.0 0 1 209.86 175.01
  Q 209.64 193.31 209.84 211.41
  Q 209.84 211.49 210.07 214.33
  Q 210.29 217.13 208.69 217.84
  Z"
/>
<path fill="#c2d1d6" d="
  M 121.42 175.51
  Q 123.78 175.53 129.25 176.06
  Q 144.61 177.55 172.65 176.87
  C 180.29 176.69 188.21 175.97 196.01 175.40
  Q 196.44 175.52 196.89 175.58
  Q 197.66 175.68 197.24 176.24
  Q 197.16 176.36 197.21 176.49
  A 0.12 0.11 73.0 0 1 197.14 176.64
  Q 196.03 176.97 195.18 177.79
  Q 194.77 178.18 194.79 178.75
  C 194.95 182.95 194.58 187.11 194.67 191.10
  Q 194.91 201.97 194.70 212.98
  Q 194.68 213.90 195.09 215.19
  Q 195.54 216.61 195.22 217.54
  Q 189.63 216.79 188.34 221.50
  Q 187.06 226.13 191.53 227.69
  Q 192.20 229.25 191.94 230.68
  Q 191.84 231.17 192.09 231.61
  Q 193.25 233.62 194.89 235.25
  Q 196.32 236.68 195.81 240.27
  Q 193.21 243.32 194.66 247.71
  Q 194.86 267.76 194.76 287.61
  C 194.74 289.84 194.00 292.04 195.75 293.76
  Q 196.21 294.22 195.62 294.50
  Q 195.09 294.74 194.29 294.67
  Q 158.46 286.91 121.09 294.19
  L 121.42 175.51
  Z
  M 169.9573 254.6535
  A 6.61 6.37 96.8 0 0 177.0652 248.8442
  A 6.61 6.37 96.8 0 0 171.5227 241.5265
  A 6.61 6.37 96.8 0 0 164.4148 247.3358
  A 6.61 6.37 96.8 0 0 169.9573 254.6535
  Z"
/>
<path fill="#351b17" d="
  M 195.22 217.54
  L 208.69 217.84
  Q 213.35 221.42 209.47 227.47
  Q 200.14 228.51 191.53 227.69
  Q 187.06 226.13 188.34 221.50
  Q 189.63 216.79 195.22 217.54
  Z"
/>
<path fill="#a5b7bf" d="
  M 209.47 227.47
  Q 210.14 235.76 209.78 251.25
  Q 209.51 262.90 209.81 299.66
  L 194.29 294.67
  Q 195.09 294.74 195.62 294.50
  Q 196.21 294.22 195.75 293.76
  C 194.00 292.04 194.74 289.84 194.76 287.61
  Q 194.86 267.76 194.66 247.71
  C 200.40 254.63 209.83 246.09 203.56 240.50
  Q 200.32 237.60 195.81 240.27
  Q 196.32 236.68 194.89 235.25
  Q 193.25 233.62 192.09 231.61
  Q 191.84 231.17 191.94 230.68
  Q 192.20 229.25 191.53 227.69
  Q 200.14 228.51 209.47 227.47
  Z"
/>
<path fill="#73868e" d="
  M 194.66 247.71
  Q 193.21 243.32 195.81 240.27
  Q 200.32 237.60 203.56 240.50
  C 209.83 246.09 200.40 254.63 194.66 247.71
  Z"
/>
<ellipse fill="#351b17" cx="0.00" cy="0.00" transform="translate(170.74,248.09) rotate(96.8)" rx="6.61" ry="6.37"/>
<path fill="#c2d1d6" d="
  M 93.17 306.21
  L 87.14 313.63
  Q 87.19 310.10 87.02 306.25
  C 86.94 304.21 87.56 302.03 87.58 300.25
  Q 87.75 289.42 87.61 280.05
  Q 87.52 274.47 88.54 272.46
  C 90.41 268.75 95.38 267.70 99.06 269.20
  Q 104.12 271.25 104.22 278.46
  Q 104.34 287.47 104.06 296.76
  C 103.99 299.32 102.54 299.16 100.81 299.91
  Q 95.50 302.22 93.17 306.21
  Z"
/>
<path fill="#351b17" d="
  M 194.29 294.67
  L 209.81 299.66
  Q 218.10 303.08 225.90 311.13
  Q 234.82 324.58 226.11 338.68
  Q 218.44 345.47 209.87 349.15
  L 195.00 353.12
  Q 164.71 359.73 133.70 356.16
  Q 127.34 355.43 121.13 354.09
  L 121.08 334.20
  Q 134.00 336.41 147.00 336.94
  Q 166.19 337.70 185.25 335.50
  Q 189.03 335.06 194.99 333.38
  C 200.55 332.52 209.29 330.30 213.51 326.53
  Q 214.66 325.51 213.51 324.49
  Q 205.88 317.68 195.37 314.58
  Q 176.68 310.31 157.00 310.27
  C 141.38 310.24 127.44 311.30 112.99 315.74
  Q 106.08 317.86 101.33 322.81
  L 99.40 325.51
  A 1.93 1.93 0.0 0 0 100.28 328.42
  L 103.31 329.61
  A 1.86 1.85 -79.4 0 1 104.49 331.34
  L 104.46 347.53
  Q 104.47 348.23 104.31 348.66
  Q 104.12 349.17 103.61 348.96
  Q 94.24 345.15 87.53 337.50
  Q 79.78 326.42 87.14 313.63
  L 93.17 306.21
  Q 95.40 304.84 97.43 303.49
  Q 99.98 301.79 101.76 300.89
  Q 111.46 296.01 121.09 294.19
  Q 158.46 286.91 194.29 294.67
  Z"
/>
<path fill="#d5a492" d="
  M 195.37 314.58
  L 194.99 333.38
  Q 189.03 335.06 185.25 335.50
  Q 166.19 337.70 147.00 336.94
  Q 134.00 336.41 121.08 334.20
  Q 121.03 332.16 120.96 329.25
  Q 120.70 319.32 110.26 319.91
  Q 105.12 320.20 101.33 322.81
  Q 106.08 317.86 112.99 315.74
  C 127.44 311.30 141.38 310.24 157.00 310.27
  Q 176.68 310.31 195.37 314.58
  Z"
/>
<path fill="#b27060" d="
  M 195.37 314.58
  Q 205.88 317.68 213.51 324.49
  Q 214.66 325.51 213.51 326.53
  C 209.29 330.30 200.55 332.52 194.99 333.38
  L 195.37 314.58
  Z"
/>
<path fill="#d5a492" d="
  M 87.53 337.50
  Q 94.24 345.15 103.61 348.96
  Q 104.12 349.17 104.31 348.66
  Q 104.47 348.23 104.46 347.53
  Q 104.35 375.42 104.24 403.31
  Q 104.23 406.41 103.27 408.05
  C 100.84 412.18 95.61 414.47 91.39 411.25
  C 87.98 408.66 87.52 406.04 87.53 401.62
  Q 87.62 373.93 87.68 346.25
  Q 87.69 341.92 87.53 337.50
  Z"
/>
<path fill="#824a3c" d="
  M 226.11 338.68
  L 226.10 621.55
  Q 226.03 630.90 225.75 636.75
  Q 225.21 648.16 220.08 659.42
  Q 209.63 682.33 187.12 693.56
  Q 178.67 697.77 169.99 698.93
  Q 162.46 699.93 151.98 699.74
  Q 130.90 699.36 114.43 686.14
  Q 114.20 685.39 115.41 685.21
  Q 117.14 685.55 119.02 686.25
  Q 121.13 687.04 122.59 687.27
  C 133.23 688.99 144.73 689.10 155.36 686.76
  Q 159.77 685.78 163.51 684.89
  Q 184.26 679.93 197.63 663.78
  Q 204.10 655.97 206.91 646.81
  Q 209.56 638.20 209.68 627.00
  Q 209.88 609.55 209.78 592.27
  Q 213.20 587.15 209.55 582.38
  L 209.41 544.76
  Q 211.34 541.50 209.76 536.20
  L 209.38 484.99
  Q 211.76 480.36 209.52 475.70
  Q 210.37 459.86 209.17 443.89
  Q 211.28 439.88 209.32 435.66
  Q 210.47 430.79 209.43 425.35
  Q 211.35 421.82 209.53 417.04
  L 209.60 395.97
  Q 209.60 395.45 209.11 395.26
  Q 207.65 394.69 205.50 395.11
  Q 202.25 395.76 195.18 394.02
  Q 192.01 389.59 194.79 384.41
  L 209.09 384.32
  Q 209.77 384.31 209.77 383.63
  L 209.87 349.15
  Q 218.44 345.47 226.11 338.68
  Z"
/>
<path fill="#b27060" d="
  M 209.87 349.15
  L 209.77 383.63
  Q 209.77 384.31 209.09 384.32
  L 194.79 384.41
  L 195.00 353.12
  L 209.87 349.15
  Z"
/>
<path fill="#d5a492" d="
  M 195.00 353.12
  L 194.79 384.41
  Q 192.01 389.59 195.18 394.02
  Q 194.56 405.16 195.84 416.36
  Q 191.98 418.44 192.85 422.95
  Q 193.50 426.37 197.45 426.38
  L 204.67 426.36
  A 0.76 0.75 -9.9 0 1 205.38 426.85
  L 205.51 427.18
  Q 205.61 427.44 205.32 427.47
  L 198.77 428.04
  A 2.25 2.25 0.0 0 0 196.84 431.03
  Q 197.51 432.93 196.48 435.22
  Q 191.57 438.87 195.02 444.21
  L 195.23 474.81
  Q 190.00 476.32 190.40 481.25
  Q 190.77 485.66 195.20 485.83
  Q 195.21 487.30 195.05 488.62
  Q 194.83 490.41 194.85 491.39
  Q 195.15 513.30 195.16 535.60
  Q 193.32 536.87 192.70 538.50
  Q 191.17 542.51 195.19 544.62
  L 195.24 582.17
  Q 191.60 582.58 190.85 586.09
  Q 189.84 590.81 194.52 592.48
  Q 195.27 612.66 194.95 632.75
  C 194.71 647.56 185.38 660.31 172.32 666.79
  Q 161.85 671.99 148.96 673.69
  Q 131.92 675.94 115.41 685.21
  Q 114.20 685.39 114.43 686.14
  Q 113.94 685.10 112.74 685.06
  Q 110.00 683.09 109.23 682.40
  Q 105.80 679.32 100.50 672.23
  Q 91.22 659.79 88.56 644.94
  Q 87.41 638.54 87.44 625.84
  Q 87.65 531.53 87.54 437.11
  Q 87.54 434.65 88.50 432.50
  C 90.32 428.45 96.25 428.25 99.38 430.70
  C 102.96 433.51 104.24 436.84 104.28 441.44
  Q 104.48 462.31 104.17 480.19
  C 104.14 481.98 104.23 484.16 102.94 485.56
  Q 101.80 486.80 100.83 488.18
  C 97.30 493.15 103.76 494.36 104.00 498.76
  Q 104.29 504.12 104.29 509.27
  Q 104.31 566.98 104.30 623.76
  Q 104.30 633.26 105.79 639.38
  C 108.06 648.68 112.60 659.31 120.31 664.97
  Q 120.63 665.21 121.01 665.08
  A 0.38 0.37 81.7 0 0 121.27 664.72
  Q 121.29 649.37 121.30 634.25
  Q 121.33 576.75 121.35 519.25
  Q 121.35 513.88 121.43 508.38
  A 1.35 1.35 0.0 0 1 122.58 507.06
  Q 126.11 506.54 127.99 503.40
  Q 131.12 498.14 126.70 494.44
  Q 124.80 492.85 122.55 492.71
  A 1.40 1.39 2.0 0 1 121.25 491.32
  L 121.43 443.10
  C 132.20 451.45 145.92 438.14 137.34 427.64
  Q 132.63 421.88 125.55 423.96
  Q 126.27 422.90 128.04 422.59
  Q 128.52 422.50 128.64 422.03
  Q 130.64 413.78 123.04 410.59
  C 121.13 409.79 121.11 408.60 121.12 406.81
  Q 121.19 380.38 121.13 354.09
  Q 127.34 355.43 133.70 356.16
  Q 164.71 359.73 195.00 353.12
  Z
  M 166.0420 393.0062
  A 9.96 9.83 49.7 0 0 167.0970 379.0521
  A 9.96 9.83 49.7 0 0 153.1580 377.8138
  A 9.96 9.83 49.7 0 0 152.1030 391.7679
  A 9.96 9.83 49.7 0 0 166.0420 393.0062
  Z
  M 166.99 463.79
  A 10.26 10.26 0.0 0 0 156.73 453.53
  A 10.26 10.26 0.0 0 0 146.47 463.79
  A 10.26 10.26 0.0 0 0 156.73 474.05
  A 10.26 10.26 0.0 0 0 166.99 463.79
  Z
  M 134.8978 485.5826
  A 6.48 6.08 117.6 0 0 143.2881 482.6568
  A 6.48 6.08 117.6 0 0 140.9022 474.0974
  A 6.48 6.08 117.6 0 0 132.5119 477.0232
  A 6.48 6.08 117.6 0 0 134.8978 485.5826
  Z
  M 162.0511 526.4273
  A 9.59 9.25 78.2 0 0 169.1445 515.1484
  A 9.59 9.25 78.2 0 0 158.1289 507.6527
  A 9.59 9.25 78.2 0 0 151.0355 518.9316
  A 9.59 9.25 78.2 0 0 162.0511 526.4273
  Z
  M 183.6199 570.9451
  A 17.88 17.47 4.7 0 0 167.2315 552.0687
  A 17.88 17.47 4.7 0 0 147.9801 568.0149
  A 17.88 17.47 4.7 0 0 164.3685 586.8913
  A 17.88 17.47 4.7 0 0 183.6199 570.9451
  Z
  M 175.2317 609.7463
  A 4.29 3.92 5.3 0 0 171.3221 605.4468
  A 4.29 3.92 5.3 0 0 166.6883 608.9537
  A 4.29 3.92 5.3 0 0 170.5979 613.2532
  A 4.29 3.92 5.3 0 0 175.2317 609.7463
  Z
  M 136.1249 645.1521
  A 11.40 11.21 111.7 0 0 150.7556 638.7049
  A 11.40 11.21 111.7 0 0 144.5551 623.9679
  A 11.40 11.21 111.7 0 0 129.9244 630.4151
  A 11.40 11.21 111.7 0 0 136.1249 645.1521
  Z
  M 187.64 638.98
  A 5.91 5.91 0.0 0 0 181.73 633.07
  A 5.91 5.91 0.0 0 0 175.82 638.98
  A 5.91 5.91 0.0 0 0 181.73 644.89
  A 5.91 5.91 0.0 0 0 187.64 638.98
  Z"
/>
<ellipse fill="#351b17" cx="0.00" cy="0.00" transform="translate(159.60,385.41) rotate(49.7)" rx="9.96" ry="9.83"/>
<path fill="#b27060" d="
  M 195.18 394.02
  Q 202.25 395.76 205.50 395.11
  Q 207.65 394.69 209.11 395.26
  Q 209.60 395.45 209.60 395.97
  L 209.53 417.04
  Q 203.59 415.42 195.84 416.36
  Q 194.56 405.16 195.18 394.02
  Z"
/>
<path fill="#351b17" d="
  M 209.53 417.04
  Q 211.35 421.82 209.43 425.35
  C 206.32 426.89 200.99 426.38 197.45 426.38
  Q 193.50 426.37 192.85 422.95
  Q 191.98 418.44 195.84 416.36
  Q 203.59 415.42 209.53 417.04
  Z"
/>
<path fill="#351b17" d="
  M 121.43 443.10
  Q 117.45 438.71 118.00 433.25
  Q 118.67 426.55 125.55 423.96
  Q 132.63 421.88 137.34 427.64
  C 145.92 438.14 132.20 451.45 121.43 443.10
  Z"
/>
<path fill="#b27060" d="
  M 209.43 425.35
  Q 210.47 430.79 209.32 435.66
  Q 202.70 433.85 196.48 435.22
  Q 197.51 432.93 196.84 431.03
  A 2.25 2.25 0.0 0 1 198.77 428.04
  L 205.32 427.47
  Q 205.61 427.44 205.51 427.18
  L 205.38 426.85
  A 0.76 0.75 -9.9 0 0 204.67 426.36
  L 197.45 426.38
  C 200.99 426.38 206.32 426.89 209.43 425.35
  Z"
/>
<path fill="#351b17" d="
  M 209.32 435.66
  Q 211.28 439.88 209.17 443.89
  Q 202.12 446.69 195.02 444.21
  Q 191.57 438.87 196.48 435.22
  Q 202.70 433.85 209.32 435.66
  Z"
/>
<path fill="#b27060" d="
  M 209.17 443.89
  Q 210.37 459.86 209.52 475.70
  Q 202.72 474.44 195.23 474.81
  L 195.02 444.21
  Q 202.12 446.69 209.17 443.89
  Z"
/>
<circle fill="#351b17" cx="156.73" cy="463.79" r="10.26"/>
<ellipse fill="#ffffff" cx="0.00" cy="0.00" transform="translate(137.90,479.84) rotate(117.6)" rx="6.48" ry="6.08"/>
<path fill="#351b17" d="
  M 195.23 474.81
  Q 202.72 474.44 209.52 475.70
  Q 211.76 480.36 209.38 484.99
  Q 201.91 486.46 195.20 485.83
  Q 190.77 485.66 190.40 481.25
  Q 190.00 476.32 195.23 474.81
  Z"
/>
<path fill="#b27060" d="
  M 209.38 484.99
  L 209.76 536.20
  Q 203.52 534.37 195.16 535.60
  Q 195.15 513.30 194.85 491.39
  Q 194.83 490.41 195.05 488.62
  Q 195.21 487.30 195.20 485.83
  Q 201.91 486.46 209.38 484.99
  Z"
/>
<ellipse fill="#351b17" cx="0.00" cy="0.00" transform="translate(160.09,517.04) rotate(78.2)" rx="9.59" ry="9.25"/>
<path fill="#351b17" d="
  M 209.76 536.20
  Q 211.34 541.50 209.41 544.76
  Q 201.89 546.00 195.19 544.62
  Q 191.17 542.51 192.70 538.50
  Q 193.32 536.87 195.16 535.60
  Q 203.52 534.37 209.76 536.20
  Z"
/>
<path fill="#b27060" d="
  M 195.19 544.62
  Q 201.89 546.00 209.41 544.76
  L 209.55 582.38
  L 195.24 582.17
  L 195.19 544.62
  Z"
/>
<path fill="#351b17" d="
  M 183.6199 570.9451
  A 17.88 17.47 4.7 0 1 164.3685 586.8913
  A 17.88 17.47 4.7 0 1 147.9801 568.0149
  A 17.88 17.47 4.7 0 1 167.2315 552.0687
  A 17.88 17.47 4.7 0 1 183.6199 570.9451
  Z
  M 173.6061 572.0083
  A 7.78 7.22 15.8 0 0 168.0859 562.9428
  A 7.78 7.22 15.8 0 0 158.6339 567.7717
  A 7.78 7.22 15.8 0 0 164.1541 576.8372
  A 7.78 7.22 15.8 0 0 173.6061 572.0083
  Z"
/>
<ellipse fill="#d5a492" cx="0.00" cy="0.00" transform="translate(166.12,569.89) rotate(15.8)" rx="7.78" ry="7.22"/>
<path fill="#351b17" d="
  M 209.55 582.38
  Q 213.20 587.15 209.78 592.27
  L 194.52 592.48
  Q 189.84 590.81 190.85 586.09
  Q 191.60 582.58 195.24 582.17
  L 209.55 582.38
  Z"
/>
<path fill="#b27060" d="
  M 209.78 592.27
  Q 209.88 609.55 209.68 627.00
  Q 209.56 638.20 206.91 646.81
  Q 204.10 655.97 197.63 663.78
  Q 184.26 679.93 163.51 684.89
  Q 159.77 685.78 155.36 686.76
  C 144.73 689.10 133.23 688.99 122.59 687.27
  Q 121.13 687.04 119.02 686.25
  Q 117.14 685.55 115.41 685.21
  Q 131.92 675.94 148.96 673.69
  Q 161.85 671.99 172.32 666.79
  C 185.38 660.31 194.71 647.56 194.95 632.75
  Q 195.27 612.66 194.52 592.48
  L 209.78 592.27
  Z"
/>
<ellipse fill="#ffffff" cx="0.00" cy="0.00" transform="translate(170.96,609.35) rotate(5.3)" rx="4.29" ry="3.92"/>
<path fill="#c2d1d6" d="
  M 238.72 632.56
  C 238.41 666.62 216.82 696.13 185.12 707.85
  Q 177.28 710.75 169.42 711.63
  C 155.46 713.19 139.10 712.66 125.66 707.38
  Q 115.49 703.39 103.71 694.59
  Q 105.11 690.48 110.28 687.77
  Q 112.01 686.85 112.99 686.65
  Q 113.50 686.54 113.40 686.03
  Q 113.30 685.52 112.74 685.06
  Q 113.94 685.10 114.43 686.14
  Q 130.90 699.36 151.98 699.74
  Q 162.46 699.93 169.99 698.93
  Q 178.67 697.77 187.12 693.56
  Q 209.63 682.33 220.08 659.42
  Q 225.21 648.16 225.75 636.75
  Q 226.03 630.90 226.10 621.55
  Q 226.54 620.73 226.39 619.43
  Q 226.32 618.86 226.49 619.40
  Q 226.50 619.44 226.54 619.47
  Q 226.61 619.55 226.66 619.45
  Q 226.97 618.87 227.57 618.76
  Q 228.10 618.67 228.52 619.03
  Q 230.87 621.05 232.64 623.36
  Q 232.77 623.54 232.66 623.73
  L 232.53 623.98
  Q 232.44 624.15 232.50 624.33
  L 233.79 628.11
  Q 233.95 628.58 234.43 628.74
  Q 235.71 629.15 236.45 630.22
  Q 236.71 630.59 237.09 630.36
  Q 238.08 629.79 238.17 628.67
  Q 238.17 628.64 238.15 628.63
  Q 238.01 628.57 238.14 628.62
  Q 238.14 628.62 238.15 628.64
  Q 238.21 630.67 238.72 632.56
  Z"
/>
<ellipse fill="#351b17" cx="0.00" cy="0.00" transform="translate(140.34,634.56) rotate(111.7)" rx="11.40" ry="11.21"/>
<circle fill="#351b17" cx="181.73" cy="638.98" r="5.91"/>
</svg>
