<svg id="visual" viewBox="0 0 5120 250" width="5120" height="250" xmlns="http://www.w3.org/2000/svg" xmlns:xlink="http://www.w3.org/1999/xlink" version="1.1"><path d="M0 144L38.8 128.8C77.7 113.7 155.3 83.3 232.8 76.5C310.3 69.7 387.7 86.3 465.2 100.7C542.7 115 620.3 127 698 124.2C775.7 121.3 853.3 103.7 931 99.7C1008.7 95.7 1086.3 105.3 1163.8 101C1241.3 96.7 1318.7 78.3 1396.2 75.5C1473.7 72.7 1551.3 85.3 1629 93.2C1706.7 101 1784.3 104 1862 94.7C1939.7 85.3 2017.3 63.7 2094.8 52.5C2172.3 41.3 2249.7 40.7 2327.2 42.5C2404.7 44.3 2482.3 48.7 2560 67.5C2637.7 86.3 2715.3 119.7 2792.8 120.7C2870.3 121.7 2947.7 90.3 3025.2 76.3C3102.7 62.3 3180.3 65.7 3258 70C3335.7 74.3 3413.3 79.7 3491 92C3568.7 104.3 3646.3 123.7 3723.8 132.3C3801.3 141 3878.7 139 3956.2 134.3C4033.7 129.7 4111.3 122.3 4189 104.5C4266.7 86.7 4344.3 58.3 4422 53.2C4499.7 48 4577.3 66 4654.8 82.7C4732.3 99.3 4809.7 114.7 4887.2 124.5C4964.7 134.3 5042.3 138.7 5081.2 140.8L5120 143L5120 251L5081.2 251C5042.3 251 4964.7 251 4887.2 251C4809.7 251 4732.3 251 4654.8 251C4577.3 251 4499.7 251 4422 251C4344.3 251 4266.7 251 4189 251C4111.3 251 4033.7 251 3956.2 251C3878.7 251 3801.3 251 3723.8 251C3646.3 251 3568.7 251 3491 251C3413.3 251 3335.7 251 3258 251C3180.3 251 3102.7 251 3025.2 251C2947.7 251 2870.3 251 2792.8 251C2715.3 251 2637.7 251 2560 251C2482.3 251 2404.7 251 2327.2 251C2249.7 251 2172.3 251 2094.8 251C2017.3 251 1939.7 251 1862 251C1784.3 251 1706.7 251 1629 251C1551.3 251 1473.7 251 1396.2 251C1318.7 251 1241.3 251 1163.8 251C1086.3 251 1008.7 251 931 251C853.3 251 775.7 251 698 251C620.3 251 542.7 251 465.2 251C387.7 251 310.3 251 232.8 251C155.3 251 77.7 251 38.8 251L0 251Z" fill="#1c1917"></path><path d="M0 131L38.8 126.7C77.7 122.3 155.3 113.7 232.8 114.7C310.3 115.7 387.7 126.3 465.2 141.2C542.7 156 620.3 175 698 184.2C775.7 193.3 853.3 192.7 931 191.8C1008.7 191 1086.3 190 1163.8 183.7C1241.3 177.3 1318.7 165.7 1396.2 152.5C1473.7 139.3 1551.3 124.7 1629 129.7C1706.7 134.7 1784.3 159.3 1862 163.3C1939.7 167.3 2017.3 150.7 2094.8 143.7C2172.3 136.7 2249.7 139.3 2327.2 132.3C2404.7 125.3 2482.3 108.7 2560 99.8C2637.7 91 2715.3 90 2792.8 93.5C2870.3 97 2947.7 105 3025.2 112.3C3102.7 119.7 3180.3 126.3 3258 127.7C3335.7 129 3413.3 125 3491 127C3568.7 129 3646.3 137 3723.8 137C3801.3 137 3878.7 129 3956.2 125.8C4033.7 122.7 4111.3 124.3 4189 136.5C4266.7 148.7 4344.3 171.3 4422 181.2C4499.7 191 4577.3 188 4654.8 175.2C4732.3 162.3 4809.7 139.7 4887.2 136.2C4964.7 132.7 5042.3 148.3 5081.2 156.2L5120 164L5120 251L5081.2 251C5042.3 251 4964.7 251 4887.2 251C4809.7 251 4732.3 251 4654.8 251C4577.3 251 4499.7 251 4422 251C4344.3 251 4266.7 251 4189 251C4111.3 251 4033.7 251 3956.2 251C3878.7 251 3801.3 251 3723.8 251C3646.3 251 3568.7 251 3491 251C3413.3 251 3335.7 251 3258 251C3180.3 251 3102.7 251 3025.2 251C2947.7 251 2870.3 251 2792.8 251C2715.3 251 2637.7 251 2560 251C2482.3 251 2404.7 251 2327.2 251C2249.7 251 2172.3 251 2094.8 251C2017.3 251 1939.7 251 1862 251C1784.3 251 1706.7 251 1629 251C1551.3 251 1473.7 251 1396.2 251C1318.7 251 1241.3 251 1163.8 251C1086.3 251 1008.7 251 931 251C853.3 251 775.7 251 698 251C620.3 251 542.7 251 465.2 251C387.7 251 310.3 251 232.8 251C155.3 251 77.7 251 38.8 251L0 251Z" fill="#221f1d"></path><path d="M0 173L38.8 172C77.7 171 155.3 169 232.8 164C310.3 159 387.7 151 465.2 154.8C542.7 158.7 620.3 174.3 698 177.3C775.7 180.3 853.3 170.7 931 176.3C1008.7 182 1086.3 203 1163.8 211C1241.3 219 1318.7 214 1396.2 209.5C1473.7 205 1551.3 201 1629 193C1706.7 185 1784.3 173 1862 175.7C1939.7 178.3 2017.3 195.7 2094.8 194.3C2172.3 193 2249.7 173 2327.2 167.2C2404.7 161.3 2482.3 169.7 2560 170.5C2637.7 171.3 2715.3 164.7 2792.8 160.7C2870.3 156.7 2947.7 155.3 3025.2 166C3102.7 176.7 3180.3 199.3 3258 208.8C3335.7 218.3 3413.3 214.7 3491 210.7C3568.7 206.7 3646.3 202.3 3723.8 198.5C3801.3 194.7 3878.7 191.3 3956.2 184.2C4033.7 177 4111.3 166 4189 162.2C4266.7 158.3 4344.3 161.7 4422 163C4499.7 164.3 4577.3 163.7 4654.8 169C4732.3 174.3 4809.7 185.7 4887.2 183.7C4964.7 181.7 5042.3 166.3 5081.2 158.7L5120 151L5120 251L5081.2 251C5042.3 251 4964.7 251 4887.2 251C4809.7 251 4732.3 251 4654.8 251C4577.3 251 4499.7 251 4422 251C4344.3 251 4266.7 251 4189 251C4111.3 251 4033.7 251 3956.2 251C3878.7 251 3801.3 251 3723.8 251C3646.3 251 3568.7 251 3491 251C3413.3 251 3335.7 251 3258 251C3180.3 251 3102.7 251 3025.2 251C2947.7 251 2870.3 251 2792.8 251C2715.3 251 2637.7 251 2560 251C2482.3 251 2404.7 251 2327.2 251C2249.7 251 2172.3 251 2094.8 251C2017.3 251 1939.7 251 1862 251C1784.3 251 1706.7 251 1629 251C1551.3 251 1473.7 251 1396.2 251C1318.7 251 1241.3 251 1163.8 251C1086.3 251 1008.7 251 931 251C853.3 251 775.7 251 698 251C620.3 251 542.7 251 465.2 251C387.7 251 310.3 251 232.8 251C155.3 251 77.7 251 38.8 251L0 251Z" fill="#292524"></path></svg>