<svg id="visual" viewBox="0 0 5120 250" width="5120" height="250" xmlns="http://www.w3.org/2000/svg" xmlns:xlink="http://www.w3.org/1999/xlink" version="1.1"><path d="M0 73L38.8 79.3C77.7 85.7 155.3 98.3 232.8 100.2C310.3 102 387.7 93 465.2 80.3C542.7 67.7 620.3 51.3 698 57.3C775.7 63.3 853.3 91.7 931 105.5C1008.7 119.3 1086.3 118.7 1163.8 111.8C1241.3 105 1318.7 92 1396.2 89.7C1473.7 87.3 1551.3 95.7 1629 92.8C1706.7 90 1784.3 76 1862 83.2C1939.7 90.3 2017.3 118.7 2094.8 126C2172.3 133.3 2249.7 119.7 2327.2 112.8C2404.7 106 2482.3 106 2560 96.7C2637.7 87.3 2715.3 68.7 2792.8 68.3C2870.3 68 2947.7 86 3025.2 98.8C3102.7 111.7 3180.3 119.3 3258 118.3C3335.7 117.3 3413.3 107.7 3491 100C3568.7 92.3 3646.3 86.7 3723.8 92.3C3801.3 98 3878.7 115 3956.2 113.5C4033.7 112 4111.3 92 4189 89.8C4266.7 87.7 4344.3 103.3 4422 102C4499.7 100.7 4577.3 82.3 4654.8 87C4732.3 91.7 4809.7 119.3 4887.2 133C4964.7 146.7 5042.3 146.3 5081.2 146.2L5120 146L5120 251L5081.2 251C5042.3 251 4964.7 251 4887.2 251C4809.7 251 4732.3 251 4654.8 251C4577.3 251 4499.7 251 4422 251C4344.3 251 4266.7 251 4189 251C4111.3 251 4033.7 251 3956.2 251C3878.7 251 3801.3 251 3723.8 251C3646.3 251 3568.7 251 3491 251C3413.3 251 3335.7 251 3258 251C3180.3 251 3102.7 251 3025.2 251C2947.7 251 2870.3 251 2792.8 251C2715.3 251 2637.7 251 2560 251C2482.3 251 2404.7 251 2327.2 251C2249.7 251 2172.3 251 2094.8 251C2017.3 251 1939.7 251 1862 251C1784.3 251 1706.7 251 1629 251C1551.3 251 1473.7 251 1396.2 251C1318.7 251 1241.3 251 1163.8 251C1086.3 251 1008.7 251 931 251C853.3 251 775.7 251 698 251C620.3 251 542.7 251 465.2 251C387.7 251 310.3 251 232.8 251C155.3 251 77.7 251 38.8 251L0 251Z" fill="#fafaf9"></path><path d="M0 174L38.8 160C77.7 146 155.3 118 232.8 118.8C310.3 119.7 387.7 149.3 465.2 151C542.7 152.7 620.3 126.3 698 128.5C775.7 130.7 853.3 161.3 931 163.7C1008.7 166 1086.3 140 1163.8 135C1241.3 130 1318.7 146 1396.2 159C1473.7 172 1551.3 182 1629 179.7C1706.7 177.3 1784.3 162.7 1862 153.7C1939.7 144.7 2017.3 141.3 2094.8 135C2172.3 128.7 2249.7 119.3 2327.2 112C2404.7 104.7 2482.3 99.3 2560 112.3C2637.7 125.3 2715.3 156.7 2792.8 167.2C2870.3 177.7 2947.7 167.3 3025.2 153.7C3102.7 140 3180.3 123 3258 114.2C3335.7 105.3 3413.3 104.7 3491 114.5C3568.7 124.3 3646.3 144.7 3723.8 151.8C3801.3 159 3878.7 153 3956.2 154C4033.7 155 4111.3 163 4189 161C4266.7 159 4344.3 147 4422 140C4499.7 133 4577.3 131 4654.8 126.7C4732.3 122.3 4809.7 115.7 4887.2 108.8C4964.7 102 5042.3 95 5081.2 91.5L5120 88L5120 251L5081.2 251C5042.3 251 4964.7 251 4887.2 251C4809.7 251 4732.3 251 4654.8 251C4577.3 251 4499.7 251 4422 251C4344.3 251 4266.7 251 4189 251C4111.3 251 4033.7 251 3956.2 251C3878.7 251 3801.3 251 3723.8 251C3646.3 251 3568.7 251 3491 251C3413.3 251 3335.7 251 3258 251C3180.3 251 3102.7 251 3025.2 251C2947.7 251 2870.3 251 2792.8 251C2715.3 251 2637.7 251 2560 251C2482.3 251 2404.7 251 2327.2 251C2249.7 251 2172.3 251 2094.8 251C2017.3 251 1939.7 251 1862 251C1784.3 251 1706.7 251 1629 251C1551.3 251 1473.7 251 1396.2 251C1318.7 251 1241.3 251 1163.8 251C1086.3 251 1008.7 251 931 251C853.3 251 775.7 251 698 251C620.3 251 542.7 251 465.2 251C387.7 251 310.3 251 232.8 251C155.3 251 77.7 251 38.8 251L0 251Z" fill="#f0efee"></path><path d="M0 159L38.8 167.7C77.7 176.3 155.3 193.7 232.8 192.8C310.3 192 387.7 173 465.2 165.8C542.7 158.7 620.3 163.3 698 175.2C775.7 187 853.3 206 931 215.2C1008.7 224.3 1086.3 223.7 1163.8 213.2C1241.3 202.7 1318.7 182.3 1396.2 170.3C1473.7 158.3 1551.3 154.7 1629 157.2C1706.7 159.7 1784.3 168.3 1862 168.3C1939.7 168.3 2017.3 159.7 2094.8 162.2C2172.3 164.7 2249.7 178.3 2327.2 190.2C2404.7 202 2482.3 212 2560 208.7C2637.7 205.3 2715.3 188.7 2792.8 181.5C2870.3 174.3 2947.7 176.7 3025.2 184.8C3102.7 193 3180.3 207 3258 214.3C3335.7 221.7 3413.3 222.3 3491 219.7C3568.7 217 3646.3 211 3723.8 197.7C3801.3 184.3 3878.7 163.7 3956.2 157C4033.7 150.3 4111.3 157.7 4189 160.3C4266.7 163 4344.3 161 4422 159.3C4499.7 157.7 4577.3 156.3 4654.8 161.2C4732.3 166 4809.7 177 4887.2 183.7C4964.7 190.3 5042.3 192.7 5081.2 193.8L5120 195L5120 251L5081.2 251C5042.3 251 4964.7 251 4887.2 251C4809.7 251 4732.3 251 4654.8 251C4577.3 251 4499.7 251 4422 251C4344.3 251 4266.7 251 4189 251C4111.3 251 4033.7 251 3956.2 251C3878.7 251 3801.3 251 3723.8 251C3646.3 251 3568.7 251 3491 251C3413.3 251 3335.7 251 3258 251C3180.3 251 3102.7 251 3025.2 251C2947.7 251 2870.3 251 2792.8 251C2715.3 251 2637.7 251 2560 251C2482.3 251 2404.7 251 2327.2 251C2249.7 251 2172.3 251 2094.8 251C2017.3 251 1939.7 251 1862 251C1784.3 251 1706.7 251 1629 251C1551.3 251 1473.7 251 1396.2 251C1318.7 251 1241.3 251 1163.8 251C1086.3 251 1008.7 251 931 251C853.3 251 775.7 251 698 251C620.3 251 542.7 251 465.2 251C387.7 251 310.3 251 232.8 251C155.3 251 77.7 251 38.8 251L0 251Z" fill="#e7e5e4"></path></svg>